<?xml version="1.0" standalone="no"?>
<!DOCTYPE svg PUBLIC "-//W3C//DTD SVG 1.1//EN" "http://www.w3.org/Graphics/SVG/1.1/DTD/svg11.dtd" >
<svg xmlns="http://www.w3.org/2000/svg" xmlns:xlink="http://www.w3.org/1999/xlink" version="1.1">
<metadata>
Created by FontForge 20160407 at Fri Oct  7 08:36:36 2016
 By Jimmy Warting
Copyright 1993, 2001 , 2002Adobe Systems Incorporated. All Rights Reserved. Giddyup is a trademark of Adobe Systems Incorporated which may be registered in certain jurisdictions.
</metadata>
<defs>
<font id="GiddyupStd" horiz-adv-x="432" >
  <font-face 
    font-family="Giddyup Std"
    font-weight="400"
    font-stretch="normal"
    units-per-em="1000"
    panose-1="0 0 5 0 0 0 0 0 0 0"
    ascent="663"
    descent="-337"
    x-height="338"
    cap-height="642"
    bbox="-184 -333 1067 844.089"
    underline-thickness="50"
    underline-position="-100"
    stemh="42"
    stemv="44"
    unicode-range="U+0020-FB02"
  />
<missing-glyph horiz-adv-x="500" 
d="M0 0v700h500v-700h-500zM250 395l170 255h-340zM280 350l170 -255v510zM80 50h340l-170 255zM50 605v-510l170 255z" />
    <glyph glyph-name="fi" unicode="fi" horiz-adv-x="450" 
d="M50 -201c36 0 54 41 73 125c22 97 30 215 36 306c-103 -86 -145 -265 -145 -359c0 -42 16 -72 36 -72zM363 -13c-13 0 -23 10 -23 23c0 12 13 159 39 274c-18 5 -34 5 -50 5c-29 0 -90 -10 -122 -31c-9 -133 -19 -258 -42 -350c-24 -95 -53 -152 -118 -152
c-41 0 -78 40 -78 115c0 114 56 327 193 413c10 145 17 190 44 254c24 55 73 96 129 96s85 -37 85 -77c0 -39 -29 -69 -45 -69c-9 0 -21 6 -21 16c0 9 2 19 12 26c4 3 9 12 9 27s-17 36 -45 36c-33 0 -62 -25 -83 -70c-24 -52 -32 -125 -39 -220c26 16 83 29 130 29
c27 0 50 -2 71 -6c14 -2 20 -9 20 -17c0 -1 0 -6 -2 -14c-17 -62 -36 -192 -42 -287c-1 -12 -10 -21 -22 -21z" />
    <glyph glyph-name="fl" unicode="fl" horiz-adv-x="450" 
d="M50 -201c36 0 54 41 73 125c22 97 30 215 37 317c-107 -92 -146 -266 -146 -365c0 -47 16 -77 36 -77zM47 -244c-41 0 -78 40 -78 120c0 119 53 327 194 418c9 136 15 179 45 242c29 60 93 98 156 98c60 0 112 -25 112 -87c0 -46 -13 -88 -32 -165
c-22 -90 -53 -234 -53 -314c0 -28 3 -37 4 -40c2 -3 3 -6 3 -10c0 -13 -10 -22 -22 -22c-28 0 -30 44 -30 72c0 78 26 209 49 301c22 90 35 142 35 175c0 34 -32 49 -71 49c-41 0 -85 -24 -110 -72c-27 -52 -34 -123 -40 -207c25 10 49 15 82 15c28 0 41 -6 41 -24
c0 -12 -10 -19 -20 -19c-9 0 -19 1 -21 1c-18 0 -52 -2 -83 -18c-10 -144 -20 -269 -43 -361c-24 -95 -53 -152 -118 -152z" />
    <glyph glyph-name=".notdef" horiz-adv-x="500" 
d="M0 0v700h500v-700h-500zM250 395l170 255h-340zM280 350l170 -255v510zM80 50h340l-170 255zM50 605v-510l170 255z" />
    <glyph glyph-name="space" unicode=" " horiz-adv-x="170" 
 />
    <glyph glyph-name="exclam" unicode="!" horiz-adv-x="278" 
d="M139 110c-12 0 -21 10 -21 21c0 5 1 9 2 12c13 22 15 46 15 70c0 41 -1 84 -6 129c-5 47 -6 94 -6 133c0 31 7 59 14 74c-18 23 -29 52 -29 86c0 20 0 46 24 46c13 0 20 -10 20 -21c0 -4 -2 -21 -2 -26c0 -13 2 -28 8 -42c12 21 39 42 76 42c35 0 61 -26 61 -59
c0 -39 -29 -67 -72 -67c-18 0 -34 4 -49 12c-5 -11 -6 -32 -6 -43c0 -34 0 -76 3 -120c3 -48 9 -97 9 -144c0 -34 -12 -103 -41 -103zM228 592c-17 0 -33 -10 -44 -30c8 -7 25 -11 39 -11c18 0 28 9 28 20s-9 21 -23 21zM107 9l5 32c2 12 14 20 28 18c15 -1 23 -13 21 -25
l-5 -32c-2 -11 -11 -19 -24 -19c-17 0 -27 13 -25 26z" />
    <glyph glyph-name="quotedbl" unicode="&#x22;" horiz-adv-x="230" 
d="M71 612c12 0 22 -10 22 -22c0 -14 0 -61 -3 -90c-2 -15 -11 -24 -26 -24c-13 0 -18 9 -16 23c1 7 1 49 1 91c0 12 10 22 22 22zM159 612c12 0 22 -10 22 -22c0 -14 0 -61 -3 -90c-2 -15 -11 -24 -26 -24c-13 0 -18 9 -16 23c1 7 1 49 1 91c0 12 10 22 22 22z" />
    <glyph glyph-name="numbersign" unicode="#" horiz-adv-x="480" 
d="M412 219l2 -40h-86l-25 -179h-45l26 179h-109l-25 -179h-44l25 179h-86l-3 40h95l17 122h-86l-2 40h93l25 179h45l-26 -179h109l25 179h45l-26 -179h79l3 -40h-88l-16 -122h78zM306 341h-108l-17 -122h109z" />
    <glyph glyph-name="dollar" unicode="$" horiz-adv-x="450" 
d="M210 -73c0 -12 -10 -22 -23 -22c-11 0 -21 10 -21 22c0 15 6 49 17 103c-91 5 -154 48 -154 110c0 57 57 117 141 117c71 0 81 -52 81 -84c0 -35 -5 -54 -14 -103c78 0 137 48 137 106c0 63 -38 96 -145 121c-98 23 -156 67 -156 141c0 61 56 145 177 146
c10 40 16 67 16 90c0 12 10 22 23 22c12 0 22 -7 22 -28c0 -18 -6 -46 -16 -87c66 -7 107 -57 107 -115c0 -45 -44 -88 -102 -87c-27 0 -74 13 -74 75c0 24 8 57 15 89c-86 -3 -123 -58 -123 -105c0 -74 92 -94 120 -100c80 -18 180 -47 180 -163c0 -70 -66 -146 -190 -147
c-9 -47 -18 -90 -18 -101zM192 70c11 59 14 68 14 100c0 23 -12 46 -39 46c-46 0 -94 -33 -94 -76c0 -42 59 -67 119 -70zM285 542c-7 -32 -14 -67 -14 -88c0 -14 5 -34 31 -34c33 0 55 21 55 46c0 38 -21 69 -72 76z" />
    <glyph glyph-name="percent" unicode="%" horiz-adv-x="772" 
d="M159 252c-69 0 -115 52 -115 144c0 31 6 63 19 94c4 8 11 13 20 13c12 0 22 -10 22 -22c0 -3 0 -7 -2 -9c-10 -24 -16 -52 -16 -76c0 -50 22 -103 75 -103c68 0 111 83 117 152c-16 -2 -33 -3 -49 -3c-60 0 -111 32 -111 78c0 40 33 80 98 80c54 0 96 -45 106 -107
c78 19 150 68 223 140c4 4 10 6 16 6c12 0 22 -10 22 -22c0 -4 -1 -7 -3 -11c-114 -191 -244 -481 -270 -644c-2 -10 -12 -19 -22 -19c-13 0 -20 11 -20 23c0 44 77 303 228 569c-55 -39 -107 -67 -174 -83c-4 -94 -66 -200 -164 -200zM533 241c0 48 37 99 97 99
c66 0 107 -57 107 -137c0 -106 -63 -211 -166 -211c-68 0 -114 58 -114 144c-1 31 6 64 18 90c4 9 11 14 20 14c12 0 22 -10 22 -23c0 -2 -1 -5 -2 -8c-10 -24 -15 -48 -15 -73c0 -52 24 -103 75 -103c73 0 118 85 118 170c0 41 -14 95 -63 95c-34 0 -54 -32 -54 -57
s11 -37 36 -44c10 -3 16 -12 16 -22c0 -11 -10 -21 -22 -21c-2 0 -73 9 -73 87zM278 486c-5 38 -26 74 -61 74c-34 0 -54 -16 -54 -38c0 -18 30 -39 67 -39c16 0 32 1 48 3z" />
    <glyph glyph-name="ampersand" unicode="&#x26;" horiz-adv-x="760" 
d="M715 482c20 -30 31 -64 31 -97c0 -55 -30 -104 -78 -134c10 -131 -92 -262 -309 -262c-192 0 -314 118 -314 266c0 119 61 188 128 223c-5 15 -7 31 -7 48c0 85 63 136 124 136c70 0 90 -49 90 -68c0 -12 -10 -22 -23 -22c-11 0 -19 8 -21 18c-4 21 -26 31 -46 31
c-39 0 -79 -32 -79 -95c0 -10 0 -21 2 -31c21 9 48 13 66 13c82 0 116 -40 116 -80c0 -46 -39 -69 -77 -69c-41 0 -98 20 -130 81c-73 -42 -98 -114 -98 -185c0 -127 107 -225 269 -225c182 0 265 103 266 201c-21 -8 -47 -12 -73 -12c-94 0 -156 46 -156 114
c0 49 45 89 102 89c69 0 136 -45 161 -124c39 32 43 72 43 88c0 26 -9 48 -22 69c-3 5 -5 9 -5 13c0 13 9 22 22 22c7 0 13 -3 18 -8zM351 428c0 20 -26 39 -72 39c-14 0 -37 -3 -54 -10c25 -42 68 -57 93 -57c14 0 33 8 33 28zM441 333c0 -50 56 -73 111 -73
c24 0 50 4 72 13c-18 68 -67 108 -125 108c-36 0 -58 -23 -58 -48z" />
    <glyph glyph-name="quoteright" unicode="&#x2019;" horiz-adv-x="80" 
d="M56 612c12 0 22 -10 22 -22c0 -21 0 -114 -37 -114c-13 0 -23 10 -23 23c0 3 1 8 4 12c8 11 12 37 12 79c0 12 10 22 22 22z" />
    <glyph glyph-name="parenleft" unicode="(" horiz-adv-x="243" 
d="M243 669c4 3 8 4 13 4c12 0 20 -8 20 -20c0 -7 -3 -15 -10 -19c-88 -56 -179 -179 -179 -401c0 -258 98 -362 147 -384c9 -4 14 -12 14 -21c0 -11 -7 -20 -19 -20c-22 0 -187 82 -187 424c0 235 105 373 201 437z" />
    <glyph glyph-name="parenright" unicode=")" horiz-adv-x="244" 
d="M26 673c81 -34 179 -154 179 -417c0 -346 -183 -449 -214 -449c-12 0 -20 9 -20 20c0 7 4 14 11 17c108 41 179 217 179 413c0 259 -96 351 -150 377c-8 4 -13 12 -13 21c0 12 8 20 20 20c3 0 6 0 8 -2z" />
    <glyph glyph-name="asterisk" unicode="*" horiz-adv-x="275" 
d="M86 670l60 -75l95 40l-73 -68l86 -58l-103 25l-42 -95l1 99l-95 6l97 35z" />
    <glyph glyph-name="plus" unicode="+" 
d="M195 223v162h42v-162h161v-42h-161v-161h-42v161h-161v42h161z" />
    <glyph glyph-name="comma" unicode="," horiz-adv-x="130" 
d="M73 60c16 0 25 -10 25 -22c0 -21 0 -114 -37 -114c-15 0 -25 10 -25 23c0 3 1 8 4 13c7 10 11 36 11 78c0 12 10 22 22 22z" />
    <glyph glyph-name="hyphen" unicode="-" horiz-adv-x="307" 
d="M171 216l-72 1c-17 0 -31 0 -39 -2c-14 -5 -26 6 -26 19c0 26 24 26 65 26l72 -1c29 0 58 1 72 5c2 1 4 2 7 2c12 0 22 -11 22 -22c0 -27 -52 -30 -101 -28z" />
    <glyph glyph-name="period" unicode="." horiz-adv-x="130" 
d="M46 11l4 34c2 12 14 20 29 18c14 -2 22 -13 21 -25l-5 -34c-2 -11 -12 -18 -25 -18c-16 0 -26 11 -24 25z" />
    <glyph glyph-name="slash" unicode="/" horiz-adv-x="328" 
d="M-19 -14v5c28 111 131 293 221 455c46 78 87 152 112 204c4 8 12 12 20 12c12 0 22 -10 22 -21c0 -15 -82 -160 -114 -217c-85 -151 -191 -339 -217 -444c-3 -12 -15 -19 -28 -16c-10 3 -16 12 -16 22z" />
    <glyph glyph-name="zero" unicode="0" horiz-adv-x="561" 
d="M334 605c123 0 195 -99 195 -247c0 -179 -89 -371 -269 -371c-142 0 -218 98 -218 259c0 70 19 139 33 163c5 8 12 12 22 12c11 0 20 -10 20 -22c0 -4 0 -8 -2 -10c-11 -12 -28 -78 -28 -143c0 -106 42 -219 175 -219c150 0 223 181 223 331c0 109 -46 206 -154 206
c-67 0 -124 -53 -124 -130c0 -50 35 -92 82 -92c7 0 24 -2 35 6c3 2 6 2 9 2c12 0 22 -9 22 -22c0 -26 -48 -30 -66 -30c-74 0 -127 60 -127 134c0 96 74 173 172 173z" />
    <glyph glyph-name="one" unicode="1" horiz-adv-x="392" 
d="M244 441c59 26 89 63 89 103c0 9 -6 17 -15 17c-32 0 -66 -52 -74 -120zM208 -14c-12 0 -20 5 -20 15s4 14 11 23s19 34 19 91c0 56 -12 135 -16 183c-2 27 -5 50 -5 80c-36 -17 -123 -41 -153 -41c-13 0 -19 8 -19 21c0 11 9 17 21 19c61 11 106 25 153 44
c5 98 56 182 123 182c35 0 56 -27 56 -57c0 -61 -44 -115 -136 -151c0 -6 -1 -14 -1 -19c0 -39 5 -82 11 -126c5 -43 10 -88 10 -132c0 -102 -25 -132 -54 -132z" />
    <glyph glyph-name="two" unicode="2" horiz-adv-x="537" 
d="M50 508l-16 -1c-11 -1 -21 8 -21 20c0 15 17 22 37 22c31 0 60 -7 82 -15c35 39 87 70 154 70c110 0 183 -87 183 -201s-81 -244 -176 -319c60 -46 106 -75 138 -75c46 0 66 26 66 61c0 16 -8 33 -18 41c-5 4 -6 10 -6 15s2 12 7 16c4 4 10 6 15 6c21 0 47 -40 47 -78
c0 -59 -38 -102 -111 -102c-50 0 -99 34 -172 87c-47 -36 -99 -61 -158 -61c-54 0 -88 24 -88 69c0 49 39 98 108 99c50 1 95 -23 139 -55c80 60 164 181 164 296c0 89 -53 160 -138 160c-44 0 -93 -19 -115 -48c48 -30 73 -80 73 -126c0 -53 -32 -94 -84 -94
c-46 0 -86 37 -86 104c0 35 9 67 28 99c-13 6 -37 11 -52 10zM58 69c0 -21 18 -34 45 -34c45 0 91 21 123 45c-29 22 -71 40 -103 40c-39 0 -65 -26 -65 -51zM161 336c25 0 38 24 38 53c0 40 -26 73 -57 94c-17 -27 -24 -56 -24 -84c0 -41 23 -63 43 -63z" />
    <glyph glyph-name="three" unicode="3" horiz-adv-x="523" 
d="M388 317c51 -37 78 -90 78 -151c0 -106 -81 -192 -233 -192c-145 0 -203 97 -203 171c0 25 0 74 33 74c11 0 21 -10 21 -23c0 -3 0 -6 -2 -10c-3 -7 -7 -18 -7 -37c0 -38 32 -136 160 -136c121 0 186 70 186 156c0 54 -26 92 -60 117c-37 -34 -85 -52 -128 -52
c-48 0 -85 27 -85 63c0 16 7 68 100 68c39 0 75 -10 107 -26c25 21 41 66 41 105c0 51 -27 120 -115 120c-6 0 -16 0 -21 -1c10 -15 18 -36 18 -59c0 -53 -40 -90 -80 -90c-39 0 -68 28 -68 70c0 35 25 70 57 91c-15 8 -31 14 -56 16c-5 0 -17 -1 -26 -1c-12 0 -23 3 -23 15
c0 24 27 24 49 24c29 0 71 -12 98 -33c16 4 38 7 54 7c111 0 157 -81 157 -159c0 -46 -23 -103 -52 -127zM235 504c0 16 -4 33 -15 48c-29 -15 -48 -45 -48 -68c0 -18 10 -31 27 -31c18 0 36 20 36 51zM193 297c0 -10 15 -21 40 -21c28 0 70 12 92 31c-21 10 -51 17 -77 17
s-55 -8 -55 -27z" />
    <glyph glyph-name="four" unicode="4" horiz-adv-x="642" 
d="M310 574l-19 -3c-12 -1 -22 9 -22 21c0 24 27 25 41 25c61 0 97 -51 97 -113c0 -82 -55 -172 -145 -255c54 -20 129 -48 163 -57c9 52 19 106 32 162c17 74 24 109 24 124c0 13 -1 23 -3 28c-1 3 -2 6 -2 9c0 12 10 22 22 22c27 0 27 -35 27 -54c0 -21 -9 -65 -13 -82
c-6 -27 -37 -178 -44 -219c21 -5 40 -7 60 -7c40 0 59 18 76 36c4 5 10 8 17 8c11 0 21 -9 21 -22c0 -15 -32 -64 -114 -64c-22 0 -45 2 -68 7c-7 -33 -12 -81 -12 -114c0 -16 1 -29 5 -35c2 -4 3 -7 3 -11c0 -12 -10 -22 -23 -22c-23 0 -30 28 -30 71c0 38 7 85 14 121
c-44 12 -89 29 -132 45c-20 8 -39 15 -59 22c-44 -37 -91 -64 -142 -64c-44 0 -73 27 -73 66c0 48 41 76 91 76c40 0 77 -14 116 -30c83 72 144 163 144 239c0 26 -10 68 -52 70zM57 219c0 -17 16 -25 30 -25c29 0 60 13 95 42c-29 12 -53 18 -78 18c-31 0 -47 -19 -47 -35z
" />
    <glyph glyph-name="five" unicode="5" horiz-adv-x="507" 
d="M461 619c11 0 17 -12 17 -21c0 -2 0 -4 -1 -6c-15 -59 -85 -57 -151 -57c-26 0 -133 10 -161 12c29 -29 42 -81 40 -132c9 1 25 3 39 3c156 0 222 -106 222 -206c0 -142 -118 -230 -255 -230c-134 0 -195 79 -195 133c0 13 9 23 22 23c10 0 18 -8 20 -18
c12 -67 80 -98 154 -98c108 0 209 68 209 189c0 87 -59 166 -181 166c-13 0 -25 -2 -37 -3c-11 -82 -53 -123 -92 -123c-33 0 -59 21 -59 55c0 46 48 86 111 100c9 91 -41 132 -53 139c-7 4 -11 11 -11 18c0 25 22 25 55 25c29 0 140 -13 172 -13c60 0 115 3 111 29
c4 12 12 15 24 15zM112 291c18 0 40 31 47 71c-41 -6 -63 -38 -63 -54c0 -10 5 -17 16 -17z" />
    <glyph glyph-name="six" unicode="6" horiz-adv-x="501" 
d="M304 355c102 0 170 -72 170 -181c0 -94 -76 -189 -202 -189c-128 0 -236 87 -236 251c0 130 51 207 101 265c56 65 154 109 233 109c21 0 41 -3 41 -23c0 -11 -11 -22 -23 -22c-4 0 -17 2 -22 2c-66 0 -146 -34 -198 -94c-41 -47 -87 -122 -87 -237
c0 -139 88 -210 192 -210c109 0 156 86 156 148c0 82 -47 140 -125 140c-54 0 -102 -44 -102 -102c0 -32 21 -53 51 -53c15 0 31 14 31 28c0 2 -4 13 -4 16c0 13 8 22 21 22c23 0 25 -31 25 -38c0 -39 -35 -69 -74 -69c-49 0 -95 35 -95 94c0 75 65 143 147 143z" />
    <glyph glyph-name="seven" unicode="7" horiz-adv-x="470" 
d="M183 548c-67 0 -120 -28 -120 -73c0 -24 20 -39 46 -39c61 0 109 40 130 109c-17 2 -39 3 -56 3zM152 -24c-13 0 -21 10 -21 23c0 154 142 376 306 538c-16 -4 -39 -6 -60 -6c-28 0 -56 4 -96 8c-32 -98 -99 -144 -176 -144c-51 0 -87 34 -87 77c0 67 59 117 165 117
c21 0 41 -2 62 -4c1 6 1 12 1 20c0 28 -18 70 -58 67l-12 -1c-13 -1 -23 5 -23 17c0 24 25 24 37 24c62 0 100 -50 100 -107c0 -9 -1 -17 -2 -26c21 -3 55 -8 79 -8c47 0 79 9 97 27c4 4 10 7 16 7c4 0 8 -2 12 -4c7 -4 10 -12 10 -19c0 -23 -48 -84 -61 -98
c-172 -187 -255 -337 -266 -488c-1 -12 -11 -20 -23 -20z" />
    <glyph glyph-name="eight" unicode="8" horiz-adv-x="524" 
d="M482 493c0 -69 -40 -145 -142 -173c111 -34 148 -106 148 -167c0 -106 -91 -171 -226 -171c-122 0 -227 55 -227 160c0 106 90 168 167 183c-54 15 -116 61 -116 132c0 74 67 144 171 144c69 0 109 -41 109 -93c0 -43 -33 -80 -89 -80c-36 0 -62 21 -62 40
c0 13 9 22 21 22c7 0 16 -4 20 -10s17 -11 23 -11c24 0 43 15 43 39c0 31 -28 53 -70 53c-79 0 -121 -54 -121 -104c0 -55 51 -97 137 -120c10 3 23 3 33 6c112 29 137 93 137 150c0 42 -21 88 -71 111c-10 5 -18 10 -18 20c0 12 8 18 20 18c35 0 113 -55 113 -149zM262 21
c96 0 181 43 181 132c0 106 -122 137 -182 148c-101 -11 -181 -69 -181 -155c0 -82 92 -125 182 -125z" />
    <glyph glyph-name="nine" unicode="9" horiz-adv-x="517" 
d="M255 601c137 0 225 -105 225 -243c0 -204 -136 -362 -342 -362c-42 0 -62 -1 -62 23c0 13 11 20 22 20c4 0 35 -2 42 -2c177 0 296 140 296 321c0 113 -69 203 -181 203c-120 0 -173 -84 -173 -160c0 -79 60 -129 129 -129c73 0 112 42 112 103c0 18 -14 47 -36 50
c-9 1 -16 13 -16 22c0 12 10 22 22 22c31 -1 74 -39 74 -93c0 -83 -59 -145 -156 -145c-94 0 -173 66 -173 170c0 100 73 200 217 200z" />
    <glyph glyph-name="colon" unicode=":" horiz-adv-x="130" 
d="M46 9l5 32c2 12 14 21 29 18c14 -1 22 -12 21 -25l-6 -32c-2 -11 -11 -19 -24 -19c-17 0 -27 13 -25 26zM46 218l5 34c2 11 11 19 25 19c15 0 26 -12 25 -25l-6 -34c-2 -12 -12 -21 -27 -19c-16 1 -24 13 -22 25z" />
    <glyph glyph-name="semicolon" unicode=";" horiz-adv-x="130" 
d="M52 219l6 32c1 12 12 21 28 18c13 -2 22 -13 21 -25l-6 -32c-2 -11 -12 -19 -24 -19c-17 0 -27 12 -25 26zM75 63c14 0 25 -11 25 -23c0 -20 0 -113 -38 -113c-15 0 -25 10 -25 23c0 3 1 8 3 11c8 12 12 38 12 79c0 12 10 23 23 23z" />
    <glyph glyph-name="less" unicode="&#x3c;" 
d="M399 59v-44l-366 166v42l366 167v-44l-314 -144z" />
    <glyph glyph-name="equal" unicode="=" 
d="M398 295v-42h-364v42h364zM398 152v-42h-364v42h364z" />
    <glyph glyph-name="greater" unicode="&#x3e;" 
d="M33 59l314 143l-314 144v44l366 -167v-42l-366 -166v44z" />
    <glyph glyph-name="question" unicode="?" horiz-adv-x="425" 
d="M217 108c-22 0 -49 45 -49 88c0 61 43 100 101 142c51 37 99 81 99 162c0 57 -45 103 -124 103c-10 0 -24 -1 -36 -4c32 -19 48 -52 48 -91c0 -56 -40 -90 -80 -90c-39 0 -82 29 -82 90c0 25 9 55 31 76c-34 2 -60 -19 -67 -31c-6 -10 -11 -16 -20 -16
c-13 0 -23 8 -23 21c0 26 47 66 114 66c8 0 20 0 32 -4c12 7 25 12 40 16c14 5 31 7 48 7c53 0 96 -16 125 -45c26 -26 39 -60 39 -99c0 -100 -62 -154 -127 -201c-43 -31 -74 -60 -74 -102c0 -26 15 -45 20 -49c4 -5 7 -11 7 -17c0 -12 -10 -22 -22 -22zM185 14l5 31
c2 13 14 21 29 19c14 -2 22 -14 21 -25l-6 -33c-2 -10 -11 -19 -23 -19c-18 0 -28 13 -26 27zM212 508c0 31 -16 58 -42 72c-20 -17 -32 -43 -32 -72c0 -37 22 -49 40 -49c16 0 34 16 34 49z" />
    <glyph glyph-name="at" unicode="@" horiz-adv-x="576" 
d="M482 188l26 -23c-41 -57 -118 -104 -206 -104c-149 0 -262 119 -262 264c0 143 118 258 259 258c131 0 237 -90 237 -202c0 -114 -90 -200 -161 -200c-24 0 -45 16 -47 47l-2 -1c-22 -23 -53 -46 -90 -46c-58 0 -96 47 -96 100c0 90 67 195 168 195c30 0 58 -19 75 -59
l17 42h41l-58 -186c-9 -27 -12 -56 9 -56c55 0 106 89 106 150c0 112 -94 180 -197 180c-127 0 -221 -103 -221 -227c0 -123 99 -223 222 -223c69 0 139 35 180 91zM306 435c-70 0 -118 -93 -118 -144c0 -43 26 -70 60 -70c65 0 114 94 114 147c0 33 -27 67 -56 67z" />
    <glyph glyph-name="A" unicode="A" horiz-adv-x="662" 
d="M491 364c93 -53 141 -139 141 -228c0 -107 -60 -152 -113 -152c-21 0 -41 7 -54 21c-24 25 -35 67 -35 136c0 34 6 104 15 200c-46 22 -101 33 -160 33c-30 0 -58 -3 -84 -7c-17 -59 -27 -125 -30 -178c67 -2 132 29 132 82c0 13 8 22 21 22c12 0 22 -9 22 -22
c0 -75 -80 -125 -176 -123c0 -58 9 -101 22 -119c4 -4 6 -9 6 -14c0 -12 -10 -22 -23 -22c-28 0 -50 60 -49 160c-73 15 -106 58 -106 108c0 66 57 116 146 140c40 127 108 239 206 239c33 0 59 -10 78 -30c31 -30 45 -84 45 -167c0 -25 -1 -51 -4 -79zM474 141
c0 -65 9 -117 47 -117c41 0 67 50 67 112c0 77 -41 142 -100 182c-6 -58 -14 -137 -14 -177zM372 599c-67 0 -119 -85 -155 -188c21 3 44 5 68 5c59 0 114 -11 163 -31c2 20 3 40 3 59c0 69 -11 115 -33 137c-11 11 -26 18 -46 18zM154 354c-46 -17 -89 -49 -89 -93
c0 -30 16 -54 62 -67c2 45 13 108 27 160z" />
    <glyph glyph-name="B" unicode="B" horiz-adv-x="562" 
d="M391 319c109 -17 141 -102 141 -158c0 -122 -101 -183 -216 -183c-119 0 -215 63 -215 215c0 73 18 149 37 223c-64 13 -98 50 -98 95c0 50 42 96 121 112c-1 26 -6 56 -20 71c-5 5 -6 10 -6 16c0 12 9 22 22 22c20 0 44 -35 49 -103c76 4 293 -11 293 -181
c0 -45 -28 -102 -108 -129zM316 15c82 0 171 47 171 146c0 86 -77 140 -214 130c-12 -1 -22 7 -22 20c0 12 10 22 22 22c143 2 182 72 182 115c0 35 -11 61 -32 81c-39 39 -123 66 -216 61c-1 -42 -9 -89 -19 -140c26 0 73 14 73 55c0 2 -2 12 -2 15c0 11 8 21 21 21
c23 0 23 -24 23 -36c0 -52 -43 -96 -123 -95c-20 -79 -34 -147 -34 -215c0 -135 89 -180 170 -180zM85 511c0 -34 31 -51 58 -57c9 42 18 92 20 129c-54 -12 -78 -44 -78 -72z" />
    <glyph glyph-name="C" unicode="C" horiz-adv-x="601" 
d="M368 396c-40 39 -61 99 -61 164c0 9 1 18 2 26c-140 -26 -226 -158 -226 -299c0 -143 84 -258 236 -258c89 0 158 33 197 90c4 6 12 10 19 10c11 0 21 -10 21 -23c0 -16 -69 -120 -237 -120c-177 0 -280 130 -280 301c0 175 114 326 282 343c26 63 83 98 145 98
c21 0 57 -2 57 -27c0 -13 -10 -20 -22 -20c-5 0 -29 4 -35 4c-36 0 -72 -14 -94 -54c128 -7 200 -91 200 -177c0 -56 -36 -104 -104 -104c-35 0 -71 17 -100 46zM468 393c53 0 58 43 58 61c0 68 -62 133 -171 136c-2 -9 -3 -19 -3 -30c0 -109 69 -167 116 -167z" />
    <glyph glyph-name="D" unicode="D" horiz-adv-x="602" 
d="M273 -14c-119 0 -131 132 -131 233c0 37 3 76 7 98c-73 15 -119 62 -119 134c0 104 108 184 253 184c227 0 302 -134 302 -269c0 -168 -124 -380 -312 -380zM274 26c161 0 266 200 266 340c0 87 -37 228 -261 228c-123 0 -204 -69 -204 -143c0 -60 41 -85 78 -93
c10 71 23 130 31 158c2 10 12 16 21 16c12 0 22 -10 22 -22c0 -2 0 -5 -1 -7c-7 -26 -19 -84 -28 -149c72 3 113 33 115 67c1 11 11 20 23 20s22 -10 22 -22c0 -39 -43 -104 -165 -106c-4 -20 -7 -58 -7 -94c0 -115 19 -193 88 -193z" />
    <glyph glyph-name="E" unicode="E" horiz-adv-x="523" 
d="M302 177c98 0 183 -44 183 -114c0 -38 -28 -90 -139 -90c-91 0 -185 29 -239 94c-21 -21 -33 -50 -35 -80c-1 -12 -10 -21 -22 -21s-22 10 -22 22c0 44 23 89 54 118c-13 29 -22 60 -22 96c0 72 32 135 82 175c-6 17 -10 37 -10 57c0 57 27 115 75 153
c-12 21 -19 45 -19 68c0 13 10 23 23 23c11 0 21 -10 21 -23c0 -17 5 -33 12 -47c14 7 29 12 45 15c16 4 34 6 52 6c79 0 124 -36 124 -81c0 -38 -32 -66 -78 -66c-49 0 -112 26 -155 71c-38 -31 -55 -77 -55 -119c0 -11 1 -21 4 -31c32 17 73 27 113 27
c89 0 154 -39 154 -95c0 -19 -8 -82 -112 -82c-80 0 -142 34 -175 84c-38 -35 -56 -81 -56 -135c0 -25 6 -49 14 -70c47 28 108 45 183 45zM440 63c0 41 -67 73 -138 73c-67 0 -125 -18 -162 -42c43 -52 123 -81 206 -81c59 0 94 22 94 50zM404 334c0 28 -47 54 -111 54
c-34 0 -79 -10 -98 -26c26 -37 76 -68 140 -68c46 0 69 15 69 40zM341 588c-24 0 -55 -6 -72 -14c32 -30 82 -52 118 -52c16 0 34 9 34 26c0 24 -34 40 -80 40z" />
    <glyph glyph-name="F" unicode="F" horiz-adv-x="559" 
d="M137 459l14 1c12 3 23 -7 23 -20c0 -22 -27 -24 -41 -24c-56 0 -103 45 -103 98c0 68 65 119 155 119c69 0 121 -21 167 -44c37 26 84 44 151 44c72 0 113 -40 113 -80c0 -44 -37 -74 -91 -74c-63 0 -105 24 -169 58c-28 -28 -43 -70 -43 -116c0 -21 4 -39 8 -61
c24 8 49 13 75 13c93 0 130 -47 130 -63c0 -13 -10 -22 -22 -22c-7 0 -14 3 -18 9c-15 21 -47 34 -90 34c-24 0 -45 -5 -65 -12c5 -27 9 -57 9 -93c0 -212 -82 -240 -127 -240c-51 0 -89 32 -89 105c0 85 59 198 156 251c-6 26 -11 51 -11 79c0 48 16 98 49 138
c-37 17 -80 33 -133 33c-62 0 -110 -33 -110 -78c0 -33 30 -57 62 -55zM502 591c-42 0 -86 -11 -110 -25c43 -23 85 -46 133 -46c26 0 46 12 46 32c0 17 -22 39 -69 39zM296 226c0 27 -4 53 -7 74c-75 -48 -120 -143 -120 -209c0 -53 23 -64 44 -64c67 0 83 116 83 199z" />
    <glyph glyph-name="G" unicode="G" horiz-adv-x="730" 
d="M680 257c20 -19 31 -49 31 -82c0 -19 -5 -67 -31 -67c-12 0 -20 11 -20 22c0 3 0 6 1 9c5 12 7 24 7 36c0 19 -6 64 -55 64c-13 0 -25 -2 -38 -7c6 -18 9 -37 9 -56c0 -78 -70 -186 -219 -186c-182 0 -325 140 -325 320c0 185 136 321 323 321c15 0 34 -2 49 -5
c17 65 56 77 63 77c12 0 22 -10 22 -23c0 -10 -6 -17 -15 -20c-11 -4 -23 -20 -30 -44c97 -33 147 -111 147 -167c0 -39 -24 -71 -67 -71c-71 0 -132 95 -132 185c0 7 0 13 1 23c-12 2 -25 3 -38 3c-169 0 -277 -126 -277 -279c0 -155 122 -279 279 -279
c109 0 195 80 170 182c-29 -16 -63 -32 -110 -32c-84 0 -133 37 -133 87c0 38 33 78 105 78c57 0 121 -19 159 -76c17 7 36 13 57 13c27 0 50 -9 67 -26zM336 268c0 -28 42 -45 89 -45c37 0 66 15 92 28c-31 41 -81 53 -120 53c-41 0 -61 -20 -61 -36zM533 420
c13 0 21 8 21 29c0 35 -37 98 -109 126c-8 -86 50 -155 88 -155z" />
    <glyph glyph-name="H" unicode="H" horiz-adv-x="775" 
d="M371 322l47 16c34 12 82 27 131 50c18 129 79 233 155 233c50 0 72 -35 72 -75c0 -78 -89 -139 -185 -186c-4 -28 -6 -58 -6 -88c0 -73 28 -273 183 -296c12 -2 22 -6 22 -17c0 -13 -10 -23 -22 -23c-108 0 -227 123 -227 337c0 23 1 48 3 69c-41 -16 -79 -30 -112 -42
l-46 -17c-15 -5 -30 -10 -45 -16c-35 -170 -117 -306 -231 -306c-48 0 -90 33 -90 91c0 132 142 196 282 246c8 49 13 105 13 160s-11 94 -38 116c-14 -86 -79 -152 -151 -152c-43 0 -76 29 -76 77c0 63 68 143 183 135c-5 24 -16 45 -33 56c-5 5 -9 12 -9 19
c0 12 10 22 23 22c17 0 58 -36 64 -109c64 -27 82 -95 82 -164c0 -48 -4 -98 -10 -143c7 2 14 5 21 7zM702 578c-38 -2 -82 -51 -104 -166c74 39 134 89 134 134c0 21 -9 33 -30 32zM128 465c67 0 100 67 108 125c-5 1 -10 2 -17 2c-88 0 -124 -62 -124 -93
c0 -20 15 -34 33 -34zM110 0c78 0 147 108 182 251c-120 -44 -227 -101 -227 -199c0 -32 19 -52 45 -52z" />
    <glyph glyph-name="I" unicode="I" horiz-adv-x="441" 
d="M294 16c39 0 72 13 72 42c0 32 -49 54 -106 54c-16 0 -39 -4 -57 -8c4 -51 38 -88 91 -88zM234 523c-8 33 -27 71 -83 71c-31 0 -54 -12 -54 -32c0 -27 38 -43 87 -43c13 0 31 1 50 4zM184 478c-95 0 -132 41 -132 84c0 42 44 73 99 73c54 0 108 -28 127 -101
c48 12 88 39 93 88c1 11 11 20 22 20c14 0 23 -12 22 -25c-3 -39 -27 -100 -131 -125c5 -74 -19 -136 -41 -199c-16 -44 -37 -102 -40 -147c17 3 36 6 53 6c108 0 155 -46 155 -95c0 -47 -42 -82 -118 -82c-74 0 -127 47 -135 117c-54 -15 -107 -59 -116 -112
c-2 -11 -11 -18 -21 -18c-13 0 -21 10 -21 22c0 20 29 117 157 151c0 52 25 122 43 174c23 61 43 114 40 174c-17 -3 -36 -5 -56 -5z" />
    <glyph glyph-name="J" unicode="J" horiz-adv-x="521" 
d="M160 80l1 8c1 12 -9 27 -30 27c-38 0 -67 -39 -67 -88c0 -66 60 -115 132 -115c108 0 190 76 190 211c0 111 -10 141 -10 245c0 50 9 95 27 124c-33 14 -73 32 -97 43c-50 23 -94 45 -149 45c-54 0 -77 -29 -77 -65c0 -14 6 -28 18 -38c4 -4 7 -11 7 -17
c0 -12 -10 -22 -21 -22c-20 0 -48 37 -48 77c0 53 41 106 121 106c58 0 113 -22 168 -49c27 -13 59 -26 96 -42c23 42 60 74 108 74c44 0 62 -23 62 -57c0 -42 -40 -71 -99 -71c-15 0 -33 2 -47 5c-17 -29 -24 -71 -24 -115c0 -93 10 -128 10 -239
c0 -144 -84 -256 -233 -256c-106 0 -178 68 -178 154c0 76 50 130 114 130c51 0 72 -33 72 -67c0 -5 -1 -31 -23 -31c-13 0 -23 11 -23 23zM526 564c-24 0 -46 -19 -61 -45c9 -1 18 -3 27 -3c35 0 54 11 54 30c0 11 -8 18 -20 18z" />
    <glyph glyph-name="K" unicode="K" horiz-adv-x="710" 
d="M158 -15c0 9 6 15 15 18c51 21 74 76 80 224c-64 11 -80 49 -80 80c0 38 37 70 81 81c1 28 2 52 3 73c-19 -3 -39 -4 -60 -4c-124 0 -167 85 -167 137c0 13 10 22 22 22s21 -8 22 -20c3 -59 51 -99 123 -99c23 0 44 2 64 6c15 128 69 174 121 174c43 0 66 -33 66 -69
c0 -57 -56 -112 -147 -137c-2 -24 -3 -55 -3 -80c42 -4 77 -25 113 -57c44 42 83 101 116 144c26 34 45 55 61 73c21 23 57 48 88 48c12 0 22 -9 22 -21c0 -13 -10 -21 -22 -21s-37 -17 -56 -37c-14 -15 -37 -39 -58 -68c-34 -47 -77 -103 -122 -148c9 -10 34 -44 41 -56
c74 -118 182 -310 291 -310c18 0 28 3 35 3c9 0 18 -2 18 -14c0 -30 -31 -32 -54 -32c-133 0 -247 203 -328 329l-15 25c-7 9 -13 19 -19 27c-35 -28 -72 -49 -112 -52c-6 -130 -21 -234 -107 -258c-3 -1 -5 -2 -9 -2c-11 0 -23 9 -23 21zM217 307c0 -23 13 -35 35 -39
c0 10 1 66 1 77c-20 -5 -36 -23 -36 -38zM298 350l-1 -34c0 -15 -1 -36 -1 -51c27 1 60 18 86 40c-24 26 -56 42 -84 45zM381 637c-33 0 -63 -45 -76 -122c59 21 99 60 99 93c0 16 -7 29 -23 29z" />
    <glyph glyph-name="L" unicode="L" horiz-adv-x="563" 
d="M341 455c88 35 152 105 152 163c0 18 -11 32 -29 32c-34 0 -98 -45 -123 -195zM104 0c81 0 138 76 167 216c-155 0 -226 -88 -226 -156c0 -38 29 -60 59 -60zM295 441c15 142 85 254 177 254c37 0 67 -27 67 -76c0 -91 -93 -172 -203 -211c-3 -40 -11 -128 -15 -152
c164 -23 208 -133 208 -210c0 -93 -74 -144 -89 -144c-13 0 -23 10 -23 22c0 8 4 14 10 18c41 27 58 64 58 105c0 60 -31 148 -171 167c-35 -169 -105 -256 -211 -256c-56 0 -103 39 -103 102c0 84 85 202 277 199c5 33 6 44 13 137c-19 -3 -39 -5 -59 -5
c-92 0 -159 47 -159 134c0 12 9 22 22 22c12 0 21 -10 21 -22c0 -75 71 -91 116 -91c22 0 43 2 64 7z" />
    <glyph glyph-name="M" unicode="M" horiz-adv-x="895" 
d="M111 714h5c71 -12 111 -67 134 -136c39 29 82 48 129 48c104 0 145 -88 154 -122c45 55 105 104 171 104c36 0 68 -12 93 -38c50 -52 62 -134 62 -207c0 -133 -39 -282 -92 -359c-4 -6 -12 -9 -19 -9c-12 0 -21 9 -21 22c0 5 1 9 3 13c48 68 84 209 84 333
c0 90 -23 204 -112 204c-71 0 -138 -93 -153 -114c10 -32 16 -79 16 -130c0 -159 -47 -333 -137 -333c-16 0 -30 6 -41 15c-16 17 -24 45 -24 88c0 102 57 261 138 369c-8 36 -23 65 -44 88c-21 21 -48 34 -81 34c-40 0 -79 -20 -114 -53c12 -51 16 -119 16 -177
c0 -189 -64 -368 -167 -368c-51 0 -91 43 -91 130c0 122 79 327 193 429c-20 75 -55 116 -106 126c-10 2 -19 10 -19 21c0 13 11 22 23 22zM233 354c0 56 -4 103 -9 146c-91 -106 -160 -273 -160 -384c0 -13 1 -89 48 -89c65 0 121 155 121 327zM520 313c0 33 -1 63 -6 96
c-64 -108 -107 -234 -107 -316c0 -14 2 -63 22 -63c42 0 89 124 91 283z" />
    <glyph glyph-name="N" unicode="N" horiz-adv-x="710" 
d="M297 329c0 19 -1 45 -2 63c-77 -100 -129 -245 -130 -325c0 -21 10 -44 33 -44c48 0 99 125 99 306zM633 397c0 106 -33 175 -102 175c-65 0 -135 -57 -196 -133c4 -34 6 -71 6 -110c0 -184 -53 -348 -146 -348c-43 0 -75 34 -75 86c0 99 70 270 168 383
c-5 50 -13 82 -25 116c-15 -7 -53 -17 -85 -17c-102 0 -178 51 -178 120c0 53 47 93 109 93c72 0 137 -47 178 -133c32 26 52 65 52 105c0 23 -6 45 -20 67c-3 3 -3 7 -3 11c0 13 9 23 22 23c27 0 46 -66 46 -101c0 -57 -31 -110 -81 -146c10 -28 18 -62 24 -95
c63 69 134 120 205 120s146 -43 146 -216c0 -124 -48 -272 -126 -399c-4 -6 -12 -11 -19 -11c-12 0 -22 10 -22 23c0 4 1 8 3 12c74 120 119 265 119 375zM46 669c0 -43 57 -79 132 -79c25 0 54 7 73 14c-38 79 -90 117 -142 117c-37 0 -63 -16 -63 -52z" />
    <glyph glyph-name="O" unicode="O" horiz-adv-x="660" 
d="M621 640v5c0 10 7 19 17 22c33 9 34 -51 34 -71c0 -54 -25 -106 -66 -141c15 -36 21 -79 21 -126c0 -193 -136 -334 -306 -334c-163 0 -280 112 -280 298c0 80 29 181 79 228c5 4 10 6 16 6c12 0 22 -9 22 -22c0 -5 -2 -11 -6 -15c-39 -36 -66 -118 -66 -197
c0 -161 99 -257 237 -257c146 0 259 132 259 293c0 38 -4 68 -14 101c-29 -19 -88 -32 -136 -32c-121 0 -231 56 -231 143c0 56 55 98 139 98c93 0 186 -43 247 -144c30 31 41 67 41 100c0 14 -2 30 -7 45zM552 469c-51 87 -133 129 -212 129c-67 0 -95 -28 -95 -60
c0 -52 87 -99 191 -99c41 0 91 13 116 30z" />
    <glyph glyph-name="P" unicode="P" horiz-adv-x="519" 
d="M367 630c112 0 189 -75 189 -175c0 -116 -110 -179 -179 -179c-13 0 -22 10 -22 23c0 11 9 19 21 20c57 3 136 53 136 136c0 78 -61 133 -145 133c-45 0 -86 -11 -122 -32c41 -77 58 -180 58 -280c0 -183 -57 -288 -143 -288c-74 0 -124 67 -124 212
c0 127 46 278 151 368c-29 36 -70 62 -119 62c-12 0 -22 8 -22 20s11 22 22 22c61 0 116 -31 152 -80c44 25 93 38 147 38zM258 267c1 94 -13 194 -50 264c-93 -84 -128 -231 -128 -331c0 -87 25 -173 81 -173c52 0 95 93 97 240z" />
    <glyph glyph-name="Q" unicode="Q" horiz-adv-x="665" 
d="M665 -105c-56 0 -131 29 -228 134c-41 -20 -84 -30 -128 -30c-111 0 -193 62 -193 138c0 58 47 93 109 93c101 0 176 -91 224 -148c72 46 131 139 131 252c0 152 -97 260 -227 260c-184 0 -267 -163 -267 -290c0 -44 7 -72 16 -86c3 -5 4 -9 4 -14c0 -13 -10 -21 -22 -21
c-32 0 -43 63 -43 121c0 164 112 330 312 330c155 0 272 -123 272 -300c0 -116 -60 -223 -150 -283c51 -57 125 -114 189 -114c21 0 42 2 62 15c3 2 7 4 11 4c12 0 22 -6 22 -19c0 -27 -61 -42 -94 -42zM160 136c0 -47 63 -98 149 -98c33 0 71 9 101 23
c-37 49 -113 127 -186 127c-41 0 -64 -25 -64 -52z" />
    <glyph glyph-name="R" unicode="R" horiz-adv-x="632" 
d="M601 17c8 -5 14 -12 14 -21c0 -12 -10 -22 -22 -22c-33 0 -68 69 -83 103c-29 67 -73 160 -208 178c-11 1 -19 11 -19 22c0 13 9 23 21 23c107 0 222 34 222 126c0 118 -150 181 -288 181c-86 0 -142 -32 -142 -78c0 -27 17 -43 30 -53c36 45 93 68 166 68
s125 -34 125 -79c0 -42 -52 -73 -148 -73c-37 0 -85 7 -127 25c-15 -33 -23 -76 -23 -130c0 -117 14 -212 39 -267c2 -4 3 -7 3 -10c0 -12 -10 -22 -22 -22c-9 0 -17 5 -21 13c-29 62 -44 161 -44 286c0 61 10 112 29 151c-42 30 -52 65 -52 91c0 58 50 119 187 119
c175 0 333 -82 333 -222c0 -79 -67 -144 -170 -156c91 -43 124 -122 149 -174c15 -32 28 -65 51 -79zM292 500c-80 0 -114 -32 -128 -46c30 -11 69 -20 105 -20c72 0 103 17 103 31c0 20 -30 35 -80 35z" />
    <glyph glyph-name="S" unicode="S" horiz-adv-x="579" 
d="M331 378c96 -34 214 -76 214 -209c0 -67 -40 -128 -120 -161c-23 -100 -99 -146 -117 -146c-13 0 -23 8 -23 20c0 9 5 17 14 21c31 13 61 45 77 89c-15 -3 -32 -6 -50 -8s-37 -3 -58 -3c-128 0 -235 62 -235 157c0 75 73 134 167 134c130 0 227 -91 230 -215
c45 23 71 66 71 112c0 95 -75 132 -184 169c-90 31 -179 62 -179 159c0 75 68 150 200 150c24 0 46 -4 65 -9c28 23 65 37 107 37c13 0 23 -9 23 -22c0 -11 -11 -18 -24 -18c-22 0 -43 -6 -62 -18c7 -5 14 -10 19 -15c32 -31 37 -62 37 -86c0 -36 -27 -71 -67 -71
c-44 0 -82 37 -82 91c0 23 7 49 19 67c-11 2 -25 4 -36 4c-103 0 -154 -57 -154 -110c0 -61 56 -86 148 -119zM459 516c0 16 -3 49 -45 75c-10 -15 -16 -33 -16 -55c0 -28 18 -50 38 -50c15 0 23 14 23 30zM200 230c-66 0 -123 -39 -123 -93c0 -66 84 -116 191 -116
c44 0 85 5 119 16c6 107 -63 193 -187 193z" />
    <glyph glyph-name="T" unicode="T" horiz-adv-x="659" 
d="M63 445c-26 21 -41 52 -41 83c0 61 49 122 156 122c90 0 163 -37 246 -83c38 23 89 35 153 35c113 0 148 -46 148 -83c0 -40 -37 -70 -96 -70c-69 0 -140 34 -202 68c-37 -34 -45 -88 -45 -138c0 -27 4 -65 10 -102c5 -40 11 -80 11 -114c0 -46 0 -173 -119 -173
c-12 0 -34 -2 -34 22c0 21 19 21 34 21c59 0 75 50 75 130c0 31 -7 70 -11 108c-6 38 -11 78 -11 108c0 68 18 122 51 158c-79 45 -142 72 -210 72c-73 0 -111 -37 -111 -81c0 -33 31 -67 71 -67c4 0 21 3 24 3c12 0 23 -7 23 -19c0 -24 -29 -26 -47 -26c-27 0 -53 9 -75 26
zM680 518c0 20 -28 42 -103 42c-42 0 -81 -6 -109 -18c51 -30 111 -52 161 -52c25 0 51 10 51 28z" />
    <glyph glyph-name="U" unicode="U" horiz-adv-x="725" 
d="M84 562c0 -35 46 -56 89 -56c9 0 20 2 27 3c-13 54 -43 89 -76 89c-21 0 -40 -14 -40 -36zM358 27c56 0 110 40 156 98c-10 50 -15 105 -15 149c0 162 43 351 134 351c27 0 72 -17 72 -111c0 -106 -58 -279 -145 -398c21 -76 46 -112 93 -112c3 0 18 1 21 1
c12 0 22 -4 22 -17c0 -21 -22 -24 -39 -24c-55 0 -104 26 -130 112c-49 -54 -108 -90 -169 -90c-105 0 -157 86 -157 224c0 33 5 195 4 232c0 9 0 17 -1 25c-10 -2 -20 -3 -31 -3c-70 0 -133 36 -133 98c0 44 37 79 85 79c49 0 99 -40 116 -118c44 22 71 69 71 121
c0 25 -5 52 -13 62c-3 4 -5 9 -5 14c0 13 9 22 22 22c30 0 41 -63 41 -98c0 -73 -45 -136 -109 -164c1 -12 2 -25 2 -38c1 -33 -5 -195 -5 -232c0 -131 48 -183 113 -183zM660 514c0 39 -6 69 -27 69c-38 0 -91 -125 -90 -319c0 -30 1 -70 5 -97c73 122 112 260 112 347z
" />
    <glyph glyph-name="V" unicode="V" horiz-adv-x="687" 
d="M536 617c99 0 150 -66 150 -157c0 -112 -141 -472 -289 -472c-102 0 -102 138 -102 246c0 68 0 159 -28 227c-28 -21 -66 -31 -106 -31c-80 0 -141 52 -141 111c0 54 42 92 103 92c93 0 142 -66 159 -98c14 24 19 56 19 84c0 52 -36 91 -72 100c-10 3 -17 12 -17 22
c0 13 10 22 22 22c24 0 113 -45 113 -144c0 -48 -15 -92 -45 -128c37 -75 37 -183 37 -256c0 -129 10 -206 61 -206c102 0 241 316 241 431c0 49 -16 114 -105 114c-12 0 -22 8 -22 20c0 13 10 23 22 23zM64 541c0 -32 42 -69 97 -69c37 0 70 12 91 28
c-18 36 -58 92 -129 92c-33 0 -59 -20 -59 -51z" />
    <glyph glyph-name="W" unicode="W" horiz-adv-x="870" 
d="M872 564c0 -29 -19 -60 -78 -75c23 -54 37 -116 37 -176c0 -193 -110 -326 -259 -326c-62 0 -121 29 -156 91c-51 -51 -108 -78 -166 -78c-108 0 -166 78 -166 205c0 57 16 119 40 177c-55 17 -100 63 -100 129c0 17 0 45 24 45c12 0 21 -10 21 -22c0 -3 -2 -19 -2 -23
c0 -53 39 -82 76 -91c54 99 137 178 226 178c38 0 66 -26 66 -63c0 -67 -146 -160 -267 -160c-26 -56 -39 -117 -39 -170c0 -59 14 -104 40 -131c20 -20 47 -34 81 -34c56 0 106 35 145 77c-18 45 -28 100 -28 162c0 77 35 187 110 187c28 0 72 -17 72 -109
c0 -64 -38 -168 -102 -247c17 -28 51 -82 125 -82c126 0 214 119 214 285c0 58 -13 118 -37 168c-89 -8 -231 16 -231 106c0 34 27 68 84 68c66 0 131 -57 173 -129c31 5 55 21 54 38c-1 13 8 23 21 23c12 0 22 -10 22 -23zM564 587c0 -34 60 -70 165 -66
c-39 58 -87 91 -127 91c-25 0 -38 -11 -38 -25zM477 423c-39 0 -66 -84 -66 -144c0 -45 6 -92 17 -128c48 70 76 159 76 206c0 38 -7 66 -27 66zM369 556c-62 0 -132 -56 -179 -138c99 10 200 84 200 117c0 16 -12 21 -21 21z" />
    <glyph glyph-name="X" unicode="X" horiz-adv-x="705" 
d="M744 -27h11c12 0 22 -9 22 -22c0 -23 -22 -21 -34 -21c-118 0 -248 140 -347 378c-106 -175 -204 -316 -303 -316c-24 0 -26 18 -26 22c0 11 8 23 23 23c88 -2 206 185 287 320c-21 57 -44 107 -66 145c-30 -31 -81 -50 -127 -50c-101 0 -144 56 -144 102
c0 47 43 94 117 94c70 0 122 -32 159 -75c12 21 11 53 11 60c0 41 -22 97 -59 115c-8 4 -12 11 -12 18c0 12 9 22 21 22c26 0 94 -66 94 -155c0 -25 -8 -68 -29 -97c23 -37 45 -86 64 -134c69 101 161 228 264 228c12 0 21 -10 21 -23c0 -10 -8 -25 -22 -24
c-54 4 -149 -76 -245 -229c110 -281 238 -381 320 -381zM85 554c0 -30 34 -61 100 -61c39 0 85 18 106 44c-30 40 -77 70 -134 70c-48 0 -72 -26 -72 -53z" />
    <glyph glyph-name="Y" unicode="Y" horiz-adv-x="687" 
d="M557 322c0 -12 2 -39 2 -62c52 82 89 187 89 253c0 37 -11 57 -30 57c-47 0 -61 -88 -61 -248zM378 112c51 0 93 37 139 92c-2 54 -4 97 -4 118c0 159 9 289 110 289c14 0 31 -7 43 -17c19 -16 26 -47 26 -82c0 -90 -57 -222 -131 -317c1 -19 2 -37 2 -44
c0 -307 -200 -406 -364 -406c-98 0 -199 53 -199 170c0 67 48 122 107 122c45 0 85 -33 85 -84c0 -19 -4 -58 -29 -58c-13 0 -23 11 -23 22c0 3 1 6 2 8c3 10 5 19 5 28c0 28 -20 42 -40 42c-33 0 -63 -34 -63 -80c0 -98 95 -129 155 -129c162 0 316 103 320 362
c-49 -49 -94 -78 -148 -78c-123 0 -126 151 -126 251v63c0 21 -1 41 -2 59c-20 -7 -42 -11 -65 -11c-80 0 -141 50 -141 123c0 56 43 100 103 100c50 0 114 -31 137 -142c43 41 49 107 49 129c0 5 -3 29 -3 35c0 11 8 22 20 22c26 0 26 -28 26 -57c0 -64 -25 -134 -84 -177
c4 -33 4 -69 4 -167c0 -143 31 -186 89 -186zM237 485c-12 71 -42 129 -97 129c-34 0 -58 -27 -58 -59c0 -51 43 -82 97 -82c21 0 41 4 58 12z" />
    <glyph glyph-name="Z" unicode="Z" horiz-adv-x="790" 
d="M371 51l52 -33c80 -51 135 -69 188 -69c63 0 106 36 106 91c0 34 -20 70 -63 70c-12 0 -22 10 -22 22s10 22 22 22c68 0 107 -53 107 -114c0 -73 -62 -133 -149 -133c-84 0 -139 32 -226 83c-60 35 -106 64 -153 87c-52 -59 -100 -87 -163 -87c-37 0 -70 22 -70 63
c0 51 41 98 129 98c34 0 60 -8 93 -21c49 56 85 114 133 192l19 31c26 43 58 92 91 136c-46 20 -89 45 -139 74c-30 -57 -90 -89 -147 -89c-66 0 -115 34 -115 94c0 58 48 91 105 91c50 0 89 -14 134 -38c5 16 8 32 8 49c0 29 -11 58 -26 76c-3 5 -5 10 -5 14
c0 13 10 23 21 23c25 0 53 -57 53 -114c0 -22 -3 -46 -10 -68c51 -27 85 -52 149 -76c45 55 86 93 140 93c41 0 62 -23 62 -60c0 -55 -54 -93 -125 -93c-17 0 -38 3 -61 10c-37 -46 -75 -105 -101 -147l-21 -34c-47 -76 -77 -128 -122 -183c28 -14 69 -37 106 -60zM630 577
c-30 0 -62 -27 -94 -66c12 -3 23 -4 31 -4c56 0 84 18 84 49c0 9 -7 21 -21 21zM179 516c50 0 91 34 109 66c-36 18 -76 36 -118 36c-35 0 -61 -22 -61 -50c0 -32 28 -52 70 -52zM45 55c0 -10 10 -24 31 -24c39 0 80 28 115 64c-25 9 -43 14 -65 14c-57 0 -81 -28 -81 -54z
" />
    <glyph glyph-name="bracketleft" unicode="[" horiz-adv-x="280" 
d="M203 -119h77c12 -1 20 -11 20 -23s-10 -20 -24 -19h-74c-41 0 -89 3 -104 17c-29 28 -43 99 -48 354c-1 24 -1 52 -1 80c0 147 5 324 19 363c7 18 19 20 25 20h38c42 0 90 1 127 7h3c13 0 22 -9 22 -22c0 -11 -8 -18 -19 -20c-47 -7 -109 -8 -157 -7
c-8 -45 -13 -183 -13 -335c0 -208 7 -387 30 -402c16 -10 49 -13 79 -13z" />
    <glyph glyph-name="backslash" unicode="\" horiz-adv-x="328" 
d="M352 -9v-5c0 -10 -6 -19 -16 -22c-13 -3 -25 4 -28 16c-26 105 -132 293 -217 444c-32 57 -115 202 -115 217c0 11 10 21 22 21c9 0 17 -4 21 -12c25 -52 66 -126 112 -204c90 -162 193 -344 221 -455z" />
    <glyph glyph-name="bracketright" unicode="]" horiz-adv-x="280" 
d="M2 -112h2c45 -3 101 -8 135 -8c15 0 28 1 35 3c-4 32 -6 77 -6 130c0 94 6 144 10 264c4 96 8 205 8 277c0 35 -1 61 -3 73c-6 5 -18 7 -34 7c-26 0 -62 -6 -82 -9s-37 -6 -50 -6c-12 0 -21 10 -21 23c0 12 9 20 21 20c9 0 25 3 43 5c33 5 63 9 88 9c83 0 83 -34 83 -125
c0 -88 -18 -443 -18 -540c0 -56 2 -102 7 -129v-4c0 -35 -43 -41 -83 -41c-28 0 -65 3 -112 7c-31 3 -45 4 -45 25c0 12 10 19 22 19z" />
    <glyph glyph-name="asciicircum" unicode="^" 
d="M195 524h42l164 -327h-46l-140 278l-138 -278h-46z" />
    <glyph glyph-name="underscore" unicode="_" horiz-adv-x="500" 
d="M500 -125h-500v50h500v-50z" />
    <glyph glyph-name="quoteleft" unicode="&#x2018;" horiz-adv-x="80" 
d="M39 602c4 6 11 7 16 7c13 0 22 -10 22 -22c0 -6 -1 -11 -6 -15c-9 -10 -17 -36 -23 -76c-2 -11 -12 -19 -23 -19s-21 11 -21 23c0 24 17 82 35 102z" />
    <glyph glyph-name="a" unicode="a" horiz-adv-x="346" 
d="M216 346c57 0 92 -37 92 -106c0 -38 -6 -82 -13 -120c-4 -26 -10 -60 -10 -80c0 -6 1 -10 2 -13c2 -4 4 -7 4 -12c0 -11 -11 -21 -23 -21c-22 0 -28 28 -28 48c0 21 6 49 11 85c6 37 13 76 13 111c0 48 -26 66 -52 66c-76 0 -133 -116 -133 -207c0 -37 17 -63 43 -63
c27 0 47 24 57 51c3 8 11 13 19 13c13 0 21 -10 21 -22c0 -17 -32 -84 -104 -84c-40 0 -81 30 -81 105c0 104 72 249 182 249z" />
    <glyph glyph-name="b" unicode="b" horiz-adv-x="337" 
d="M155 438c41 13 83 38 111 67c19 19 37 52 37 72c0 17 -8 29 -21 29c-39 0 -85 -68 -127 -168zM162 -10c-47 0 -111 19 -111 155c0 73 16 157 39 233c-14 -2 -33 -3 -48 -3c-19 0 -24 14 -24 23c0 3 2 19 24 19c24 0 43 3 64 8c22 64 85 222 178 222c40 0 64 -24 64 -68
s-32 -84 -53 -105c-41 -42 -98 -68 -154 -83c-26 -72 -46 -171 -46 -246c0 -72 20 -119 68 -119c49 0 112 93 112 190c0 48 -17 83 -52 83c-21 0 -34 -6 -46 -19c-5 -5 -11 -7 -17 -7c-12 0 -22 10 -22 22c0 14 26 48 87 48c60 0 94 -52 94 -127c0 -110 -76 -226 -157 -226z
" />
    <glyph glyph-name="c" unicode="c" horiz-adv-x="300" 
d="M275 305c2 -4 3 -10 3 -14c0 -12 -8 -22 -21 -22c-7 0 -14 4 -19 11c-7 10 -17 19 -35 19c-78 0 -120 -105 -120 -179c0 -80 45 -90 67 -90c27 0 62 14 82 50c4 7 10 13 19 13c12 0 19 -10 19 -23c0 -19 -47 -80 -123 -80c-62 0 -109 40 -109 130c0 109 69 222 168 222
c41 0 61 -17 69 -37z" />
    <glyph glyph-name="d" unicode="d" horiz-adv-x="340" 
d="M151 -8c-62 0 -111 60 -111 156c0 93 52 194 135 194c42 0 74 -30 74 -49c0 -12 -10 -22 -22 -22c-7 0 -15 4 -19 11c-5 8 -18 15 -33 15c-52 0 -91 -75 -91 -149c0 -68 27 -115 68 -115c84 0 124 172 126 354c-84 22 -149 84 -149 156c0 44 30 91 81 91
c20 0 41 -8 58 -25c52 -50 56 -166 55 -187c11 -2 24 -4 37 -5c12 -2 19 -8 19 -20c0 -11 -11 -21 -18 -21c-12 0 -25 1 -39 4c-2 -128 -25 -286 -93 -354c-22 -22 -48 -34 -78 -34zM208 592c-23 0 -34 -28 -34 -48c0 -50 45 -97 105 -113c0 120 -45 161 -71 161z" />
    <glyph glyph-name="e" unicode="e" horiz-adv-x="298" 
d="M144 188c47 1 97 30 97 75c0 20 -14 34 -40 34c-50 0 -121 -64 -121 -171c0 -34 11 -95 83 -95c26 0 53 12 70 33c4 5 9 8 16 8c12 0 20 -10 20 -23c0 -19 -48 -59 -109 -59c-76 0 -125 51 -125 136c0 126 88 214 167 214c60 0 84 -37 84 -77c0 -79 -83 -118 -142 -118
c-12 0 -22 8 -22 21c0 11 9 21 22 22z" />
    <glyph glyph-name="f" unicode="f" horiz-adv-x="302" 
d="M50 -201c36 0 54 41 73 125c22 97 30 215 37 321c-107 -96 -146 -270 -146 -369c0 -47 16 -77 36 -77zM410 556c0 -40 -29 -68 -45 -68c-14 0 -21 9 -21 16c0 6 2 19 12 26c4 3 9 12 9 27c0 17 -14 36 -42 36c-32 0 -56 -25 -77 -70c-25 -53 -31 -125 -37 -204
c25 10 49 15 85 15c28 0 41 -6 41 -24c0 -12 -10 -19 -20 -19c-9 0 -19 1 -24 1c-18 0 -52 -2 -83 -18c-10 -149 -20 -274 -43 -366c-24 -95 -53 -152 -118 -152c-42 0 -78 40 -78 120c0 119 53 327 194 423c9 131 15 174 42 239c24 57 68 96 123 96c56 0 82 -34 82 -78z
" />
    <glyph glyph-name="g" unicode="g" horiz-adv-x="321" 
d="M195 300c-68 0 -118 -99 -118 -181c0 -33 8 -59 24 -74c14 -14 35 -19 56 -18c-7 13 -10 32 -10 47c0 46 29 95 76 95c36 0 57 -30 57 -67s-22 -76 -66 -100c8 -11 17 -21 25 -28c31 -28 53 -67 53 -108c0 -111 -104 -178 -207 -178c-91 0 -153 43 -153 120
c0 62 48 110 108 110c36 0 62 -19 62 -44c0 -12 -9 -20 -20 -20c-5 0 -14 2 -17 7c-7 11 -19 15 -27 15c-34 0 -61 -29 -61 -68c0 -51 43 -79 108 -79c71 0 162 46 162 137c0 30 -14 54 -38 79c-17 17 -26 29 -36 45c-4 -1 -9 -2 -13 -2c-5 -1 -10 -1 -14 -1
c-67 0 -114 49 -114 132c0 105 67 222 163 222c68 0 103 -54 103 -133c0 -13 -10 -23 -23 -23c-12 0 -20 10 -20 23c0 31 -13 92 -60 92zM189 73c0 -11 2 -25 7 -37c26 13 42 43 42 66c0 11 -4 25 -17 25c-16 0 -32 -26 -32 -54z" />
    <glyph glyph-name="h" unicode="h" horiz-adv-x="361" 
d="M79 -4c-11 0 -19 8 -21 18c-5 30 -7 49 -7 82c0 110 23 238 33 280c-7 -1 -18 -1 -27 -1c-18 0 -39 -1 -39 22c0 12 10 22 21 20h19c13 0 27 1 38 3c31 99 93 212 170 212c43 0 68 -26 68 -67c0 -81 -103 -156 -203 -181c-9 -36 -25 -107 -37 -203c30 100 91 161 145 161
c79 0 80 -105 80 -148c0 -83 -21 -165 -24 -174c-3 -10 -11 -17 -21 -17c-13 0 -23 11 -23 22c0 2 1 4 1 6c8 31 22 99 22 163c0 76 -13 102 -38 102c-65 0 -150 -167 -136 -278c2 -12 -8 -22 -21 -22zM265 591c-36 0 -89 -66 -120 -160c78 27 145 85 145 134
c0 15 -7 26 -25 26z" />
    <glyph glyph-name="i" unicode="i" horiz-adv-x="160" 
d="M119 455l56 7l-40 -28l61 -39l-74 12l-28 -55l1 58l-50 4l49 28l-5 46zM112 332c10 -3 17 -12 17 -22c0 -1 0 -3 -1 -5c-18 -72 -37 -202 -43 -297c-1 -12 -10 -21 -22 -21c-13 0 -23 10 -23 23s15 187 45 306c2 12 15 19 27 16z" />
    <glyph glyph-name="j" unicode="j" horiz-adv-x="183" 
d="M119 394c-9 3 -16 12 -16 21c0 3 0 5 1 7c9 27 12 36 28 36c13 0 23 -10 23 -22c0 -3 0 -5 -1 -8c-9 -27 -12 -35 -28 -35c-3 0 -5 0 -7 1zM-81 -312c-61 0 -103 40 -103 93c0 50 40 87 86 87c20 0 33 -4 33 -24c0 -16 -15 -19 -21 -19s-10 1 -17 1
c-16 0 -36 -19 -36 -44c0 -27 21 -53 60 -53c59 0 108 54 133 159c17 70 27 166 40 341l6 79c1 12 10 21 22 21c13 0 22 -10 22 -22c0 -23 -3 -58 -5 -79c-14 -182 -23 -262 -42 -347c-27 -119 -91 -193 -178 -193z" />
    <glyph glyph-name="k" unicode="k" horiz-adv-x="368" 
d="M133 138c-4 -26 -5 -53 -5 -71c0 -28 3 -37 4 -40c2 -3 3 -6 3 -10c0 -13 -10 -22 -22 -22c-28 0 -30 44 -30 72c0 21 3 49 7 77c-50 16 -71 46 -71 76c0 45 36 81 99 81c4 23 10 49 14 67c20 91 32 142 32 183c0 20 -1 33 -4 38c-1 3 -2 6 -2 8c0 10 6 18 14 21
c2 1 6 2 9 2c27 0 27 -37 27 -69c0 -47 -15 -112 -27 -170c-6 -24 -13 -53 -19 -86c39 -9 71 -34 93 -60c21 21 44 56 47 93c1 11 8 20 20 20s22 -10 22 -22c0 -42 -39 -104 -66 -124c41 -52 58 -121 58 -182c0 -22 -17 -25 -23 -25c-2 0 -20 0 -20 25c0 51 -17 110 -48 154
c-22 -17 -63 -37 -112 -36zM73 196c5 -5 13 -10 22 -13c4 24 9 52 15 77c-24 -1 -47 -14 -47 -40c0 -9 4 -18 10 -24zM139 177h2c33 0 64 12 83 30c-15 21 -43 42 -70 49c-6 -25 -11 -53 -15 -79z" />
    <glyph glyph-name="l" unicode="l" horiz-adv-x="156" 
d="M139 619c2 1 6 2 9 2c27 0 27 -37 27 -69c0 -47 -17 -112 -31 -170c-22 -90 -53 -234 -53 -314c0 -28 3 -37 4 -40c2 -3 3 -6 3 -10c0 -13 -10 -22 -22 -22c-28 0 -30 44 -30 72c0 80 30 224 49 301c22 91 36 142 36 183c0 20 -1 33 -4 38c-1 3 -2 6 -2 8
c0 10 6 18 14 21z" />
    <glyph glyph-name="m" unicode="m" horiz-adv-x="546" 
d="M54 -9c-13 0 -21 10 -21 23c0 10 7 37 13 64c12 51 27 119 27 172c0 11 0 46 -15 61c-3 5 -5 10 -5 16c0 12 10 22 23 22c21 0 45 -43 37 -107c31 75 71 100 111 100c35 0 77 -25 81 -115c26 77 66 117 120 117c45 -1 83 -42 83 -150c0 -72 -18 -153 -27 -189
c-4 -9 -12 -16 -22 -16c-13 0 -23 11 -23 23c0 2 0 4 1 6c10 34 27 109 27 174c0 55 -10 107 -44 107c-56 0 -108 -108 -127 -225c-11 -68 -12 -76 -30 -76c-13 0 -22 11 -22 23c0 4 5 34 9 55c7 44 13 86 13 125c0 22 -1 97 -44 97c-52 0 -111 -116 -144 -289
c-2 -11 -10 -18 -21 -18z" />
    <glyph glyph-name="n" unicode="n" horiz-adv-x="350" 
d="M230 338c23 0 77 -14 77 -137c0 -70 -16 -149 -23 -183c-3 -20 -19 -20 -22 -20c-13 0 -23 10 -23 23c0 1 0 2 1 4c8 35 22 111 22 176c0 53 -10 91 -36 91c-54 0 -118 -113 -150 -278c-2 -10 -10 -17 -21 -17c-13 0 -21 10 -21 23c0 12 18 85 22 101c11 45 20 89 21 123
c-1 30 -5 47 -18 60c-3 5 -5 10 -5 16c0 11 10 21 22 21c20 0 47 -37 43 -97c27 62 66 94 111 94z" />
    <glyph glyph-name="o" unicode="o" horiz-adv-x="341" 
d="M213 348c66 0 107 -56 107 -136c0 -107 -63 -222 -165 -222c-69 0 -115 61 -115 154c0 28 4 54 14 81c3 9 12 16 21 16c12 0 21 -11 21 -22c0 -4 -1 -7 -2 -10c-6 -15 -9 -43 -9 -64c0 -52 21 -113 72 -113c72 0 118 95 118 180c0 40 -16 94 -64 94
c-38 0 -51 -32 -51 -56c0 -40 30 -40 47 -40c13 0 23 -10 23 -22c0 -6 -2 -22 -27 -22c-58 0 -88 38 -88 84c0 48 34 98 98 98z" />
    <glyph glyph-name="p" unicode="p" horiz-adv-x="345" 
d="M219 341c69 0 105 -62 105 -147c0 -134 -60 -204 -128 -204c-60 0 -85 50 -85 64c0 13 10 22 22 22c8 0 16 -4 20 -11c7 -14 17 -33 43 -33c46 0 83 57 83 162c0 32 -12 104 -60 104c-80 0 -154 -150 -158 -349c103 0 166 -86 166 -170c0 -68 -34 -100 -84 -100
c-79 0 -125 97 -126 220c-23 -7 -41 -29 -44 -45c-1 -6 -10 -11 -19 -11c-12 0 -18 9 -18 20c0 23 26 65 81 79c2 235 89 399 202 399zM142 -281c29 0 40 22 40 59c0 63 -45 131 -121 129c1 -124 44 -188 81 -188z" />
    <glyph glyph-name="q" unicode="q" horiz-adv-x="333" 
d="M263 -305c-22 0 -51 38 -51 147c0 70 14 138 26 197c11 53 25 116 25 169c0 59 -19 91 -58 91c-73 0 -122 -110 -122 -182c0 -56 16 -83 51 -83c15 0 32 10 41 31c4 10 10 13 20 14c12 1 19 -11 19 -23c0 -25 -34 -63 -83 -63s-92 27 -92 123c0 94 65 225 170 225
c60 0 99 -40 99 -127c0 -66 -14 -129 -25 -183c-12 -58 -26 -123 -26 -183c0 -78 12 -102 24 -117c3 -4 5 -9 5 -15c0 -12 -9 -21 -23 -21z" />
    <glyph glyph-name="r" unicode="r" horiz-adv-x="237" 
d="M88 44l-6 -33c-2 -12 -11 -19 -22 -19c-12 0 -20 10 -20 22c0 7 28 171 28 204c0 44 -9 61 -22 74c-5 4 -6 10 -6 16c0 12 10 22 21 22c19 0 47 -34 45 -84c22 66 76 96 126 96c13 0 24 -9 24 -22c0 -12 -9 -19 -21 -20c-104 -6 -124 -128 -147 -256z" />
    <glyph glyph-name="s" unicode="s" horiz-adv-x="285" 
d="M90 141c18 0 36 -6 36 -26c0 -17 -14 -20 -20 -19s-9 3 -16 3c-19 0 -24 -15 -24 -29c0 -24 29 -48 65 -48s74 21 74 66c0 24 -12 52 -57 76c-32 17 -73 44 -73 94c0 41 33 84 95 84c60 0 83 -43 83 -60c0 -13 -10 -23 -23 -23c-6 0 -16 5 -18 13c-3 10 -17 32 -43 32
c-32 0 -50 -20 -50 -46c0 -19 9 -31 49 -55c49 -29 82 -58 82 -109c0 -62 -44 -108 -120 -108c-57 0 -109 33 -109 83c0 42 31 72 69 72z" />
    <glyph glyph-name="t" unicode="t" horiz-adv-x="210" 
d="M168 13c0 -12 -10 -22 -22 -23c-1 0 -6 1 -7 1c-50 8 -74 49 -74 126c0 48 6 104 25 180c-29 0 -40 -5 -54 -5c-7 0 -14 6 -14 17c0 28 42 29 78 30c8 33 20 79 31 119c3 9 11 15 20 16c13 0 23 -8 23 -20c0 -4 -1 -9 -2 -11c-10 -30 -23 -83 -28 -105c14 0 34 -1 61 -2
c11 -2 22 -10 22 -21c0 -12 -8 -20 -19 -20c-19 0 -53 2 -72 3c-18 -64 -27 -127 -27 -178c0 -79 29 -84 39 -86c11 0 20 -10 20 -21z" />
    <glyph glyph-name="u" unicode="u" horiz-adv-x="336" 
d="M104 307v-5c-10 -44 -24 -113 -24 -175c0 -46 9 -94 42 -94c64 0 122 130 144 288c2 12 11 19 26 19c10 0 18 -13 16 -25c-1 -10 -7 -48 -14 -82c-9 -54 -17 -100 -17 -135c0 -32 6 -54 20 -69c4 -5 5 -10 5 -15c0 -12 -10 -22 -22 -22c-21 0 -46 42 -45 98
c-26 -62 -69 -100 -113 -100c-36 0 -86 23 -86 137c0 67 15 142 22 178c2 9 5 25 23 25c13 0 23 -11 23 -23z" />
    <glyph glyph-name="v" unicode="v" horiz-adv-x="302" 
d="M100 299l-2 -10c-4 -21 -11 -91 -11 -141c0 -75 12 -112 23 -112c30 0 126 144 142 288c2 13 13 22 25 20c11 -1 20 -11 20 -22v-2c-15 -136 -116 -326 -189 -326c-54 0 -66 84 -66 154c0 49 8 124 14 155c2 10 12 17 21 17c13 0 25 -10 23 -21z" />
    <glyph glyph-name="w" unicode="w" horiz-adv-x="506" 
d="M451 340c3 2 6 3 9 3c29 0 29 -50 29 -62c0 -93 -67 -284 -166 -284c-38 0 -81 31 -80 113c-25 -67 -71 -114 -122 -114c-63 0 -81 74 -81 134c0 64 13 137 24 180c3 11 12 18 22 18c12 0 22 -10 22 -23c0 -2 0 -3 -1 -5c-10 -41 -22 -110 -22 -170c0 -57 14 -92 39 -92
c56 0 122 123 133 274c1 12 9 21 19 21c13 0 23 -10 23 -23c0 -1 -1 -16 -3 -34c-5 -49 -12 -107 -12 -146c0 -44 10 -90 41 -90c57 0 120 148 120 241c0 12 -2 23 -6 30c-1 3 -2 6 -2 9c0 8 6 17 14 20z" />
    <glyph glyph-name="x" unicode="x" horiz-adv-x="320" 
d="M-2 32h3c25 0 93 91 142 160c-25 47 -58 102 -74 107c-10 3 -17 11 -17 21c0 12 11 22 23 22c35 0 73 -73 95 -113c43 59 80 105 113 105c11 0 22 -10 22 -23c0 -11 -10 -21 -21 -22c-17 -2 -59 -55 -92 -101c31 -61 82 -153 107 -156c11 -1 20 -10 20 -22
c0 -14 -12 -24 -25 -22c-44 5 -79 66 -130 163c-71 -99 -119 -164 -163 -164c-21 0 -25 16 -25 23c0 12 10 22 22 22z" />
    <glyph glyph-name="y" unicode="y" horiz-adv-x="331" 
d="M108 315l-1 -4c-8 -43 -22 -114 -22 -178c0 -29 4 -93 38 -93c61 0 136 156 135 277c0 12 11 21 23 21s20 -10 20 -22c0 -45 -7 -143 -10 -190c-3 -42 -10 -124 -36 -210c33 -19 58 -52 58 -90c0 -12 -10 -22 -22 -22s-21 10 -21 22c0 28 -22 43 -31 47
c-44 -113 -142 -185 -231 -185c-49 0 -93 24 -93 85c0 103 129 168 234 168c23 0 46 -3 64 -9c16 50 31 131 37 192c-25 -70 -78 -128 -127 -128c-62 0 -83 67 -83 137c0 69 15 145 22 182c2 7 5 23 24 23c12 0 22 -10 22 -23zM14 -271c69 0 148 65 187 165
c-14 4 -35 6 -52 6c-83 0 -189 -53 -189 -124c0 -32 27 -47 54 -47z" />
    <glyph glyph-name="z" unicode="z" horiz-adv-x="336" 
d="M245 332l3 3c3 3 8 5 14 5c24 0 25 -19 25 -22c0 -6 -2 -11 -5 -16c-47 -51 -77 -92 -106 -133c-25 -35 -79 -99 -101 -120c37 7 91 2 122 -4c19 -4 36 -7 50 -7c31 0 32 11 32 30c0 12 7 21 19 22c22 5 25 -16 25 -27c0 -43 -32 -66 -76 -66c-18 0 -37 4 -57 7
c-25 5 -51 10 -79 10c-23 0 -46 -3 -71 -11c-1 -1 -4 -1 -8 -1c-12 0 -22 10 -22 21c0 7 2 12 5 16c60 62 93 108 126 155c20 28 53 67 76 93c-20 0 -94 10 -109 10c-18 0 -22 -5 -25 -11c-4 -9 -12 -13 -20 -13c-12 0 -23 10 -23 22c0 10 16 44 68 44c8 0 30 -3 53 -6
s46 -6 54 -6c14 0 25 2 30 5z" />
    <glyph glyph-name="braceleft" unicode="{" horiz-adv-x="370" 
d="M340 -132h6c12 0 22 -9 22 -21c0 -28 -47 -26 -62 -26c-74 0 -151 36 -151 136c0 33 11 69 20 102c10 35 18 59 18 106c0 30 -4 48 -14 69c-29 -29 -59 -36 -82 -36c-80 0 -97 41 -97 69c0 34 38 71 100 71c28 0 54 -8 74 -24c8 20 11 42 11 57c0 34 -5 60 -11 87
c-5 26 -10 47 -10 86c0 88 72 130 145 130c23 0 45 -5 63 -16c8 -4 11 -10 11 -17c0 -13 -10 -23 -22 -23c-4 0 -7 1 -11 3c-12 7 -26 10 -41 10c-59 0 -101 -35 -101 -87c0 -38 7 -61 10 -76c6 -29 12 -53 12 -97c0 -27 -7 -63 -24 -94c21 -30 32 -65 32 -112
c0 -53 -9 -85 -20 -121c-10 -32 -18 -64 -18 -87c0 -78 61 -93 106 -93c12 0 24 2 34 4zM97 242c24 0 48 14 62 31c-15 14 -38 22 -59 22c-38 0 -56 -18 -56 -28c0 -25 41 -25 53 -25z" />
    <glyph glyph-name="bar" unicode="|" horiz-adv-x="222" 
d="M88 -250v1000h46v-1000h-46z" />
    <glyph glyph-name="braceright" unicode="}" horiz-adv-x="370" 
d="M260 297c-23 0 -44 -10 -59 -26c16 -22 38 -33 60 -33c27 0 45 12 45 27c0 12 -11 32 -46 32zM150 540c0 60 -39 93 -93 93c-13 0 -28 -1 -43 -5c-2 0 -4 -1 -5 -1c-12 0 -22 7 -22 20c0 10 7 19 17 21c18 5 36 7 53 7c82 0 138 -46 138 -143c0 -25 -6 -47 -11 -73
c-5 -27 -11 -43 -11 -91c0 -16 2 -33 10 -56c20 17 46 27 77 27c62 0 90 -40 90 -74c0 -35 -28 -70 -89 -70c-22 0 -53 6 -82 36c-12 -22 -15 -40 -15 -69c0 -46 11 -69 16 -91c8 -33 17 -55 17 -110c0 -104 -72 -140 -140 -140c-5 0 -67 -2 -67 28c0 12 10 22 22 22
c3 0 6 0 8 -1c12 -4 24 -7 37 -7c44 0 95 21 95 96c0 50 -8 70 -16 100c-8 32 -16 51 -16 103c0 42 9 77 33 111c-20 31 -25 68 -25 95c0 32 7 76 13 100c6 23 9 49 9 72z" />
    <glyph glyph-name="asciitilde" unicode="~" 
d="M61 190l-30 28c23 40 51 71 99 71c37 0 66 -14 93 -27c28 -13 53 -28 80 -28c31 0 53 29 69 55l30 -29c-24 -40 -51 -72 -99 -70c-37 0 -65 14 -92 26c-28 15 -52 28 -81 28c-31 0 -54 -29 -69 -54z" />
    <glyph glyph-name="exclamdown" unicode="&#xa1;" horiz-adv-x="278" 
d="M149 238c12 0 21 -10 21 -21c0 -5 -1 -9 -2 -12c-13 -22 -15 -46 -15 -70c0 -41 3 -84 6 -129c3 -47 6 -94 6 -133c0 -31 -7 -59 -14 -74c18 -23 29 -52 29 -86c0 -20 0 -46 -24 -46c-13 0 -20 10 -20 21c0 4 2 21 2 26c0 13 -2 28 -8 42c-12 -21 -39 -42 -76 -42
c-35 0 -61 26 -61 59c0 39 29 67 72 67c18 0 34 -4 49 -12c5 11 6 32 6 43c0 34 0 76 -3 120c-3 48 -9 97 -9 144c0 34 12 103 41 103zM60 -244c17 0 33 10 44 30c-8 7 -25 11 -39 11c-18 0 -28 -9 -28 -20s9 -21 23 -21zM181 339l-5 -32c-2 -12 -14 -20 -28 -18
c-15 1 -23 13 -21 25l5 32c2 11 11 19 24 19c17 0 27 -13 25 -26z" />
    <glyph glyph-name="cent" unicode="&#xa2;" horiz-adv-x="450" 
d="M276 644c12 0 22 -10 22 -22c0 -5 -1 -9 -4 -12s-7 -28 -13 -66c84 -3 132 -55 132 -118c0 -48 -36 -78 -69 -78c-38 0 -55 34 -55 48c0 11 9 23 22 23c9 0 18 -7 21 -17c3 -7 6 -11 12 -11c10 0 25 12 25 35c0 43 -37 76 -96 77c-6 -47 -40 -325 -54 -401
c52 0 94 24 115 56c5 6 12 9 19 9c12 0 21 -9 21 -22c0 -18 -54 -87 -163 -84c-9 -46 -18 -82 -27 -101c-4 -9 -12 -13 -20 -13c-13 0 -22 9 -22 22c0 3 1 7 2 9c8 17 15 48 23 89c-75 17 -136 69 -136 184c0 131 83 270 205 290c10 63 16 86 23 95c5 6 10 8 17 8zM213 374
l16 124c-81 -17 -153 -133 -153 -247c0 -75 29 -128 100 -144c13 80 26 178 37 267z" />
    <glyph glyph-name="sterling" unicode="&#xa3;" horiz-adv-x="572" 
d="M542 108c4 -3 7 -14 7 -26c0 -64 -49 -106 -122 -106c-52 0 -97 14 -148 47c-37 24 -62 42 -90 58c-32 -58 -74 -87 -128 -87c-48 0 -76 29 -76 68s30 95 115 95c14 0 47 -6 68 -17c15 31 18 80 15 110c-35 -6 -51 -8 -76 -8c-20 0 -52 -1 -52 22c0 12 11 22 22 22
c5 0 25 -3 30 -3c22 0 40 3 73 8c0 21 -2 34 -2 50c0 181 84 250 181 250c18 0 34 -5 46 -8c22 17 47 25 74 25c18 0 49 0 49 -24c0 -13 -10 -20 -22 -20c-5 0 -17 4 -26 4c-11 0 -21 -1 -35 -8c33 -25 45 -61 45 -90c0 -41 -30 -77 -68 -77c-39 0 -74 29 -74 80
c0 27 12 59 27 76c-99 14 -154 -72 -154 -209c0 -13 1 -28 2 -43c71 10 118 19 164 19c30 0 59 0 59 -24c0 -12 -10 -21 -22 -21c-5 0 -31 3 -37 3c-42 0 -89 -8 -160 -18c4 -38 -1 -93 -19 -136c28 -15 63 -38 96 -60c29 -20 70 -43 123 -43c55 0 77 28 77 65
c0 3 -6 13 -6 18c0 12 10 22 23 22c9 0 18 -5 21 -14zM411 537c-9 -15 -20 -38 -20 -66c0 -23 14 -39 29 -39c16 0 29 15 29 37c0 15 -7 49 -38 68zM63 35c35 0 68 26 89 67c-15 9 -33 14 -55 14c-47 0 -67 -30 -67 -52c0 -16 13 -29 33 -29z" />
    <glyph glyph-name="fraction" unicode="&#x2044;" horiz-adv-x="365" 
d="M0 6v5c28 111 124 274 218 434c47 80 90 153 110 185c5 8 12 12 20 12c9 0 17 -10 17 -21c0 -3 -2 -10 -7 -18c-24 -41 -60 -101 -107 -179c-88 -148 -189 -319 -214 -424c-3 -12 -15 -19 -24 -16c-7 3 -13 12 -13 22z" />
    <glyph glyph-name="yen" unicode="&#xa5;" horiz-adv-x="534" 
d="M265 163c0 21 -2 49 -4 68c-37 -57 -52 -119 -52 -155c0 -24 2 -56 23 -56c18 0 33 48 33 143zM230 -18c-38 0 -64 28 -64 95c0 29 14 100 57 163c-26 -1 -51 -2 -74 -2c-61 0 -84 1 -84 23c0 12 11 22 23 22h4c11 -3 31 -5 56 -5c30 0 69 2 105 4
c-27 166 -95 250 -166 250c-41 0 -46 -33 -46 -45c0 -3 3 -18 3 -20c0 -13 -9 -23 -21 -23c-23 0 -26 26 -26 43c0 47 34 86 90 86c104 0 175 -108 203 -268c33 43 77 81 104 106c40 36 76 70 76 115c0 32 -26 49 -62 44c-11 -2 -21 7 -21 20c0 23 22 23 34 23
c54 0 93 -29 93 -86c0 -44 -23 -80 -68 -123c-44 -42 -95 -82 -124 -117c50 3 100 5 131 4c13 0 22 -10 22 -22c0 -22 -18 -18 -40 -18c-38 0 -81 -3 -134 -6c3 -21 7 -50 7 -82c0 -136 -37 -181 -78 -181z" />
    <glyph glyph-name="florin" unicode="&#x192;" horiz-adv-x="390" 
d="M401 501c0 -41 -35 -79 -77 -79c-26 0 -52 11 -52 32c0 12 9 21 22 21c5 0 11 -2 15 -5c6 -4 11 -6 15 -6c17 0 32 15 32 37c0 25 -20 58 -61 58c-87 0 -125 -86 -116 -245c27 2 54 4 78 4c30 0 56 -3 76 -9c10 -2 17 -10 17 -19c0 -12 -11 -20 -23 -20c-3 0 -4 0 -6 1
c-16 4 -38 6 -63 6s-51 -2 -77 -3c4 -68 7 -96 7 -148c0 -174 -52 -281 -165 -281c-58 0 -103 40 -103 91c0 39 29 75 63 75c16 0 24 -13 24 -22c0 -10 -8 -22 -24 -22c-7 0 -18 -13 -18 -31c0 -27 27 -50 59 -50c31 0 54 12 72 33c37 42 47 125 47 212c0 41 -2 65 -7 140
c-18 -1 -35 -2 -51 -2c-33 0 -57 -2 -57 22c0 13 10 21 22 21c5 0 30 -2 35 -2c14 0 32 1 50 2c-17 200 60 288 162 288c61 0 104 -39 104 -99z" />
    <glyph glyph-name="section" unicode="&#xa7;" horiz-adv-x="390" 
d="M174 -149c-75 0 -145 55 -144 127c0 48 34 104 91 104c36 0 68 -25 68 -54c0 -14 -16 -21 -25 -21c-7 0 -15 8 -20 18c-4 9 -15 17 -26 17c-22 0 -44 -27 -44 -62c0 -40 37 -88 103 -88c68 0 118 44 118 121c0 61 -38 100 -103 127c-77 34 -119 72 -119 142
c0 38 22 72 42 91c-21 25 -32 53 -32 84c0 73 68 140 152 140c70 0 120 -40 120 -100c0 -48 -42 -77 -70 -76c-9 0 -24 5 -22 23c0 8 8 16 17 17c15 1 31 14 31 35c1 30 -25 61 -79 61c-55 0 -104 -43 -104 -96c0 -63 48 -94 110 -120c65 -27 117 -68 117 -145
c0 -37 -20 -76 -40 -97c16 -18 25 -47 25 -85c0 -111 -86 -163 -166 -163zM199 182c36 -16 78 -36 92 -54c10 14 21 34 21 69c0 34 -15 71 -84 103c-31 14 -67 30 -89 49c-10 -12 -23 -36 -23 -65c0 -42 26 -76 83 -102z" />
    <glyph glyph-name="currency" unicode="&#xa4;" 
d="M217 358c-64 0 -113 -54 -113 -114s49 -112 113 -112c62 0 111 52 111 112s-49 114 -111 114zM22 82l70 70c-19 25 -31 56 -31 92s13 70 31 91l-70 71l33 33l69 -71c24 18 57 32 93 32s69 -14 91 -32l69 71l33 -33l-69 -71c17 -22 30 -55 30 -91s-12 -69 -30 -92l69 -70
l-33 -33l-69 70c-22 -18 -55 -29 -91 -29c-38 0 -71 11 -93 29l-69 -70z" />
    <glyph glyph-name="quotesingle" unicode="'" horiz-adv-x="140" 
d="M71 612c12 0 22 -10 22 -22c0 -14 0 -61 -3 -90c-2 -15 -11 -24 -26 -24c-13 0 -18 9 -16 23c1 7 1 49 1 91c0 12 10 22 22 22z" />
    <glyph glyph-name="quotedblleft" unicode="&#x201c;" horiz-adv-x="165" 
d="M124 602c4 6 11 7 17 7c12 0 21 -10 21 -22c0 -6 -1 -11 -5 -15c-10 -10 -17 -36 -24 -76c-2 -11 -11 -19 -22 -19c-12 0 -22 11 -22 23c0 24 17 82 35 102zM40 602c5 6 10 7 16 7c12 0 23 -10 23 -22c0 -6 -3 -11 -7 -15c-9 -10 -17 -36 -23 -76c-2 -11 -12 -19 -22 -19
c-13 0 -23 11 -23 23c0 24 17 82 36 102z" />
    <glyph glyph-name="guillemotleft" unicode="&#xab;" horiz-adv-x="330" 
d="M249 182c18 -13 31 -24 38 -31c5 -4 7 -10 7 -15c0 -13 -10 -23 -22 -23c-6 0 -12 2 -16 7c-1 1 -82 62 -96 74c-6 5 -9 11 -9 18s4 14 9 18c14 9 31 29 49 52c35 42 40 46 51 46c12 0 22 -9 22 -22c0 -5 -2 -11 -6 -15c-9 -11 -58 -67 -70 -79c14 -10 30 -21 43 -30z
M84 205c41 -25 70 -50 76 -56c3 -4 6 -9 6 -15c0 -12 -10 -22 -23 -22c-5 0 -11 1 -15 6c-16 16 -50 42 -89 62c-7 4 -13 11 -13 20c0 7 4 13 10 18c10 7 24 26 36 45c13 18 27 39 43 57c5 4 10 7 17 7c12 0 22 -10 22 -23c0 -5 -2 -11 -6 -15c-10 -11 -54 -71 -64 -84z" />
    <glyph glyph-name="guilsinglleft" unicode="&#x2039;" horiz-adv-x="204" 
d="M126 175c30 -22 41 -30 41 -44c0 -11 -9 -22 -21 -22c-6 0 -12 3 -16 7c-5 4 -18 14 -30 22c-21 15 -48 34 -68 54c-4 3 -7 10 -7 16c0 7 4 13 9 18c14 9 31 30 49 51c35 43 39 47 50 47c13 0 23 -10 23 -22c0 -5 -2 -10 -6 -15c-10 -11 -59 -67 -71 -79
c15 -12 33 -24 47 -33z" />
    <glyph glyph-name="guilsinglright" unicode="&#x203a;" horiz-adv-x="204" 
d="M124 222l-19 16c-15 12 -32 28 -50 48c-5 5 -7 10 -7 16c0 11 10 21 23 21c6 0 13 -2 16 -7c12 -13 73 -68 85 -81c3 -5 6 -9 6 -15c0 -8 -4 -14 -10 -18c-38 -26 -66 -57 -82 -75c-13 -15 -17 -19 -27 -19c-12 0 -22 10 -22 22c0 10 2 10 16 27c15 16 40 41 71 65z" />
    <glyph glyph-name="endash" unicode="&#x2013;" horiz-adv-x="450" 
d="M425 255c1 -2 1 -4 1 -7c0 -9 -6 -17 -14 -21c-13 -6 -53 -11 -123 -11c-29 0 -125 2 -159 2c-36 0 -67 -1 -82 -3c-1 -1 -3 -1 -5 -1c-11 0 -21 10 -21 22c0 10 7 20 17 22c19 4 51 5 91 5c30 0 125 -2 158 -2c58 0 89 1 108 8c3 1 6 1 7 1c10 0 18 -6 22 -15z" />
    <glyph glyph-name="dagger" unicode="&#x2020;" horiz-adv-x="340" 
d="M136 -124c-28 0 -30 44 -30 72c0 80 30 224 49 351l5 28h-31c-37 0 -51 0 -59 -2c-14 -5 -26 6 -26 19c0 26 24 26 85 26h38c15 93 24 131 24 162c0 20 -1 33 -4 38c-1 3 -2 6 -2 8c0 10 6 18 14 21c2 1 6 2 9 2c27 0 27 -37 27 -69c0 -36 -10 -84 -23 -163
c30 0 87 1 101 5c2 1 4 2 7 2c12 0 22 -11 22 -22c0 -27 -52 -29 -131 -27h-6l-3 -15c-20 -140 -51 -284 -51 -364c0 -28 3 -37 4 -40c2 -3 3 -6 3 -10c0 -13 -10 -22 -22 -22z" />
    <glyph glyph-name="daggerdbl" unicode="&#x2021;" horiz-adv-x="340" 
d="M136 -124c-28 0 -30 44 -30 72c0 48 11 120 25 199h-47c-17 0 -31 0 -39 -2c-14 -5 -26 6 -26 19c0 26 24 26 65 26h54c6 36 12 73 18 109l6 38h-33c-37 0 -51 0 -59 -2c-14 -5 -26 6 -26 19c0 26 24 26 85 26h40c13 83 22 121 22 152c0 20 -1 33 -4 38c-1 3 -2 6 -2 8
c0 10 6 18 14 21c2 1 6 2 9 2c27 0 27 -37 27 -69c0 -36 -10 -84 -21 -153c28 0 85 1 99 5c2 1 4 2 7 2c12 0 22 -11 22 -22c0 -27 -52 -29 -129 -27h-6l-5 -25c-6 -42 -13 -84 -20 -123h29c29 0 58 1 72 5c2 1 4 2 7 2c12 0 22 -11 22 -22c0 -27 -52 -29 -101 -27h-36
c-13 -81 -24 -152 -24 -199c0 -28 3 -37 4 -40c2 -3 3 -6 3 -10c0 -13 -10 -22 -22 -22z" />
    <glyph glyph-name="periodcentered" unicode="&#xb7;" horiz-adv-x="130" 
d="M46 231l4 34c2 12 14 20 29 18c14 -2 22 -13 21 -25l-5 -34c-2 -11 -12 -18 -25 -18c-16 0 -26 11 -24 25z" />
    <glyph glyph-name="paragraph" unicode="&#xb6;" horiz-adv-x="540" 
d="M308 491c27 0 27 -37 27 -69c0 -47 -15 -115 -32 -192c-21 -93 -42 -202 -42 -282c0 -28 3 -37 4 -40c2 -3 3 -6 3 -10c0 -13 -10 -22 -22 -22c-28 0 -30 44 -30 72c0 80 25 203 44 294c13 65 31 139 31 180c0 20 -1 33 -4 38c-1 3 -2 6 -2 8c0 10 6 18 14 21
c2 1 6 2 9 2zM428 471c27 0 27 -37 27 -69c0 -47 -16 -112 -29 -178c-15 -77 -40 -196 -40 -276c0 -28 3 -37 4 -40c2 -3 3 -6 3 -10c0 -13 -10 -22 -22 -22c-28 0 -30 44 -30 72c0 80 25 201 38 271c11 59 32 142 32 183c0 20 -1 33 -4 38c-1 3 -2 6 -2 8c0 10 6 18 14 21
c2 1 6 2 9 2zM548 505c0 -12 -11 -23 -22 -23c-20 0 -22 17 -29 24c-19 20 -73 53 -176 53c-130 0 -230 -73 -230 -167c0 -70 47 -113 105 -113c12 0 21 -9 21 -20c0 -12 -9 -21 -22 -21c-69 0 -149 51 -149 154c0 118 117 208 276 208c138 0 226 -57 226 -95z" />
    <glyph glyph-name="bullet" unicode="&#x2022;" horiz-adv-x="208" 
d="M79 256c-29 0 -50 24 -50 49c0 40 33 69 71 69c52 0 82 -32 82 -86c0 -48 -42 -88 -96 -88c-21 0 -25 12 -25 20c0 11 5 19 25 19c28 0 54 21 54 50c0 30 -17 43 -37 43c-17 0 -32 -11 -32 -26c0 -4 6 -9 8 -6l2 3c4 6 12 12 20 12c14 0 22 -11 22 -23
c0 -18 -16 -36 -44 -36z" />
    <glyph glyph-name="quotesinglbase" unicode="&#x201a;" horiz-adv-x="80" 
d="M56 60c12 0 22 -10 22 -22c0 -21 0 -114 -37 -114c-13 0 -23 10 -23 23c0 3 1 8 4 12c8 11 12 37 12 79c0 12 10 22 22 22z" />
    <glyph glyph-name="quotedblbase" unicode="&#x201e;" horiz-adv-x="165" 
d="M143 61c12 0 22 -10 22 -22c0 -20 0 -113 -38 -113c-11 0 -22 10 -22 22c0 4 2 8 4 12c7 12 11 38 11 79c0 12 10 22 23 22zM21 -43c7 11 12 37 12 79c0 12 10 22 21 22c13 0 23 -10 23 -22c0 -21 0 -114 -37 -114c-13 0 -22 10 -22 23c0 3 0 8 3 12z" />
    <glyph glyph-name="quotedblright" unicode="&#x201d;" horiz-adv-x="165" 
d="M143 613c12 0 22 -10 22 -22c0 -20 0 -113 -38 -113c-11 0 -22 10 -22 22c0 4 2 8 4 12c7 12 11 38 11 79c0 12 10 22 23 22zM21 509c7 11 12 37 12 79c0 12 10 22 21 22c13 0 23 -10 23 -22c0 -21 0 -114 -37 -114c-13 0 -22 10 -22 23c0 3 0 8 3 12z" />
    <glyph glyph-name="guillemotright" unicode="&#xbb;" horiz-adv-x="330" 
d="M296 197l-35 -31c-27 -22 -48 -40 -57 -49c-5 -5 -10 -6 -15 -6c-13 0 -23 10 -23 22c0 6 2 11 7 15c9 10 20 18 80 69c-10 12 -23 23 -36 36c-36 37 -39 40 -39 50c0 13 10 23 22 23c7 0 12 -3 17 -7c11 -13 22 -25 33 -35c21 -22 54 -56 54 -70c0 -6 -3 -12 -8 -17z
M178 209c-33 -34 -92 -97 -118 -97c-13 0 -23 10 -23 23c0 8 5 15 13 20c25 12 48 33 81 67c-4 5 -9 9 -15 15c-15 15 -32 32 -57 50c-6 5 -10 11 -10 18c0 13 10 23 23 23c21 0 91 -78 102 -86c7 -4 9 -11 9 -18c0 -5 -2 -11 -5 -15z" />
    <glyph glyph-name="ellipsis" unicode="&#x2026;" horiz-adv-x="800" 
d="M108 11l4 34c2 12 14 20 29 18c14 -2 22 -13 21 -25l-5 -34c-2 -11 -12 -18 -25 -18c-16 0 -26 11 -24 25zM373 11l4 34c2 12 14 20 29 18c14 -2 22 -13 21 -25l-5 -34c-2 -11 -12 -18 -25 -18c-16 0 -26 11 -24 25zM638 11l4 34c2 12 14 20 29 18c14 -2 22 -13 21 -25
l-5 -34c-2 -11 -12 -18 -25 -18c-16 0 -26 11 -24 25z" />
    <glyph glyph-name="perthousand" unicode="&#x2030;" horiz-adv-x="1102" 
d="M159 252c-69 0 -115 52 -115 144c0 31 6 63 19 94c4 8 11 13 20 13c12 0 22 -10 22 -22c0 -3 0 -7 -2 -9c-10 -24 -16 -52 -16 -76c0 -50 22 -103 75 -103c68 0 111 83 117 152c-16 -2 -33 -3 -49 -3c-60 0 -111 32 -111 78c0 40 33 80 98 80c54 0 96 -45 106 -107
c78 19 150 68 223 140c4 4 10 6 16 6c12 0 22 -10 22 -22c0 -4 -1 -7 -3 -11c-114 -191 -244 -481 -270 -644c-2 -10 -12 -19 -22 -19c-13 0 -20 11 -20 23c0 44 77 303 228 569c-55 -39 -107 -67 -174 -83c-4 -94 -66 -200 -164 -200zM278 486c-5 38 -26 74 -61 74
c-34 0 -54 -16 -54 -38c0 -18 30 -39 67 -39c16 0 32 1 48 3zM533 241c0 48 37 99 97 99c66 0 107 -57 107 -137c0 -106 -63 -211 -166 -211c-68 0 -114 58 -114 144c-1 31 6 64 18 90c4 9 11 14 20 14c12 0 22 -10 22 -23c0 -2 -1 -5 -2 -8c-10 -24 -15 -48 -15 -73
c0 -52 24 -103 75 -103c73 0 118 85 118 170c0 41 -14 95 -63 95c-34 0 -54 -32 -54 -57s11 -37 36 -44c10 -3 16 -12 16 -22c0 -11 -10 -21 -22 -21c-2 0 -73 9 -73 87zM863 241c0 48 37 99 97 99c66 0 107 -57 107 -137c0 -106 -63 -211 -166 -211c-68 0 -114 58 -114 144
c-1 31 6 64 18 90c4 9 11 14 20 14c12 0 22 -10 22 -23c0 -2 -1 -5 -2 -8c-10 -24 -15 -48 -15 -73c0 -52 24 -103 75 -103c73 0 118 85 118 170c0 41 -14 95 -63 95c-34 0 -54 -32 -54 -57s11 -37 36 -44c10 -3 16 -12 16 -22c0 -11 -10 -21 -22 -21c-2 0 -73 9 -73 87z
" />
    <glyph glyph-name="questiondown" unicode="&#xbf;" horiz-adv-x="425" 
d="M223 244c22 0 49 -45 49 -88c0 -61 -43 -100 -101 -142c-51 -37 -99 -81 -99 -162c0 -57 45 -103 124 -103c10 0 24 1 36 4c-32 19 -48 52 -48 91c0 56 40 90 80 90c39 0 82 -29 82 -90c0 -25 -9 -55 -31 -76c34 -2 60 19 67 31c6 10 11 16 20 16c13 0 23 -8 23 -21
c0 -26 -47 -66 -114 -66c-8 0 -20 0 -32 4c-23 -13 -53 -23 -88 -23c-53 0 -96 16 -125 45c-26 26 -39 60 -39 99c0 100 62 154 127 201c43 31 74 60 74 102c0 26 -15 45 -20 49c-4 5 -7 11 -7 17c0 12 10 22 22 22zM255 338l-5 -31c-2 -13 -14 -21 -29 -19
c-14 2 -22 14 -21 25l6 33c2 10 11 19 23 19c18 0 28 -13 26 -27zM228 -156c0 -31 16 -58 42 -72c20 17 32 43 32 72c0 37 -22 49 -40 49c-16 0 -34 -16 -34 -49z" />
    <glyph glyph-name="grave" unicode="`" horiz-adv-x="205" 
d="M179 411c0 -12 -7 -20 -15 -20c-5 0 -11 1 -18 6c-24 19 -72 58 -99 78c-16 12 -20 21 -20 31c0 11 8 17 18 17c3 0 8 -2 12 -3c9 -7 19 -16 24 -20c24 -21 57 -46 90 -72c5 -4 8 -10 8 -17z" />
    <glyph glyph-name="acute" unicode="&#xb4;" horiz-adv-x="205" 
d="M125 500c5 4 15 13 24 20c4 1 9 3 12 3c10 0 18 -6 18 -17c0 -10 -6 -20 -20 -31c-27 -20 -75 -59 -99 -76c-7 -5 -13 -6 -18 -6c-8 0 -15 10 -15 18c0 7 3 13 8 17c33 26 66 51 90 72z" />
    <glyph glyph-name="circumflex" unicode="&#x2c6;" horiz-adv-x="290" 
d="M152 513c7 0 11 -2 13 -4c28 -28 41 -49 70 -67c7 -4 11 -11 11 -19s-10 -17 -23 -17c-16 0 -58 47 -75 64c-27 -19 -46 -37 -68 -52c-4 -2 -10 -3 -15 -3c-12 0 -20 10 -20 17s4 14 10 18c22 14 87 63 97 63z" />
    <glyph glyph-name="tilde" unicode="&#x2dc;" horiz-adv-x="326" 
d="M214 416c-19 0 -41 6 -56 20c-14 13 -26 19 -36 19c-14 0 -23 -16 -29 -35c-2 -6 -9 -10 -16 -10c-12 0 -20 10 -20 22c0 17 27 60 64 60c17 0 35 -5 54 -22c13 -12 24 -17 34 -17c12 0 19 14 23 25c3 8 11 13 18 13c4 0 8 -1 12 -4c5 -3 7 -11 7 -19
c0 -13 -20 -52 -55 -52z" />
    <glyph glyph-name="macron" unicode="&#xaf;" horiz-adv-x="237" 
d="M184 475c15 4 28 -7 28 -15c0 -11 -7 -20 -17 -21c-28 -7 -53 -9 -75 -9c-11 0 -61 4 -74 4c-12 0 -22 8 -22 17c0 10 10 21 22 21c11 0 61 -4 74 -4c20 0 40 2 64 7z" />
    <glyph glyph-name="breve" unicode="&#x2d8;" horiz-adv-x="292" 
d="M138 447c40 0 60 22 69 49c4 12 12 16 19 16c4 0 8 -1 12 -4c3 -2 7 -7 7 -11s0 -9 -3 -16c-15 -35 -46 -71 -104 -71c-61 0 -91 53 -90 85c0 11 5 22 18 22c9 0 19 -7 20 -17c3 -27 25 -53 52 -53z" />
    <glyph glyph-name="dotaccent" unicode="&#x2d9;" horiz-adv-x="122" 
d="M37 479l-1 16c0 12 10 22 22 22c25 0 24 -27 23 -47v-7c0 -2 3 -12 3 -14c0 -12 -10 -22 -23 -22c-24 0 -24 25 -24 52z" />
    <glyph glyph-name="dieresis" unicode="&#xa8;" horiz-adv-x="254" 
d="M200 469v-7c0 -2 2 -12 2 -14c0 -12 -10 -22 -22 -22c-24 0 -24 25 -24 52c0 3 -2 14 -2 16c0 12 10 22 22 22c25 0 25 -26 24 -47zM92 469v-7c0 -2 2 -12 2 -14c0 -12 -10 -22 -22 -22c-24 0 -24 25 -24 52c0 3 -2 14 -2 16c0 12 10 22 22 22c25 0 25 -26 24 -47z" />
    <glyph glyph-name="ring" unicode="&#x2da;" horiz-adv-x="267" 
d="M134 399c-49 0 -81 33 -81 70c0 34 23 66 42 66c13 0 23 -5 23 -17c0 -8 -6 -13 -14 -18c-5 -3 -12 -18 -12 -31c0 -21 23 -32 41 -32c29 0 42 21 42 43c0 8 -9 27 -22 27c-12 0 -23 9 -23 22c0 11 10 15 22 15c34 2 63 -34 63 -64c0 -42 -38 -81 -81 -81z" />
    <glyph glyph-name="cedilla" unicode="&#xb8;" horiz-adv-x="243" 
d="M114 -182c-22 0 -61 10 -61 30c0 12 8 22 20 22c5 0 9 -1 14 -4c10 -8 19 -10 31 -10s35 11 35 29c0 20 -12 28 -29 36c-11 5 -27 10 -27 30c0 13 13 27 26 42l23 23l34 -13l-43 -49c20 -6 56 -21 56 -68c0 -40 -44 -68 -79 -68z" />
    <glyph glyph-name="hungarumlaut" unicode="&#x2dd;" horiz-adv-x="356" 
d="M166 518c13 0 18 -10 18 -21c0 -4 -2 -10 -5 -13c-28 -36 -53 -56 -99 -93c-5 -4 -9 -5 -15 -5c-7 0 -16 12 -16 20c0 6 2 14 8 17c48 39 68 56 92 87c5 5 11 8 17 8zM252 481c12 7 23 14 36 23c4 3 8 5 13 5c12 0 17 -10 17 -21c0 -14 -8 -20 -49 -43
c-18 -12 -38 -23 -65 -45c-5 -4 -9 -5 -15 -5c-7 0 -17 10 -17 20c0 7 4 13 9 18c30 23 51 36 71 48z" />
    <glyph glyph-name="ogonek" unicode="&#x2db;" horiz-adv-x="201" 
d="M107 -162c-39 0 -75 27 -75 70c0 70 86 122 101 125l7 -30c-25 -17 -69 -52 -69 -89c0 -32 17 -40 31 -40c5 0 11 1 15 4c6 3 11 4 15 4c11 0 19 -7 19 -19c0 -18 -27 -25 -44 -25z" />
    <glyph glyph-name="caron" unicode="&#x2c7;" horiz-adv-x="289" 
d="M155 388c-7 0 -11 2 -13 4c-28 28 -41 49 -70 67c-7 4 -11 11 -11 19s10 17 23 17c16 0 58 -47 75 -64c27 19 46 37 68 52c4 2 10 3 15 3c12 0 20 -10 20 -17s-4 -14 -10 -18c-22 -14 -87 -63 -97 -63z" />
    <glyph glyph-name="emdash" unicode="&#x2014;" horiz-adv-x="800" 
d="M753 273h3c12 0 22 -10 22 -22c0 -11 -8 -20 -19 -22c-100 -12 -193 -13 -287 -13h-311c-54 0 -96 0 -112 -2h-3c-12 0 -22 10 -22 22c0 11 8 20 19 22c18 3 61 4 119 4c42 0 260 -2 305 -2c43 0 138 2 286 13z" />
    <glyph glyph-name="AE" unicode="&#xc6;" horiz-adv-x="1077" 
d="M471 355l11 -11c84 29 155 66 201 93c3 98 70 206 156 206c42 0 63 -23 63 -59c0 -56 -85 -120 -174 -170c1 -11 4 -24 8 -35c36 16 77 24 116 24c91 0 119 -45 119 -80c0 -39 -41 -72 -95 -72c-59 0 -118 22 -156 70c-15 -11 -65 -48 -65 -123c0 -49 17 -86 50 -115
c43 62 137 94 195 94c103 0 139 -51 139 -95c0 -52 -45 -99 -143 -99c-45 0 -119 8 -181 42c-17 -25 -25 -62 -26 -91l1 -15c0 -13 -10 -22 -23 -22c-22 0 -21 23 -21 38c0 38 11 77 33 113c-45 37 -68 92 -68 150c0 71 36 125 87 159c-5 11 -8 24 -11 36
c-43 -25 -109 -56 -180 -81c34 -48 55 -115 55 -185c0 -42 -5 -143 -78 -143c-15 0 -28 6 -39 17c-24 23 -35 70 -35 140c0 42 4 92 9 140c-59 -20 -119 -32 -179 -32c-13 0 -48 -2 -82 5c-5 -35 -7 -71 -8 -103c0 -59 9 -104 23 -122c3 -4 5 -9 5 -14
c0 -12 -10 -22 -23 -22c-27 0 -49 59 -49 158c0 34 2 71 9 110c-24 6 -94 27 -94 92c0 50 55 104 148 112c42 99 103 175 184 175c32 0 58 -10 78 -30c30 -30 44 -83 44 -167c0 -28 -1 -57 -4 -88zM200 424c-15 -38 -28 -89 -35 -130c24 -4 51 -5 75 -5c54 0 121 11 183 33
c1 4 1 18 1 22c-58 52 -138 79 -224 80zM154 422c-59 -10 -88 -39 -88 -68c0 -34 35 -47 56 -52c6 39 18 84 32 120zM431 443c-1 89 -14 154 -81 154c-54 0 -101 -59 -134 -133c78 -4 154 -29 213 -72c1 18 2 35 2 51zM896 24c59 0 98 21 98 58c0 27 -29 54 -94 54
c-49 0 -116 -20 -161 -75c37 -23 96 -37 157 -37zM925 323c0 29 -35 39 -73 39c-32 0 -69 -8 -97 -21c36 -39 91 -49 121 -49s49 16 49 31zM839 602c-47 0 -99 -62 -109 -141c74 43 127 95 127 121c0 11 -3 20 -18 20zM486 27c29 0 31 68 31 100c0 64 -17 123 -50 170
c-1 0 -1 0 -2 -1c-6 -66 -11 -112 -11 -155c0 -81 18 -114 32 -114z" />
    <glyph glyph-name="ordfeminine" unicode="&#xaa;" horiz-adv-x="313" 
d="M248 388h-1c2 -4 3 -7 3 -11c0 -13 -10 -22 -22 -22c-16 0 -26 15 -26 43c0 17 3 39 8 68c4 29 10 62 10 90c0 18 -3 30 -12 40c-5 6 -14 9 -24 9c-56 0 -104 -98 -104 -166c0 -18 3 -44 26 -44c22 0 38 26 42 44c2 10 10 17 20 17c12 0 20 -10 20 -22
c0 -19 -27 -81 -85 -81c-32 0 -68 21 -68 86c0 83 61 207 151 207c48 0 79 -34 79 -90c0 -31 -7 -66 -11 -97c-4 -21 -8 -47 -8 -62c0 -4 1 -7 2 -9zM159 286l-57 1c-14 0 -25 -1 -31 -2c-14 -3 -27 8 -27 21c0 22 21 22 58 22h56c24 0 47 0 57 3c2 1 5 2 7 2
c12 0 23 -10 23 -23c0 -24 -34 -24 -86 -24z" />
    <glyph glyph-name="Lslash" unicode="&#x141;" horiz-adv-x="563" 
d="M341 455c88 35 152 105 152 163c0 18 -11 32 -28 32c-36 0 -99 -45 -124 -195zM104 -1c81 0 138 77 167 217c-155 0 -226 -93 -226 -156c0 -38 29 -61 59 -61zM103 -42c-56 0 -103 39 -103 102c0 84 85 202 277 199c2 10 3 25 4 42c-32 -8 -73 -12 -96 -12
c-16 0 -25 7 -25 20c0 7 7 20 25 20c31 0 58 5 102 14c0 9 2 37 3 53c-19 -3 -39 -5 -59 -5c-92 0 -159 47 -159 134c0 12 9 22 22 22c12 0 21 -10 21 -22c0 -75 71 -91 116 -91c22 0 43 2 64 7c15 142 85 254 177 254c40 0 67 -30 67 -76c0 -91 -93 -172 -203 -211
c-1 -11 -3 -36 -4 -52c42 10 83 20 123 20c12 0 22 -9 22 -21c0 -10 -10 -19 -21 -19c-40 -1 -85 -11 -128 -23c-2 -25 -6 -49 -7 -57c164 -23 208 -133 208 -210c0 -93 -74 -144 -89 -144c-13 0 -23 10 -23 22c0 8 4 14 10 18c41 27 58 64 58 105c0 60 -31 148 -171 167
c-35 -169 -105 -256 -211 -256z" />
    <glyph glyph-name="Oslash" unicode="&#xd8;" horiz-adv-x="660" 
d="M501 545c65 0 126 -77 126 -211c0 -193 -137 -339 -300 -339c-66 0 -126 18 -167 46c-25 -33 -48 -60 -69 -80c-5 -4 -10 -6 -15 -6c-12 0 -21 7 -21 19c0 5 2 12 6 16c21 21 44 47 69 79c-50 45 -89 128 -89 230c0 186 140 331 302 331c19 0 37 -2 56 -5
c11 -2 18 -10 18 -21c0 -13 -10 -20 -21 -20c-13 0 -27 5 -52 5c-139 0 -256 -126 -258 -289c-1 -88 26 -151 70 -197c52 75 139 211 191 301c53 92 83 141 154 141zM327 36c143 0 255 137 255 298c0 115 -48 170 -80 170c-43 0 -63 -30 -117 -122
c-52 -89 -142 -226 -198 -305c39 -31 85 -41 140 -41z" />
    <glyph glyph-name="OE" unicode="&#x152;" horiz-adv-x="1094" 
d="M910 -10c-36 0 -108 5 -173 45c-26 -41 -26 -64 -26 -100c0 -11 -10 -21 -22 -21c-23 0 -23 22 -23 35c0 36 13 74 35 110c-45 40 -69 90 -69 155c0 72 36 125 87 160c-7 17 -12 35 -14 54c-41 -11 -83 -18 -125 -20c7 -29 10 -59 10 -91c0 -192 -112 -328 -276 -328
c-141 0 -273 107 -273 309c0 84 29 169 75 217c4 4 10 7 16 7c12 0 22 -10 22 -22c0 -6 -2 -11 -6 -16c-38 -39 -62 -113 -62 -186c0 -176 110 -268 228 -268c138 0 231 118 231 287c0 32 -2 62 -9 89c-153 -4 -275 26 -323 74c-18 18 -28 40 -28 62c0 45 49 91 138 91
c109 0 205 -61 246 -185c50 2 94 11 135 23c10 92 75 189 156 189c39 0 63 -25 63 -60c0 -59 -72 -119 -175 -157c0 -16 4 -34 9 -48c36 15 77 24 115 24c92 0 119 -44 119 -80c0 -43 -38 -71 -94 -71c-59 0 -118 22 -156 69c-15 -10 -65 -48 -65 -123c0 -50 17 -88 53 -120
c49 63 131 96 200 96c53 0 85 -18 100 -34c17 -18 27 -43 27 -68c0 -56 -50 -98 -146 -98zM912 31c61 0 100 20 100 58c0 32 -28 60 -83 60c-62 0 -127 -29 -167 -80c42 -23 83 -38 150 -38zM779 357c43 -49 104 -48 118 -48c31 0 50 13 50 30c0 29 -34 39 -75 39
c-31 0 -70 -8 -93 -21zM751 486c76 31 127 77 127 114c0 7 -8 17 -18 17c-46 0 -95 -58 -109 -131zM524 447c-45 111 -134 145 -202 145c-41 0 -92 -14 -92 -51c0 -48 109 -97 294 -94z" />
    <glyph glyph-name="ordmasculine" unicode="&#xba;" horiz-adv-x="306" 
d="M108 563c0 44 30 84 76 84c54 0 90 -47 90 -114c0 -87 -53 -181 -137 -181c-58 0 -97 51 -97 128c0 22 3 44 10 69c2 10 11 17 21 17c13 0 22 -10 22 -22c0 -2 0 -4 -1 -6c-5 -22 -7 -40 -7 -58c0 -44 14 -87 53 -87c55 0 91 71 91 140c0 33 -9 73 -45 73
c-18 0 -32 -18 -32 -40c0 -17 15 -24 29 -24c12 0 21 -7 21 -20c0 -15 -12 -21 -26 -21c-36 0 -68 25 -68 62zM171 280h-58c-12 0 -24 0 -30 -1c-14 -2 -26 8 -26 22c0 21 19 21 56 21l58 -1c23 0 46 1 56 5c3 1 5 2 7 2c13 0 22 -11 22 -23c0 -25 -33 -25 -85 -25z" />
    <glyph glyph-name="ae" unicode="&#xe6;" horiz-adv-x="512" 
d="M249 130l1 11c3 33 10 77 10 92c0 43 -18 69 -46 69c-71 0 -136 -121 -136 -212c0 -42 17 -62 43 -62c31 0 60 34 72 61c3 9 12 15 20 15c13 0 22 -10 22 -23c0 -17 -43 -94 -115 -94c-42 0 -86 27 -86 103c0 104 77 253 182 253c44 0 73 -28 84 -73c29 46 74 68 115 68
c57 0 85 -33 85 -77c0 -78 -81 -117 -142 -117c-11 0 -21 7 -21 20c0 12 9 21 21 22c47 1 98 30 98 75c0 18 -12 36 -40 36c-51 0 -122 -64 -122 -173c0 -53 23 -96 81 -96c29 0 46 11 61 29c5 6 12 9 18 9c12 0 21 -10 21 -23c0 -14 -32 -56 -101 -56
c-60 0 -125 33 -125 143z" />
    <glyph glyph-name="dotlessi" unicode="&#x131;" horiz-adv-x="160" 
d="M112 332c10 -3 17 -12 17 -22c0 -1 0 -3 -1 -5c-18 -72 -37 -202 -43 -297c-1 -12 -10 -21 -22 -21c-13 0 -23 10 -23 23s15 187 45 306c2 12 15 19 27 16z" />
    <glyph glyph-name="lslash" unicode="&#x142;" horiz-adv-x="220" 
d="M106 -4c-28 0 -30 44 -30 72c0 55 14 140 28 205c-38 -24 -50 -25 -56 -25c-11 0 -21 10 -21 23c0 11 8 21 19 21s39 15 68 32l11 45c22 91 36 142 36 183c0 20 -1 33 -4 38c-1 3 -2 6 -2 8c0 10 6 18 14 21c2 1 6 2 9 2c27 0 27 -37 27 -69c0 -47 -17 -112 -31 -170
l-6 -27c33 21 63 38 76 38c11 0 20 -8 21 -18c1 -12 -5 -25 -17 -27c-18 -3 -56 -25 -92 -46c-18 -80 -35 -174 -35 -234c0 -28 3 -37 4 -40c2 -3 3 -6 3 -10c0 -13 -10 -22 -22 -22z" />
    <glyph glyph-name="oslash" unicode="&#xf8;" horiz-adv-x="337" 
d="M157 190l19 34c37 66 53 99 83 99c13 0 25 -5 35 -15c18 -17 26 -49 26 -96c0 -107 -63 -222 -165 -222c-20 0 -38 5 -55 16c-15 -22 -26 -39 -39 -58c-4 -6 -11 -9 -18 -9c-11 0 -21 7 -21 19c0 5 2 11 5 15c13 19 27 38 44 64c-19 24 -31 65 -31 107
c0 122 77 202 140 202c22 0 25 -17 25 -23s-4 -18 -25 -18c-37 0 -96 -64 -96 -161c0 -25 4 -49 12 -66c22 36 42 77 61 112zM213 203l-19 -36c-22 -41 -48 -82 -73 -124c10 -7 23 -12 35 -12c72 0 119 95 119 181c0 50 -8 68 -14 68c-8 0 -31 -45 -48 -77z" />
    <glyph glyph-name="oe" unicode="&#x153;" horiz-adv-x="531" 
d="M376 185c48 2 98 31 98 76c0 20 -13 36 -40 36c-51 0 -122 -63 -122 -174c0 -52 27 -95 84 -95c29 0 48 10 62 28c5 5 10 8 16 8c13 0 21 -8 21 -20c0 -15 -31 -57 -101 -57c-49 0 -95 23 -113 75c-36 -67 -89 -80 -122 -80c-72 0 -119 59 -119 155c0 35 4 58 15 84
c3 9 13 14 21 14c12 0 19 -10 19 -23c0 -3 -1 -5 -2 -8c-6 -20 -8 -38 -8 -67c0 -58 21 -114 75 -114c79 0 113 106 113 180c0 40 -14 96 -62 96c-38 0 -55 -27 -55 -53c0 -13 8 -25 18 -25c4 0 8 2 11 6c4 3 10 5 15 5c13 0 22 -8 22 -20c0 -19 -27 -33 -48 -33
c-33 0 -63 30 -63 65c0 47 35 96 100 96c44 0 83 -27 98 -81c30 53 79 79 125 79c57 0 85 -33 85 -77c0 -78 -82 -116 -142 -116c-12 0 -22 6 -22 18c0 13 10 22 21 22z" />
    <glyph glyph-name="germandbls" unicode="&#xdf;" horiz-adv-x="461" 
d="M-82 -211h-3c-11 0 -22 8 -22 21c0 11 8 20 20 22c129 20 153 311 167 486c12 154 55 330 201 330c78 0 121 -62 121 -125c0 -51 -19 -87 -57 -98c-31 -9 -73 -29 -73 -81c0 -34 32 -56 62 -77c27 -19 95 -68 95 -146c0 -81 -59 -143 -150 -143c-58 0 -133 35 -133 114
c0 54 41 91 79 91c39 0 67 -28 67 -65c0 -3 -1 -46 -28 -46c-12 0 -22 10 -22 22c0 3 5 20 5 24c0 12 -5 24 -22 24c-13 0 -33 -16 -33 -50c0 -55 57 -73 87 -73c62 0 105 41 105 102c0 37 -23 73 -72 107c-40 28 -84 59 -84 117c0 54 40 102 102 119c21 6 27 35 27 59
c0 37 -23 84 -77 84c-82 0 -140 -88 -156 -293c-16 -200 -40 -501 -206 -525z" />
    <glyph glyph-name="onesuperior" unicode="&#xb9;" horiz-adv-x="260" 
d="M172 519v-25c0 -26 4 -72 4 -102c0 -33 -7 -68 -33 -68c-11 0 -19 10 -19 21s12 21 12 47c0 28 -5 98 -5 116c-27 -6 -59 -9 -87 -9c-10 0 -20 6 -20 18c0 11 9 19 20 19c34 1 65 5 90 11c4 50 26 97 65 97c33 0 48 -22 48 -44c0 -37 -27 -65 -75 -81zM200 605
c-8 0 -19 -15 -25 -44c26 13 33 26 33 38c0 3 -3 6 -8 6z" />
    <glyph glyph-name="logicalnot" unicode="&#xac;" 
d="M356 97v156h-322v42h364v-198h-42z" />
    <glyph glyph-name="mu" unicode="&#xb5;" horiz-adv-x="382" 
d="M139 322v-3c-10 -64 -22 -140 -22 -188c0 -46 9 -92 41 -92c56 0 109 105 140 273c2 13 13 21 25 18c11 -2 19 -10 19 -21c0 -2 -4 -25 -4 -29c-19 -100 -25 -137 -25 -187c0 -25 2 -46 9 -61c2 -4 3 -7 3 -10c0 -13 -10 -23 -23 -23c-28 0 -32 61 -33 86
c-25 -51 -64 -90 -111 -90c-22 0 -48 5 -65 46c-13 -79 -27 -163 -48 -208c-4 -9 -12 -13 -20 -13c-12 0 -22 10 -22 22c0 3 1 6 1 9c33 73 55 243 71 357c11 76 15 110 21 123c4 8 12 14 20 14c13 0 23 -11 23 -23z" />
    <glyph glyph-name="trademark" unicode="&#x2122;" horiz-adv-x="620" 
d="M139 632c27 0 70 -1 133 -3c31 -1 44 -25 42 -66c25 48 62 70 85 70c28 0 56 -22 59 -74c19 40 54 76 92 76c19 0 62 -17 62 -94c0 -66 -16 -129 -24 -162c-2 -8 -8 -14 -22 -14c-12 0 -20 7 -20 14c0 6 5 14 6 21c4 22 20 79 20 139c0 27 -10 54 -27 54
c-37 0 -79 -56 -96 -161c-3 -18 -8 -34 -10 -44c-2 -12 -9 -15 -17 -15c-12 0 -20 10 -20 19c0 5 5 32 9 51c6 30 11 68 11 93c0 27 -5 57 -29 57c-32 0 -82 -64 -110 -210c-2 -10 -9 -16 -19 -16c-12 0 -19 9 -19 21c0 9 8 33 13 57c8 36 18 77 18 105c0 8 2 34 -10 42
c-53 1 -99 2 -117 1c-7 -17 -31 -85 -31 -131c0 -50 26 -55 35 -56c10 0 18 -9 18 -19c0 -11 -9 -20 -20 -21c0 0 -5 1 -6 1c-45 7 -66 44 -66 92c0 44 21 105 29 133c-20 -1 -36 -2 -48 -5c-9 -3 -22 -14 -23 -21c-2 -9 -8 -16 -18 -16c-13 0 -20 8 -20 21s6 26 19 37
c21 18 71 24 121 24z" />
    <glyph glyph-name="Eth" unicode="&#xd0;" horiz-adv-x="602" 
d="M273 -14c-121 0 -132 125 -131 240c-31 -5 -51 -9 -76 -9c-23 0 -25 14 -25 20c0 2 0 21 25 21c24 0 45 4 78 10c1 19 4 55 8 79c-62 3 -122 49 -122 117c0 100 122 171 251 171c229 0 304 -134 304 -269c0 -168 -124 -380 -312 -380zM274 27c161 0 266 199 266 339
c0 87 -36 228 -261 228c-112 0 -204 -61 -204 -130c0 -56 52 -73 83 -76c4 31 18 100 26 128c2 10 12 16 21 16c12 0 21 -10 21 -19c0 -4 0 -7 -1 -10c-6 -26 -17 -84 -23 -119c70 3 109 43 111 77c1 11 11 20 23 20s22 -10 22 -22c0 -39 -42 -114 -162 -116
c-4 -24 -7 -54 -7 -65c78 14 130 26 164 26c12 0 21 -9 21 -22c0 -12 -9 -19 -21 -19c-33 -1 -112 -17 -167 -28c-3 -127 19 -208 88 -208z" />
    <glyph glyph-name="onehalf" unicode="&#xbd;" horiz-adv-x="650" 
d="M172 519v-25c0 -26 4 -72 4 -102c0 -33 -7 -68 -33 -68c-11 0 -19 10 -19 21s12 21 12 47c0 28 -5 98 -5 116c-27 -6 -59 -9 -87 -9c-10 0 -20 6 -20 18c0 11 9 19 20 19c34 1 65 5 90 11c4 50 26 97 65 97c33 0 48 -22 48 -44c0 -37 -27 -65 -75 -81zM200 605
c-8 0 -19 -15 -25 -44c26 13 33 26 33 38c0 3 -3 6 -8 6zM438 193v1c-3 4 -4 8 -4 13c0 11 8 20 19 20c15 0 25 -17 25 -34c0 -28 -22 -57 -57 -57c-34 0 -65 27 -65 66c0 61 52 110 118 110c64 0 100 -45 100 -101c0 -52 -30 -120 -80 -169c17 -10 32 -17 48 -17
c29 0 40 18 40 43c0 12 6 21 18 21c18 0 19 -17 19 -26c0 -48 -34 -76 -77 -76c-32 0 -56 14 -79 32c-25 -17 -52 -28 -79 -28c-33 0 -63 19 -63 50c0 33 29 59 65 59c32 0 55 -20 76 -37c43 39 72 103 72 148c0 33 -17 63 -61 63c-47 0 -77 -32 -77 -72
c0 -18 13 -28 25 -28c13 0 17 12 17 19zM384 30c15 0 32 4 46 12c-12 10 -28 21 -44 21c-12 0 -26 -6 -26 -20c0 -6 10 -13 24 -13zM121 6v5c28 111 124 274 218 434c47 80 90 153 110 185c5 8 12 12 20 12c9 0 17 -10 17 -21c0 -3 -2 -10 -7 -18
c-24 -41 -60 -101 -107 -179c-88 -148 -189 -319 -214 -424c-3 -12 -15 -19 -24 -16c-7 3 -13 12 -13 22z" />
    <glyph glyph-name="plusminus" unicode="&#xb1;" 
d="M195 259v130h42v-130h161v-42h-161v-133h-42v133h-161v42h161zM34 7v42h364v-42h-364z" />
    <glyph glyph-name="Thorn" unicode="&#xde;" horiz-adv-x="589" 
d="M380 246h4c14 -4 26 -6 39 -6c68 0 121 50 121 121c0 78 -60 126 -137 126c-32 0 -63 -9 -90 -23c11 -72 15 -144 15 -207c0 -127 -14 -271 -115 -271c-58 0 -98 72 -98 179c0 136 59 254 147 317c-7 36 -16 68 -30 93c-30 -11 -62 -17 -93 -17c-85 0 -123 36 -123 74
c0 42 44 73 100 73c79 0 124 -53 136 -75c23 13 41 29 51 47c4 7 11 11 19 11c13 0 22 -8 22 -21c0 -14 -24 -49 -71 -74c13 -26 23 -57 30 -87c31 14 65 22 100 22c103 0 182 -66 182 -167c0 -90 -69 -163 -167 -163c-19 0 -65 0 -65 27c0 13 10 21 23 21zM66 632
c0 -26 42 -33 79 -33c22 0 46 3 72 13c-16 27 -52 52 -99 52c-24 0 -52 -11 -52 -32zM288 257c0 66 -5 127 -13 180c-70 -59 -111 -162 -111 -272c0 -83 26 -139 54 -139c47 0 70 81 70 231z" />
    <glyph glyph-name="onequarter" unicode="&#xbc;" horiz-adv-x="720" 
d="M172 519v-25c0 -26 4 -72 4 -102c0 -33 -7 -68 -33 -68c-11 0 -19 10 -19 21s12 21 12 47c0 28 -5 98 -5 116c-27 -6 -59 -9 -87 -9c-10 0 -20 6 -20 18c0 11 9 19 20 19c34 1 65 5 90 11c4 50 26 97 65 97c33 0 48 -22 48 -44c0 -37 -27 -65 -75 -81zM200 605
c-8 0 -19 -15 -25 -44c26 13 33 26 33 38c0 3 -3 6 -8 6zM567 -2c-21 -1 -25 13 -25 35c0 19 4 40 5 49c-20 5 -42 14 -64 22c-10 4 -19 7 -29 11c-19 -16 -43 -35 -78 -35c-34 0 -49 27 -49 48c0 24 21 51 54 51c26 0 45 -9 63 -17c28 25 59 71 59 109c0 13 -12 22 -26 23
l-10 -1c-6 -1 -11 6 -11 15c0 14 14 19 30 19c38 0 58 -27 58 -52c0 -49 -29 -93 -63 -129c18 -8 55 -22 72 -26c5 20 11 47 17 75c8 37 11 55 11 62s0 12 -1 14s-1 3 -1 5c0 6 5 11 21 11c22 0 22 -17 22 -27s-4 -32 -6 -41c-3 -13 -19 -89 -23 -105c11 -2 21 -3 31 -3
c20 0 28 10 33 18c2 3 5 4 10 4c9 0 17 -5 17 -16c0 -17 -19 -44 -60 -44c-11 0 -23 1 -37 3c-1 -10 -3 -28 -3 -44c0 -8 0 -15 2 -18c1 -2 2 -3 2 -5c0 -6 -5 -11 -21 -11zM367 126c0 -6 8 -11 15 -10c8 0 20 4 37 18c-14 8 -24 10 -35 10c-9 -2 -17 -7 -17 -18zM136 6v5
c28 111 124 274 218 434c47 80 90 153 110 185c5 8 12 12 20 12c9 0 17 -10 17 -21c0 -3 -2 -10 -7 -18c-24 -41 -60 -101 -107 -179c-88 -148 -188 -319 -214 -424c-3 -12 -15 -19 -24 -16c-7 3 -13 12 -13 22z" />
    <glyph glyph-name="divide" unicode="&#xf7;" 
d="M398 181h-364v42h364v-42zM173 351c0 24 20 43 43 43s43 -19 43 -43c0 -21 -20 -43 -42 -43c-24 0 -44 20 -44 43zM173 53c0 24 20 43 43 43s43 -20 43 -43c0 -21 -20 -43 -42 -43c-24 0 -44 20 -44 43z" />
    <glyph glyph-name="brokenbar" unicode="&#xa6;" horiz-adv-x="222" 
d="M88 -175v350h46v-350h-46zM88 325v350h46v-350h-46z" />
    <glyph glyph-name="degree" unicode="&#xb0;" horiz-adv-x="240" 
d="M136 600c48 0 86 -39 86 -87c0 -49 -38 -87 -86 -87c-49 0 -88 38 -88 87c0 48 39 87 88 87zM136 567c-29 0 -52 -25 -52 -54s23 -54 52 -54s52 25 52 54s-23 54 -52 54z" />
    <glyph glyph-name="thorn" unicode="&#xfe;" horiz-adv-x="407" 
d="M271 341c68 0 115 -59 115 -144c0 -107 -52 -207 -131 -207c-53 0 -75 42 -75 64c0 12 10 22 23 22c9 0 18 -6 21 -16c5 -15 17 -27 32 -27c47 0 86 76 86 164c0 53 -23 101 -71 101c-62 0 -106 -57 -123 -81c11 -87 13 -183 13 -270c0 -134 -7 -247 -76 -247
c-71 0 -81 107 -81 166c0 124 37 259 99 360c-16 110 -47 218 -110 261c-7 4 -9 12 -9 19c0 12 10 22 21 22c14 0 98 -46 135 -255c37 41 81 68 131 68zM117 -53c0 47 1 129 -5 210c-40 -82 -62 -198 -62 -291c0 -97 18 -126 35 -125c10 1 32 10 32 206z" />
    <glyph glyph-name="threequarters" unicode="&#xbe;" horiz-adv-x="720" 
d="M133 320c-82 0 -103 58 -103 94c0 10 9 19 19 19c12 0 20 -9 20 -19c0 -4 2 -26 15 -40c11 -11 27 -17 49 -17c55 0 94 31 94 75c0 14 -2 27 -8 36c-20 -19 -48 -30 -76 -30c-35 0 -59 22 -59 48c0 28 29 50 69 50c21 0 42 -4 58 -12c4 9 6 22 6 32c0 18 -9 49 -54 49
c-21 0 -49 -12 -56 -38c-3 -9 -9 -15 -18 -15c-11 0 -20 10 -20 21c0 21 35 70 94 70c64 0 94 -40 94 -87c0 -21 -5 -38 -14 -55c17 -16 25 -41 25 -69c0 -60 -53 -112 -135 -112zM123 486c0 -8 9 -11 20 -11c17 0 34 7 46 17c-9 4 -24 7 -36 7c-17 0 -30 -4 -30 -13z
M567 -2c-21 -1 -25 13 -25 35c0 19 4 40 5 49c-20 5 -42 14 -64 22c-10 4 -19 7 -29 11c-19 -16 -43 -35 -78 -35c-34 0 -49 27 -49 48c0 24 21 51 54 51c26 0 45 -9 63 -17c28 25 59 71 59 109c0 13 -12 22 -26 23l-10 -1c-6 -1 -11 6 -11 15c0 14 14 19 30 19
c38 0 58 -27 58 -52c0 -49 -29 -93 -63 -129c18 -8 55 -22 72 -26c5 20 11 47 17 75c8 37 11 55 11 62s0 12 -1 14s-1 3 -1 5c0 6 5 11 21 11c22 0 22 -17 22 -27s-4 -32 -6 -41c-3 -13 -19 -89 -23 -105c11 -2 21 -3 31 -3c20 0 28 10 33 18c2 3 5 4 10 4c9 0 17 -5 17 -16
c0 -17 -19 -44 -60 -44c-11 0 -23 1 -37 3c-1 -10 -3 -28 -3 -44c0 -8 0 -15 2 -18c1 -2 2 -3 2 -5c0 -6 -5 -11 -21 -11zM367 126c0 -6 8 -11 15 -10c8 0 20 4 37 18c-14 8 -24 10 -35 10c-9 -2 -17 -7 -17 -18zM156 6v5c28 111 124 274 218 434c47 80 90 153 110 185
c5 8 12 12 20 12c9 0 17 -10 17 -21c0 -3 -2 -10 -7 -18c-24 -41 -60 -101 -107 -179c-88 -148 -188 -319 -214 -424c-3 -12 -15 -19 -24 -16c-7 3 -13 12 -13 22z" />
    <glyph glyph-name="twosuperior" unicode="&#xb2;" horiz-adv-x="320" 
d="M138 523v1c-3 4 -4 8 -4 13c0 11 8 20 19 20c15 0 25 -17 25 -34c0 -28 -22 -57 -57 -57c-34 0 -65 27 -65 66c0 61 52 110 118 110c64 0 100 -45 100 -101c0 -52 -30 -120 -80 -169c17 -10 32 -17 48 -17c29 0 40 18 40 43c0 12 6 21 18 21c18 0 19 -17 19 -26
c0 -48 -34 -76 -77 -76c-32 0 -56 14 -79 32c-25 -17 -52 -28 -79 -28c-33 0 -63 19 -63 50c0 33 29 59 65 59c32 0 55 -20 76 -37c43 39 72 103 72 148c0 33 -17 63 -61 63c-47 0 -77 -32 -77 -72c0 -18 13 -28 25 -28c13 0 17 12 17 19zM84 360c15 0 32 4 46 12
c-12 10 -28 21 -44 21c-12 0 -26 -6 -26 -20c0 -6 10 -13 24 -13z" />
    <glyph glyph-name="registered" unicode="&#xae;" horiz-adv-x="516" 
d="M254 232c-120 0 -204 83 -204 214c0 116 77 223 217 223c128 0 199 -102 199 -211c0 -114 -71 -226 -212 -226zM254 268c116 0 170 90 170 190c0 95 -57 175 -157 175c-115 0 -175 -88 -175 -187c0 -117 69 -178 162 -178zM228 467l-5 -23c-5 -23 -11 -43 -11 -59
c0 -12 4 -25 6 -31c1 -4 1 -8 1 -11c0 -7 -7 -13 -22 -13c-20 0 -29 16 -29 55c0 18 5 41 11 65c3 13 9 48 9 62c0 8 -1 34 -1 46c0 3 3 11 9 13c5 3 16 5 28 6c59 4 114 -19 114 -77c0 -24 -13 -46 -38 -55c13 -7 19 -14 25 -29c6 -14 11 -46 23 -56c3 -5 5 -10 5 -16
c0 -7 -11 -13 -23 -13c-18 0 -29 10 -38 43c-9 38 -21 51 -40 52c-5 0 -14 7 -14 19c0 13 8 19 14 19c32 2 40 20 40 35c0 28 -35 38 -59 37c1 -12 1 -16 1 -21c0 -15 -4 -35 -6 -48z" />
    <glyph glyph-name="minus" unicode="&#x2212;" 
d="M398 181h-364v42h364v-42z" />
    <glyph glyph-name="eth" unicode="&#xf0;" horiz-adv-x="332" 
d="M145 -8c-64 0 -114 59 -114 149c0 119 67 200 139 200c57 0 73 -39 73 -49c0 -12 -9 -22 -22 -22c-8 0 -17 2 -24 13c-6 9 -13 14 -30 14c-46 0 -91 -62 -91 -156c0 -58 27 -110 71 -110c87 0 123 160 123 294c0 48 -11 105 -29 136c-23 -16 -72 -45 -94 -45
c-13 0 -23 7 -23 20c0 10 9 20 19 21c15 3 51 22 79 40c-25 43 -68 79 -114 84c-10 1 -18 9 -18 19c0 13 11 23 23 23h4c35 0 109 -43 142 -103c34 23 61 42 80 45c15 3 28 -5 28 -19c0 -11 -8 -20 -18 -22c-14 -3 -39 -19 -71 -39c21 -36 37 -106 37 -160
c0 -43 -5 -214 -83 -295c-25 -26 -55 -38 -87 -38z" />
    <glyph glyph-name="multiply" unicode="&#xd7;" 
d="M186 202l-137 138l29 29l137 -138l139 138l29 -29l-138 -138l138 -137l-29 -30l-139 138l-137 -138l-29 30z" />
    <glyph glyph-name="threesuperior" unicode="&#xb3;" horiz-adv-x="270" 
d="M133 320c-82 0 -103 58 -103 94c0 10 9 19 19 19c12 0 20 -9 20 -19c0 -4 2 -26 15 -40c11 -11 27 -17 49 -17c55 0 94 31 94 75c0 14 -2 27 -8 36c-20 -19 -48 -30 -76 -30c-35 0 -59 22 -59 48c0 28 29 50 69 50c21 0 42 -4 58 -12c4 9 6 22 6 32c0 18 -9 49 -54 49
c-21 0 -49 -12 -56 -38c-3 -9 -9 -15 -18 -15c-11 0 -20 10 -20 21c0 21 35 70 94 70c64 0 94 -40 94 -87c0 -21 -5 -38 -14 -55c17 -16 25 -41 25 -69c0 -60 -53 -112 -135 -112zM123 486c0 -8 9 -11 20 -11c17 0 34 7 46 17c-9 4 -24 7 -36 7c-17 0 -30 -4 -30 -13z" />
    <glyph glyph-name="copyright" unicode="&#xa9;" horiz-adv-x="740" 
d="M365 12c200 0 291 164 291 321c0 147 -92 296 -271 296c-200 0 -301 -159 -301 -316c0 -184 115 -301 281 -301zM700 333c0 -182 -110 -360 -335 -360c-190 0 -325 131 -325 340c0 185 122 356 345 356c204 0 315 -164 315 -336zM456 518h-10c-10 0 -26 -9 -37 -25
c59 -11 91 -55 91 -97c0 -37 -23 -62 -61 -62c-40 0 -83 43 -84 117c-60 -15 -99 -83 -99 -149c0 -68 33 -123 106 -123c40 0 76 17 93 43c4 6 12 8 18 8c4 0 9 -1 12 -4c7 -5 7 -10 7 -17c0 -17 -41 -71 -130 -71c-90 0 -150 62 -150 164c0 88 57 180 151 191
c16 41 49 67 83 67c7 0 33 0 33 -24c0 -12 -11 -18 -23 -18zM458 396c0 24 -21 51 -60 58c0 -52 26 -79 40 -79c9 0 20 5 20 21z" />
    <glyph glyph-name="Aacute" unicode="&#xc1;" horiz-adv-x="662" 
d="M491 364c93 -53 141 -139 141 -228c0 -107 -60 -152 -113 -152c-21 0 -41 7 -54 21c-24 25 -35 67 -35 136c0 34 6 104 15 200c-46 22 -101 33 -160 33c-30 0 -58 -3 -84 -7c-17 -59 -27 -125 -30 -178c67 -2 132 29 132 82c0 13 8 22 21 22c12 0 22 -9 22 -22
c0 -75 -80 -125 -176 -123c0 -58 9 -101 22 -119c4 -4 6 -9 6 -14c0 -12 -10 -22 -23 -22c-28 0 -50 60 -49 160c-73 15 -106 58 -106 108c0 66 57 116 146 140c40 127 108 239 206 239c33 0 59 -10 78 -30c31 -30 45 -84 45 -167c0 -25 -1 -51 -4 -79zM474 141
c0 -65 9 -117 47 -117c41 0 67 50 67 112c0 77 -41 142 -100 182c-6 -58 -14 -137 -14 -177zM372 599c-67 0 -119 -85 -155 -188c21 3 44 5 68 5c59 0 114 -11 163 -31c2 20 3 40 3 59c0 69 -11 115 -33 137c-11 11 -26 18 -46 18zM154 354c-46 -17 -89 -49 -89 -93
c0 -30 16 -54 62 -67c2 45 13 108 27 160zM474 808c3 3 9 5 14 5c13 0 23 -10 23 -17s-3 -13 -8 -17c-31 -27 -62 -46 -93 -63c-11 -6 -22 -12 -31 -19c-4 -1 -9 -3 -12 -3c-13 0 -23 11 -23 17c0 14 5 17 43 39c29 16 59 33 87 58z" />
    <glyph glyph-name="Acircumflex" unicode="&#xc2;" horiz-adv-x="662" 
d="M491 364c93 -53 141 -139 141 -228c0 -107 -60 -152 -113 -152c-21 0 -41 7 -54 21c-24 25 -35 67 -35 136c0 34 6 104 15 200c-46 22 -101 33 -160 33c-30 0 -58 -3 -84 -7c-17 -59 -27 -125 -30 -178c67 -2 132 29 132 82c0 13 8 22 21 22c12 0 22 -9 22 -22
c0 -75 -80 -125 -176 -123c0 -58 9 -101 22 -119c4 -4 6 -9 6 -14c0 -12 -10 -22 -23 -22c-28 0 -50 60 -49 160c-73 15 -106 58 -106 108c0 66 57 116 146 140c40 127 108 239 206 239c33 0 59 -10 78 -30c31 -30 45 -84 45 -167c0 -25 -1 -51 -4 -79zM474 141
c0 -65 9 -117 47 -117c41 0 67 50 67 112c0 77 -41 142 -100 182c-6 -58 -14 -137 -14 -177zM372 599c-67 0 -119 -85 -155 -188c21 3 44 5 68 5c59 0 114 -11 163 -31c2 20 3 40 3 59c0 69 -11 115 -33 137c-11 11 -26 18 -46 18zM154 354c-46 -17 -89 -49 -89 -93
c0 -30 16 -54 62 -67c2 45 13 108 27 160zM384 808c6 0 11 -2 15 -6c26 -21 50 -42 78 -60c7 -4 11 -11 11 -19c0 -7 -10 -17 -23 -17c-16 0 -68 47 -83 60c-29 -15 -58 -33 -80 -48c-3 -3 -8 -3 -12 -3c-13 0 -23 10 -23 17s4 14 10 18c22 15 97 58 107 58z" />
    <glyph glyph-name="Adieresis" unicode="&#xc4;" horiz-adv-x="662" 
d="M491 364c93 -53 141 -139 141 -228c0 -107 -60 -152 -113 -152c-21 0 -41 7 -54 21c-24 25 -35 67 -35 136c0 34 6 104 15 200c-46 22 -101 33 -160 33c-30 0 -58 -3 -84 -7c-17 -59 -27 -125 -30 -178c67 -2 132 29 132 82c0 13 8 22 21 22c12 0 22 -9 22 -22
c0 -75 -80 -125 -176 -123c0 -58 9 -101 22 -119c4 -4 6 -9 6 -14c0 -12 -10 -22 -23 -22c-28 0 -50 60 -49 160c-73 15 -106 58 -106 108c0 66 57 116 146 140c40 127 108 239 206 239c33 0 59 -10 78 -30c31 -30 45 -84 45 -167c0 -25 -1 -51 -4 -79zM474 141
c0 -65 9 -117 47 -117c41 0 67 50 67 112c0 77 -41 142 -100 182c-6 -58 -14 -137 -14 -177zM372 599c-67 0 -119 -85 -155 -188c21 3 44 5 68 5c59 0 114 -11 163 -31c2 20 3 40 3 59c0 69 -11 115 -33 137c-11 11 -26 18 -46 18zM154 354c-46 -17 -89 -49 -89 -93
c0 -30 16 -54 62 -67c2 45 13 108 27 160zM444 769v-7c0 -2 2 -12 2 -14c0 -12 -10 -22 -22 -22c-24 0 -24 25 -24 52c0 3 -2 14 -2 16c0 12 10 22 22 22c25 0 25 -26 24 -47zM336 769v-7c0 -2 2 -12 2 -14c0 -12 -10 -22 -22 -22c-24 0 -24 25 -24 52c0 3 -2 14 -2 16
c0 12 10 22 22 22c25 0 25 -26 24 -47z" />
    <glyph glyph-name="Agrave" unicode="&#xc0;" horiz-adv-x="662" 
d="M491 364c93 -53 141 -139 141 -228c0 -107 -60 -152 -113 -152c-21 0 -41 7 -54 21c-24 25 -35 67 -35 136c0 34 6 104 15 200c-46 22 -101 33 -160 33c-30 0 -58 -3 -84 -7c-17 -59 -27 -125 -30 -178c67 -2 132 29 132 82c0 13 8 22 21 22c12 0 22 -9 22 -22
c0 -75 -80 -125 -176 -123c0 -58 9 -101 22 -119c4 -4 6 -9 6 -14c0 -12 -10 -22 -23 -22c-28 0 -50 60 -49 160c-73 15 -106 58 -106 108c0 66 57 116 146 140c40 127 108 239 206 239c33 0 59 -10 78 -30c31 -30 45 -84 45 -167c0 -25 -1 -51 -4 -79zM474 141
c0 -65 9 -117 47 -117c41 0 67 50 67 112c0 77 -41 142 -100 182c-6 -58 -14 -137 -14 -177zM372 599c-67 0 -119 -85 -155 -188c21 3 44 5 68 5c59 0 114 -11 163 -31c2 20 3 40 3 59c0 69 -11 115 -33 137c-11 11 -26 18 -46 18zM154 354c-46 -17 -89 -49 -89 -93
c0 -30 16 -54 62 -67c2 45 13 108 27 160zM287 813c3 0 8 -2 12 -3c9 -7 20 -13 31 -19c31 -17 62 -36 93 -63c5 -4 8 -10 8 -17s-10 -17 -23 -17c-5 0 -11 2 -14 5c-28 25 -58 42 -87 58c-38 22 -43 25 -43 34c0 11 10 22 23 22z" />
    <glyph glyph-name="Aring" unicode="&#xc5;" horiz-adv-x="662" 
d="M491 364c93 -53 141 -139 141 -228c0 -107 -60 -152 -113 -152c-21 0 -41 7 -54 21c-24 25 -35 67 -35 136c0 34 6 104 15 200c-46 22 -101 33 -160 33c-30 0 -58 -3 -84 -7c-17 -59 -27 -125 -30 -178c67 -2 132 29 132 82c0 13 8 22 21 22c12 0 22 -9 22 -22
c0 -75 -80 -125 -176 -123c0 -58 9 -101 22 -119c4 -4 6 -9 6 -14c0 -12 -10 -22 -23 -22c-28 0 -50 60 -49 160c-73 15 -106 58 -106 108c0 66 57 116 146 140c40 127 108 239 206 239c33 0 59 -10 78 -30c31 -30 45 -84 45 -167c0 -25 -1 -51 -4 -79zM474 141
c0 -65 9 -117 47 -117c41 0 67 50 67 112c0 77 -41 142 -100 182c-6 -58 -14 -137 -14 -177zM372 599c-67 0 -119 -85 -155 -188c21 3 44 5 68 5c59 0 114 -11 163 -31c2 20 3 40 3 59c0 69 -11 115 -33 137c-11 11 -26 18 -46 18zM154 354c-46 -17 -89 -49 -89 -93
c0 -30 16 -54 62 -67c2 45 13 108 27 160zM379 732c29 0 46 22 46 48c0 5 -5 27 -27 27c-12 0 -23 9 -23 19c0 13 10 18 22 18c41 2 68 -30 68 -64c0 -45 -38 -86 -86 -86c-54 0 -86 33 -86 74c0 34 28 67 47 67c13 0 23 -5 23 -17c0 -8 -6 -13 -14 -18
c-5 -3 -17 -19 -17 -31c0 -28 27 -37 47 -37z" />
    <glyph glyph-name="Atilde" unicode="&#xc3;" horiz-adv-x="662" 
d="M491 364c93 -53 141 -139 141 -228c0 -107 -60 -152 -113 -152c-21 0 -41 7 -54 21c-24 25 -35 67 -35 136c0 34 6 104 15 200c-46 22 -101 33 -160 33c-30 0 -58 -3 -84 -7c-17 -59 -27 -125 -30 -178c67 -2 132 29 132 82c0 13 8 22 21 22c12 0 22 -9 22 -22
c0 -75 -80 -125 -176 -123c0 -58 9 -101 22 -119c4 -4 6 -9 6 -14c0 -12 -10 -22 -23 -22c-28 0 -50 60 -49 160c-73 15 -106 58 -106 108c0 66 57 116 146 140c40 127 108 239 206 239c33 0 59 -10 78 -30c31 -30 45 -84 45 -167c0 -25 -1 -51 -4 -79zM474 141
c0 -65 9 -117 47 -117c41 0 67 50 67 112c0 77 -41 142 -100 182c-6 -58 -14 -137 -14 -177zM372 599c-67 0 -119 -85 -155 -188c21 3 44 5 68 5c59 0 114 -11 163 -31c2 20 3 40 3 59c0 69 -11 115 -33 137c-11 11 -26 18 -46 18zM154 354c-46 -17 -89 -49 -89 -93
c0 -30 16 -54 62 -67c2 45 13 108 27 160zM315 782c20 0 40 -5 57 -15c14 -8 32 -19 47 -19c14 0 25 4 33 21c3 7 11 12 18 12c4 0 8 -1 12 -4s5 -10 5 -18c0 -14 -23 -48 -68 -48c-21 0 -45 6 -67 22c-11 7 -24 12 -37 12c-15 0 -31 -6 -43 -29c-4 -7 -11 -11 -18 -11
c-8 0 -18 10 -18 22c0 15 30 55 79 55z" />
    <glyph glyph-name="Ccedilla" unicode="&#xc7;" horiz-adv-x="601" 
d="M264 -17l6 7c-147 22 -231 143 -231 297c0 175 114 326 282 343c26 63 83 98 145 98c21 0 57 -2 57 -27c0 -13 -10 -20 -22 -20c-5 0 -29 4 -35 4c-36 0 -72 -14 -94 -54c128 -7 200 -91 200 -177c0 -56 -36 -104 -104 -104c-35 0 -71 17 -100 46c-40 39 -61 99 -61 164
c0 9 1 18 2 26c-140 -26 -226 -158 -226 -299c0 -143 84 -258 236 -258c89 0 158 33 197 90c4 6 12 10 19 10c11 0 21 -10 21 -23c0 -16 -69 -120 -237 -120h-6l-34 -35c18 -8 54 -23 54 -70c0 -44 -44 -73 -89 -73c-27 0 -62 10 -62 35c0 8 9 17 16 17c5 0 9 -1 14 -4
c13 -8 19 -10 31 -10c30 0 50 12 50 35c0 20 -17 28 -34 36c-11 6 -22 11 -22 29c0 13 17 25 27 37zM468 393c53 0 58 43 58 61c0 68 -62 133 -171 136c-2 -9 -3 -19 -3 -30c0 -109 69 -167 116 -167z" />
    <glyph glyph-name="Eacute" unicode="&#xc9;" horiz-adv-x="523" 
d="M302 177c98 0 183 -44 183 -114c0 -38 -28 -90 -139 -90c-91 0 -185 29 -239 94c-21 -21 -33 -50 -35 -80c-1 -12 -10 -21 -22 -21s-22 10 -22 22c0 44 23 89 54 118c-13 29 -22 60 -22 96c0 72 32 135 82 175c-6 17 -10 37 -10 57c0 57 27 115 75 153
c-12 21 -19 45 -19 68c0 13 10 23 23 23c11 0 21 -10 21 -23c0 -17 5 -33 12 -47c14 7 29 12 45 15c16 4 34 6 52 6c79 0 124 -36 124 -81c0 -38 -32 -66 -78 -66c-49 0 -112 26 -155 71c-38 -31 -55 -77 -55 -119c0 -11 1 -21 4 -31c32 17 73 27 113 27
c89 0 154 -39 154 -95c0 -19 -8 -82 -112 -82c-80 0 -142 34 -175 84c-38 -35 -56 -81 -56 -135c0 -25 6 -49 14 -70c47 28 108 45 183 45zM440 63c0 41 -67 73 -138 73c-67 0 -125 -18 -162 -42c43 -52 123 -81 206 -81c59 0 94 22 94 50zM404 334c0 28 -47 54 -111 54
c-34 0 -79 -10 -98 -26c26 -37 76 -68 140 -68c46 0 69 15 69 40zM341 588c-24 0 -55 -6 -72 -14c32 -30 82 -52 118 -52c16 0 34 9 34 26c0 24 -34 40 -80 40zM444 808c3 3 9 5 14 5c13 0 23 -10 23 -17s-3 -13 -8 -17c-31 -27 -62 -46 -93 -63c-11 -6 -22 -12 -31 -19
c-4 -1 -9 -3 -12 -3c-13 0 -23 11 -23 17c0 14 5 17 43 39c29 16 59 33 87 58z" />
    <glyph glyph-name="Ecircumflex" unicode="&#xca;" horiz-adv-x="523" 
d="M302 177c98 0 183 -44 183 -114c0 -38 -28 -90 -139 -90c-91 0 -185 29 -239 94c-21 -21 -33 -50 -35 -80c-1 -12 -10 -21 -22 -21s-22 10 -22 22c0 44 23 89 54 118c-13 29 -22 60 -22 96c0 72 32 135 82 175c-6 17 -10 37 -10 57c0 57 27 115 75 153
c-12 21 -19 45 -19 68c0 13 10 23 23 23c11 0 21 -10 21 -23c0 -17 5 -33 12 -47c14 7 29 12 45 15c16 4 34 6 52 6c79 0 124 -36 124 -81c0 -38 -32 -66 -78 -66c-49 0 -112 26 -155 71c-38 -31 -55 -77 -55 -119c0 -11 1 -21 4 -31c32 17 73 27 113 27
c89 0 154 -39 154 -95c0 -19 -8 -82 -112 -82c-80 0 -142 34 -175 84c-38 -35 -56 -81 -56 -135c0 -25 6 -49 14 -70c47 28 108 45 183 45zM440 63c0 41 -67 73 -138 73c-67 0 -125 -18 -162 -42c43 -52 123 -81 206 -81c59 0 94 22 94 50zM404 334c0 28 -47 54 -111 54
c-34 0 -79 -10 -98 -26c26 -37 76 -68 140 -68c46 0 69 15 69 40zM341 588c-24 0 -55 -6 -72 -14c32 -30 82 -52 118 -52c16 0 34 9 34 26c0 24 -34 40 -80 40zM335 808c6 0 11 -2 15 -6c26 -21 50 -42 78 -60c7 -4 11 -11 11 -19c0 -7 -10 -17 -23 -17c-16 0 -68 47 -83 60
c-29 -15 -58 -33 -80 -48c-3 -3 -8 -3 -12 -3c-13 0 -23 10 -23 17s4 14 10 18c22 15 97 58 107 58z" />
    <glyph glyph-name="Edieresis" unicode="&#xcb;" horiz-adv-x="523" 
d="M302 177c98 0 183 -44 183 -114c0 -38 -28 -90 -139 -90c-91 0 -185 29 -239 94c-21 -21 -33 -50 -35 -80c-1 -12 -10 -21 -22 -21s-22 10 -22 22c0 44 23 89 54 118c-13 29 -22 60 -22 96c0 72 32 135 82 175c-6 17 -10 37 -10 57c0 57 27 115 75 153
c-12 21 -19 45 -19 68c0 13 10 23 23 23c11 0 21 -10 21 -23c0 -17 5 -33 12 -47c14 7 29 12 45 15c16 4 34 6 52 6c79 0 124 -36 124 -81c0 -38 -32 -66 -78 -66c-49 0 -112 26 -155 71c-38 -31 -55 -77 -55 -119c0 -11 1 -21 4 -31c32 17 73 27 113 27
c89 0 154 -39 154 -95c0 -19 -8 -82 -112 -82c-80 0 -142 34 -175 84c-38 -35 -56 -81 -56 -135c0 -25 6 -49 14 -70c47 28 108 45 183 45zM440 63c0 41 -67 73 -138 73c-67 0 -125 -18 -162 -42c43 -52 123 -81 206 -81c59 0 94 22 94 50zM404 334c0 28 -47 54 -111 54
c-34 0 -79 -10 -98 -26c26 -37 76 -68 140 -68c46 0 69 15 69 40zM341 588c-24 0 -55 -6 -72 -14c32 -30 82 -52 118 -52c16 0 34 9 34 26c0 24 -34 40 -80 40zM395 769v-7c0 -2 2 -12 2 -14c0 -12 -10 -22 -22 -22c-24 0 -24 25 -24 52c0 3 -2 14 -2 16c0 12 10 22 22 22
c25 0 25 -26 24 -47zM287 769v-7c0 -2 2 -12 2 -14c0 -12 -10 -22 -22 -22c-24 0 -24 25 -24 52c0 3 -2 14 -2 16c0 12 10 22 22 22c25 0 25 -26 24 -47z" />
    <glyph glyph-name="Egrave" unicode="&#xc8;" horiz-adv-x="523" 
d="M302 177c98 0 183 -44 183 -114c0 -38 -28 -90 -139 -90c-91 0 -185 29 -239 94c-21 -21 -33 -50 -35 -80c-1 -12 -10 -21 -22 -21s-22 10 -22 22c0 44 23 89 54 118c-13 29 -22 60 -22 96c0 72 32 135 82 175c-6 17 -10 37 -10 57c0 57 27 115 75 153
c-12 21 -19 45 -19 68c0 13 10 23 23 23c11 0 21 -10 21 -23c0 -17 5 -33 12 -47c14 7 29 12 45 15c16 4 34 6 52 6c79 0 124 -36 124 -81c0 -38 -32 -66 -78 -66c-49 0 -112 26 -155 71c-38 -31 -55 -77 -55 -119c0 -11 1 -21 4 -31c32 17 73 27 113 27
c89 0 154 -39 154 -95c0 -19 -8 -82 -112 -82c-80 0 -142 34 -175 84c-38 -35 -56 -81 -56 -135c0 -25 6 -49 14 -70c47 28 108 45 183 45zM440 63c0 41 -67 73 -138 73c-67 0 -125 -18 -162 -42c43 -52 123 -81 206 -81c59 0 94 22 94 50zM404 334c0 28 -47 54 -111 54
c-34 0 -79 -10 -98 -26c26 -37 76 -68 140 -68c46 0 69 15 69 40zM341 588c-24 0 -55 -6 -72 -14c32 -30 82 -52 118 -52c16 0 34 9 34 26c0 24 -34 40 -80 40zM222 813c3 0 8 -2 12 -3c9 -7 20 -13 31 -19c31 -17 62 -36 93 -63c5 -4 8 -10 8 -17s-10 -17 -23 -17
c-5 0 -11 2 -14 5c-28 25 -58 42 -87 58c-38 22 -43 25 -43 34c0 11 10 22 23 22z" />
    <glyph glyph-name="Iacute" unicode="&#xcd;" horiz-adv-x="441" 
d="M184 478c-95 0 -132 41 -132 84c0 42 44 73 99 73c54 0 108 -28 127 -101c48 12 88 39 93 88c1 11 11 20 22 20c14 0 23 -12 22 -25c-3 -39 -27 -100 -131 -125c5 -74 -19 -136 -41 -199c-16 -44 -37 -102 -40 -147c17 3 36 6 53 6c108 0 155 -46 155 -95
c0 -47 -42 -82 -118 -82c-74 0 -127 47 -135 117c-54 -15 -107 -59 -116 -112c-2 -11 -11 -18 -21 -18c-13 0 -21 10 -21 22c0 20 29 117 157 151c0 52 25 122 43 174c23 61 43 114 40 174c-17 -3 -36 -5 -56 -5zM203 104c4 -51 38 -88 91 -88c39 0 72 13 72 42
c0 32 -45 53 -110 53c-18 0 -35 -3 -53 -7zM234 523c-8 33 -27 71 -83 71c-31 0 -54 -12 -54 -32c0 -27 38 -43 87 -43c13 0 31 1 50 4zM363 808c3 3 9 5 14 5c13 0 23 -10 23 -17s-3 -13 -8 -17c-31 -27 -62 -46 -93 -63c-11 -6 -22 -12 -31 -19c-4 -1 -9 -3 -12 -3
c-13 0 -23 11 -23 17c0 14 5 17 43 39c29 16 59 33 87 58z" />
    <glyph glyph-name="Icircumflex" unicode="&#xce;" horiz-adv-x="441" 
d="M184 478c-95 0 -132 41 -132 84c0 42 44 73 99 73c54 0 108 -28 127 -101c48 12 88 39 93 88c1 11 11 20 22 20c14 0 23 -12 22 -25c-3 -39 -27 -100 -131 -125c5 -74 -19 -136 -41 -199c-16 -44 -37 -102 -40 -147c17 3 36 6 53 6c108 0 155 -46 155 -95
c0 -47 -42 -82 -118 -82c-74 0 -127 47 -135 117c-54 -15 -107 -59 -116 -112c-2 -11 -11 -18 -21 -18c-13 0 -21 10 -21 22c0 20 29 117 157 151c0 52 25 122 43 174c23 61 43 114 40 174c-17 -3 -36 -5 -56 -5zM203 104c4 -51 38 -88 91 -88c39 0 72 13 72 42
c0 32 -45 53 -110 53c-18 0 -35 -3 -53 -7zM234 523c-8 33 -27 71 -83 71c-31 0 -54 -12 -54 -32c0 -27 38 -43 87 -43c13 0 31 1 50 4zM254 808c6 0 11 -2 15 -6c26 -21 50 -42 78 -60c7 -4 11 -11 11 -19c0 -7 -10 -17 -23 -17c-16 0 -68 47 -83 60
c-29 -15 -58 -33 -80 -48c-3 -3 -8 -3 -12 -3c-13 0 -23 10 -23 17s4 14 10 18c22 15 97 58 107 58z" />
    <glyph glyph-name="Idieresis" unicode="&#xcf;" horiz-adv-x="441" 
d="M184 478c-95 0 -132 41 -132 84c0 42 44 73 99 73c54 0 108 -28 127 -101c48 12 88 39 93 88c1 11 11 20 22 20c14 0 23 -12 22 -25c-3 -39 -27 -100 -131 -125c5 -74 -19 -136 -41 -199c-16 -44 -37 -102 -40 -147c17 3 36 6 53 6c108 0 155 -46 155 -95
c0 -47 -42 -82 -118 -82c-74 0 -127 47 -135 117c-54 -15 -107 -59 -116 -112c-2 -11 -11 -18 -21 -18c-13 0 -21 10 -21 22c0 20 29 117 157 151c0 52 25 122 43 174c23 61 43 114 40 174c-17 -3 -36 -5 -56 -5zM203 104c4 -51 38 -88 91 -88c39 0 72 13 72 42
c0 32 -45 53 -110 53c-18 0 -35 -3 -53 -7zM234 523c-8 33 -27 71 -83 71c-31 0 -54 -12 -54 -32c0 -27 38 -43 87 -43c13 0 31 1 50 4zM329 769v-7c0 -2 2 -12 2 -14c0 -12 -10 -22 -22 -22c-24 0 -24 25 -24 52c0 3 -2 14 -2 16c0 12 10 22 22 22c25 0 25 -26 24 -47z
M221 769v-7c0 -2 2 -12 2 -14c0 -12 -10 -22 -22 -22c-24 0 -24 25 -24 52c0 3 -2 14 -2 16c0 12 10 22 22 22c25 0 25 -26 24 -47z" />
    <glyph glyph-name="Igrave" unicode="&#xcc;" horiz-adv-x="441" 
d="M184 478c-95 0 -132 41 -132 84c0 42 44 73 99 73c54 0 108 -28 127 -101c48 12 88 39 93 88c1 11 11 20 22 20c14 0 23 -12 22 -25c-3 -39 -27 -100 -131 -125c5 -74 -19 -136 -41 -199c-16 -44 -37 -102 -40 -147c17 3 36 6 53 6c108 0 155 -46 155 -95
c0 -47 -42 -82 -118 -82c-74 0 -127 47 -135 117c-54 -15 -107 -59 -116 -112c-2 -11 -11 -18 -21 -18c-13 0 -21 10 -21 22c0 20 29 117 157 151c0 52 25 122 43 174c23 61 43 114 40 174c-17 -3 -36 -5 -56 -5zM203 104c4 -51 38 -88 91 -88c39 0 72 13 72 42
c0 32 -45 53 -110 53c-18 0 -35 -3 -53 -7zM234 523c-8 33 -27 71 -83 71c-31 0 -54 -12 -54 -32c0 -27 38 -43 87 -43c13 0 31 1 50 4zM146 813c3 0 8 -2 12 -3c9 -7 20 -13 31 -19c31 -17 62 -36 93 -63c5 -4 8 -10 8 -17s-10 -17 -23 -17c-5 0 -11 2 -14 5
c-28 25 -58 42 -87 58c-38 22 -43 25 -43 34c0 11 10 22 23 22z" />
    <glyph glyph-name="Ntilde" unicode="&#xd1;" horiz-adv-x="710" 
d="M633 397c0 106 -33 175 -102 175c-65 0 -135 -57 -196 -133c4 -34 6 -71 6 -110c0 -184 -53 -348 -146 -348c-43 0 -75 34 -75 86c0 99 70 270 168 383c-5 50 -13 82 -25 116c-15 -7 -53 -17 -85 -17c-102 0 -178 51 -178 120c0 53 47 93 109 93c72 0 137 -47 178 -133
c32 26 52 65 52 105c0 23 -6 45 -20 67c-3 3 -3 7 -3 11c0 13 9 23 22 23c27 0 46 -66 46 -101c0 -57 -31 -110 -81 -146c10 -28 18 -62 24 -95c63 69 134 120 205 120s146 -43 146 -216c0 -124 -48 -272 -126 -399c-4 -6 -12 -11 -19 -11c-12 0 -22 10 -22 23c0 4 1 8 3 12
c74 120 119 265 119 375zM297 329c0 19 -1 45 -2 63c-77 -100 -129 -245 -130 -325c0 -21 10 -44 33 -44c48 0 99 125 99 306zM46 669c0 -43 57 -79 132 -79c25 0 54 7 73 14c-38 79 -90 117 -142 117c-37 0 -63 -16 -63 -52zM489 782c20 0 40 -5 57 -15
c14 -8 32 -19 47 -19c14 0 25 4 33 21c3 7 11 12 18 12c4 0 8 -1 12 -4s5 -10 5 -18c0 -14 -23 -48 -68 -48c-21 0 -45 6 -67 22c-11 7 -24 12 -37 12c-15 0 -31 -6 -43 -29c-4 -7 -11 -11 -18 -11c-8 0 -18 10 -18 22c0 15 30 55 79 55z" />
    <glyph glyph-name="Oacute" unicode="&#xd3;" horiz-adv-x="660" 
d="M621 640v5c0 10 7 19 17 22c33 9 34 -51 34 -71c0 -54 -25 -106 -66 -141c15 -36 21 -79 21 -126c0 -193 -136 -334 -306 -334c-163 0 -280 112 -280 298c0 80 29 181 79 228c5 4 10 6 16 6c12 0 22 -9 22 -22c0 -5 -2 -11 -6 -15c-39 -36 -66 -118 -66 -197
c0 -161 99 -257 237 -257c146 0 259 132 259 293c0 38 -4 68 -14 101c-29 -19 -88 -32 -136 -32c-121 0 -231 56 -231 143c0 56 55 98 139 98c93 0 186 -43 247 -144c30 31 41 67 41 100c0 14 -2 30 -7 45zM552 469c-51 87 -133 129 -212 129c-67 0 -95 -28 -95 -60
c0 -52 87 -99 191 -99c41 0 91 13 116 30zM483 808c3 3 9 5 14 5c13 0 23 -10 23 -17s-3 -13 -8 -17c-31 -27 -62 -46 -93 -63c-11 -6 -22 -12 -31 -19c-4 -1 -9 -3 -12 -3c-13 0 -23 11 -23 17c0 14 5 17 43 39c29 16 59 33 87 58z" />
    <glyph glyph-name="Ocircumflex" unicode="&#xd4;" horiz-adv-x="660" 
d="M621 640v5c0 10 7 19 17 22c33 9 34 -51 34 -71c0 -54 -25 -106 -66 -141c15 -36 21 -79 21 -126c0 -193 -136 -334 -306 -334c-163 0 -280 112 -280 298c0 80 29 181 79 228c5 4 10 6 16 6c12 0 22 -9 22 -22c0 -5 -2 -11 -6 -15c-39 -36 -66 -118 -66 -197
c0 -161 99 -257 237 -257c146 0 259 132 259 293c0 38 -4 68 -14 101c-29 -19 -88 -32 -136 -32c-121 0 -231 56 -231 143c0 56 55 98 139 98c93 0 186 -43 247 -144c30 31 41 67 41 100c0 14 -2 30 -7 45zM552 469c-51 87 -133 129 -212 129c-67 0 -95 -28 -95 -60
c0 -52 87 -99 191 -99c41 0 91 13 116 30zM383 808c6 0 11 -2 15 -6c26 -21 50 -42 78 -60c7 -4 11 -11 11 -19c0 -7 -10 -17 -23 -17c-16 0 -68 47 -83 60c-29 -15 -58 -33 -80 -48c-3 -3 -8 -3 -12 -3c-13 0 -23 10 -23 17s4 14 10 18c22 15 97 58 107 58z" />
    <glyph glyph-name="Odieresis" unicode="&#xd6;" horiz-adv-x="660" 
d="M621 640v5c0 10 7 19 17 22c33 9 34 -51 34 -71c0 -54 -25 -106 -66 -141c15 -36 21 -79 21 -126c0 -193 -136 -334 -306 -334c-163 0 -280 112 -280 298c0 80 29 181 79 228c5 4 10 6 16 6c12 0 22 -9 22 -22c0 -5 -2 -11 -6 -15c-39 -36 -66 -118 -66 -197
c0 -161 99 -257 237 -257c146 0 259 132 259 293c0 38 -4 68 -14 101c-29 -19 -88 -32 -136 -32c-121 0 -231 56 -231 143c0 56 55 98 139 98c93 0 186 -43 247 -144c30 31 41 67 41 100c0 14 -2 30 -7 45zM552 469c-51 87 -133 129 -212 129c-67 0 -95 -28 -95 -60
c0 -52 87 -99 191 -99c41 0 91 13 116 30zM443 769v-7c0 -2 2 -12 2 -14c0 -12 -10 -22 -22 -22c-24 0 -24 25 -24 52c0 3 -2 14 -2 16c0 12 10 22 22 22c25 0 25 -26 24 -47zM335 769v-7c0 -2 2 -12 2 -14c0 -12 -10 -22 -22 -22c-24 0 -24 25 -24 52c0 3 -2 14 -2 16
c0 12 10 22 22 22c25 0 25 -26 24 -47z" />
    <glyph glyph-name="Ograve" unicode="&#xd2;" horiz-adv-x="660" 
d="M621 640v5c0 10 7 19 17 22c33 9 34 -51 34 -71c0 -54 -25 -106 -66 -141c15 -36 21 -79 21 -126c0 -193 -136 -334 -306 -334c-163 0 -280 112 -280 298c0 80 29 181 79 228c5 4 10 6 16 6c12 0 22 -9 22 -22c0 -5 -2 -11 -6 -15c-39 -36 -66 -118 -66 -197
c0 -161 99 -257 237 -257c146 0 259 132 259 293c0 38 -4 68 -14 101c-29 -19 -88 -32 -136 -32c-121 0 -231 56 -231 143c0 56 55 98 139 98c93 0 186 -43 247 -144c30 31 41 67 41 100c0 14 -2 30 -7 45zM552 469c-51 87 -133 129 -212 129c-67 0 -95 -28 -95 -60
c0 -52 87 -99 191 -99c41 0 91 13 116 30zM276 813c3 0 8 -2 12 -3c9 -7 20 -13 31 -19c31 -17 62 -36 93 -63c5 -4 8 -10 8 -17s-10 -17 -23 -17c-5 0 -11 2 -14 5c-28 25 -58 42 -87 58c-38 22 -43 25 -43 34c0 11 10 22 23 22z" />
    <glyph glyph-name="Otilde" unicode="&#xd5;" horiz-adv-x="660" 
d="M621 640v5c0 10 7 19 17 22c33 9 34 -51 34 -71c0 -54 -25 -106 -66 -141c15 -36 21 -79 21 -126c0 -193 -136 -334 -306 -334c-163 0 -280 112 -280 298c0 80 29 181 79 228c5 4 10 6 16 6c12 0 22 -9 22 -22c0 -5 -2 -11 -6 -15c-39 -36 -66 -118 -66 -197
c0 -161 99 -257 237 -257c146 0 259 132 259 293c0 38 -4 68 -14 101c-29 -19 -88 -32 -136 -32c-121 0 -231 56 -231 143c0 56 55 98 139 98c93 0 186 -43 247 -144c30 31 41 67 41 100c0 14 -2 30 -7 45zM552 469c-51 87 -133 129 -212 129c-67 0 -95 -28 -95 -60
c0 -52 87 -99 191 -99c41 0 91 13 116 30zM329 782c20 0 40 -5 57 -15c14 -8 32 -19 47 -19c14 0 25 4 33 21c3 7 11 12 18 12c4 0 8 -1 12 -4s5 -10 5 -18c0 -14 -23 -48 -68 -48c-21 0 -45 6 -67 22c-11 7 -24 12 -37 12c-15 0 -31 -6 -43 -29c-4 -7 -11 -11 -18 -11
c-8 0 -18 10 -18 22c0 15 30 55 79 55z" />
    <glyph glyph-name="Scaron" unicode="&#x160;" horiz-adv-x="579" 
d="M331 378c96 -34 214 -76 214 -209c0 -67 -40 -128 -120 -161c-23 -100 -99 -146 -117 -146c-13 0 -23 8 -23 20c0 9 5 17 14 21c31 13 61 45 77 89c-15 -3 -32 -6 -50 -8s-37 -3 -58 -3c-128 0 -235 62 -235 157c0 75 73 134 167 134c130 0 227 -91 230 -215
c45 23 71 66 71 112c0 95 -75 132 -184 169c-90 31 -179 62 -179 159c0 75 68 150 200 150c24 0 46 -4 65 -9c28 23 65 37 107 37c13 0 23 -9 23 -22c0 -11 -11 -18 -24 -18c-22 0 -43 -6 -62 -18c7 -5 14 -10 19 -15c32 -31 37 -62 37 -86c0 -36 -27 -71 -67 -71
c-44 0 -82 37 -82 91c0 23 7 49 19 67c-11 2 -25 4 -36 4c-103 0 -154 -57 -154 -110c0 -61 56 -86 148 -119zM459 516c0 16 -3 49 -45 75c-10 -15 -16 -33 -16 -55c0 -28 18 -50 38 -50c15 0 23 14 23 30zM200 230c-66 0 -123 -39 -123 -93c0 -66 84 -116 191 -116
c44 0 85 5 119 16c6 107 -63 193 -187 193zM409 792c3 2 7 2 12 2c12 0 22 -5 22 -16c0 -9 -3 -16 -10 -19c-29 -18 -54 -40 -75 -58c-6 -5 -10 -8 -18 -8c-11 0 -86 42 -107 58c-7 4 -10 10 -10 18c0 7 10 17 22 17c5 0 9 -1 13 -4c21 -15 50 -32 79 -47c21 18 40 35 72 57
z" />
    <glyph glyph-name="Uacute" unicode="&#xda;" horiz-adv-x="725" 
d="M358 27c56 0 110 40 156 98c-10 50 -15 105 -15 149c0 162 43 351 134 351c27 0 72 -17 72 -111c0 -106 -58 -279 -145 -398c21 -76 46 -112 93 -112c3 0 18 1 21 1c12 0 22 -4 22 -17c0 -21 -22 -24 -39 -24c-55 0 -104 26 -130 112c-49 -54 -108 -90 -169 -90
c-105 0 -157 86 -157 224c0 33 5 195 4 232c0 9 0 17 -1 25c-10 -2 -20 -3 -31 -3c-70 0 -133 36 -133 98c0 44 37 79 85 79c49 0 99 -40 116 -118c44 22 71 69 71 121c0 25 -5 52 -13 62c-3 4 -5 9 -5 14c0 13 9 22 22 22c30 0 41 -63 41 -98c0 -73 -45 -136 -109 -164
c1 -12 2 -25 2 -38c1 -33 -5 -195 -5 -232c0 -131 48 -183 113 -183zM84 562c0 -35 46 -56 89 -56c9 0 20 2 27 3c-13 54 -43 89 -76 89c-21 0 -40 -14 -40 -36zM660 514c0 39 -6 69 -27 69c-38 0 -91 -125 -90 -319c0 -30 1 -70 5 -97c73 122 112 260 112 347zM575 808
c3 3 9 5 14 5c13 0 23 -10 23 -17s-3 -13 -8 -17c-31 -27 -62 -46 -93 -63c-11 -6 -22 -12 -31 -19c-4 -1 -9 -3 -12 -3c-13 0 -23 11 -23 17c0 14 5 17 43 39c29 16 59 33 87 58z" />
    <glyph glyph-name="Ucircumflex" unicode="&#xdb;" horiz-adv-x="725" 
d="M358 27c56 0 110 40 156 98c-10 50 -15 105 -15 149c0 162 43 351 134 351c27 0 72 -17 72 -111c0 -106 -58 -279 -145 -398c21 -76 46 -112 93 -112c3 0 18 1 21 1c12 0 22 -4 22 -17c0 -21 -22 -24 -39 -24c-55 0 -104 26 -130 112c-49 -54 -108 -90 -169 -90
c-105 0 -157 86 -157 224c0 33 5 195 4 232c0 9 0 17 -1 25c-10 -2 -20 -3 -31 -3c-70 0 -133 36 -133 98c0 44 37 79 85 79c49 0 99 -40 116 -118c44 22 71 69 71 121c0 25 -5 52 -13 62c-3 4 -5 9 -5 14c0 13 9 22 22 22c30 0 41 -63 41 -98c0 -73 -45 -136 -109 -164
c1 -12 2 -25 2 -38c1 -33 -5 -195 -5 -232c0 -131 48 -183 113 -183zM84 562c0 -35 46 -56 89 -56c9 0 20 2 27 3c-13 54 -43 89 -76 89c-21 0 -40 -14 -40 -36zM660 514c0 39 -6 69 -27 69c-38 0 -91 -125 -90 -319c0 -30 1 -70 5 -97c73 122 112 260 112 347zM496 808
c6 0 11 -2 15 -6c26 -21 50 -42 78 -60c7 -4 11 -11 11 -19c0 -7 -10 -17 -23 -17c-16 0 -68 47 -83 60c-29 -15 -58 -33 -80 -48c-3 -3 -8 -3 -12 -3c-13 0 -23 10 -23 17s4 14 10 18c22 15 97 58 107 58z" />
    <glyph glyph-name="Udieresis" unicode="&#xdc;" horiz-adv-x="725" 
d="M358 27c56 0 110 40 156 98c-10 50 -15 105 -15 149c0 162 43 351 134 351c27 0 72 -17 72 -111c0 -106 -58 -279 -145 -398c21 -76 46 -112 93 -112c3 0 18 1 21 1c12 0 22 -4 22 -17c0 -21 -22 -24 -39 -24c-55 0 -104 26 -130 112c-49 -54 -108 -90 -169 -90
c-105 0 -157 86 -157 224c0 33 5 195 4 232c0 9 0 17 -1 25c-10 -2 -20 -3 -31 -3c-70 0 -133 36 -133 98c0 44 37 79 85 79c49 0 99 -40 116 -118c44 22 71 69 71 121c0 25 -5 52 -13 62c-3 4 -5 9 -5 14c0 13 9 22 22 22c30 0 41 -63 41 -98c0 -73 -45 -136 -109 -164
c1 -12 2 -25 2 -38c1 -33 -5 -195 -5 -232c0 -131 48 -183 113 -183zM84 562c0 -35 46 -56 89 -56c9 0 20 2 27 3c-13 54 -43 89 -76 89c-21 0 -40 -14 -40 -36zM660 514c0 39 -6 69 -27 69c-38 0 -91 -125 -90 -319c0 -30 1 -70 5 -97c73 122 112 260 112 347zM556 769v-7
c0 -2 2 -12 2 -14c0 -12 -10 -22 -22 -22c-24 0 -24 25 -24 52c0 3 -2 14 -2 16c0 12 10 22 22 22c25 0 25 -26 24 -47zM448 769v-7c0 -2 2 -12 2 -14c0 -12 -10 -22 -22 -22c-24 0 -24 25 -24 52c0 3 -2 14 -2 16c0 12 10 22 22 22c25 0 25 -26 24 -47z" />
    <glyph glyph-name="Ugrave" unicode="&#xd9;" horiz-adv-x="725" 
d="M358 27c56 0 110 40 156 98c-10 50 -15 105 -15 149c0 162 43 351 134 351c27 0 72 -17 72 -111c0 -106 -58 -279 -145 -398c21 -76 46 -112 93 -112c3 0 18 1 21 1c12 0 22 -4 22 -17c0 -21 -22 -24 -39 -24c-55 0 -104 26 -130 112c-49 -54 -108 -90 -169 -90
c-105 0 -157 86 -157 224c0 33 5 195 4 232c0 9 0 17 -1 25c-10 -2 -20 -3 -31 -3c-70 0 -133 36 -133 98c0 44 37 79 85 79c49 0 99 -40 116 -118c44 22 71 69 71 121c0 25 -5 52 -13 62c-3 4 -5 9 -5 14c0 13 9 22 22 22c30 0 41 -63 41 -98c0 -73 -45 -136 -109 -164
c1 -12 2 -25 2 -38c1 -33 -5 -195 -5 -232c0 -131 48 -183 113 -183zM84 562c0 -35 46 -56 89 -56c9 0 20 2 27 3c-13 54 -43 89 -76 89c-21 0 -40 -14 -40 -36zM660 514c0 39 -6 69 -27 69c-38 0 -91 -125 -90 -319c0 -30 1 -70 5 -97c73 122 112 260 112 347zM398 813
c3 0 8 -2 12 -3c9 -7 20 -13 31 -19c31 -17 62 -36 93 -63c5 -4 8 -10 8 -17s-10 -17 -23 -17c-5 0 -11 2 -14 5c-28 25 -58 42 -87 58c-38 22 -43 25 -43 34c0 11 10 22 23 22z" />
    <glyph glyph-name="Yacute" unicode="&#xdd;" horiz-adv-x="687" 
d="M378 112c51 0 93 37 139 92c-2 54 -4 97 -4 118c0 159 9 289 110 289c14 0 31 -7 43 -17c19 -16 26 -47 26 -82c0 -90 -57 -222 -131 -317c1 -19 2 -37 2 -44c0 -307 -200 -406 -364 -406c-98 0 -199 53 -199 170c0 67 48 122 107 122c45 0 85 -33 85 -84
c0 -19 -4 -58 -29 -58c-13 0 -23 11 -23 22c0 3 1 6 2 8c3 10 5 19 5 28c0 28 -20 42 -40 42c-33 0 -63 -34 -63 -80c0 -98 95 -129 155 -129c162 0 316 103 320 362c-49 -49 -94 -78 -148 -78c-123 0 -126 151 -126 251v63c0 21 -1 41 -2 59c-20 -7 -42 -11 -65 -11
c-80 0 -141 50 -141 123c0 56 43 100 103 100c50 0 114 -31 137 -142c43 41 49 107 49 129c0 5 -3 29 -3 35c0 11 8 22 20 22c26 0 26 -28 26 -57c0 -64 -25 -134 -84 -177c4 -33 4 -69 4 -167c0 -143 31 -186 89 -186zM557 322c0 -12 2 -39 2 -62c52 82 89 187 89 253
c0 37 -11 57 -30 57c-47 0 -61 -88 -61 -248zM237 485c-12 71 -42 129 -97 129c-34 0 -58 -27 -58 -59c0 -51 43 -82 97 -82c21 0 41 4 58 12zM571 808c3 3 9 5 14 5c13 0 23 -10 23 -17s-3 -13 -8 -17c-31 -27 -62 -46 -93 -63c-11 -6 -22 -12 -31 -19c-4 -1 -9 -3 -12 -3
c-13 0 -23 11 -23 17c0 14 5 17 43 39c29 16 59 33 87 58z" />
    <glyph glyph-name="Ydieresis" unicode="&#x178;" horiz-adv-x="687" 
d="M378 112c51 0 93 37 139 92c-2 54 -4 97 -4 118c0 159 9 289 110 289c14 0 31 -7 43 -17c19 -16 26 -47 26 -82c0 -90 -57 -222 -131 -317c1 -19 2 -37 2 -44c0 -307 -200 -406 -364 -406c-98 0 -199 53 -199 170c0 67 48 122 107 122c45 0 85 -33 85 -84
c0 -19 -4 -58 -29 -58c-13 0 -23 11 -23 22c0 3 1 6 2 8c3 10 5 19 5 28c0 28 -20 42 -40 42c-33 0 -63 -34 -63 -80c0 -98 95 -129 155 -129c162 0 316 103 320 362c-49 -49 -94 -78 -148 -78c-123 0 -126 151 -126 251v63c0 21 -1 41 -2 59c-20 -7 -42 -11 -65 -11
c-80 0 -141 50 -141 123c0 56 43 100 103 100c50 0 114 -31 137 -142c43 41 49 107 49 129c0 5 -3 29 -3 35c0 11 8 22 20 22c26 0 26 -28 26 -57c0 -64 -25 -134 -84 -177c4 -33 4 -69 4 -167c0 -143 31 -186 89 -186zM557 322c0 -12 2 -39 2 -62c52 82 89 187 89 253
c0 37 -11 57 -30 57c-47 0 -61 -88 -61 -248zM237 485c-12 71 -42 129 -97 129c-34 0 -58 -27 -58 -59c0 -51 43 -82 97 -82c21 0 41 4 58 12zM547 769v-7c0 -2 2 -12 2 -14c0 -12 -10 -22 -22 -22c-24 0 -24 25 -24 52c0 3 -2 14 -2 16c0 12 10 22 22 22
c25 0 25 -26 24 -47zM439 769v-7c0 -2 2 -12 2 -14c0 -12 -10 -22 -22 -22c-24 0 -24 25 -24 52c0 3 -2 14 -2 16c0 12 10 22 22 22c25 0 25 -26 24 -47z" />
    <glyph glyph-name="Zcaron" unicode="&#x17d;" horiz-adv-x="790" 
d="M371 51l52 -33c80 -51 135 -69 188 -69c63 0 106 36 106 91c0 34 -20 70 -63 70c-12 0 -22 10 -22 22s10 22 22 22c68 0 107 -53 107 -114c0 -73 -62 -133 -149 -133c-84 0 -139 32 -226 83c-60 35 -106 64 -153 87c-52 -59 -100 -87 -163 -87c-37 0 -70 22 -70 63
c0 51 41 98 129 98c34 0 60 -8 93 -21c49 56 85 114 133 192l19 31c26 43 58 92 91 136c-46 20 -89 45 -139 74c-30 -57 -90 -89 -147 -89c-66 0 -115 34 -115 94c0 58 48 91 105 91c50 0 89 -14 134 -38c5 16 8 32 8 49c0 29 -11 58 -26 76c-3 5 -5 10 -5 14
c0 13 10 23 21 23c25 0 53 -57 53 -114c0 -22 -3 -46 -10 -68c51 -27 85 -52 149 -76c45 55 86 93 140 93c41 0 62 -23 62 -60c0 -55 -54 -93 -125 -93c-17 0 -38 3 -61 10c-37 -46 -75 -105 -101 -147l-21 -34c-47 -76 -77 -128 -122 -183c28 -14 69 -37 106 -60zM630 577
c-30 0 -62 -27 -94 -66c12 -3 23 -4 31 -4c56 0 84 18 84 49c0 9 -7 21 -21 21zM179 516c50 0 91 34 109 66c-36 18 -76 36 -118 36c-35 0 -61 -22 -61 -50c0 -32 28 -52 70 -52zM45 55c0 -10 10 -24 31 -24c39 0 80 28 115 64c-25 9 -43 14 -65 14c-57 0 -81 -28 -81 -54z
M560 792c3 2 7 2 12 2c12 0 22 -5 22 -16c0 -9 -3 -16 -10 -19c-29 -18 -54 -40 -75 -58c-6 -5 -10 -8 -18 -8c-11 0 -86 42 -107 58c-7 4 -10 10 -10 18c0 7 10 17 22 17c5 0 9 -1 13 -4c21 -15 50 -32 79 -47c21 18 40 35 72 57z" />
    <glyph glyph-name="aacute" unicode="&#xe1;" horiz-adv-x="346" 
d="M216 346c57 0 92 -37 92 -106c0 -38 -6 -82 -13 -120c-4 -26 -10 -60 -10 -80c0 -6 1 -10 2 -13c2 -4 4 -7 4 -12c0 -11 -11 -21 -23 -21c-22 0 -28 28 -28 48c0 21 6 49 11 85c6 37 13 76 13 111c0 48 -26 66 -52 66c-76 0 -133 -116 -133 -207c0 -37 17 -63 43 -63
c27 0 47 24 57 51c3 8 11 13 19 13c13 0 21 -10 21 -22c0 -17 -32 -84 -104 -84c-40 0 -81 30 -81 105c0 104 72 249 182 249zM266 500c5 4 15 13 24 20c4 1 9 3 12 3c10 0 18 -6 18 -17c0 -10 -6 -20 -20 -31c-27 -20 -75 -59 -99 -76c-7 -5 -13 -6 -18 -6
c-8 0 -15 10 -15 18c0 7 3 13 8 17c33 26 66 51 90 72z" />
    <glyph glyph-name="acircumflex" unicode="&#xe2;" horiz-adv-x="346" 
d="M216 346c57 0 92 -37 92 -106c0 -38 -6 -82 -13 -120c-4 -26 -10 -60 -10 -80c0 -6 1 -10 2 -13c2 -4 4 -7 4 -12c0 -11 -11 -21 -23 -21c-22 0 -28 28 -28 48c0 21 6 49 11 85c6 37 13 76 13 111c0 48 -26 66 -52 66c-76 0 -133 -116 -133 -207c0 -37 17 -63 43 -63
c27 0 47 24 57 51c3 8 11 13 19 13c13 0 21 -10 21 -22c0 -17 -32 -84 -104 -84c-40 0 -81 30 -81 105c0 104 72 249 182 249zM220 513c7 0 11 -2 13 -4c28 -28 41 -49 70 -67c7 -4 11 -11 11 -19s-10 -17 -23 -17c-16 0 -58 47 -75 64c-27 -19 -46 -37 -68 -52
c-4 -2 -10 -3 -15 -3c-12 0 -20 10 -20 17s4 14 10 18c22 14 87 63 97 63z" />
    <glyph glyph-name="adieresis" unicode="&#xe4;" horiz-adv-x="346" 
d="M216 346c57 0 92 -37 92 -106c0 -38 -6 -82 -13 -120c-4 -26 -10 -60 -10 -80c0 -6 1 -10 2 -13c2 -4 4 -7 4 -12c0 -11 -11 -21 -23 -21c-22 0 -28 28 -28 48c0 21 6 49 11 85c6 37 13 76 13 111c0 48 -26 66 -52 66c-76 0 -133 -116 -133 -207c0 -37 17 -63 43 -63
c27 0 47 24 57 51c3 8 11 13 19 13c13 0 21 -10 21 -22c0 -17 -32 -84 -104 -84c-40 0 -81 30 -81 105c0 104 72 249 182 249zM286 469v-7c0 -2 2 -12 2 -14c0 -12 -10 -22 -22 -22c-24 0 -24 25 -24 52c0 3 -2 14 -2 16c0 12 10 22 22 22c25 0 25 -26 24 -47zM178 469v-7
c0 -2 2 -12 2 -14c0 -12 -10 -22 -22 -22c-24 0 -24 25 -24 52c0 3 -2 14 -2 16c0 12 10 22 22 22c25 0 25 -26 24 -47z" />
    <glyph glyph-name="agrave" unicode="&#xe0;" horiz-adv-x="346" 
d="M216 346c57 0 92 -37 92 -106c0 -38 -6 -82 -13 -120c-4 -26 -10 -60 -10 -80c0 -6 1 -10 2 -13c2 -4 4 -7 4 -12c0 -11 -11 -21 -23 -21c-22 0 -28 28 -28 48c0 21 6 49 11 85c6 37 13 76 13 111c0 48 -26 66 -52 66c-76 0 -133 -116 -133 -207c0 -37 17 -63 43 -63
c27 0 47 24 57 51c3 8 11 13 19 13c13 0 21 -10 21 -22c0 -17 -32 -84 -104 -84c-40 0 -81 30 -81 105c0 104 72 249 182 249zM260 411c0 -12 -7 -20 -15 -20c-5 0 -11 1 -18 6c-24 19 -72 58 -99 78c-16 12 -20 21 -20 31c0 11 8 17 18 17c3 0 8 -2 12 -3
c9 -7 19 -16 24 -20c24 -21 57 -46 90 -72c5 -4 8 -10 8 -17z" />
    <glyph glyph-name="aring" unicode="&#xe5;" horiz-adv-x="346" 
d="M216 346c57 0 92 -37 92 -106c0 -38 -6 -82 -13 -120c-4 -26 -10 -60 -10 -80c0 -6 1 -10 2 -13c2 -4 4 -7 4 -12c0 -11 -11 -21 -23 -21c-22 0 -28 28 -28 48c0 21 6 49 11 85c6 37 13 76 13 111c0 48 -26 66 -52 66c-76 0 -133 -116 -133 -207c0 -37 17 -63 43 -63
c27 0 47 24 57 51c3 8 11 13 19 13c13 0 21 -10 21 -22c0 -17 -32 -84 -104 -84c-40 0 -81 30 -81 105c0 104 72 249 182 249zM199 399c-49 0 -81 33 -81 70c0 34 23 66 42 66c13 0 23 -5 23 -17c0 -8 -6 -13 -14 -18c-5 -3 -12 -18 -12 -31c0 -21 23 -32 41 -32
c29 0 42 21 42 43c0 8 -9 27 -22 27c-12 0 -23 9 -23 22c0 11 10 15 22 15c34 2 63 -34 63 -64c0 -42 -38 -81 -81 -81z" />
    <glyph glyph-name="atilde" unicode="&#xe3;" horiz-adv-x="346" 
d="M216 346c57 0 92 -37 92 -106c0 -38 -6 -82 -13 -120c-4 -26 -10 -60 -10 -80c0 -6 1 -10 2 -13c2 -4 4 -7 4 -12c0 -11 -11 -21 -23 -21c-22 0 -28 28 -28 48c0 21 6 49 11 85c6 37 13 76 13 111c0 48 -26 66 -52 66c-76 0 -133 -116 -133 -207c0 -37 17 -63 43 -63
c27 0 47 24 57 51c3 8 11 13 19 13c13 0 21 -10 21 -22c0 -17 -32 -84 -104 -84c-40 0 -81 30 -81 105c0 104 72 249 182 249zM249 416c-19 0 -41 6 -56 20c-14 13 -26 19 -36 19c-14 0 -23 -16 -29 -35c-2 -6 -9 -10 -16 -10c-12 0 -20 10 -20 22c0 17 27 60 64 60
c17 0 35 -5 54 -22c13 -12 24 -17 34 -17c12 0 19 14 23 25c3 8 11 13 18 13c4 0 8 -1 12 -4c5 -3 7 -11 7 -19c0 -13 -20 -52 -55 -52z" />
    <glyph glyph-name="ccedilla" unicode="&#xe7;" horiz-adv-x="300" 
d="M109 -182c-22 0 -61 10 -61 30c0 12 8 22 20 22c5 0 9 -1 14 -4c10 -8 19 -10 31 -10s35 11 35 29c0 20 -12 28 -29 36c-11 5 -27 10 -27 30c0 13 14 27 26 42l2 1c-49 10 -82 50 -82 126c0 109 69 222 168 222c41 0 61 -17 69 -37c2 -4 3 -10 3 -14
c0 -12 -8 -22 -21 -22c-7 0 -14 4 -19 11c-7 10 -17 19 -35 19c-78 0 -120 -105 -120 -179c0 -80 45 -90 67 -90c27 0 62 14 82 50c4 7 10 13 19 13c12 0 19 -10 19 -23c0 -18 -41 -71 -107 -78l-33 -38c22 -6 58 -23 58 -68c0 -40 -44 -68 -79 -68z" />
    <glyph glyph-name="eacute" unicode="&#xe9;" horiz-adv-x="298" 
d="M144 188c47 1 97 30 97 75c0 20 -14 34 -40 34c-50 0 -121 -64 -121 -171c0 -34 11 -95 83 -95c26 0 53 12 70 33c4 5 9 8 16 8c12 0 20 -10 20 -23c0 -19 -48 -59 -109 -59c-76 0 -125 51 -125 136c0 126 88 214 167 214c60 0 84 -37 84 -77c0 -79 -83 -118 -142 -118
c-12 0 -22 8 -22 21c0 11 9 21 22 22zM262 500c5 4 15 13 24 20c4 1 9 3 12 3c10 0 18 -6 18 -17c0 -10 -6 -20 -20 -31c-27 -20 -75 -59 -99 -76c-7 -5 -13 -6 -18 -6c-8 0 -15 10 -15 18c0 7 3 13 8 17c33 26 66 51 90 72z" />
    <glyph glyph-name="ecircumflex" unicode="&#xea;" horiz-adv-x="298" 
d="M144 188c47 1 97 30 97 75c0 20 -14 34 -40 34c-50 0 -121 -64 -121 -171c0 -34 11 -95 83 -95c26 0 53 12 70 33c4 5 9 8 16 8c12 0 20 -10 20 -23c0 -19 -48 -59 -109 -59c-76 0 -125 51 -125 136c0 126 88 214 167 214c60 0 84 -37 84 -77c0 -79 -83 -118 -142 -118
c-12 0 -22 8 -22 21c0 11 9 21 22 22zM206 513c7 0 11 -2 13 -4c28 -28 41 -49 70 -67c7 -4 11 -11 11 -19s-10 -17 -23 -17c-16 0 -58 47 -75 64c-27 -19 -46 -37 -68 -52c-4 -2 -10 -3 -15 -3c-12 0 -20 10 -20 17s4 14 10 18c22 14 87 63 97 63z" />
    <glyph glyph-name="edieresis" unicode="&#xeb;" horiz-adv-x="298" 
d="M144 188c47 1 97 30 97 75c0 20 -14 34 -40 34c-50 0 -121 -64 -121 -171c0 -34 11 -95 83 -95c26 0 53 12 70 33c4 5 9 8 16 8c12 0 20 -10 20 -23c0 -19 -48 -59 -109 -59c-76 0 -125 51 -125 136c0 126 88 214 167 214c60 0 84 -37 84 -77c0 -79 -83 -118 -142 -118
c-12 0 -22 8 -22 21c0 11 9 21 22 22zM272 469v-7c0 -2 2 -12 2 -14c0 -12 -10 -22 -22 -22c-24 0 -24 25 -24 52c0 3 -2 14 -2 16c0 12 10 22 22 22c25 0 25 -26 24 -47zM164 469v-7c0 -2 2 -12 2 -14c0 -12 -10 -22 -22 -22c-24 0 -24 25 -24 52c0 3 -2 14 -2 16
c0 12 10 22 22 22c25 0 25 -26 24 -47z" />
    <glyph glyph-name="egrave" unicode="&#xe8;" horiz-adv-x="298" 
d="M144 188c47 1 97 30 97 75c0 20 -14 34 -40 34c-50 0 -121 -64 -121 -171c0 -34 11 -95 83 -95c26 0 53 12 70 33c4 5 9 8 16 8c12 0 20 -10 20 -23c0 -19 -48 -59 -109 -59c-76 0 -125 51 -125 136c0 126 88 214 167 214c60 0 84 -37 84 -77c0 -79 -83 -118 -142 -118
c-12 0 -22 8 -22 21c0 11 9 21 22 22zM246 411c0 -12 -7 -20 -15 -20c-5 0 -11 1 -18 6c-24 19 -72 58 -99 78c-16 12 -20 21 -20 31c0 11 8 17 18 17c3 0 8 -2 12 -3c9 -7 19 -16 24 -20c24 -21 57 -46 90 -72c5 -4 8 -10 8 -17z" />
    <glyph glyph-name="iacute" unicode="&#xed;" horiz-adv-x="160" 
d="M112 332c10 -3 17 -12 17 -22c0 -1 0 -3 -1 -5c-18 -72 -37 -202 -43 -297c-1 -12 -10 -21 -22 -21c-13 0 -23 10 -23 23s15 187 45 306c2 12 15 19 27 16zM163 500c5 4 15 13 24 20c4 1 9 3 12 3c10 0 18 -6 18 -17c0 -10 -6 -20 -20 -31c-27 -20 -75 -59 -99 -76
c-7 -5 -13 -6 -18 -6c-8 0 -15 10 -15 18c0 7 3 13 8 17c33 26 66 51 90 72z" />
    <glyph glyph-name="icircumflex" unicode="&#xee;" horiz-adv-x="160" 
d="M112 332c10 -3 17 -12 17 -22c0 -1 0 -3 -1 -5c-18 -72 -37 -202 -43 -297c-1 -12 -10 -21 -22 -21c-13 0 -23 10 -23 23s15 187 45 306c2 12 15 19 27 16zM117 513c7 0 11 -2 13 -4c28 -28 41 -49 70 -67c7 -4 11 -11 11 -19s-10 -17 -23 -17c-16 0 -58 47 -75 64
c-27 -19 -46 -37 -68 -52c-4 -2 -10 -3 -15 -3c-12 0 -20 10 -20 17s4 14 10 18c22 14 87 63 97 63z" />
    <glyph glyph-name="idieresis" unicode="&#xef;" horiz-adv-x="160" 
d="M112 332c10 -3 17 -12 17 -22c0 -1 0 -3 -1 -5c-18 -72 -37 -202 -43 -297c-1 -12 -10 -21 -22 -21c-13 0 -23 10 -23 23s15 187 45 306c2 12 15 19 27 16zM183 469v-7c0 -2 2 -12 2 -14c0 -12 -10 -22 -22 -22c-24 0 -24 25 -24 52c0 3 -2 14 -2 16c0 12 10 22 22 22
c25 0 25 -26 24 -47zM75 469v-7c0 -2 2 -12 2 -14c0 -12 -10 -22 -22 -22c-24 0 -24 25 -24 52c0 3 -2 14 -2 16c0 12 10 22 22 22c25 0 25 -26 24 -47z" />
    <glyph glyph-name="igrave" unicode="&#xec;" horiz-adv-x="160" 
d="M112 332c10 -3 17 -12 17 -22c0 -1 0 -3 -1 -5c-18 -72 -37 -202 -43 -297c-1 -12 -10 -21 -22 -21c-13 0 -23 10 -23 23s15 187 45 306c2 12 15 19 27 16zM167 411c0 -12 -7 -20 -15 -20c-5 0 -11 1 -18 6c-24 19 -72 58 -99 78c-16 12 -20 21 -20 31c0 11 8 17 18 17
c3 0 8 -2 12 -3c9 -7 19 -16 24 -20c24 -21 57 -46 90 -72c5 -4 8 -10 8 -17z" />
    <glyph glyph-name="ntilde" unicode="&#xf1;" horiz-adv-x="350" 
d="M230 338c23 0 77 -14 77 -137c0 -70 -16 -149 -23 -183c-3 -20 -19 -20 -22 -20c-13 0 -23 10 -23 23c0 1 0 2 1 4c8 35 22 111 22 176c0 53 -10 91 -36 91c-54 0 -118 -113 -150 -278c-2 -10 -10 -17 -21 -17c-13 0 -21 10 -21 23c0 12 18 85 22 101c11 45 20 89 21 123
c-1 30 -5 47 -18 60c-3 5 -5 10 -5 16c0 11 10 21 22 21c20 0 47 -37 43 -97c27 62 66 94 111 94zM246 416c-19 0 -41 6 -56 20c-14 13 -26 19 -36 19c-14 0 -23 -16 -29 -35c-2 -6 -9 -10 -16 -10c-12 0 -20 10 -20 22c0 17 27 60 64 60c17 0 35 -5 54 -22
c13 -12 24 -17 34 -17c12 0 19 14 23 25c3 8 11 13 18 13c4 0 8 -1 12 -4c5 -3 7 -11 7 -19c0 -13 -20 -52 -55 -52z" />
    <glyph glyph-name="oacute" unicode="&#xf3;" horiz-adv-x="341" 
d="M213 348c66 0 107 -56 107 -136c0 -107 -63 -222 -165 -222c-69 0 -115 61 -115 154c0 28 4 54 14 81c3 9 12 16 21 16c12 0 21 -11 21 -22c0 -4 -1 -7 -2 -10c-6 -15 -9 -43 -9 -64c0 -52 21 -113 72 -113c72 0 118 95 118 180c0 40 -16 94 -64 94
c-38 0 -51 -32 -51 -56c0 -40 30 -40 47 -40c13 0 23 -10 23 -22c0 -6 -2 -22 -27 -22c-58 0 -88 38 -88 84c0 48 34 98 98 98zM273 500c5 4 15 13 24 20c4 1 9 3 12 3c10 0 18 -6 18 -17c0 -10 -6 -20 -20 -31c-27 -20 -75 -59 -99 -76c-7 -5 -13 -6 -18 -6
c-8 0 -15 10 -15 18c0 7 3 13 8 17c33 26 66 51 90 72z" />
    <glyph glyph-name="ocircumflex" unicode="&#xf4;" horiz-adv-x="341" 
d="M213 348c66 0 107 -56 107 -136c0 -107 -63 -222 -165 -222c-69 0 -115 61 -115 154c0 28 4 54 14 81c3 9 12 16 21 16c12 0 21 -11 21 -22c0 -4 -1 -7 -2 -10c-6 -15 -9 -43 -9 -64c0 -52 21 -113 72 -113c72 0 118 95 118 180c0 40 -16 94 -64 94
c-38 0 -51 -32 -51 -56c0 -40 30 -40 47 -40c13 0 23 -10 23 -22c0 -6 -2 -22 -27 -22c-58 0 -88 38 -88 84c0 48 34 98 98 98zM208 513c7 0 11 -2 13 -4c28 -28 41 -49 70 -67c7 -4 11 -11 11 -19s-10 -17 -23 -17c-16 0 -58 47 -75 64c-27 -19 -46 -37 -68 -52
c-4 -2 -10 -3 -15 -3c-12 0 -20 10 -20 17s4 14 10 18c22 14 87 63 97 63z" />
    <glyph glyph-name="odieresis" unicode="&#xf6;" horiz-adv-x="341" 
d="M213 348c66 0 107 -56 107 -136c0 -107 -63 -222 -165 -222c-69 0 -115 61 -115 154c0 28 4 54 14 81c3 9 12 16 21 16c12 0 21 -11 21 -22c0 -4 -1 -7 -2 -10c-6 -15 -9 -43 -9 -64c0 -52 21 -113 72 -113c72 0 118 95 118 180c0 40 -16 94 -64 94
c-38 0 -51 -32 -51 -56c0 -40 30 -40 47 -40c13 0 23 -10 23 -22c0 -6 -2 -22 -27 -22c-58 0 -88 38 -88 84c0 48 34 98 98 98zM284 469v-7c0 -2 2 -12 2 -14c0 -12 -10 -22 -22 -22c-24 0 -24 25 -24 52c0 3 -2 14 -2 16c0 12 10 22 22 22c25 0 25 -26 24 -47zM176 469v-7
c0 -2 2 -12 2 -14c0 -12 -10 -22 -22 -22c-24 0 -24 25 -24 52c0 3 -2 14 -2 16c0 12 10 22 22 22c25 0 25 -26 24 -47z" />
    <glyph glyph-name="ograve" unicode="&#xf2;" horiz-adv-x="341" 
d="M213 348c66 0 107 -56 107 -136c0 -107 -63 -222 -165 -222c-69 0 -115 61 -115 154c0 28 4 54 14 81c3 9 12 16 21 16c12 0 21 -11 21 -22c0 -4 -1 -7 -2 -10c-6 -15 -9 -43 -9 -64c0 -52 21 -113 72 -113c72 0 118 95 118 180c0 40 -16 94 -64 94
c-38 0 -51 -32 -51 -56c0 -40 30 -40 47 -40c13 0 23 -10 23 -22c0 -6 -2 -22 -27 -22c-58 0 -88 38 -88 84c0 48 34 98 98 98zM257 411c0 -12 -7 -20 -15 -20c-5 0 -11 1 -18 6c-24 19 -72 58 -99 78c-16 12 -20 21 -20 31c0 11 8 17 18 17c3 0 8 -2 12 -3
c9 -7 19 -16 24 -20c24 -21 57 -46 90 -72c5 -4 8 -10 8 -17z" />
    <glyph glyph-name="otilde" unicode="&#xf5;" horiz-adv-x="341" 
d="M213 348c66 0 107 -56 107 -136c0 -107 -63 -222 -165 -222c-69 0 -115 61 -115 154c0 28 4 54 14 81c3 9 12 16 21 16c12 0 21 -11 21 -22c0 -4 -1 -7 -2 -10c-6 -15 -9 -43 -9 -64c0 -52 21 -113 72 -113c72 0 118 95 118 180c0 40 -16 94 -64 94
c-38 0 -51 -32 -51 -56c0 -40 30 -40 47 -40c13 0 23 -10 23 -22c0 -6 -2 -22 -27 -22c-58 0 -88 38 -88 84c0 48 34 98 98 98zM252 416c-19 0 -41 6 -56 20c-14 13 -26 19 -36 19c-14 0 -23 -16 -29 -35c-2 -6 -9 -10 -16 -10c-12 0 -20 10 -20 22c0 17 27 60 64 60
c17 0 35 -5 54 -22c13 -12 24 -17 34 -17c12 0 19 14 23 25c3 8 11 13 18 13c4 0 8 -1 12 -4c5 -3 7 -11 7 -19c0 -13 -20 -52 -55 -52z" />
    <glyph glyph-name="scaron" unicode="&#x161;" horiz-adv-x="285" 
d="M90 141c18 0 36 -6 36 -26c0 -17 -14 -20 -20 -19s-9 3 -16 3c-19 0 -24 -15 -24 -29c0 -24 29 -48 65 -48s74 21 74 66c0 24 -12 52 -57 76c-32 17 -73 44 -73 94c0 41 33 84 95 84c60 0 83 -43 83 -60c0 -13 -10 -23 -23 -23c-6 0 -16 5 -18 13c-3 10 -17 32 -43 32
c-32 0 -50 -20 -50 -46c0 -19 9 -31 49 -55c49 -29 82 -58 82 -109c0 -62 -44 -108 -120 -108c-57 0 -109 33 -109 83c0 42 31 72 69 72zM168 388c-7 0 -11 2 -13 4c-28 28 -41 49 -70 67c-7 4 -11 11 -11 19s10 17 23 17c16 0 58 -47 75 -64c27 19 46 37 68 52
c4 2 10 3 15 3c12 0 20 -10 20 -17s-4 -14 -10 -18c-22 -14 -87 -63 -97 -63z" />
    <glyph glyph-name="uacute" unicode="&#xfa;" horiz-adv-x="336" 
d="M104 307v-5c-10 -44 -24 -113 -24 -175c0 -46 9 -94 42 -94c64 0 122 130 144 288c2 12 11 19 26 19c10 0 18 -13 16 -25c-1 -10 -7 -48 -14 -82c-9 -54 -17 -100 -17 -135c0 -32 6 -54 20 -69c4 -5 5 -10 5 -15c0 -12 -10 -22 -22 -22c-21 0 -46 42 -45 98
c-26 -62 -69 -100 -113 -100c-36 0 -86 23 -86 137c0 67 15 142 22 178c2 9 5 24 23 24c13 0 23 -10 23 -22zM251 500c5 4 15 13 24 20c4 1 9 3 12 3c10 0 18 -6 18 -17c0 -10 -6 -20 -20 -31c-27 -20 -75 -59 -99 -76c-7 -5 -13 -6 -18 -6c-8 0 -15 10 -15 18
c0 7 3 13 8 17c33 26 66 51 90 72z" />
    <glyph glyph-name="ucircumflex" unicode="&#xfb;" horiz-adv-x="336" 
d="M104 307v-5c-10 -44 -24 -113 -24 -175c0 -46 9 -94 42 -94c64 0 122 130 144 288c2 12 11 19 26 19c10 0 18 -13 16 -25c-1 -10 -7 -48 -14 -82c-9 -54 -17 -100 -17 -135c0 -32 6 -54 20 -69c4 -5 5 -10 5 -15c0 -12 -10 -22 -22 -22c-21 0 -46 42 -45 98
c-26 -62 -69 -100 -113 -100c-36 0 -86 23 -86 137c0 67 15 142 22 178c2 9 5 24 23 24c13 0 23 -10 23 -22zM195 513c7 0 11 -2 13 -4c28 -28 41 -49 70 -67c7 -4 11 -11 11 -19s-10 -17 -23 -17c-16 0 -58 47 -75 64c-27 -19 -46 -37 -68 -52c-4 -2 -10 -3 -15 -3
c-12 0 -20 10 -20 17s4 14 10 18c22 14 87 63 97 63z" />
    <glyph glyph-name="udieresis" unicode="&#xfc;" horiz-adv-x="336" 
d="M104 307v-5c-10 -44 -24 -113 -24 -175c0 -46 9 -94 42 -94c64 0 122 130 144 288c2 12 11 19 26 19c10 0 18 -13 16 -25c-1 -10 -7 -48 -14 -82c-9 -54 -17 -100 -17 -135c0 -32 6 -54 20 -69c4 -5 5 -10 5 -15c0 -12 -10 -22 -22 -22c-21 0 -46 42 -45 98
c-26 -62 -69 -100 -113 -100c-36 0 -86 23 -86 137c0 67 15 142 22 178c2 9 5 24 23 24c13 0 23 -10 23 -22zM271 469v-7c0 -2 2 -12 2 -14c0 -12 -10 -22 -22 -22c-24 0 -24 25 -24 52c0 3 -2 14 -2 16c0 12 10 22 22 22c25 0 25 -26 24 -47zM163 469v-7c0 -2 2 -12 2 -14
c0 -12 -10 -22 -22 -22c-24 0 -24 25 -24 52c0 3 -2 14 -2 16c0 12 10 22 22 22c25 0 25 -26 24 -47z" />
    <glyph glyph-name="ugrave" unicode="&#xf9;" horiz-adv-x="336" 
d="M104 307v-5c-10 -44 -24 -113 -24 -175c0 -46 9 -94 42 -94c64 0 122 130 144 288c2 12 11 19 26 19c10 0 18 -13 16 -25c-1 -10 -7 -48 -14 -82c-9 -54 -17 -100 -17 -135c0 -32 6 -54 20 -69c4 -5 5 -10 5 -15c0 -12 -10 -22 -22 -22c-21 0 -46 42 -45 98
c-26 -62 -69 -100 -113 -100c-36 0 -86 23 -86 137c0 67 15 142 22 178c2 9 5 24 23 24c13 0 23 -10 23 -22zM225 411c0 -12 -7 -20 -15 -20c-5 0 -11 1 -18 6c-24 19 -72 58 -99 78c-16 12 -20 21 -20 31c0 11 8 17 18 17c3 0 8 -2 12 -3c9 -7 19 -16 24 -20
c24 -21 57 -46 90 -72c5 -4 8 -10 8 -17z" />
    <glyph glyph-name="yacute" unicode="&#xfd;" horiz-adv-x="331" 
d="M108 315l-1 -4c-8 -43 -22 -114 -22 -178c0 -29 4 -93 38 -93c61 0 136 156 135 277c0 12 11 21 23 21s20 -10 20 -22c0 -45 -7 -143 -10 -190c-3 -42 -10 -124 -36 -210c33 -19 58 -52 58 -90c0 -12 -10 -22 -22 -22s-21 10 -21 22c0 28 -22 43 -31 47
c-44 -113 -142 -185 -231 -185c-49 0 -93 24 -93 85c0 103 129 168 234 168c23 0 46 -3 64 -9c16 50 31 131 37 192c-25 -70 -78 -128 -127 -128c-62 0 -83 67 -83 137c0 69 15 145 22 182c2 7 5 23 24 23c12 0 22 -10 22 -23zM14 -271c69 0 148 65 187 165
c-14 4 -35 6 -52 6c-83 0 -189 -53 -189 -124c0 -32 27 -47 54 -47zM268 500c5 4 15 13 24 20c4 1 9 3 12 3c10 0 18 -6 18 -17c0 -10 -6 -20 -20 -31c-27 -20 -75 -59 -99 -76c-7 -5 -13 -6 -18 -6c-8 0 -15 10 -15 18c0 7 3 13 8 17c33 26 66 51 90 72z" />
    <glyph glyph-name="ydieresis" unicode="&#xff;" horiz-adv-x="331" 
d="M108 315l-1 -4c-8 -43 -22 -114 -22 -178c0 -29 4 -93 38 -93c61 0 136 156 135 277c0 12 11 21 23 21s20 -10 20 -22c0 -45 -7 -143 -10 -190c-3 -42 -10 -124 -36 -210c33 -19 58 -52 58 -90c0 -12 -10 -22 -22 -22s-21 10 -21 22c0 28 -22 43 -31 47
c-44 -113 -142 -185 -231 -185c-49 0 -93 24 -93 85c0 103 129 168 234 168c23 0 46 -3 64 -9c16 50 31 131 37 192c-25 -70 -78 -128 -127 -128c-62 0 -83 67 -83 137c0 69 15 145 22 182c2 7 5 23 24 23c12 0 22 -10 22 -23zM14 -271c69 0 148 65 187 165
c-14 4 -35 6 -52 6c-83 0 -189 -53 -189 -124c0 -32 27 -47 54 -47zM264 469v-7c0 -2 2 -12 2 -14c0 -12 -10 -22 -22 -22c-24 0 -24 25 -24 52c0 3 -2 14 -2 16c0 12 10 22 22 22c25 0 25 -26 24 -47zM156 469v-7c0 -2 2 -12 2 -14c0 -12 -10 -22 -22 -22
c-24 0 -24 25 -24 52c0 3 -2 14 -2 16c0 12 10 22 22 22c25 0 25 -26 24 -47z" />
    <glyph glyph-name="zcaron" unicode="&#x17e;" horiz-adv-x="336" 
d="M245 332l3 3c3 3 8 5 14 5c24 0 25 -19 25 -22c0 -6 -2 -11 -5 -16c-47 -51 -77 -92 -106 -133c-25 -35 -79 -99 -101 -120c37 7 91 2 122 -4c19 -4 36 -7 50 -7c31 0 32 11 32 30c0 12 7 21 19 22c22 5 25 -16 25 -27c0 -43 -32 -66 -76 -66c-18 0 -37 4 -57 7
c-25 5 -51 10 -79 10c-23 0 -46 -3 -71 -11c-1 -1 -4 -1 -8 -1c-12 0 -22 10 -22 21c0 7 2 12 5 16c60 62 93 108 126 155c20 28 53 67 76 93c-20 0 -94 10 -109 10c-18 0 -22 -5 -25 -11c-4 -9 -12 -13 -20 -13c-12 0 -23 10 -23 22c0 10 16 44 68 44c8 0 30 -3 53 -6
s46 -6 54 -6c14 0 25 2 30 5zM184 388c-7 0 -11 2 -13 4c-28 28 -41 49 -70 67c-7 4 -11 11 -11 19s10 17 23 17c16 0 58 -47 75 -64c27 19 46 37 68 52c4 2 10 3 15 3c12 0 20 -10 20 -17s-4 -14 -10 -18c-22 -14 -87 -63 -97 -63z" />
    <glyph glyph-name="Delta" unicode="&#x2206;" horiz-adv-x="647" 
d="M32 0v36l268 578h48l266 -578v-36h-582zM74 33h494l-168 369c-19 45 -62 132 -76 171h-4c-10 -28 -48 -108 -67 -152z" />
    <glyph glyph-name="Omega" unicode="&#x2126;" horiz-adv-x="740" 
d="M215 33v2c-77 53 -145 147 -145 275c0 173 137 295 302 295c176 0 297 -140 297 -292c0 -134 -75 -233 -146 -278v-2h160v-33h-228v24c85 42 172 138 172 285c0 119 -89 263 -255 263c-158 0 -260 -124 -260 -265c0 -139 87 -241 172 -283v-24h-228v33h159z" />
    <glyph glyph-name="pi" unicode="&#x3c0;" horiz-adv-x="552" 
d="M527 406h-89v-274c0 -82 8 -110 15 -132h-41c-8 12 -16 42 -16 124v282h-212c-7 -119 -41 -332 -79 -406h-42c40 86 72 281 79 406c-73 0 -102 -6 -123 -14l-9 27c26 12 61 21 131 21h391z" />
    <glyph glyph-name="Euro" unicode="&#x20ac;" horiz-adv-x="623" 
d="M246 216l-78 -5c-19 -1 -37 -2 -54 -2c25 -105 104 -180 227 -180c89 0 158 33 197 90c4 6 12 10 19 10c11 0 21 -10 21 -23c0 -16 -69 -120 -237 -120c-149 0 -245 92 -272 223c-42 0 -59 4 -59 23c0 12 11 22 23 22h4c6 -2 14 -3 25 -4c-1 12 -1 24 -1 37v17
c-33 2 -51 7 -51 23c0 12 11 22 23 22h4c3 -1 7 -2 11 -2c5 -1 11 -1 17 -2c20 151 123 279 308 285c26 63 83 98 145 98c21 0 57 -2 57 -27c0 -13 -10 -20 -22 -20c-5 0 -29 4 -35 4c-36 0 -72 -14 -94 -54c116 0 170 -46 170 -122c0 -56 -46 -99 -114 -99
c-88 0 -121 66 -121 150c0 9 1 18 2 26c-147 -14 -231 -122 -251 -242c30 0 74 2 108 4l79 5c50 3 110 5 141 4c13 0 22 -10 22 -22c0 -22 -18 -18 -40 -18c-38 0 -91 -3 -144 -6l-88 -5c-26 -1 -60 -2 -83 -2v-17c0 -13 0 -26 2 -38c27 0 60 2 91 4l69 5c50 4 100 5 131 4
c13 0 22 -10 22 -22c0 -22 -18 -18 -40 -18c-38 0 -81 -3 -134 -6zM480 453c53 0 68 38 68 56c0 60 -61 81 -141 81c-2 -9 -3 -19 -3 -30c0 -65 27 -107 76 -107z" />
    <glyph glyph-name="estimated" unicode="&#x212e;" horiz-adv-x="745" 
d="M715 287h-556c-2 0 -4 -1 -4 -3v-169c0 -7 3 -13 7 -19c54 -56 128 -91 210 -91c89 0 168 40 222 102h49c-61 -72 -161 -119 -271 -119c-190 0 -343 137 -343 308c0 170 153 309 343 309s343 -139 343 -309v-9zM589 309v169c0 8 -3 15 -8 20c-54 53 -127 88 -209 88
c-81 0 -155 -35 -209 -90c-5 -6 -8 -13 -8 -21v-166c0 -2 2 -5 4 -5h427c2 0 3 3 3 5z" />
    <glyph glyph-name="partialdiff" unicode="&#x2202;" horiz-adv-x="527" 
d="M100 586l-19 26c32 25 81 49 156 49c121 0 237 -112 237 -323c0 -169 -77 -348 -247 -348c-127 0 -183 108 -183 197c0 129 99 211 206 211c103 0 166 -78 181 -105h1c1 14 1 35 1 49c0 182 -97 287 -198 287c-64 0 -108 -23 -135 -43zM229 22h1c108 0 178 108 194 226
c-17 43 -80 117 -170 117s-169 -76 -169 -175c0 -92 57 -168 144 -168z" />
    <glyph glyph-name="product" unicode="&#x220f;" horiz-adv-x="687" 
d="M662 558h-118v-640h-41v640h-320v-640h-40v640h-118v36h637v-36z" />
    <glyph glyph-name="summation" unicode="&#x2211;" horiz-adv-x="549" 
d="M523 -82h-502v27l284 309l-271 313v27h477v-36h-414v-3l258 -297l-274 -299v-3h442v-38z" />
    <glyph glyph-name="uni2219" unicode="&#x2219;" horiz-adv-x="130" 
d="M46 231l4 34c2 12 14 20 29 18c14 -2 22 -13 21 -25l-5 -34c-2 -11 -12 -18 -25 -18c-16 0 -26 11 -24 25z" />
    <glyph glyph-name="radical" unicode="&#x221a;" horiz-adv-x="545" 
d="M545 702l-219 -833h-43l-163 406l-74 -27l-12 28l112 43l143 -359c5 -15 10 -33 14 -49h1c3 15 9 34 12 49l194 742h35z" />
    <glyph glyph-name="infinity" unicode="&#x221e;" horiz-adv-x="742" 
d="M691 247v-1c0 -86 -68 -143 -141 -143c-63 0 -109 47 -177 118c-52 -56 -105 -118 -184 -118c-75 0 -138 64 -138 140c0 82 62 143 145 143c72 0 128 -62 180 -119c55 61 105 119 182 119c83 0 133 -58 133 -139zM194 135h1c66 0 118 67 160 108c-45 51 -95 114 -168 114
c-64 0 -101 -56 -101 -115s42 -107 108 -107zM554 357h-1c-69 0 -124 -77 -160 -110c67 -70 108 -112 162 -112c65 0 102 55 102 109c0 73 -46 113 -103 113z" />
    <glyph glyph-name="integral" unicode="&#x222b;" horiz-adv-x="320" 
d="M309 707l-10 -29c-8 7 -25 12 -38 12c-14 0 -36 -4 -50 -18c-27 -28 -37 -76 -37 -158c0 -131 13 -308 13 -439c0 -98 -23 -146 -44 -172c-18 -22 -48 -34 -78 -34c-23 0 -49 9 -59 16l10 29c8 -4 27 -13 48 -13c16 0 34 7 46 19c21 24 39 62 39 157
c0 131 -14 312 -14 441c0 89 12 142 49 174c23 22 49 29 75 29c19 0 41 -8 50 -14z" />
    <glyph glyph-name="approxequal" unicode="&#x2248;" horiz-adv-x="565" 
d="M493 369l19 -18c-25 -44 -59 -83 -121 -83c-42 0 -69 16 -120 42c-30 16 -62 32 -97 32c-47 0 -76 -34 -102 -72l-20 17c30 55 76 85 130 85c47 0 84 -28 113 -42c35 -17 58 -33 99 -33c42 0 69 23 99 72zM493 214l19 -18c-25 -44 -59 -82 -121 -82c-42 0 -70 16 -120 42
c-30 15 -62 32 -96 32c-49 0 -77 -35 -103 -72l-20 17c30 55 76 84 129 84c49 0 84 -26 114 -41c33 -17 58 -33 100 -33s68 22 98 71z" />
    <glyph glyph-name="notequal" unicode="&#x2260;" horiz-adv-x="565" 
d="M392 450l-49 -103h170v-30h-184l-73 -149h257v-30h-271l-57 -120l-25 14l51 106h-160v30h174l72 149h-246v30h260l56 116z" />
    <glyph glyph-name="lessequal" unicode="&#x2264;" horiz-adv-x="565" 
d="M510 65l-452 212v32l452 212v-37l-415 -189v-2l415 -191v-37zM512 -4h-461v29h461v-29z" />
    <glyph glyph-name="greaterequal" unicode="&#x2265;" horiz-adv-x="565" 
d="M58 521l452 -212v-32l-452 -212v37l414 190v2l-414 190v37zM512 -4h-460v29h460v-29z" />
    <glyph glyph-name="lozenge" unicode="&#x25ca;" horiz-adv-x="547" 
d="M490 297l-201 -342h-33l-200 342l200 342h34zM450 296l-159 270c-7 13 -15 30 -19 40h-1c-5 -13 -12 -26 -20 -40l-156 -268l159 -272c9 -17 16 -28 18 -38h3c3 11 11 26 18 38z" />
    <glyph glyph-name="uni02C9" unicode="&#x2c9;" horiz-adv-x="237" 
d="M184 475c15 4 28 -7 28 -15c0 -11 -7 -20 -17 -21c-28 -7 -53 -9 -75 -9c-11 0 -61 4 -74 4c-12 0 -22 8 -22 17c0 10 10 21 22 21c11 0 61 -4 74 -4c20 0 40 2 64 7z" />
    <glyph glyph-name="uni00AD" unicode="&#xad;" horiz-adv-x="307" 
d="M171 216l-72 1c-17 0 -31 0 -39 -2c-14 -5 -26 6 -26 19c0 26 24 26 65 26l72 -1c29 0 58 1 72 5c2 1 4 2 7 2c12 0 22 -11 22 -22c0 -27 -52 -30 -101 -28z" />
    <glyph glyph-name="uni03A9" unicode="&#x3a9;" horiz-adv-x="740" 
d="M215 33v2c-77 53 -145 147 -145 275c0 173 137 295 302 295c176 0 297 -140 297 -292c0 -134 -75 -233 -146 -278v-2h160v-33h-228v24c85 42 172 138 172 285c0 119 -89 263 -255 263c-158 0 -260 -124 -260 -265c0 -139 87 -241 172 -283v-24h-228v33h159z" />
    <glyph glyph-name="uni00A0" unicode="&#xa0;" horiz-adv-x="170" 
 />
    <glyph glyph-name="afii61289" unicode="&#x2113;" horiz-adv-x="462" 
d="M412 121l25 -18c-41 -73 -100 -111 -175 -111c-106 0 -152 82 -155 163v10c-18 -13 -40 -31 -60 -46l-16 27c27 22 53 40 76 60v248c0 160 77 201 137 201c79 0 114 -65 114 -136c0 -113 -86 -219 -212 -329v-19c0 -105 63 -147 123 -147c68 0 120 53 143 97zM146 461
v-229c98 94 178 184 178 282c0 61 -21 109 -83 109c-40 0 -95 -39 -95 -162z" />
    <glyph glyph-name="uni03BC" unicode="&#x3bc;" horiz-adv-x="382" 
d="M139 322v-3c-10 -64 -22 -140 -22 -188c0 -46 9 -92 41 -92c56 0 109 105 140 273c2 13 13 21 25 18c11 -2 19 -10 19 -21c0 -2 -4 -25 -4 -29c-19 -100 -25 -137 -25 -187c0 -25 2 -46 9 -61c2 -4 3 -7 3 -10c0 -13 -10 -23 -23 -23c-28 0 -32 61 -33 86
c-25 -51 -64 -90 -111 -90c-22 0 -48 5 -65 46c-13 -79 -27 -163 -48 -208c-4 -9 -12 -13 -20 -13c-12 0 -22 10 -22 22c0 3 1 6 1 9c33 73 55 243 71 357c11 76 15 110 21 123c4 8 12 14 20 14c13 0 23 -11 23 -23z" />
    <glyph glyph-name="uni2215" unicode="&#x2215;" horiz-adv-x="365" 
d="M0 6v5c28 111 124 274 218 434c47 80 90 153 110 185c5 8 12 12 20 12c9 0 17 -10 17 -21c0 -3 -2 -10 -7 -18c-24 -41 -60 -101 -107 -179c-88 -148 -189 -319 -214 -424c-3 -12 -15 -19 -24 -16c-7 3 -13 12 -13 22z" />
    </font>
</defs>
</svg>
