<svg xmlns="http://www.w3.org/2000/svg">
<defs>
<font id="UTMBebas" horiz-adv-x="811" >
  <font-face 
    font-family="UTM Bebas"
    font-weight="400"
    font-stretch="normal"
    units-per-em="2048"
    panose-1="2 4 6 3 5 5 6 2 2 4"
    ascent="1638"
    descent="-410"
    x-height="1434"
    cap-height="1434"
    bbox="-106 -372 4942 2195"
    underline-thickness="109"
    underline-position="-251"
    unicode-range="U+0020-2212"
  />
<missing-glyph horiz-adv-x="5040" 
d="M3351 2045h10q37 -10 37 -52q0 -12 -32 -57h-28q0 24 28 54l2 10q-5 13 -10 15h-9q-8 0 -10 -19h-30q6 49 42 49zM2019 2016l29 -31q0 -16 -40 -30h-19l-59 12l-11 -12l-28 25q11 29 43 29h11l42 -11h2q10 0 30 18zM468 1980h142v-60h-94v-75h89v-59h-89v-129l-5 -5h-49
v323zM1155 1980h43l6 -5v-78h30v-52h-30v-188l-6 -5h-49v193h-25v52h25v78zM1621 1980h42l4 -5v-94h3q23 24 54 24h2q58 0 83 -71l2 -39v-143h-52v115q0 80 -42 80h-7q-43 0 -43 -86v-109h-51v323zM2200 1980h49l5 -5v-222q10 -51 45 -51q44 7 44 59v214l5 5h49v-216
q0 -85 -66 -112q-15 -8 -35 -8q-47 0 -82 55q-14 24 -14 57v224zM2435 1980h159v-60h-56v-268h-53v268h-55v55zM2621 1980h71q7 -4 83 -251h2l80 251h73v-328h-54v242h-2l-74 -242h-44q-4 0 -58 182l-19 60h-3v-242h-55v328zM3760 1980h52v-328h-45l-5 5v11l3 2l-3 14
q-29 -40 -78 -40q-67 0 -100 91l-5 39v3q0 94 92 125l23 3q35 0 63 -32h3v107zM2057 1928h36l4 -6v-49h-45v-221h-48v23q-23 -31 -59 -31q-89 14 -89 97v156h51v-104q0 -79 26 -86l18 -5h6q26 0 39 36l3 26v133h53v25zM3476 1928v-55h-31v-221h-47v25h-2q-15 -33 -57 -33
q-68 0 -86 78l-3 29v146h52v-120q0 -50 19 -68l21 -7h9q42 0 42 69v126h27q4 0 4 28l3 3h49zM758 1905q68 0 103 -77q9 -18 12 -54q0 -88 -90 -127l-32 -3q-63 0 -101 73q-12 22 -12 52v10q0 94 101 126h19zM1011 1905h3q74 0 83 -101v-152h-51v119q0 76 -42 76h-5
q-44 0 -44 -76v-119h-52v245h46v-21q30 29 62 29zM1466 1905h7q72 0 105 -89h-60q-16 31 -42 31h-17q-53 -14 -53 -61l-3 -15q12 -69 61 -69h9q22 0 47 27h40l2 3h3l2 -3l2 3l3 -3l2 3l2 -7q-33 -81 -110 -81q-76 0 -110 94l-4 36v3q0 85 77 120q15 8 37 8zM3141 1905h2

<glyph glyph-name=".notdef" horiz-adv-x="5040" 
d="M3351 2045h10q37 -10 37 -52q0 -12 -32 -57h-28q0 24 28 54l2 10q-5 13 -10 15h-9q-8 0 -10 -19h-30q6 49 42 49zM2019 2016l29 -31q0 -16 -40 -30h-19l-59 12l-11 -12l-28 25q11 29 43 29h11l42 -11h2q10 0 30 18zM468 1980h142v-60h-94v-75h89v-59h-89v-129l-5 -5h-49
v323zM1155 1980h43l6 -5v-78h30v-52h-30v-188l-6 -5h-49v193h-25v52h25v78zM1621 1980h42l4 -5v-94h3q23 24 54 24h2q58 0 83 -71l2 -39v-143h-52v115q0 80 -42 80h-7q-43 0 -43 -86v-109h-51v323zM2200 1980h49l5 -5v-222q10 -51 45 -51q44 7 44 59v214l5 5h49v-216
q0 -85 -66 -112q-15 -8 -35 -8q-47 0 -82 55q-14 24 -14 57v224zM2435 1980h159v-60h-56v-268h-53v268h-55v55zM2621 1980h71q7 -4 83 -251h2l80 251h73v-328h-54v242h-2l-74 -242h-44q-4 0 -58 182l-19 60h-3v-242h-55v328zM3760 1980h52v-328h-45l-5 5v11l3 2l-3 14
q-29 -40 -78 -40q-67 0 -100 91l-5 39v3q0 94 92 125l23 3q35 0 63 -32h3v107zM2057 1928h36l4 -6v-49h-45v-221h-48v23q-23 -31 -59 -31q-89 14 -89 97v156h51v-104q0 -79 26 -86l18 -5h6q26 0 39 36l3 26v133h53v25zM3476 1928v-55h-31v-221h-47v25h-2q-15 -33 -57 -33
q-68 0 -86 78l-3 29v146h52v-120q0 -50 19 -68l21 -7h9q42 0 42 69v126h27q4 0 4 28l3 3h49zM758 1905q68 0 103 -77q9 -18 12 -54q0 -88 -90 -127l-32 -3q-63 0 -101 73q-12 22 -12 52v10q0 94 101 126h19zM1011 1905h3q74 0 83 -101v-152h-51v119q0 76 -42 76h-5
q-44 0 -44 -76v-119h-52v245h46v-21q30 29 62 29zM1466 1905h7q72 0 105 -89h-60q-16 31 -42 31h-17q-53 -14 -53 -61l-3 -15q12 -69 61 -69h9q22 0 47 27h40l2 3h3l2 -3l2 3l3 -3l2 3l2 -7q-33 -81 -110 -81q-76 0 -110 94l-4 36v3q0 85 77 120q15 8 37 8zM3141 1905h2
q49 0 70 -60v-14h-52q0 16 -16 16h-4q-14 0 -19 -13v-13q0 -9 68 -35q30 -19 30 -59q0 -58 -61 -80l-23 -3q-76 12 -76 83h54q0 -20 27 -25h4q19 0 24 23q0 22 -68 44q-34 27 -34 59q0 66 74 77zM4203 1905q55 0 77 -63q7 -18 7 -65v-125h-52v112q0 83 -40 83h-11
q-33 0 -40 -54v-141h-52v5h-2l2 2v238h47v-21q25 29 64 29zM4432 1905h5q40 0 69 -40v18l-3 3l3 11h47v-208q0 -97 -85 -132l-33 -4h-7q-70 0 -104 80h59q24 -22 45 -23h13q22 0 43 22q15 13 22 52h-3q-32 -40 -73 -40q-57 0 -96 70q-10 18 -14 63q0 88 87 125zM3851 1897
h53v-136q6 -59 40 -59h7q46 0 46 93v102h51v-245h-47l-3 10h3l-3 3v5l3 2v3h-4q0 -23 -57 -31h-3q-59 0 -84 75l-2 85v93zM690 1771q10 -69 63 -69h7q59 14 59 65v15q-13 65 -59 65h-5q-58 0 -65 -76zM3630 1774q13 -72 61 -72h5q58 0 66 75q0 49 -51 70h-22q-37 0 -56 -57z
M4374 1774q8 -72 65 -72h5q59 12 59 72q0 61 -59 73h-14q-56 -16 -56 -62v-11zM3928 1620h52v-57h-52v57zM1054 1402q43 -11 43 -49v-4q0 -17 -32 -60h-28q0 25 31 57v7q0 12 -7 15h-12q-10 -4 -10 -19h-28v6q0 32 33 44zM3349 1339q92 0 138 -99h-60q-37 42 -80 42
q-55 0 -87 -68q-10 -22 -10 -47q0 -78 81 -110l18 -1q36 0 75 39h61q-44 -97 -138 -97q-93 0 -141 112q-10 31 -10 62q0 97 90 152q29 15 63 15zM3664 1339q57 0 103 -47q46 -51 46 -115v-20q0 -89 -91 -146q-33 -13 -63 -13q-89 0 -138 101q-13 33 -13 60v18q0 98 98 151
q29 11 58 11zM2261 1337h2l47 -11h3q11 0 26 11l18 -36q-18 -19 -35 -19h-3l-54 10l-20 -7l-20 36q18 16 36 16zM716 1334h19q118 0 129 -26q25 -26 25 -62q-10 -57 -30 -57v-6q47 -23 47 -66v-18q0 -63 -69 -88l-54 -5h-67v328zM2550 1334h53v-217q6 -61 45 -61q29 0 44 39
l3 30v203l4 6h45l5 -6v-171q0 -118 -40 -133q-24 -26 -64 -26q-55 0 -91 76l-4 54v206zM2805 1334h59q4 0 122 -237h4v237h50l4 -6v-322h-58q-29 48 -125 238h-3v-238h-53v328zM3101 1334h54v-328h-54v328zM3859 1334h8q155 0 174 -40q23 -11 47 -75l4 -36v-11l3 -2
q0 -94 -82 -149q-35 -15 -99 -15h-55v328zM4141 1334h153v-60h-103v-75h101v-57h-101v-74l4 -5h99v-57h-157v322zM3563 1175v-10q0 -76 79 -108l19 -1q68 0 96 86l3 20v15q0 61 -60 94q-12 8 -39 11q-66 0 -96 -83zM770 1274v-67h9q54 0 54 28l3 14q-11 25 -29 25h-37z
M3912 1274v-206l2 -3v-2q104 0 122 76l2 15v29q0 34 -32 68q-25 23 -78 23h-16zM1041 1259h5q38 0 71 -40v32h49v-245h-49v32q-36 -40 -80 -40q-75 0 -101 97l-5 36q0 89 85 125zM1314 1259h3q74 0 83 -102v-151h-51v128q0 67 -42 67h-10q-34 0 -39 -62v-133h-52v245h47v-21
q28 29 61 29zM1543 1259h5q45 0 71 -40v32h47v-219q0 -95 -104 -126h-16q-74 0 -108 82h59q26 -25 44 -25h14q52 0 64 77q-33 -42 -76 -42q-60 0 -101 81l-7 44v16q0 79 85 117zM1912 1259h2q43 0 61 -37h2q32 37 69 37h4q57 0 79 -55q8 -25 8 -45v-153h-52v138q0 44 -23 55
l-12 2h-15q-32 0 -36 -65v-130h-52v136q0 59 -43 59h-8q-32 0 -36 -57v-138h-54v245h50v-21h2q6 24 54 29zM2282 1259q47 0 75 -42v34h47v-245h-47v32q-36 -40 -78 -40q-74 0 -102 92l-6 41q0 90 85 125zM985 1117q0 -48 61 -61h4q45 0 62 46l3 15v22q-12 62 -57 62h-14
q-41 0 -59 -57v-27zM1487 1128q0 -48 43 -68l18 -4h5q47 0 63 57v23q-11 65 -58 65h-12q-50 0 -59 -73zM2225 1131v-14q15 -61 57 -61h14q58 12 58 64v11q0 45 -37 65l-18 5h-10q-64 -8 -64 -70zM770 1150v-82q0 -5 7 -5q77 0 77 45q0 34 -47 42h-37zM2966 753l24 -28
l-51 -55q-18 12 -27 26zM1524 727l85 -54q0 -15 -21 -42l-87 54q18 41 23 42zM2850 693h38l55 -60h-54l-21 26l-23 -26h-54q54 60 59 60zM3422 693h40l56 -60h-54l-24 26h-1q0 -5 -19 -26h-54zM622 685h52q8 -4 47 -137l34 -110q9 8 34 100l48 147h54v-2l-112 -326h-44z
M1159 685h51v-54h-51v54zM1354 685h46l6 -5v-323h-52v328zM2317 685h45l4 -5v-78h31v-52h-31v-193h-53v193h-26v52h26v78zM2425 685h52v-98h2q23 23 54 23h3q57 0 81 -71l3 -38v-144h-52v115q0 81 -39 81h-10q-42 0 -42 -87v-109h-52v328zM2664 685h52v-54h-52v54zM3028 685
h44l6 -5v-78h29v-52h-29v-193h-54v193h-27v52h27v78zM3234 685h52v-328h-52v328zM3957 685h52v-328h-52v328zM4316 685h51v-54h-51v54zM1555 610h5q83 0 110 -102l3 -23v-11q0 -83 -85 -120l-35 -5q-76 0 -111 97l-4 32q0 97 93 130zM1811 610h4q53 0 78 -60q7 -25 7 -81
v-112h-54v146q-7 50 -37 50h-10q-38 0 -42 -57v-139h-54v245h49v-21q26 29 59 29zM2046 610h4q45 0 63 -39h3v31h49v-206q0 -102 -89 -135l-28 -3h-5q-73 0 -106 81h52l37 -20l15 -3h14q50 0 61 72q-33 -39 -73 -39q-62 0 -98 76q-11 23 -12 60q0 85 86 123zM2866 610h2
q82 0 111 -104l2 -25l-2 -27h-172q15 -45 45 -45l14 -3q29 0 49 22h57v-3q-35 -76 -108 -76q-77 0 -111 97l-1 28v8q0 49 32 89q34 39 82 39zM3429 610h5q41 0 70 -39h2v31h47v-245h-47v31h-2q-35 -39 -77 -39q-71 0 -101 89l-5 36v14q0 86 84 120zM3711 610h7
q88 0 107 -128l-2 -1v-15q0 -65 -66 -106q-21 -11 -46 -11q-34 0 -64 32v-99l-5 -5h-49v325h49v-28q31 36 69 36zM4151 610q44 0 75 -39v31h49v-245h-49v31q-35 -39 -77 -39q-92 0 -108 132q0 84 73 121q15 8 37 8zM922 602h50v-136q3 -60 42 -60h5q44 0 44 87v109h52v-245
h-47v24h-5q0 -23 -56 -32h-3q-55 0 -82 68q-4 35 -4 99v81zM1159 602h51v-245h-51v245zM2664 602h52v-245h-52v245zM4316 602h51v-245h-51v245zM1492 488v-16q13 -66 59 -66h4q59 0 66 76q-13 71 -59 71h-11q-59 -16 -59 -65zM1987 472q15 -66 59 -66h11q48 0 59 75v1
q-13 71 -59 71h-14q-39 0 -56 -57v-24zM2805 506h122v2q-16 45 -59 45h-7q-35 0 -56 -47zM3373 474q13 -68 61 -68h5q52 0 65 63v12q-10 72 -57 72h-16q-56 -14 -56 -63zM3642 478q12 -72 61 -72h3q50 0 65 60v22q0 43 -49 65h-22q-47 0 -58 -72v-3zM4095 472q10 -66 66 -66
q43 0 61 48l2 15v16q0 54 -52 68h-18q-42 0 -59 -60v-21zM3416 321h51v-52h-51v52zM4137 321h51v-52h-51v52zM2733 133h4q35 0 43 -50v-2q0 -16 -24 -41l-10 -17h-28q0 25 28 56l3 2v2q-3 19 -9 19h-10q-8 0 -9 -19h-30q6 50 42 50zM1546 116l52 -60l-26 -19l-52 52zM352 79
h4q75 -48 85 -60l-20 -37q-88 49 -88 58zM3490 79l86 -58l-18 -39q-10 0 -91 55q15 36 23 42zM4578 76l19 -42l-91 -52l-20 39l92 58v-3zM1204 53h51v-19l5 -5h14v-36h-14l-5 -5v-279h-46v31q-34 -40 -81 -40q-72 0 -102 105l-3 26q0 102 101 131h14q33 0 66 -33v59l-6 5
h-43v36h49v24zM1480 45h40l56 -61h-53l-23 27l-23 -27h-53zM2641 45h33q12 0 63 -61h-54l-23 27q-19 -21 -19 -27h-58v4zM49 37h160v-60h-56v-268h-50l-4 5v245l2 3v2l-2 2l2 3l-2 2l2 3l-2 3h-54v54zM699 37h47v-73l2 -2l-2 -3v-3l2 -2l-2 -3v-3l2 -2v-2l-2 -3l2 -3h3
q17 24 51 24h3q53 0 77 -58q7 -17 7 -42v-153h-52v127q0 68 -40 68h-8q-43 0 -43 -86v-109h-52v322zM1297 37h47l5 -6v-49h-52v55zM1987 37h52v-198l70 115h62l-78 -118l90 -125v-2h-70q-10 22 -74 115v-115h-52v328zM2271 37v-99q24 24 53 24q57 0 80 -56q10 -19 10 -77
v-120h-54v133q0 62 -41 62h-11q-31 0 -37 -55v-140h-53v314l-1 3v3l1 2l-1 3l1 3h53zM2458 37h51v-55h-51v55zM3148 37h51v-108q27 33 68 33h3q75 0 105 -94l5 -37q0 -75 -64 -120q-30 -11 -49 -11q-41 0 -72 40v-31h-47v328zM4275 37h52v-99h2q23 24 54 24h3q60 0 82 -74
l2 -41v-138h-52v111q0 82 -32 82l-10 2h-12q-37 0 -37 -80v-115h-52v328zM329 -38h3v-58h-5q-42 0 -42 -57v-138h-53v245h47v-21q18 29 50 29zM564 -38q71 0 86 -87v-166h-51v136q-6 59 -41 59h-6q-45 0 -45 -84v-111h-52v245h50v-21q25 29 59 29zM1504 -38q72 0 105 -94
l5 -39q-2 -24 -7 -24h-169q17 -47 62 -47q24 0 48 21h57q-33 -79 -108 -79q-82 0 -113 105v37q0 81 89 117zM2657 -38h5q77 0 107 -97l3 -26v-21l-3 -13h-170q18 -47 53 -47h12q21 0 42 21h59q-34 -79 -105 -79q-84 0 -115 102l-2 29q0 93 91 128zM2915 -38h4q54 0 78 -60
q7 -25 7 -82v-111h-54v138q0 48 -35 57h-11q-38 0 -43 -57v-138h-54v245h50v-21q25 29 58 29zM3508 -38h6q40 0 70 -40h2v32h47v-245h-47v31h-2q-34 -40 -78 -40q-71 0 -101 90l-4 37v12q0 82 77 117q11 6 30 6zM3781 -38h4q62 0 82 -78l3 -84v-91h-54v138q0 48 -38 57h-9
q-38 0 -42 -52v-143h-54v245h49v-21q26 29 59 29zM4133 -38h1q74 0 104 -93l4 -40q0 -88 -84 -126l-25 -3q-41 0 -68 34v-106h-52v326h47v-29q30 37 73 37zM4714 -38h5q34 0 63 -37q27 37 69 37h6q56 0 79 -66l6 -51v-136h-52v122q0 73 -39 73h-7q-35 0 -41 -50v-140l-5 -5
h-48v140q0 42 -31 55h-17q-40 0 -40 -77v-118h-51v245h47v-21q22 29 56 29zM359 -46h49l5 -6v-234l-5 -5h-49v245zM1297 -46h52v-245h-52v245zM1649 -46h52v-136q4 -60 43 -60h4q44 0 44 81v115h52v-245h-47v24h-5q-12 -33 -59 -33q-52 0 -79 63q-5 12 -5 34v157zM2458 -46
h51v-245h-51v245zM4515 -46h51v-245h-51v245zM1077 -169q0 -53 51 -73h12q54 0 66 66v10q0 53 -54 70h-17q-38 0 -58 -57v-16zM1438 -143h122q-18 47 -53 47h-7q-43 0 -62 -44v-3zM2599 -143h122q-21 47 -54 47h-7q-46 0 -61 -47zM3196 -158v-11q10 -73 61 -73h5q64 8 64 71
v5q0 45 -38 65l-18 5h-14q-60 -14 -60 -62zM3452 -173q14 -69 62 -69h11q41 0 59 60v13q-8 73 -56 73h-17q-47 0 -59 -73v-4zM4062 -158v-22q0 -47 59 -62h9q50 0 61 76q-13 70 -58 70h-15q-56 -17 -56 -62z" />
    <glyph glyph-name=".null" horiz-adv-x="0" 
 />
    <glyph glyph-name="nonmarkingreturn" horiz-adv-x="571" 
 />
    <glyph glyph-name="space" unicode=" " horiz-adv-x="317" 
 />
    <glyph glyph-name="exclam" unicode="!" horiz-adv-x="389" 
d="M110 317l-29 519v598h225v-598l-28 -519h-168zM302 217v-217h-217v217h217z" />
    <glyph glyph-name="quotedbl" unicode="&#x22;" horiz-adv-x="665" 
d="M81 1434h217l-33 -422h-153zM366 1434h217l-33 -422h-154z" />
    <glyph glyph-name="numbersign" unicode="#" horiz-adv-x="839" 
d="M448 410h-133l-43 -410h-185l43 410h-100l16 159h101l39 375h-103l17 160h102l35 330h184l-35 -330h133l35 330h185l-35 -330h104l-16 -160h-105l-39 -375h105l-16 -159h-105l-43 -410h-184zM331 569h133l39 375h-133z" />
    <glyph glyph-name="dollar" unicode="$" 
d="M313 1419v107h184v-107q242 -49 242 -350v-55h-213v69q0 142 -113 142t-113 -142q0 -97 69 -179q27 -31 71 -70l60 -50q12 -10 21 -17q50 -42 80 -73q43 -43 71 -86q69 -106 69 -243q0 -303 -244 -353v-104h-184v104q-244 50 -244 353v118h213v-133q0 -139 117 -139
q116 0 116 139q0 97 -68 179q-27 32 -71 70l-81 68q-50 41 -81 72q-42 43 -70 86q-69 106 -69 244q0 298 238 350z" />
    <glyph glyph-name="percent" unicode="%" horiz-adv-x="1284" 
d="M212 733q0 -90 74 -90t74 90v492q0 90 -74 90t-74 -90v-492zM69 1214q0 230 217 230t217 -230v-471q0 -229 -217 -229t-217 229v471zM851 1434h133l-565 -1434h-133zM923 203q0 -90 74 -90q73 0 73 90v491q0 90 -73 90q-74 0 -74 -90v-491zM780 684q0 229 217 229
t217 -229v-471q0 -229 -217 -229t-217 229v471z" />
    <glyph glyph-name="ampersand" unicode="&#x26;" horiz-adv-x="847" 
d="M83 457q0 232 156 301q-156 66 -156 295v26q0 355 336 355h258v-205h-254q-115 0 -115 -139v-89q0 -151 135 -151h99v160h225v-160h59v-205h-59v-471q0 -116 25 -174h-230l-12 43q-5 26 -8 70q-60 -129 -209 -129q-250 0 -250 327v146zM308 330q0 -142 117 -142
q111 0 117 125v332h-86q-148 0 -148 -182v-133z" />
    <glyph glyph-name="quotesingle" unicode="'" horiz-adv-x="368" 
d="M75 1434h217l-33 -422h-153z" />
    <glyph glyph-name="parenleft" unicode="(" horiz-adv-x="514" 
d="M481 1434v-185h-55q-105 0 -105 -129v-807q0 -129 105 -129h55v-184h-70q-315 0 -315 313v807q0 314 315 314h70z" />
    <glyph glyph-name="parenright" unicode=")" horiz-adv-x="514" 
d="M102 1434q315 0 315 -314v-807q0 -313 -315 -313h-70v184h55q105 0 105 129v807q0 129 -105 129h-55v185h70z" />
    <glyph glyph-name="asterisk" unicode="*" 
d="M366 1096l-53 338h185l-54 -338l305 153l58 -174l-336 -57l240 -240l-148 -108l-158 303l-157 -303l-148 108l240 240l-336 57l57 174z" />
    <glyph glyph-name="plus" unicode="+" 
d="M739 516v-160h-668v160h254v164h-254v160h254v233h160v-233h254v-160h-254v-164h254z" />
    <glyph glyph-name="comma" unicode="," horiz-adv-x="380" 
d="M81 0v217h217v-194l-98 -228h-92l59 205h-86z" />
    <glyph glyph-name="hyphen" unicode="-" horiz-adv-x="552" 
d="M71 819h410v-205h-410v205z" />
    <glyph glyph-name="hyphen" unicode="&#x2010;" horiz-adv-x="552" 
d="M71 819h410v-205h-410v205z" />
    <glyph glyph-name="period" unicode="." horiz-adv-x="380" 
d="M298 217v-217h-217v217h217z" />
    <glyph glyph-name="slash" unicode="/" horiz-adv-x="780" 
d="M575 1434h195l-565 -1434h-195z" />
    <glyph glyph-name="zero" unicode="0" 
d="M288 330q0 -142 117 -142t117 142v774q0 141 -117 141t-117 -141v-774zM63 1090q0 360 342 360t342 -360v-746q0 -360 -342 -360t-342 360v746z" />
    <glyph glyph-name="one" unicode="1" 
d="M221 1253q118 0 176 54q39 36 72 127h151v-1434h-225v1094h-174v159z" />
    <glyph glyph-name="two" unicode="2" 
d="M411 1245q-117 0 -117 -141v-154h-213v140q0 360 336 360t336 -360q0 -159 -76 -302q-31 -58 -77 -119q-34 -46 -87 -104l-84 -94q-46 -51 -71 -88q-66 -96 -52 -178h426v-205h-651v176q0 141 70 261q28 49 71 102q27 32 82 93l42 46q23 25 40 46q44 53 72 101
q69 119 69 256q0 164 -116 164z" />
    <glyph glyph-name="three" unicode="3" 
d="M515 1081q0 164 -116 164q-117 0 -117 -141v-92h-213v78q0 360 336 360t336 -360v-37q0 -230 -158 -295q158 -69 158 -301v-113q0 -360 -336 -360t-336 360v119h213v-133q0 -142 117 -142q116 0 116 162v113q0 182 -147 182h-76v205h88q135 0 135 151v80z" />
    <glyph glyph-name="four" unicode="4" 
d="M28 465l410 969h245v-969h107v-205h-107v-260h-225v260h-430v205zM458 465v530l-223 -530h223z" />
    <glyph glyph-name="five" unicode="5" 
d="M284 463v-133q0 -140 117 -140q116 0 116 140v315q0 141 -116 141q-117 0 -117 -141v-43h-213l41 832h594v-205h-391l-19 -342q64 104 197 104q250 0 250 -327v-320q0 -360 -336 -360t-336 360v119h213z" />
    <glyph glyph-name="six" unicode="6" 
d="M67 1077q0 373 344 373q336 0 336 -360v-37h-213v51q0 141 -117 141q-125 0 -125 -176v-262q61 127 209 127q250 0 250 -328v-262q0 -360 -342 -360t-342 360v733zM292 588v-258q0 -140 117 -140t117 140v258q0 141 -117 141t-117 -141z" />
    <glyph glyph-name="seven" unicode="7" 
d="M743 1434v-197l-332 -1237h-225l330 1229h-449v205h676z" />
    <glyph glyph-name="eight" unicode="8" 
d="M758 344q0 -360 -353 -360q-352 0 -352 360v113q0 220 139 299q-139 75 -139 288v46q0 360 352 360q353 0 353 -360v-46q0 -211 -140 -288q140 -79 140 -299v-113zM278 350q0 -162 127 -162q125 0 127 162v133q0 162 -127 162t-127 -162v-133zM278 1001q0 -151 127 -151
t127 151v80q0 164 -127 164t-127 -164v-80z" />
    <glyph glyph-name="nine" unicode="9" 
d="M743 356q0 -372 -344 -372q-336 0 -336 360v37h213v-51q0 -142 117 -142q125 0 125 177v262q-61 -127 -209 -127q-250 0 -250 327v263q0 360 342 360t342 -360v-734zM518 846v258q0 139 -117 139t-117 -139v-258q0 -141 117 -141t117 141z" />
    <glyph glyph-name="colon" unicode=":" horiz-adv-x="380" 
d="M298 217v-217h-217v217h217zM298 997v-217h-217v217h217z" />
    <glyph glyph-name="semicolon" unicode=";" horiz-adv-x="380" 
d="M81 0v217h217v-194l-98 -228h-92l59 205h-86zM298 997v-217h-217v217h217z" />
    <glyph glyph-name="less" unicode="&#x3c;" 
d="M61 637v160l668 245v-161l-459 -164l459 -164v-162z" />
    <glyph glyph-name="equal" unicode="=" 
d="M739 631v-160h-668v160h668zM739 963v-160h-668v160h668z" />
    <glyph glyph-name="greater" unicode="&#x3e;" 
d="M81 391v162l459 164l-459 164v161l668 -245v-160z" />
    <glyph glyph-name="question" unicode="?" horiz-adv-x="737" 
d="M245 317q-12 37 -12 89q0 104 38 191q15 34 39 73l91 139q23 41 39 79q38 97 38 216q0 141 -112 141q-113 0 -113 -141v-156h-213v142q0 360 332 360t332 -360q0 -126 -42 -229q-17 -42 -43 -85q-18 -32 -49 -74q-5 -7 -12 -17l-36 -52q-27 -38 -43 -69q-42 -80 -42 -167
q0 -44 9 -80h-201zM452 217v-217h-217v217h217z" />
    <glyph glyph-name="at" unicode="@" horiz-adv-x="1411" 
d="M794 395q-62 -129 -198 -123q-216 7 -185 316l23 207q32 312 250 303q126 -3 168 -127l12 119h197l-62 -592q-6 -52 41 -52q80 0 125 154q39 131 39 309q0 201 -97 312q-105 120 -310 120q-270 0 -415 -203q-140 -198 -140 -554q0 -254 116 -391q122 -144 361 -144
q122 0 215 28q107 33 209 111l-17 -196q-96 -64 -204 -91q-93 -24 -216 -24q-332 0 -501 200q-156 184 -156 517q0 400 188 650q204 272 568 272q303 0 446 -177q123 -152 123 -426q0 -178 -40 -314q-36 -120 -100 -201q-57 -71 -130 -107q-64 -31 -129 -31q-169 0 -181 135
zM610 598q-14 -132 88 -135q101 -3 115 129l20 194q12 115 -88 115q-102 3 -116 -129z" />
    <glyph glyph-name="A" unicode="A" horiz-adv-x="833" 
d="M810 0h-227l-39 260h-276l-39 -260h-207l229 1434h330zM296 455h218l-109 725z" />
    <glyph glyph-name="B" unicode="B" horiz-adv-x="831" 
d="M421 1434q334 0 334 -330v-51q0 -221 -146 -289q168 -66 168 -307v-117q0 -340 -342 -340h-354v1434h340zM306 645v-440h129q117 0 117 141v125q0 174 -145 174h-101zM306 1229v-379h88q136 0 136 151v80q0 148 -115 148h-109z" />
    <glyph glyph-name="C" unicode="C" horiz-adv-x="790" 
d="M735 535v-191q0 -360 -336 -360t-336 360v746q0 360 336 360t336 -360v-140h-213v154q0 141 -117 141t-117 -141v-774q0 -140 117 -140t117 140v205h213z" />
    <glyph glyph-name="D" unicode="D" horiz-adv-x="835" 
d="M81 1434h356q336 0 336 -355v-725q0 -354 -336 -354h-356v1434zM306 1229v-1024h127q115 0 115 139v746q0 139 -115 139h-127z" />
    <glyph glyph-name="E" unicode="E" horiz-adv-x="753" 
d="M306 829h310v-204h-310v-420h389v-205h-614v1434h614v-205h-389v-400z" />
    <glyph glyph-name="F" unicode="F" horiz-adv-x="704" 
d="M306 797h291v-205h-291v-592h-225v1434h596v-205h-371v-432z" />
    <glyph glyph-name="G" unicode="G" horiz-adv-x="798" 
d="M419 799h316v-455q0 -360 -336 -360t-336 360v746q0 360 336 360t336 -360v-140h-213v154q0 141 -117 141t-117 -141v-774q0 -140 117 -140t117 140v264h-103v205z" />
    <glyph glyph-name="H" unicode="H" horiz-adv-x="874" 
d="M306 0h-225v1434h225v-615h256v615h230v-1434h-230v614h-256v-614z" />
    <glyph glyph-name="I" unicode="I" horiz-adv-x="389" 
d="M81 1434h225v-1434h-225v1434z" />
    <glyph glyph-name="J" unicode="J" horiz-adv-x="524" 
d="M20 205q16 -2 39 -2h39q129 0 129 137v1094h225v-1078q0 -198 -98 -287q-80 -73 -225 -73q-72 0 -109 4v205z" />
    <glyph glyph-name="K" unicode="K" horiz-adv-x="847" 
d="M374 580l-68 -119v-461h-225v1434h225v-652l314 652h206l-311 -637l311 -797h-231z" />
    <glyph glyph-name="L" unicode="L" horiz-adv-x="698" 
d="M81 1434h225v-1229h371v-205h-596v1434z" />
    <glyph glyph-name="M" unicode="M" horiz-adv-x="1107" 
d="M558 416l154 1018h313v-1434h-213v1028l-155 -1028h-213l-168 1014v-1014h-197v1434h313z" />
    <glyph glyph-name="N" unicode="N" horiz-adv-x="874" 
d="M282 1038v-1038h-203v1434h283l231 -859v859h201v-1434h-232z" />
    <glyph glyph-name="O" unicode="O" 
d="M288 330q0 -142 117 -142t117 142v774q0 141 -117 141t-117 -141v-774zM63 1090q0 360 342 360t342 -360v-746q0 -360 -342 -360t-342 360v746z" />
    <glyph glyph-name="P" unicode="P" horiz-adv-x="772" 
d="M413 1434q336 0 336 -355v-186q0 -354 -336 -354h-107v-539h-225v1434h332zM306 1229v-486h107q110 0 110 136v215q0 135 -110 135h-107z" />
    <glyph glyph-name="Q" unicode="Q" 
d="M63 1090q0 360 342 360t342 -360v-746q0 -121 -43 -201q12 -30 64 -30h20v-201h-31q-145 0 -194 98q-74 -26 -158 -26q-342 0 -342 360v746zM288 330q0 -142 117 -142t117 142v774q0 141 -117 141t-117 -141v-774z" />
    <glyph glyph-name="R" unicode="R" horiz-adv-x="823" 
d="M552 0q-11 34 -15 58q-5 39 -5 118v225q0 183 -148 183h-78v-584h-225v1434h340q334 0 334 -330v-113q0 -221 -148 -291q150 -62 150 -305v-221q0 -116 24 -174h-229zM306 1229v-441h88q136 0 136 152v141q0 148 -115 148h-109z" />
    <glyph glyph-name="S" unicode="S" horiz-adv-x="765" 
d="M385 1450q332 0 332 -360v-76h-213v90q0 141 -113 141t-113 -141q0 -97 69 -186q27 -34 71 -76l60 -56q12 -11 21 -19q50 -46 80 -80q43 -47 71 -93q69 -112 69 -250q0 -360 -336 -360t-336 360v139h213v-153q0 -140 117 -140q116 0 116 140q0 97 -68 185q-27 34 -71 77
l-81 75q-50 46 -81 80q-42 47 -70 92q-69 113 -69 251q0 360 332 360z" />
    <glyph glyph-name="T" unicode="T" horiz-adv-x="737" 
d="M20 1434h696v-205h-235v-1229h-225v1229h-236v205z" />
    <glyph glyph-name="U" unicode="U" horiz-adv-x="815" 
d="M296 1434v-1106q0 -140 117 -140t117 140v1106h213v-1092q0 -360 -336 -360t-336 360v1092h225z" />
    <glyph glyph-name="V" unicode="V" horiz-adv-x="823" 
d="M421 264l172 1170h207l-221 -1434h-336l-221 1434h227z" />
    <glyph glyph-name="W" unicode="W" horiz-adv-x="1153" 
d="M581 764l-82 -764h-309l-160 1434h219l121 -1131l109 1131h217l112 -1139l117 1139h197l-160 -1434h-299z" />
    <glyph glyph-name="X" unicode="X" horiz-adv-x="880" 
d="M833 1434l-236 -697l252 -737h-237l-185 567l-186 -567h-211l252 737l-236 697h234l170 -529l174 529h209z" />
    <glyph glyph-name="Y" unicode="Y" 
d="M293 475l-285 959h236l172 -654l172 654h215l-285 -959v-475h-225v475z" />
    <glyph glyph-name="Z" unicode="Z" horiz-adv-x="757" 
d="M706 1434v-201l-428 -1028h428v-205h-659v201l428 1028h-408v205h639z" />
    <glyph glyph-name="bracketleft" unicode="[" horiz-adv-x="514" 
d="M96 1434h373v-185h-148v-1065h148v-184h-373v1434z" />
    <glyph glyph-name="backslash" unicode="\" horiz-adv-x="780" 
d="M770 0h-195l-565 1434h195z" />
    <glyph glyph-name="bracketright" unicode="]" horiz-adv-x="514" 
d="M418 0h-373v184h147v1065h-147v185h373v-1434z" />
    <glyph glyph-name="asciicircum" unicode="^" 
d="M325 1434h159l285 -635h-180l-184 430l-185 -430h-180z" />
    <glyph glyph-name="underscore" unicode="_" horiz-adv-x="1024" 
d="M0 -20h1024v-164h-1024v164z" />
    <glyph glyph-name="grave" unicode="`" horiz-adv-x="512" 
d="M303 1743l147 -240h-170l-221 240h244z" />
    <glyph glyph-name="a" unicode="a" horiz-adv-x="833" 
d="M810 0h-227l-39 260h-276l-39 -260h-207l229 1434h330zM296 455h218l-109 725z" />
    <glyph glyph-name="b" unicode="b" horiz-adv-x="831" 
d="M421 1434q334 0 334 -330v-51q0 -221 -146 -289q168 -66 168 -307v-117q0 -340 -342 -340h-354v1434h340zM306 645v-440h129q117 0 117 141v125q0 174 -145 174h-101zM306 1229v-379h88q136 0 136 151v80q0 148 -115 148h-109z" />
    <glyph glyph-name="c" unicode="c" horiz-adv-x="790" 
d="M735 535v-191q0 -360 -336 -360t-336 360v746q0 360 336 360t336 -360v-140h-213v154q0 141 -117 141t-117 -141v-774q0 -140 117 -140t117 140v205h213z" />
    <glyph glyph-name="d" unicode="d" horiz-adv-x="835" 
d="M81 1434h356q336 0 336 -355v-725q0 -354 -336 -354h-356v1434zM306 1229v-1024h127q115 0 115 139v746q0 139 -115 139h-127z" />
    <glyph glyph-name="e" unicode="e" horiz-adv-x="753" 
d="M306 829h310v-204h-310v-420h389v-205h-614v1434h614v-205h-389v-400z" />
    <glyph glyph-name="f" unicode="f" horiz-adv-x="704" 
d="M306 797h291v-205h-291v-592h-225v1434h596v-205h-371v-432z" />
    <glyph glyph-name="g" unicode="g" horiz-adv-x="798" 
d="M419 799h316v-455q0 -360 -336 -360t-336 360v746q0 360 336 360t336 -360v-140h-213v154q0 141 -117 141t-117 -141v-774q0 -140 117 -140t117 140v264h-103v205z" />
    <glyph glyph-name="h" unicode="h" horiz-adv-x="874" 
d="M306 0h-225v1434h225v-615h256v615h230v-1434h-230v614h-256v-614z" />
    <glyph glyph-name="i" unicode="i" horiz-adv-x="389" 
d="M81 1434h225v-1434h-225v1434z" />
    <glyph glyph-name="j" unicode="j" horiz-adv-x="524" 
d="M20 205q16 -2 39 -2h39q129 0 129 137v1094h225v-1078q0 -198 -98 -287q-80 -73 -225 -73q-72 0 -109 4v205z" />
    <glyph glyph-name="k" unicode="k" horiz-adv-x="847" 
d="M374 580l-68 -119v-461h-225v1434h225v-652l314 652h206l-311 -637l311 -797h-231z" />
    <glyph glyph-name="l" unicode="l" horiz-adv-x="698" 
d="M81 1434h225v-1229h371v-205h-596v1434z" />
    <glyph glyph-name="m" unicode="m" horiz-adv-x="1107" 
d="M558 416l154 1018h313v-1434h-213v1028l-155 -1028h-213l-168 1014v-1014h-197v1434h313z" />
    <glyph glyph-name="n" unicode="n" horiz-adv-x="874" 
d="M282 1038v-1038h-203v1434h283l231 -859v859h201v-1434h-232z" />
    <glyph glyph-name="o" unicode="o" 
d="M288 330q0 -142 117 -142t117 142v774q0 141 -117 141t-117 -141v-774zM63 1090q0 360 342 360t342 -360v-746q0 -360 -342 -360t-342 360v746z" />
    <glyph glyph-name="p" unicode="p" horiz-adv-x="772" 
d="M413 1434q336 0 336 -355v-186q0 -354 -336 -354h-107v-539h-225v1434h332zM306 1229v-486h107q110 0 110 136v215q0 135 -110 135h-107z" />
    <glyph glyph-name="q" unicode="q" 
d="M63 1090q0 360 342 360t342 -360v-746q0 -121 -43 -201q12 -30 64 -30h20v-201h-31q-145 0 -194 98q-74 -26 -158 -26q-342 0 -342 360v746zM288 330q0 -142 117 -142t117 142v774q0 141 -117 141t-117 -141v-774z" />
    <glyph glyph-name="r" unicode="r" horiz-adv-x="823" 
d="M552 0q-11 34 -15 58q-5 39 -5 118v225q0 183 -148 183h-78v-584h-225v1434h340q334 0 334 -330v-113q0 -221 -148 -291q150 -62 150 -305v-221q0 -116 24 -174h-229zM306 1229v-441h88q136 0 136 152v141q0 148 -115 148h-109z" />
    <glyph glyph-name="s" unicode="s" horiz-adv-x="765" 
d="M385 1450q332 0 332 -360v-76h-213v90q0 141 -113 141t-113 -141q0 -97 69 -186q27 -34 71 -76l60 -56q12 -11 21 -19q50 -46 80 -80q43 -47 71 -93q69 -112 69 -250q0 -360 -336 -360t-336 360v139h213v-153q0 -140 117 -140q116 0 116 140q0 97 -68 185q-27 34 -71 77
l-81 75q-50 46 -81 80q-42 47 -70 92q-69 113 -69 251q0 360 332 360z" />
    <glyph glyph-name="t" unicode="t" horiz-adv-x="737" 
d="M20 1434h696v-205h-235v-1229h-225v1229h-236v205z" />
    <glyph glyph-name="u" unicode="u" horiz-adv-x="815" 
d="M296 1434v-1106q0 -140 117 -140t117 140v1106h213v-1092q0 -360 -336 -360t-336 360v1092h225z" />
    <glyph glyph-name="v" unicode="v" horiz-adv-x="823" 
d="M421 264l172 1170h207l-221 -1434h-336l-221 1434h227z" />
    <glyph glyph-name="w" unicode="w" horiz-adv-x="1153" 
d="M581 764l-82 -764h-309l-160 1434h219l121 -1131l109 1131h217l112 -1139l117 1139h197l-160 -1434h-299z" />
    <glyph glyph-name="x" unicode="x" horiz-adv-x="880" 
d="M833 1434l-236 -697l252 -737h-237l-185 567l-186 -567h-211l252 737l-236 697h234l170 -529l174 529h209z" />
    <glyph glyph-name="y" unicode="y" 
d="M293 475l-285 959h236l172 -654l172 654h215l-285 -959v-475h-225v475z" />
    <glyph glyph-name="z" unicode="z" horiz-adv-x="757" 
d="M706 1434v-201l-428 -1028h428v-205h-659v201l428 1028h-408v205h639z" />
    <glyph glyph-name="braceleft" unicode="{" horiz-adv-x="526" 
d="M313 644q25 -42 28 -109l11 -205q8 -146 108 -146h33v-184h-115q-212 0 -227 227l-16 275q-8 123 -113 123v184q105 0 113 123l16 274q15 228 227 228h115v-185h-33q-100 0 -108 -145l-11 -205q-3 -67 -28 -109q-33 -55 -105 -73q72 -18 105 -73z" />
    <glyph glyph-name="bar" unicode="|" horiz-adv-x="1024" 
d="M430 1567h184v-1700h-184v1700z" />
    <glyph glyph-name="braceright" unicode="}" horiz-adv-x="526" 
d="M212 790q-25 42 -28 109l-11 205q-8 145 -108 145h-33v185h115q212 0 227 -228l16 -274q8 -123 113 -123v-184q-105 0 -113 -123l-16 -275q-15 -227 -227 -227h-115v184h33q100 0 108 146l11 205q3 67 28 109q33 55 105 73q-72 18 -105 73z" />
    <glyph glyph-name="asciitilde" unicode="~" 
d="M16 680q71 104 130 147q52 37 114 37q37 0 80 -19q29 -13 75 -43l36 -23q20 -13 35 -20q38 -20 67 -20q51 0 135 117l106 -111q-69 -102 -129 -142q-51 -34 -114 -34q-38 0 -81 20q-28 13 -75 43l-9 6l-27 17q-20 12 -35 20q-38 19 -66 19q-54 0 -136 -116z" />
    <glyph glyph-name="dieresis" unicode="&#xa8;" horiz-adv-x="1024" 
 />
    <glyph glyph-name="copyright" unicode="&#xa9;" horiz-adv-x="1507" 
d="M976 631v-115q0 -250 -231 -250q-232 0 -232 250v397q0 254 232 254q231 0 231 -254v-73h-148v86q0 98 -79 98q-80 0 -80 -98v-418q0 -96 80 -96q79 0 79 96v123h148zM244 1243q203 207 509 207q305 0 508 -207q204 -208 204 -526t-204 -527q-203 -206 -508 -206
q-306 0 -509 206q-204 209 -204 527t204 526zM349 294q160 -167 404 -167q243 0 404 167t161 423t-161 423t-404 167q-244 0 -404 -167q-162 -167 -162 -423t162 -423z" />
    <glyph glyph-name="registered" unicode="&#xae;" horiz-adv-x="1507" 
d="M244 1243q203 207 509 207q305 0 508 -207q204 -208 204 -526t-204 -527q-203 -206 -508 -206q-306 0 -509 206q-204 209 -204 527t204 526zM349 294q160 -167 404 -167q243 0 404 167t161 423t-161 423t-404 167q-244 0 -404 -167q-162 -167 -162 -423t162 -423z
M855 279q-4 11 -6 18q-3 10 -5 22q-3 25 -3 82v95q0 127 -105 127h-53v-344h-156v876h238q231 0 231 -229v-19q0 -155 -106 -202q106 -44 106 -211v-95q0 -79 19 -120h-160zM683 1012v-246h64q94 0 94 104v37q0 105 -84 105h-74z" />
    <glyph glyph-name="acute" unicode="&#xb4;" horiz-adv-x="512" 
d="M446 1743l-221 -240h-160l147 240h234z" />
    <glyph glyph-name="paragraph" unicode="&#xb6;" 
d="M728 -133h-163v1403h-111v-1403h-164l4 676q-126 0 -197 98q-69 94 -69 252v186q0 355 336 355h364v-1567z" />
    <glyph glyph-name="Eth" horiz-adv-x="1516" 
 />
    <glyph glyph-name="onequarter" unicode="&#xbc;" horiz-adv-x="1284" 
d="M133 1319q74 0 112 34q16 14 28 37q5 9 10 21l10 23h94v-910h-143v695h-111v100zM893 1434h133l-565 -1434h-133zM760 289l260 614h155v-614h68v-131h-68v-164h-141v164h-274v131zM1034 289v336l-145 -336h145z" />
    <glyph glyph-name="onehalf" unicode="&#xbd;" horiz-adv-x="1284" 
d="M133 1319q74 0 112 34q16 14 28 37q5 9 10 21l10 23h94v-910h-143v695h-111v100zM831 1434h133l-565 -1434h-133zM1005 786q-73 0 -73 -90v-96h-135v88q0 227 213 227t213 -227q0 -100 -49 -191q-19 -37 -48 -76q-22 -29 -56 -66l-20 -23q-1 -1 -4 -3l-16 -19
q-8 -8 -13 -14q-29 -33 -45 -56q-42 -61 -32 -113h270v-129h-413v111q0 88 44 165q17 30 45 64q11 14 26 30l52 58q15 17 26 30q27 34 45 64q44 76 44 164q0 102 -74 102z" />
    <glyph glyph-name="threequarters" unicode="&#xbe;" horiz-adv-x="1284" 
d="M356 817q0 115 -93 115h-49v129h56q86 0 86 98v51q0 105 -74 105t-74 -90v-58h-135v47q0 230 213 230t213 -230v-22q0 -145 -100 -186q100 -43 100 -191v-72q0 -229 -213 -229t-213 229v74h135v-84q0 -90 74 -90t74 105v69zM913 1434h133l-565 -1434h-134zM759 289
l260 614h156v-614h67v-131h-67v-164h-141v164h-275v131zM1034 289v336l-146 -336h146z" />
    <glyph glyph-name="Agrave" unicode="&#xc0;" horiz-adv-x="833" 
d="M810 0h-227l-39 260h-276l-39 -260h-207l229 1434h330zM296 455h218l-109 725zM382 1743l148 -240h-170l-221 240h243z" />
    <glyph glyph-name="Aacute" unicode="&#xc1;" horiz-adv-x="833" 
d="M810 0h-227l-39 260h-276l-39 -260h-207l229 1434h330zM296 455h218l-109 725zM688 1743l-222 -240h-159l147 240h234z" />
    <glyph glyph-name="uni1EA2" unicode="&#x1ea2;" horiz-adv-x="833" 
d="M810 0h-227l-39 260h-276l-39 -260h-207l229 1434h330zM296 455h218l-109 725zM338 1491q-3 13 -3 25q0 45 17 79q6 15 14 31l35 51q6 13 12 27q12 31 12 70q0 30 -18 30t-18 -30v-80h-125v75q0 156 145 156t145 -156q0 -51 -16 -94q-8 -16 -18 -35q-6 -12 -19 -28
q-2 -2 -4 -6l-14 -19q-8 -12 -15 -22q-12 -25 -12 -52q0 -7 3 -22h-121z" />
    <glyph glyph-name="Atilde" unicode="&#xc3;" horiz-adv-x="833" 
d="M810 0h-227l-39 260h-276l-39 -260h-207l229 1434h330zM296 455h218l-109 725zM720 1649q-48 -86 -95 -118q-40 -28 -99 -28q-50 0 -116 28l-48 19q-26 9 -47 9q-56 0 -90 -68l-115 86q48 86 95 118q40 27 100 27q49 0 116 -27l48 -19q26 -9 47 -9q56 0 90 68z" />
    <glyph glyph-name="uni1EA0" unicode="&#x1ea0;" horiz-adv-x="833" 
d="M810 0h-227l-39 260h-276l-39 -260h-207l229 1434h330zM296 455h218l-109 725zM521 -107v-209h-209v209h209z" />
    <glyph glyph-name="Acircumflex" unicode="&#xc2;" horiz-adv-x="833" 
d="M810 0h-227l-39 260h-276l-39 -260h-207l229 1434h330zM296 455h218l-109 725zM118 1503l191 240h215l190 -240h-203l-96 119l-94 -119h-203z" />
    <glyph glyph-name="uni1EA6" unicode="&#x1ea6;" horiz-adv-x="833" 
d="M810 0h-227l-39 260h-276l-39 -260h-207l229 1434h330zM296 455h218l-109 725zM728 1908l148 -240h-170l-221 240h243zM118 1503l191 240h215l190 -240h-203l-96 119l-94 -119h-203z" />
    <glyph glyph-name="uni1EA4" unicode="&#x1ea4;" horiz-adv-x="833" 
d="M810 0h-227l-39 260h-276l-39 -260h-207l229 1434h330zM296 455h218l-109 725zM1024 1907l-222 -240h-159l147 240h234zM118 1503l191 240h215l190 -240h-203l-96 119l-94 -119h-203z" />
    <glyph glyph-name="uni1EA8" unicode="&#x1ea8;" horiz-adv-x="833" 
d="M810 0h-227l-39 260h-276l-39 -260h-207l229 1434h330zM296 455h218l-109 725zM655 1672q-3 13 -3 25q0 45 17 79q6 15 14 31l35 51q6 13 12 27q12 31 12 70q0 30 -18 30t-18 -30v-80h-125v75q0 156 145 156t145 -156q0 -51 -16 -94q-8 -16 -18 -35q-6 -12 -19 -28
q-2 -2 -4 -6l-14 -19q-8 -12 -15 -22q-12 -25 -12 -52q0 -7 3 -22h-121zM118 1503l191 240h215l190 -240h-203l-96 119l-94 -119h-203z" />
    <glyph glyph-name="uni1EAA" unicode="&#x1eaa;" horiz-adv-x="833" 
d="M810 0h-227l-39 260h-276l-39 -260h-207l229 1434h330zM296 455h218l-109 725zM764 1934q-48 -86 -95 -118q-40 -28 -99 -28q-50 0 -116 28l-48 19q-26 9 -47 9q-56 0 -90 -68l-115 86q48 86 95 118q40 27 100 27q49 0 116 -27l48 -19q26 -9 47 -9q56 0 90 68zM118 1503
l191 240h215l190 -240h-203l-96 119l-94 -119h-203z" />
    <glyph glyph-name="uni1EAC" unicode="&#x1eac;" horiz-adv-x="833" 
d="M810 0h-227l-39 260h-276l-39 -260h-207l229 1434h330zM296 455h218l-109 725zM521 -107v-209h-209v209h209zM118 1503l191 240h215l190 -240h-203l-96 119l-94 -119h-203z" />
    <glyph glyph-name="Abreve" unicode="&#x102;" horiz-adv-x="833" 
d="M810 0h-227l-39 260h-276l-39 -260h-207l229 1434h330zM296 455h218l-109 725zM658 1743q0 -248 -244 -248q-236 0 -239 248h141q7 -101 98 -101q95 0 103 101h141z" />
    <glyph glyph-name="uni1EB0" unicode="&#x1eb0;" horiz-adv-x="833" 
d="M810 0h-227l-39 260h-276l-39 -260h-207l229 1434h330zM296 455h218l-109 725zM375 2038l148 -240h-170l-221 240h243zM658 1743q0 -248 -244 -248q-236 0 -239 248h141q7 -101 98 -101q95 0 103 101h141z" />
    <glyph glyph-name="uni1EAE" unicode="&#x1eae;" horiz-adv-x="833" 
d="M810 0h-227l-39 260h-276l-39 -260h-207l229 1434h330zM296 455h218l-109 725zM711 2021l-222 -240h-159l147 240h234zM658 1743q0 -248 -244 -248q-236 0 -239 248h141q7 -101 98 -101q95 0 103 101h141z" />
    <glyph glyph-name="uni1EB2" unicode="&#x1eb2;" horiz-adv-x="833" 
d="M810 0h-227l-39 260h-276l-39 -260h-207l229 1434h330zM296 455h218l-109 725zM359 1761q-3 13 -3 25q0 45 17 79q6 15 14 31l35 51q6 13 12 27q12 31 12 70q0 30 -18 30t-18 -30v-80h-125v75q0 156 145 156t145 -156q0 -51 -16 -94q-8 -16 -18 -35q-6 -12 -19 -28
q-2 -2 -4 -6l-14 -19q-8 -12 -15 -22q-12 -25 -12 -52q0 -7 3 -22h-121zM658 1743q0 -248 -244 -248q-236 0 -239 248h141q7 -101 98 -101q95 0 103 101h141z" />
    <glyph glyph-name="uni1EB4" unicode="&#x1eb4;" horiz-adv-x="833" 
d="M810 0h-227l-39 260h-276l-39 -260h-207l229 1434h330zM296 455h218l-109 725zM765 1955q-48 -86 -95 -118q-40 -28 -99 -28q-50 0 -116 28l-48 19q-26 9 -47 9q-56 0 -90 -68l-115 86q48 86 95 118q40 27 100 27q49 0 116 -27l48 -19q26 -9 47 -9q56 0 90 68zM658 1743
q0 -248 -244 -248q-236 0 -239 248h141q7 -101 98 -101q95 0 103 101h141z" />
    <glyph glyph-name="uni1EB6" unicode="&#x1eb6;" horiz-adv-x="833" 
d="M810 0h-227l-39 260h-276l-39 -260h-207l229 1434h330zM296 455h218l-109 725zM521 -107v-209h-209v209h209zM658 1743q0 -248 -244 -248q-236 0 -239 248h141q7 -101 98 -101q95 0 103 101h141z" />
    <glyph glyph-name="Egrave" unicode="&#xc8;" horiz-adv-x="753" 
d="M306 829h310v-204h-310v-420h389v-205h-614v1434h614v-205h-389v-400zM351 1743l148 -240h-170l-221 240h243z" />
    <glyph glyph-name="Eacute" unicode="&#xc9;" horiz-adv-x="753" 
d="M306 829h310v-204h-310v-420h389v-205h-614v1434h614v-205h-389v-400zM659 1743l-222 -240h-159l147 240h234z" />
    <glyph glyph-name="uni1EBA" unicode="&#x1eba;" horiz-adv-x="753" 
d="M306 829h310v-204h-310v-420h389v-205h-614v1434h614v-205h-389v-400zM319 1491q-2 13 -2 25q0 45 16 79q6 15 15 31l34 51q7 13 13 27q12 31 12 70q0 30 -18 30q-19 0 -19 -30v-80h-125v75q0 156 146 156q145 0 145 -156q0 -51 -16 -94q-8 -16 -19 -35q-6 -12 -18 -28
q-2 -2 -4 -6l-15 -19q-8 -12 -14 -22q-12 -25 -12 -52q0 -7 2 -22h-121z" />
    <glyph glyph-name="uni1EBC" unicode="&#x1ebc;" horiz-adv-x="753" 
d="M306 829h310v-204h-310v-420h389v-205h-614v1434h614v-205h-389v-400zM711 1649q-48 -86 -95 -118q-40 -28 -100 -28q-49 0 -116 28l-48 19q-26 9 -47 9q-56 0 -90 -68l-114 86q48 86 95 118q40 27 99 27q50 0 116 -27l48 -19q26 -9 47 -9q56 0 90 68z" />
    <glyph glyph-name="uni1EB8" unicode="&#x1eb8;" horiz-adv-x="753" 
d="M306 829h310v-204h-310v-420h389v-205h-614v1434h614v-205h-389v-400zM493 -107v-209h-209v209h209z" />
    <glyph glyph-name="Ecircumflex" unicode="&#xca;" horiz-adv-x="753" 
d="M306 829h310v-204h-310v-420h389v-205h-614v1434h614v-205h-389v-400zM87 1503l191 240h215l190 -240h-203l-96 119l-94 -119h-203z" />
    <glyph glyph-name="uni1EC0" unicode="&#x1ec0;" horiz-adv-x="753" 
d="M306 829h310v-204h-310v-420h389v-205h-614v1434h614v-205h-389v-400zM675 1908l148 -240h-170l-221 240h243zM87 1503l191 240h215l190 -240h-203l-96 119l-94 -119h-203z" />
    <glyph glyph-name="uni1EBE" unicode="&#x1ebe;" horiz-adv-x="753" 
d="M306 829h310v-204h-310v-420h389v-205h-614v1434h614v-205h-389v-400zM1005 1894l-222 -240h-159l147 240h234zM87 1503l191 240h215l190 -240h-203l-96 119l-94 -119h-203z" />
    <glyph glyph-name="uni1EC2" unicode="&#x1ec2;" horiz-adv-x="753" 
d="M306 829h310v-204h-310v-420h389v-205h-614v1434h614v-205h-389v-400zM620 1646q-2 13 -2 25q0 45 16 79q6 15 15 31l34 51q7 13 13 27q12 31 12 70q0 30 -18 30q-19 0 -19 -30v-80h-125v75q0 156 146 156q145 0 145 -156q0 -51 -16 -94q-8 -16 -19 -35q-6 -12 -18 -28
q-2 -2 -4 -6l-15 -19q-8 -12 -14 -22q-12 -25 -12 -52q0 -7 2 -22h-121zM87 1503l191 240h215l190 -240h-203l-96 119l-94 -119h-203z" />
    <glyph glyph-name="uni1EC4" unicode="&#x1ec4;" horiz-adv-x="753" 
d="M306 829h310v-204h-310v-420h389v-205h-614v1434h614v-205h-389v-400zM728 1933q-48 -86 -95 -118q-40 -28 -100 -28q-49 0 -116 28l-48 19q-26 9 -47 9q-56 0 -90 -68l-114 86q48 86 95 118q40 27 99 27q50 0 116 -27l48 -19q26 -9 47 -9q56 0 90 68zM87 1503l191 240
h215l190 -240h-203l-96 119l-94 -119h-203z" />
    <glyph glyph-name="uni1EC6" unicode="&#x1ec6;" horiz-adv-x="753" 
d="M306 829h310v-204h-310v-420h389v-205h-614v1434h614v-205h-389v-400zM493 -107v-209h-209v209h209zM87 1503l191 240h215l190 -240h-203l-96 119l-94 -119h-203z" />
    <glyph glyph-name="Igrave" unicode="&#xcc;" horiz-adv-x="389" 
d="M83 1434h225v-1434h-225v1434zM163 1743l147 -240h-170l-221 240h244z" />
    <glyph glyph-name="Iacute" unicode="&#xcd;" horiz-adv-x="389" 
d="M81 1434h225v-1434h-225v1434zM466 1743l-221 -240h-160l148 240h233z" />
    <glyph glyph-name="uni1EC8" unicode="&#x1ec8;" horiz-adv-x="389" 
d="M81 1434h225v-1434h-225v1434zM129 1491q-2 13 -2 25q0 45 16 79q6 15 14 31l35 51q6 13 13 27q12 31 12 70q0 30 -19 30q-18 0 -18 -30v-80h-125v75q0 156 145 156q146 0 146 -156q0 -51 -17 -94q-8 -16 -18 -35q-6 -12 -18 -28q-2 -2 -5 -6l-14 -19q-8 -12 -14 -22
q-12 -25 -12 -52q0 -7 2 -22h-121z" />
    <glyph glyph-name="Itilde" unicode="&#x128;" horiz-adv-x="389" 
d="M81 1434h226v-1434h-226v1434zM504 1649q-48 -86 -95 -118q-40 -28 -99 -28q-50 0 -116 28l-48 19q-26 9 -47 9q-57 0 -90 -68l-115 86q48 86 95 118q40 27 100 27q49 0 116 -27l48 -19q26 -9 47 -9q56 0 90 68z" />
    <glyph glyph-name="uni1ECA" unicode="&#x1eca;" horiz-adv-x="389" 
d="M81 1434h225v-1434h-225v1434zM298 -107v-209h-209v209h209z" />
    <glyph glyph-name="Ograve" unicode="&#xd2;" 
d="M288 330q0 -142 117 -142t117 142v774q0 141 -117 141t-117 -141v-774zM63 1090q0 360 342 360t342 -360v-746q0 -360 -342 -360t-342 360v746zM370 1743l148 -240h-170l-222 240h244z" />
    <glyph glyph-name="Oacute" unicode="&#xd3;" 
d="M288 330q0 -142 117 -142t117 142v774q0 141 -117 141t-117 -141v-774zM63 1090q0 360 342 360t342 -360v-746q0 -360 -342 -360t-342 360v746zM677 1743l-221 -240h-160l148 240h233z" />
    <glyph glyph-name="uni1ECE" unicode="&#x1ece;" 
d="M288 330q0 -142 117 -142t117 142v774q0 141 -117 141t-117 -141v-774zM63 1090q0 360 342 360t342 -360v-746q0 -360 -342 -360t-342 360v746zM334 1491q-3 13 -3 25q0 45 17 79q6 15 14 31l35 51q6 13 12 27q12 31 12 70q0 30 -18 30t-18 -30v-80h-125v75
q0 156 145 156t145 -156q0 -51 -16 -94q-8 -16 -18 -35q-7 -12 -19 -28q-2 -2 -4 -6l-14 -19q-8 -12 -15 -22q-12 -25 -12 -52q0 -7 2 -22h-120z" />
    <glyph glyph-name="Otilde" unicode="&#xd5;" 
d="M288 330q0 -142 117 -142t117 142v774q0 141 -117 141t-117 -141v-774zM63 1090q0 360 342 360t342 -360v-746q0 -360 -342 -360t-342 360v746zM710 1649q-48 -86 -95 -118q-40 -28 -99 -28q-50 0 -117 28l-48 19q-25 9 -46 9q-57 0 -90 -68l-115 86q48 86 95 118
q40 27 99 27q50 0 117 -27l48 -19q26 -9 46 -9q57 0 90 68z" />
    <glyph glyph-name="uni1ECC" unicode="&#x1ecc;" 
d="M288 330q0 -142 117 -142t117 142v774q0 141 -117 141t-117 -141v-774zM63 1090q0 360 342 360t342 -360v-746q0 -360 -342 -360t-342 360v746zM509 -107v-209h-208v209h208z" />
    <glyph glyph-name="Ocircumflex" unicode="&#xd4;" 
d="M288 330q0 -142 117 -142t117 142v774q0 141 -117 141t-117 -141v-774zM63 1090q0 360 342 360t342 -360v-746q0 -360 -342 -360t-342 360v746zM106 1503l190 240h216l190 -240h-203l-96 119l-94 -119h-203z" />
    <glyph glyph-name="uni1ED2" unicode="&#x1ed2;" 
d="M288 330q0 -142 117 -142t117 142v774q0 141 -117 141t-117 -141v-774zM63 1090q0 360 342 360t342 -360v-746q0 -360 -342 -360t-342 360v746zM705 1900l148 -240h-170l-222 240h244zM106 1503l190 240h216l190 -240h-203l-96 119l-94 -119h-203z" />
    <glyph glyph-name="uni1ED0" unicode="&#x1ed0;" 
d="M288 330q0 -142 117 -142t117 142v774q0 141 -117 141t-117 -141v-774zM63 1090q0 360 342 360t342 -360v-746q0 -360 -342 -360t-342 360v746zM1022 1889l-221 -240h-160l148 240h233zM106 1503l190 240h216l190 -240h-203l-96 119l-94 -119h-203z" />
    <glyph glyph-name="uni1ED4" unicode="&#x1ed4;" 
d="M288 330q0 -142 117 -142t117 142v774q0 141 -117 141t-117 -141v-774zM63 1090q0 360 342 360t342 -360v-746q0 -360 -342 -360t-342 360v746zM644 1655q-3 13 -3 25q0 45 17 79q6 15 14 31l35 51q6 13 12 27q12 31 12 70q0 30 -18 30t-18 -30v-80h-125v75
q0 156 145 156t145 -156q0 -51 -16 -94q-8 -16 -18 -35q-7 -12 -19 -28q-2 -2 -4 -6l-14 -19q-8 -12 -15 -22q-12 -25 -12 -52q0 -7 2 -22h-120zM106 1503l190 240h216l190 -240h-203l-96 119l-94 -119h-203z" />
    <glyph glyph-name="uni1ED6" unicode="&#x1ed6;" 
d="M288 330q0 -142 117 -142t117 142v774q0 141 -117 141t-117 -141v-774zM63 1090q0 360 342 360t342 -360v-746q0 -360 -342 -360t-342 360v746zM762 1935q-48 -86 -95 -118q-40 -28 -99 -28q-50 0 -117 28l-48 19q-25 9 -46 9q-57 0 -90 -68l-115 86q48 86 95 118
q40 27 99 27q50 0 117 -27l48 -19q26 -9 46 -9q57 0 90 68zM106 1503l190 240h216l190 -240h-203l-96 119l-94 -119h-203z" />
    <glyph glyph-name="uni1ED8" unicode="&#x1ed8;" 
d="M288 330q0 -142 117 -142t117 142v774q0 141 -117 141t-117 -141v-774zM63 1090q0 360 342 360t342 -360v-746q0 -360 -342 -360t-342 360v746zM509 -107v-209h-208v209h208zM106 1503l190 240h216l190 -240h-203l-96 119l-94 -119h-203z" />
    <glyph glyph-name="Ugrave" unicode="&#xd9;" horiz-adv-x="815" 
d="M296 1434v-1106q0 -140 117 -140t117 140v1106h213v-1092q0 -360 -336 -360t-336 360v1092h225zM374 1743l148 -240h-170l-222 240h244z" />
    <glyph glyph-name="Uacute" unicode="&#xda;" horiz-adv-x="815" 
d="M296 1434v-1106q0 -140 117 -140t117 140v1106h213v-1092q0 -360 -336 -360t-336 360v1092h225zM681 1743l-221 -240h-160l148 240h233z" />
    <glyph glyph-name="uni1EE6" unicode="&#x1ee6;" horiz-adv-x="815" 
d="M296 1434v-1106q0 -140 117 -140t117 140v1106h213v-1092q0 -360 -336 -360t-336 360v1092h225zM334 1491q-3 13 -3 25q0 45 16 79q7 15 15 31l35 51q6 13 12 27q12 31 12 70q0 30 -18 30q-19 0 -19 -30v-80h-125v75q0 156 146 156q145 0 145 -156q0 -51 -16 -94
q-8 -16 -19 -35q-6 -12 -18 -28q-2 -2 -4 -6l-14 -19q-9 -12 -15 -22q-12 -25 -12 -52q0 -7 2 -22h-120z" />
    <glyph glyph-name="Utilde" unicode="&#x168;" horiz-adv-x="815" 
d="M296 1434v-1106q0 -140 117 -140t117 140v1106h213v-1092q0 -360 -336 -360t-336 360v1092h225zM710 1649q-48 -86 -95 -118q-40 -28 -100 -28q-49 0 -116 28l-48 19q-26 9 -47 9q-56 0 -90 -68l-114 86q48 86 95 118q40 27 99 27q50 0 116 -27l48 -19q26 -9 47 -9
q56 0 90 68z" />
    <glyph glyph-name="uni1EE4" unicode="&#x1ee4;" horiz-adv-x="815" 
d="M296 1434v-1106q0 -140 117 -140t117 140v1106h213v-1092q0 -360 -336 -360t-336 360v1092h225zM511 -107v-209h-209v209h209z" />
    <glyph glyph-name="Uhorn" unicode="&#x1af;" horiz-adv-x="815" 
d="M742 1142v-800q0 -360 -335 -360q-336 0 -336 360v1092h225v-1106q0 -140 117 -140q116 0 116 140v1106h99v92h194v-186z" />
    <glyph glyph-name="uni1EEA" unicode="&#x1eea;" horiz-adv-x="815" 
d="M374 1743l147 -240h-170l-221 240h244zM742 1142v-800q0 -360 -335 -360q-336 0 -336 360v1092h225v-1106q0 -140 117 -140q116 0 116 140v1106h99v92h194v-186z" />
    <glyph glyph-name="uni1EE8" unicode="&#x1ee8;" horiz-adv-x="815" 
d="M681 1743l-221 -240h-160l148 240h233zM742 1142v-800q0 -360 -335 -360q-336 0 -336 360v1092h225v-1106q0 -140 117 -140q116 0 116 140v1106h99v92h194v-186z" />
    <glyph glyph-name="uni1EEC" unicode="&#x1eec;" horiz-adv-x="815" 
d="M333 1491q-2 13 -2 25q0 45 16 79q6 15 14 31l35 51q6 13 13 27q12 31 12 70q0 30 -19 30q-18 0 -18 -30v-80h-125v75q0 156 146 156q145 0 145 -156q0 -51 -16 -94q-9 -16 -19 -35q-6 -12 -18 -28q-2 -2 -4 -6l-15 -19q-8 -12 -14 -22q-12 -25 -12 -52q0 -7 2 -22h-121z
M742 1142v-800q0 -360 -335 -360q-336 0 -336 360v1092h225v-1106q0 -140 117 -140q116 0 116 140v1106h99v92h194v-186z" />
    <glyph glyph-name="uni1EEE" unicode="&#x1eee;" horiz-adv-x="815" 
d="M710 1701q-48 -86 -95 -118q-40 -28 -100 -28q-50 0 -116 28l-48 19q-26 9 -47 9q-56 0 -90 -68l-115 86q48 86 95 118q40 27 100 27q50 0 116 -27l48 -19q26 -9 47 -9q56 0 90 68zM742 1142v-800q0 -360 -335 -360q-336 0 -336 360v1092h225v-1106q0 -140 117 -140
q116 0 116 140v1106h99v92h194v-186z" />
    <glyph glyph-name="uni1EF0" unicode="&#x1ef0;" horiz-adv-x="815" 
d="M511 -107v-209h-209v209h209zM742 1142v-800q0 -360 -335 -360q-336 0 -336 360v1092h225v-1106q0 -140 117 -140q116 0 116 140v1106h99v92h194v-186z" />
    <glyph glyph-name="Ohorn" unicode="&#x1a0;" 
d="M289 330q0 -142 117 -142q116 0 116 142v774q0 141 -116 141q-117 0 -117 -141v-774zM746 1148q2 -28 2 -58v-746q0 -360 -342 -360q-343 0 -343 360v746q0 360 343 360q140 0 223 -61v137h194v-186z" />
    <glyph glyph-name="uni1EDC" unicode="&#x1edc;" 
d="M289 330q0 -142 117 -142q116 0 116 142v774q0 141 -116 141q-117 0 -117 -141v-774zM371 1743l147 -240h-170l-221 240h244zM746 1148q2 -28 2 -58v-746q0 -360 -342 -360q-343 0 -343 360v746q0 360 343 360q140 0 223 -61v137h194v-186z" />
    <glyph glyph-name="uni1EDA" unicode="&#x1eda;" 
d="M289 330q0 -142 117 -142q116 0 116 142v774q0 141 -116 141q-117 0 -117 -141v-774zM678 1743l-221 -240h-160l147 240h234zM746 1148q2 -28 2 -58v-746q0 -360 -342 -360q-343 0 -343 360v746q0 360 343 360q140 0 223 -61v137h194v-186z" />
    <glyph glyph-name="uni1EDE" unicode="&#x1ede;" 
d="M289 330q0 -142 117 -142q116 0 116 142v774q0 141 -116 141q-117 0 -117 -141v-774zM334 1491q-2 13 -2 25q0 45 16 79q6 15 14 31l35 51q6 13 13 27q12 31 12 70q0 30 -19 30q-18 0 -18 -30v-80h-125v75q0 156 146 156q145 0 145 -156q0 -51 -16 -94q-9 -16 -19 -35
q-6 -12 -18 -28q-2 -2 -4 -6l-15 -19q-8 -12 -14 -22q-12 -25 -12 -52q0 -7 2 -22h-121zM746 1148q2 -28 2 -58v-746q0 -360 -342 -360q-343 0 -343 360v746q0 360 343 360q140 0 223 -61v137h194v-186z" />
    <glyph glyph-name="uni1EE0" unicode="&#x1ee0;" 
d="M289 330q0 -142 117 -142q116 0 116 142v774q0 141 -116 141q-117 0 -117 -141v-774zM726 1695q-48 -86 -95 -118q-40 -28 -100 -28q-50 0 -116 28l-48 19q-26 9 -47 9q-56 0 -90 -68l-115 86q48 86 95 118q40 27 100 27q50 0 116 -27l48 -19q26 -9 47 -9q56 0 90 68z
M746 1148q2 -28 2 -58v-746q0 -360 -342 -360q-343 0 -343 360v746q0 360 343 360q140 0 223 -61v137h194v-186z" />
    <glyph glyph-name="uni1EE2" unicode="&#x1ee2;" 
d="M289 330q0 -142 117 -142q116 0 116 142v774q0 141 -116 141q-117 0 -117 -141v-774zM510 -107v-209h-209v209h209zM746 1148q2 -28 2 -58v-746q0 -360 -342 -360q-343 0 -343 360v746q0 360 343 360q140 0 223 -61v137h194v-186z" />
    <glyph glyph-name="Ygrave" unicode="&#x1ef2;" 
d="M293 475l-285 959h236l172 -654l172 654h215l-285 -959v-475h-225v475zM375 1743l147 -240h-170l-221 240h244z" />
    <glyph glyph-name="Yacute" unicode="&#xdd;" 
d="M293 475l-285 959h236l172 -654l172 654h215l-285 -959v-475h-225v475zM682 1743l-221 -240h-160l147 240h234z" />
    <glyph glyph-name="uni1EF6" unicode="&#x1ef6;" 
d="M293 475l-285 959h236l172 -654l172 654h215l-285 -959v-475h-225v475zM360 1491q-2 13 -2 25q0 45 16 79q6 15 14 31l35 51q6 13 12 27q13 31 13 70q0 30 -19 30q-18 0 -18 -30v-80h-125v75q0 156 145 156q146 0 146 -156q0 -51 -17 -94q-8 -16 -18 -35q-6 -12 -19 -28
q-2 -2 -4 -6l-14 -19q-8 -12 -14 -22q-13 -25 -13 -52q0 -7 3 -22h-121z" />
    <glyph glyph-name="uni1EF8" unicode="&#x1ef8;" 
d="M293 475l-285 959h236l172 -654l172 654h215l-285 -959v-475h-225v475zM710 1649q-48 -86 -95 -118q-39 -28 -99 -28q-50 0 -116 28l-48 19q-26 9 -47 9q-56 0 -90 -68l-115 86q48 86 95 118q40 27 100 27q49 0 116 -27l48 -19q26 -9 47 -9q56 0 90 68z" />
    <glyph glyph-name="uni1EF4" unicode="&#x1ef4;" 
d="M293 475l-285 959h236l172 -654l172 654h215l-285 -959v-475h-225v475zM512 -107v-209h-209v209h209z" />
    <glyph glyph-name="agrave" unicode="&#xe0;" horiz-adv-x="833" 
d="M810 0h-227l-39 260h-276l-39 -260h-207l229 1434h330zM296 455h218l-109 725zM382 1743l148 -240h-170l-221 240h243z" />
    <glyph glyph-name="aacute" unicode="&#xe1;" horiz-adv-x="833" 
d="M810 0h-227l-39 260h-276l-39 -260h-207l229 1434h330zM296 455h218l-109 725zM688 1743l-222 -240h-159l147 240h234z" />
    <glyph glyph-name="uni1EA3" unicode="&#x1ea3;" horiz-adv-x="833" 
d="M810 0h-227l-39 260h-276l-39 -260h-207l229 1434h330zM296 455h218l-109 725zM338 1491q-3 13 -3 25q0 45 17 79q6 15 14 31l35 51q6 13 12 27q12 31 12 70q0 30 -18 30t-18 -30v-80h-125v75q0 156 145 156t145 -156q0 -51 -16 -94q-8 -16 -18 -35q-6 -12 -19 -28
q-2 -2 -4 -6l-14 -19q-8 -12 -15 -22q-12 -25 -12 -52q0 -7 3 -22h-121z" />
    <glyph glyph-name="atilde" unicode="&#xe3;" horiz-adv-x="833" 
d="M810 0h-227l-39 260h-276l-39 -260h-207l229 1434h330zM296 455h218l-109 725zM720 1649q-48 -86 -95 -118q-40 -28 -99 -28q-50 0 -116 28l-48 19q-26 9 -47 9q-56 0 -90 -68l-115 86q48 86 95 118q40 27 100 27q49 0 116 -27l48 -19q26 -9 47 -9q56 0 90 68z" />
    <glyph glyph-name="uni1EA1" unicode="&#x1ea1;" horiz-adv-x="833" 
d="M810 0h-227l-39 260h-276l-39 -260h-207l229 1434h330zM296 455h218l-109 725zM521 -107v-209h-209v209h209z" />
    <glyph glyph-name="acircumflex" unicode="&#xe2;" horiz-adv-x="833" 
d="M810 0h-227l-39 260h-276l-39 -260h-207l229 1434h330zM296 455h218l-109 725zM118 1503l191 240h215l190 -240h-203l-96 119l-94 -119h-203z" />
    <glyph glyph-name="uni1EA7" unicode="&#x1ea7;" horiz-adv-x="833" 
d="M810 0h-227l-39 260h-276l-39 -260h-207l229 1434h330zM296 455h218l-109 725zM728 1908l148 -240h-170l-221 240h243zM118 1503l191 240h215l190 -240h-203l-96 119l-94 -119h-203z" />
    <glyph glyph-name="uni1EA5" unicode="&#x1ea5;" horiz-adv-x="833" 
d="M810 0h-227l-39 260h-276l-39 -260h-207l229 1434h330zM296 455h218l-109 725zM1024 1907l-222 -240h-159l147 240h234zM118 1503l191 240h215l190 -240h-203l-96 119l-94 -119h-203z" />
    <glyph glyph-name="uni1EA9" unicode="&#x1ea9;" horiz-adv-x="833" 
d="M810 0h-227l-39 260h-276l-39 -260h-207l229 1434h330zM296 455h218l-109 725zM655 1672q-3 13 -3 25q0 45 17 79q6 15 14 31l35 51q6 13 12 27q12 31 12 70q0 30 -18 30t-18 -30v-80h-125v75q0 156 145 156t145 -156q0 -51 -16 -94q-8 -16 -18 -35q-6 -12 -19 -28
q-2 -2 -4 -6l-14 -19q-8 -12 -15 -22q-12 -25 -12 -52q0 -7 3 -22h-121zM118 1503l191 240h215l190 -240h-203l-96 119l-94 -119h-203z" />
    <glyph glyph-name="uni1EAB" unicode="&#x1eab;" horiz-adv-x="833" 
d="M810 0h-227l-39 260h-276l-39 -260h-207l229 1434h330zM296 455h218l-109 725zM764 1934q-48 -86 -95 -118q-40 -28 -99 -28q-50 0 -116 28l-48 19q-26 9 -47 9q-56 0 -90 -68l-115 86q48 86 95 118q40 27 100 27q49 0 116 -27l48 -19q26 -9 47 -9q56 0 90 68zM118 1503
l191 240h215l190 -240h-203l-96 119l-94 -119h-203z" />
    <glyph glyph-name="uni1EAD" unicode="&#x1ead;" horiz-adv-x="833" 
d="M810 0h-227l-39 260h-276l-39 -260h-207l229 1434h330zM296 455h218l-109 725zM521 -107v-209h-209v209h209zM118 1503l191 240h215l190 -240h-203l-96 119l-94 -119h-203z" />
    <glyph glyph-name="abreve" unicode="&#x103;" horiz-adv-x="833" 
d="M810 0h-227l-39 260h-276l-39 -260h-207l229 1434h330zM296 455h218l-109 725zM658 1743q0 -248 -244 -248q-236 0 -239 248h141q7 -101 98 -101q95 0 103 101h141z" />
    <glyph glyph-name="uni1EB1" unicode="&#x1eb1;" horiz-adv-x="833" 
d="M810 0h-227l-39 260h-276l-39 -260h-207l229 1434h330zM296 455h218l-109 725zM375 2038l148 -240h-170l-221 240h243zM658 1743q0 -248 -244 -248q-236 0 -239 248h141q7 -101 98 -101q95 0 103 101h141z" />
    <glyph glyph-name="uni1EAF" unicode="&#x1eaf;" horiz-adv-x="833" 
d="M810 0h-227l-39 260h-276l-39 -260h-207l229 1434h330zM296 455h218l-109 725zM711 2021l-222 -240h-159l147 240h234zM658 1743q0 -248 -244 -248q-236 0 -239 248h141q7 -101 98 -101q95 0 103 101h141z" />
    <glyph glyph-name="uni1EB3" unicode="&#x1eb3;" horiz-adv-x="833" 
d="M810 0h-227l-39 260h-276l-39 -260h-207l229 1434h330zM296 455h218l-109 725zM359 1761q-3 13 -3 25q0 45 17 79q6 15 14 31l35 51q6 13 12 27q12 31 12 70q0 30 -18 30t-18 -30v-80h-125v75q0 156 145 156t145 -156q0 -51 -16 -94q-8 -16 -18 -35q-6 -12 -19 -28
q-2 -2 -4 -6l-14 -19q-8 -12 -15 -22q-12 -25 -12 -52q0 -7 3 -22h-121zM658 1743q0 -248 -244 -248q-236 0 -239 248h141q7 -101 98 -101q95 0 103 101h141z" />
    <glyph glyph-name="uni1EB5" unicode="&#x1eb5;" horiz-adv-x="833" 
d="M810 0h-227l-39 260h-276l-39 -260h-207l229 1434h330zM296 455h218l-109 725zM765 1955q-48 -86 -95 -118q-40 -28 -99 -28q-50 0 -116 28l-48 19q-26 9 -47 9q-56 0 -90 -68l-115 86q48 86 95 118q40 27 100 27q49 0 116 -27l48 -19q26 -9 47 -9q56 0 90 68zM658 1743
q0 -248 -244 -248q-236 0 -239 248h141q7 -101 98 -101q95 0 103 101h141z" />
    <glyph glyph-name="uni1EB7" unicode="&#x1eb7;" horiz-adv-x="833" 
d="M810 0h-227l-39 260h-276l-39 -260h-207l229 1434h330zM296 455h218l-109 725zM521 -107v-209h-209v209h209zM658 1743q0 -248 -244 -248q-236 0 -239 248h141q7 -101 98 -101q95 0 103 101h141z" />
    <glyph glyph-name="egrave" unicode="&#xe8;" horiz-adv-x="753" 
d="M306 829h310v-204h-310v-420h389v-205h-614v1434h614v-205h-389v-400zM351 1743l148 -240h-170l-221 240h243z" />
    <glyph glyph-name="eacute" unicode="&#xe9;" horiz-adv-x="753" 
d="M306 829h310v-204h-310v-420h389v-205h-614v1434h614v-205h-389v-400zM659 1743l-222 -240h-159l147 240h234z" />
    <glyph glyph-name="uni1EBB" unicode="&#x1ebb;" horiz-adv-x="753" 
d="M306 829h310v-204h-310v-420h389v-205h-614v1434h614v-205h-389v-400zM319 1491q-2 13 -2 25q0 45 16 79q6 15 15 31l34 51q7 13 13 27q12 31 12 70q0 30 -18 30q-19 0 -19 -30v-80h-125v75q0 156 146 156q145 0 145 -156q0 -51 -16 -94q-8 -16 -19 -35q-6 -12 -18 -28
q-2 -2 -4 -6l-15 -19q-8 -12 -14 -22q-12 -25 -12 -52q0 -7 2 -22h-121z" />
    <glyph glyph-name="uni1EBD" unicode="&#x1ebd;" horiz-adv-x="753" 
d="M306 829h310v-204h-310v-420h389v-205h-614v1434h614v-205h-389v-400zM711 1649q-48 -86 -95 -118q-40 -28 -100 -28q-49 0 -116 28l-48 19q-26 9 -47 9q-56 0 -90 -68l-114 86q48 86 95 118q40 27 99 27q50 0 116 -27l48 -19q26 -9 47 -9q56 0 90 68z" />
    <glyph glyph-name="uni1EB9" unicode="&#x1eb9;" horiz-adv-x="753" 
d="M306 829h310v-204h-310v-420h389v-205h-614v1434h614v-205h-389v-400zM493 -107v-209h-209v209h209z" />
    <glyph glyph-name="ecircumflex" unicode="&#xea;" horiz-adv-x="753" 
d="M306 829h310v-204h-310v-420h389v-205h-614v1434h614v-205h-389v-400zM87 1503l191 240h215l190 -240h-203l-96 119l-94 -119h-203z" />
    <glyph glyph-name="uni1EC1" unicode="&#x1ec1;" horiz-adv-x="753" 
d="M306 829h310v-204h-310v-420h389v-205h-614v1434h614v-205h-389v-400zM675 1908l148 -240h-170l-221 240h243zM87 1503l191 240h215l190 -240h-203l-96 119l-94 -119h-203z" />
    <glyph glyph-name="uni1EBF" unicode="&#x1ebf;" horiz-adv-x="753" 
d="M306 829h310v-204h-310v-420h389v-205h-614v1434h614v-205h-389v-400zM1005 1894l-222 -240h-159l147 240h234zM87 1503l191 240h215l190 -240h-203l-96 119l-94 -119h-203z" />
    <glyph glyph-name="uni1EC3" unicode="&#x1ec3;" horiz-adv-x="753" 
d="M306 829h310v-204h-310v-420h389v-205h-614v1434h614v-205h-389v-400zM620 1646q-2 13 -2 25q0 45 16 79q6 15 15 31l34 51q7 13 13 27q12 31 12 70q0 30 -18 30q-19 0 -19 -30v-80h-125v75q0 156 146 156q145 0 145 -156q0 -51 -16 -94q-8 -16 -19 -35q-6 -12 -18 -28
q-2 -2 -4 -6l-15 -19q-8 -12 -14 -22q-12 -25 -12 -52q0 -7 2 -22h-121zM87 1503l191 240h215l190 -240h-203l-96 119l-94 -119h-203z" />
    <glyph glyph-name="uni1EC5" unicode="&#x1ec5;" horiz-adv-x="753" 
d="M306 829h310v-204h-310v-420h389v-205h-614v1434h614v-205h-389v-400zM728 1933q-48 -86 -95 -118q-40 -28 -100 -28q-49 0 -116 28l-48 19q-26 9 -47 9q-56 0 -90 -68l-114 86q48 86 95 118q40 27 99 27q50 0 116 -27l48 -19q26 -9 47 -9q56 0 90 68zM87 1503l191 240
h215l190 -240h-203l-96 119l-94 -119h-203z" />
    <glyph glyph-name="uni1EC7" unicode="&#x1ec7;" horiz-adv-x="753" 
d="M306 829h310v-204h-310v-420h389v-205h-614v1434h614v-205h-389v-400zM493 -107v-209h-209v209h209zM87 1503l191 240h215l190 -240h-203l-96 119l-94 -119h-203z" />
    <glyph glyph-name="igrave" unicode="&#xec;" horiz-adv-x="389" 
d="M83 1434h225v-1434h-225v1434zM163 1743l147 -240h-170l-221 240h244z" />
    <glyph glyph-name="iacute" unicode="&#xed;" horiz-adv-x="389" 
d="M81 1434h225v-1434h-225v1434zM466 1743l-221 -240h-160l148 240h233z" />
    <glyph glyph-name="uni1EC9" unicode="&#x1ec9;" horiz-adv-x="389" 
d="M81 1434h225v-1434h-225v1434zM129 1491q-2 13 -2 25q0 45 16 79q6 15 14 31l35 51q6 13 13 27q12 31 12 70q0 30 -19 30q-18 0 -18 -30v-80h-125v75q0 156 145 156q146 0 146 -156q0 -51 -17 -94q-8 -16 -18 -35q-6 -12 -18 -28q-2 -2 -5 -6l-14 -19q-8 -12 -14 -22
q-12 -25 -12 -52q0 -7 2 -22h-121z" />
    <glyph glyph-name="itilde" unicode="&#x129;" horiz-adv-x="389" 
d="M81 1434h226v-1434h-226v1434zM504 1649q-48 -86 -95 -118q-40 -28 -99 -28q-50 0 -116 28l-48 19q-26 9 -47 9q-57 0 -90 -68l-115 86q48 86 95 118q40 27 100 27q49 0 116 -27l48 -19q26 -9 47 -9q56 0 90 68z" />
    <glyph glyph-name="uni1ECB" unicode="&#x1ecb;" horiz-adv-x="389" 
d="M81 1434h225v-1434h-225v1434zM298 -107v-209h-209v209h209z" />
    <glyph glyph-name="ograve" unicode="&#xf2;" 
d="M288 330q0 -142 117 -142t117 142v774q0 141 -117 141t-117 -141v-774zM63 1090q0 360 342 360t342 -360v-746q0 -360 -342 -360t-342 360v746zM370 1743l148 -240h-170l-222 240h244z" />
    <glyph glyph-name="oacute" unicode="&#xf3;" 
d="M288 330q0 -142 117 -142t117 142v774q0 141 -117 141t-117 -141v-774zM63 1090q0 360 342 360t342 -360v-746q0 -360 -342 -360t-342 360v746zM677 1743l-221 -240h-160l148 240h233z" />
    <glyph glyph-name="uni1ECF" unicode="&#x1ecf;" 
d="M288 330q0 -142 117 -142t117 142v774q0 141 -117 141t-117 -141v-774zM63 1090q0 360 342 360t342 -360v-746q0 -360 -342 -360t-342 360v746zM334 1491q-3 13 -3 25q0 45 17 79q6 15 14 31l35 51q6 13 12 27q12 31 12 70q0 30 -18 30t-18 -30v-80h-125v75
q0 156 145 156t145 -156q0 -51 -16 -94q-8 -16 -18 -35q-7 -12 -19 -28q-2 -2 -4 -6l-14 -19q-8 -12 -15 -22q-12 -25 -12 -52q0 -7 2 -22h-120z" />
    <glyph glyph-name="otilde" unicode="&#xf5;" 
d="M288 330q0 -142 117 -142t117 142v774q0 141 -117 141t-117 -141v-774zM63 1090q0 360 342 360t342 -360v-746q0 -360 -342 -360t-342 360v746zM710 1649q-48 -86 -95 -118q-40 -28 -99 -28q-50 0 -117 28l-48 19q-25 9 -46 9q-57 0 -90 -68l-115 86q48 86 95 118
q40 27 99 27q50 0 117 -27l48 -19q26 -9 46 -9q57 0 90 68z" />
    <glyph glyph-name="uni1ECD" unicode="&#x1ecd;" 
d="M288 330q0 -142 117 -142t117 142v774q0 141 -117 141t-117 -141v-774zM63 1090q0 360 342 360t342 -360v-746q0 -360 -342 -360t-342 360v746zM509 -107v-209h-208v209h208z" />
    <glyph glyph-name="ocircumflex" unicode="&#xf4;" 
d="M288 330q0 -142 117 -142t117 142v774q0 141 -117 141t-117 -141v-774zM63 1090q0 360 342 360t342 -360v-746q0 -360 -342 -360t-342 360v746zM106 1503l190 240h216l190 -240h-203l-96 119l-94 -119h-203z" />
    <glyph glyph-name="uni1ED3" unicode="&#x1ed3;" 
d="M288 330q0 -142 117 -142t117 142v774q0 141 -117 141t-117 -141v-774zM63 1090q0 360 342 360t342 -360v-746q0 -360 -342 -360t-342 360v746zM705 1900l148 -240h-170l-222 240h244zM106 1503l190 240h216l190 -240h-203l-96 119l-94 -119h-203z" />
    <glyph glyph-name="uni1ED1" unicode="&#x1ed1;" 
d="M288 330q0 -142 117 -142t117 142v774q0 141 -117 141t-117 -141v-774zM63 1090q0 360 342 360t342 -360v-746q0 -360 -342 -360t-342 360v746zM1022 1889l-221 -240h-160l148 240h233zM106 1503l190 240h216l190 -240h-203l-96 119l-94 -119h-203z" />
    <glyph glyph-name="uni1ED5" unicode="&#x1ed5;" 
d="M288 330q0 -142 117 -142t117 142v774q0 141 -117 141t-117 -141v-774zM63 1090q0 360 342 360t342 -360v-746q0 -360 -342 -360t-342 360v746zM644 1655q-3 13 -3 25q0 45 17 79q6 15 14 31l35 51q6 13 12 27q12 31 12 70q0 30 -18 30t-18 -30v-80h-125v75
q0 156 145 156t145 -156q0 -51 -16 -94q-8 -16 -18 -35q-7 -12 -19 -28q-2 -2 -4 -6l-14 -19q-8 -12 -15 -22q-12 -25 -12 -52q0 -7 2 -22h-120zM106 1503l190 240h216l190 -240h-203l-96 119l-94 -119h-203z" />
    <glyph glyph-name="uni1ED7" unicode="&#x1ed7;" 
d="M288 330q0 -142 117 -142t117 142v774q0 141 -117 141t-117 -141v-774zM63 1090q0 360 342 360t342 -360v-746q0 -360 -342 -360t-342 360v746zM762 1935q-48 -86 -95 -118q-40 -28 -99 -28q-50 0 -117 28l-48 19q-25 9 -46 9q-57 0 -90 -68l-115 86q48 86 95 118
q40 27 99 27q50 0 117 -27l48 -19q26 -9 46 -9q57 0 90 68zM106 1503l190 240h216l190 -240h-203l-96 119l-94 -119h-203z" />
    <glyph glyph-name="uni1ED9" unicode="&#x1ed9;" 
d="M288 330q0 -142 117 -142t117 142v774q0 141 -117 141t-117 -141v-774zM63 1090q0 360 342 360t342 -360v-746q0 -360 -342 -360t-342 360v746zM509 -107v-209h-208v209h208zM106 1503l190 240h216l190 -240h-203l-96 119l-94 -119h-203z" />
    <glyph glyph-name="glyph217" unicode="&#xf9;" horiz-adv-x="815" 
d="M296 1434v-1106q0 -140 117 -140t117 140v1106h213v-1092q0 -360 -336 -360t-336 360v1092h225zM374 1743l148 -240h-170l-222 240h244z" />
    <glyph glyph-name="glyph218" unicode="&#xfa;" horiz-adv-x="815" 
d="M296 1434v-1106q0 -140 117 -140t117 140v1106h213v-1092q0 -360 -336 -360t-336 360v1092h225zM681 1743l-221 -240h-160l148 240h233z" />
    <glyph glyph-name="uni1EE7" unicode="&#x1ee7;" horiz-adv-x="815" 
d="M296 1434v-1106q0 -140 117 -140t117 140v1106h213v-1092q0 -360 -336 -360t-336 360v1092h225zM334 1491q-3 13 -3 25q0 45 16 79q7 15 15 31l35 51q6 13 12 27q12 31 12 70q0 30 -18 30q-19 0 -19 -30v-80h-125v75q0 156 146 156q145 0 145 -156q0 -51 -16 -94
q-8 -16 -19 -35q-6 -12 -18 -28q-2 -2 -4 -6l-14 -19q-9 -12 -15 -22q-12 -25 -12 -52q0 -7 2 -22h-120z" />
    <glyph glyph-name="utilde" unicode="&#x169;" horiz-adv-x="815" 
d="M296 1434v-1106q0 -140 117 -140t117 140v1106h213v-1092q0 -360 -336 -360t-336 360v1092h225zM710 1649q-48 -86 -95 -118q-40 -28 -100 -28q-49 0 -116 28l-48 19q-26 9 -47 9q-56 0 -90 -68l-114 86q48 86 95 118q40 27 99 27q50 0 116 -27l48 -19q26 -9 47 -9
q56 0 90 68z" />
    <glyph glyph-name="uni1EE5" unicode="&#x1ee5;" horiz-adv-x="815" 
d="M296 1434v-1106q0 -140 117 -140t117 140v1106h213v-1092q0 -360 -336 -360t-336 360v1092h225zM511 -107v-209h-209v209h209z" />
    <glyph glyph-name="uhorn" unicode="&#x1b0;" horiz-adv-x="815" 
d="M742 1142v-800q0 -360 -335 -360q-336 0 -336 360v1092h225v-1106q0 -140 117 -140q116 0 116 140v1106h99v92h194v-186z" />
    <glyph glyph-name="uni1EEB" unicode="&#x1eeb;" horiz-adv-x="815" 
d="M374 1743l147 -240h-170l-221 240h244zM742 1142v-800q0 -360 -335 -360q-336 0 -336 360v1092h225v-1106q0 -140 117 -140q116 0 116 140v1106h99v92h194v-186z" />
    <glyph glyph-name="uni1EE9" unicode="&#x1ee9;" horiz-adv-x="815" 
d="M681 1743l-221 -240h-160l148 240h233zM742 1142v-800q0 -360 -335 -360q-336 0 -336 360v1092h225v-1106q0 -140 117 -140q116 0 116 140v1106h99v92h194v-186z" />
    <glyph glyph-name="uni1EED" unicode="&#x1eed;" horiz-adv-x="815" 
d="M333 1491q-2 13 -2 25q0 45 16 79q6 15 14 31l35 51q6 13 13 27q12 31 12 70q0 30 -19 30q-18 0 -18 -30v-80h-125v75q0 156 146 156q145 0 145 -156q0 -51 -16 -94q-9 -16 -19 -35q-6 -12 -18 -28q-2 -2 -4 -6l-15 -19q-8 -12 -14 -22q-12 -25 -12 -52q0 -7 2 -22h-121z
M742 1142v-800q0 -360 -335 -360q-336 0 -336 360v1092h225v-1106q0 -140 117 -140q116 0 116 140v1106h99v92h194v-186z" />
    <glyph glyph-name="uni1EEF" unicode="&#x1eef;" horiz-adv-x="815" 
d="M710 1701q-48 -86 -95 -118q-40 -28 -100 -28q-50 0 -116 28l-48 19q-26 9 -47 9q-56 0 -90 -68l-115 86q48 86 95 118q40 27 100 27q50 0 116 -27l48 -19q26 -9 47 -9q56 0 90 68zM742 1142v-800q0 -360 -335 -360q-336 0 -336 360v1092h225v-1106q0 -140 117 -140
q116 0 116 140v1106h99v92h194v-186z" />
    <glyph glyph-name="uni1EF1" unicode="&#x1ef1;" horiz-adv-x="815" 
d="M511 -107v-209h-209v209h209zM742 1142v-800q0 -360 -335 -360q-336 0 -336 360v1092h225v-1106q0 -140 117 -140q116 0 116 140v1106h99v92h194v-186z" />
    <glyph glyph-name="ohorn" unicode="&#x1a1;" 
d="M289 330q0 -142 117 -142q116 0 116 142v774q0 141 -116 141q-117 0 -117 -141v-774zM746 1148q2 -28 2 -58v-746q0 -360 -342 -360q-343 0 -343 360v746q0 360 343 360q140 0 223 -61v137h194v-186z" />
    <glyph glyph-name="uni1EDD" unicode="&#x1edd;" 
d="M289 330q0 -142 117 -142q116 0 116 142v774q0 141 -116 141q-117 0 -117 -141v-774zM371 1743l147 -240h-170l-221 240h244zM746 1148q2 -28 2 -58v-746q0 -360 -342 -360q-343 0 -343 360v746q0 360 343 360q140 0 223 -61v137h194v-186z" />
    <glyph glyph-name="uni1EDB" unicode="&#x1edb;" 
d="M289 330q0 -142 117 -142q116 0 116 142v774q0 141 -116 141q-117 0 -117 -141v-774zM678 1743l-221 -240h-160l147 240h234zM746 1148q2 -28 2 -58v-746q0 -360 -342 -360q-343 0 -343 360v746q0 360 343 360q140 0 223 -61v137h194v-186z" />
    <glyph glyph-name="uni1EDF" unicode="&#x1edf;" 
d="M289 330q0 -142 117 -142q116 0 116 142v774q0 141 -116 141q-117 0 -117 -141v-774zM334 1491q-2 13 -2 25q0 45 16 79q6 15 14 31l35 51q6 13 13 27q12 31 12 70q0 30 -19 30q-18 0 -18 -30v-80h-125v75q0 156 146 156q145 0 145 -156q0 -51 -16 -94q-9 -16 -19 -35
q-6 -12 -18 -28q-2 -2 -4 -6l-15 -19q-8 -12 -14 -22q-12 -25 -12 -52q0 -7 2 -22h-121zM746 1148q2 -28 2 -58v-746q0 -360 -342 -360q-343 0 -343 360v746q0 360 343 360q140 0 223 -61v137h194v-186z" />
    <glyph glyph-name="uni1EE1" unicode="&#x1ee1;" 
d="M289 330q0 -142 117 -142q116 0 116 142v774q0 141 -116 141q-117 0 -117 -141v-774zM726 1695q-48 -86 -95 -118q-40 -28 -100 -28q-50 0 -116 28l-48 19q-26 9 -47 9q-56 0 -90 -68l-115 86q48 86 95 118q40 27 100 27q50 0 116 -27l48 -19q26 -9 47 -9q56 0 90 68z
M746 1148q2 -28 2 -58v-746q0 -360 -342 -360q-343 0 -343 360v746q0 360 343 360q140 0 223 -61v137h194v-186z" />
    <glyph glyph-name="uni1EE3" unicode="&#x1ee3;" 
d="M289 330q0 -142 117 -142q116 0 116 142v774q0 141 -116 141q-117 0 -117 -141v-774zM510 -107v-209h-209v209h209zM746 1148q2 -28 2 -58v-746q0 -360 -342 -360q-343 0 -343 360v746q0 360 343 360q140 0 223 -61v137h194v-186z" />
    <glyph glyph-name="ygrave" unicode="&#x1ef3;" 
d="M293 475l-285 959h236l172 -654l172 654h215l-285 -959v-475h-225v475zM375 1743l147 -240h-170l-221 240h244z" />
    <glyph glyph-name="glyph235" unicode="&#xfd;" 
d="M293 475l-285 959h236l172 -654l172 654h215l-285 -959v-475h-225v475zM682 1743l-221 -240h-160l147 240h234z" />
    <glyph glyph-name="uni1EF7" unicode="&#x1ef7;" 
d="M293 475l-285 959h236l172 -654l172 654h215l-285 -959v-475h-225v475zM360 1491q-2 13 -2 25q0 45 16 79q6 15 14 31l35 51q6 13 12 27q13 31 13 70q0 30 -19 30q-18 0 -18 -30v-80h-125v75q0 156 145 156q146 0 146 -156q0 -51 -17 -94q-8 -16 -18 -35q-6 -12 -19 -28
q-2 -2 -4 -6l-14 -19q-8 -12 -14 -22q-13 -25 -13 -52q0 -7 3 -22h-121z" />
    <glyph glyph-name="uni1EF9" unicode="&#x1ef9;" 
d="M293 475l-285 959h236l172 -654l172 654h215l-285 -959v-475h-225v475zM710 1649q-48 -86 -95 -118q-39 -28 -99 -28q-50 0 -116 28l-48 19q-26 9 -47 9q-56 0 -90 -68l-115 86q48 86 95 118q40 27 100 27q49 0 116 -27l48 -19q26 -9 47 -9q56 0 90 68z" />
    <glyph glyph-name="uni1EF5" unicode="&#x1ef5;" 
d="M293 475l-285 959h236l172 -654l172 654h215l-285 -959v-475h-225v475zM512 -107v-209h-209v209h209z" />
    <glyph glyph-name="divide" unicode="&#xf7;" horiz-adv-x="1110" 
d="M655 1004q0 -43 -28.5 -73t-69.5 -30t-70 30t-29 73t29 72.5t70 29.5t69.5 -29.5t28.5 -72.5zM139 602v127h831v-127h-831zM655 328q0 -43 -28.5 -73t-69.5 -30t-70 30t-29 73t29 72.5t70 29.5t69.5 -29.5t28.5 -72.5z" />
    <glyph glyph-name="ugrave" horiz-adv-x="582" 
 />
    <glyph glyph-name="uacute" horiz-adv-x="580" 
 />
    <glyph glyph-name="yacute" horiz-adv-x="629" 
 />
    <glyph glyph-name="Ccaron" unicode="&#x10c;" horiz-adv-x="1274" 
 />
    <glyph glyph-name="ccaron" unicode="&#x10d;" horiz-adv-x="922" 
 />
    <glyph glyph-name="Dslash" unicode="&#xd0;" horiz-adv-x="835" 
d="M82 625h-74v184h74v625h356q336 0 336 -355v-725q0 -354 -336 -354h-356v625zM307 1229v-420h139v-184h-139v-420h127q115 0 115 139v746q0 139 -115 139h-127z" />
    <glyph glyph-name="Dslash" unicode="&#x110;" horiz-adv-x="835" 
d="M82 625h-74v184h74v625h356q336 0 336 -355v-725q0 -354 -336 -354h-356v625zM307 1229v-420h139v-184h-139v-420h127q115 0 115 139v746q0 139 -115 139h-127z" />
    <glyph glyph-name="dcroat" unicode="&#x111;" horiz-adv-x="835" 
d="M82 625h-74v184h74v625h356q336 0 336 -355v-725q0 -354 -336 -354h-356v625zM307 1229v-420h139v-184h-139v-420h127q115 0 115 139v746q0 139 -115 139h-127z" />
    <glyph glyph-name="quoteleft" unicode="&#x2018;" horiz-adv-x="380" 
d="M298 1229v-217h-217v194l98 228h92l-59 -205h86z" />
    <glyph glyph-name="quoteright" unicode="&#x2019;" horiz-adv-x="380" 
d="M81 1217v217h217v-195l-98 -227h-92l59 205h-86z" />
    <glyph glyph-name="quotedblleft" unicode="&#x201c;" horiz-adv-x="679" 
d="M298 1229v-217h-217v194l98 228h92l-59 -205h86zM597 1229v-217h-217v194l98 228h92l-59 -205h86z" />
    <glyph glyph-name="quotedblright" unicode="&#x201d;" horiz-adv-x="679" 
d="M81 1217v217h217v-195l-98 -227h-92l59 205h-86zM380 1217v217h217v-195l-98 -227h-92l59 205h-86z" />
    <glyph glyph-name="ellipsis" unicode="&#x2026;" horiz-adv-x="978" 
d="M298 217v-217h-217v217h217zM597 217v-217h-217v217h217zM896 217v-217h-217v217h217z" />
    <glyph glyph-name="endash" unicode="&#x2013;" horiz-adv-x="1024" 
d="M0 809h1024v-184h-1024v184z" />
    <glyph glyph-name="emdash" unicode="&#x2014;" horiz-adv-x="2048" 
d="M0 809h2048v-184h-2048v184z" />
    <glyph glyph-name="minus" unicode="&#x2212;" 
d="M0 809h811v-184h-811v184z" />
    <glyph glyph-name="ch270" unicode="&#xb7;" horiz-adv-x="380" 
d="M298 825v-217h-217v217h217z" />
    <glyph glyph-name="ch270" unicode="&#x2219;" horiz-adv-x="380" 
d="M298 825v-217h-217v217h217z" />
    </font>
</defs>
</svg>
