<?xml version="1.0" standalone="no"?>
<!DOCTYPE svg PUBLIC "-//W3C//DTD SVG 1.1//EN" "http://www.w3.org/Graphics/SVG/1.1/DTD/svg11.dtd" >
<svg xmlns="http://www.w3.org/2000/svg" xmlns:xlink="http://www.w3.org/1999/xlink" version="1.1">
<metadata>
Created by FontForge 20160407 at Fri Oct  7 06:55:40 2016
 By Jimmy Wärting
Copyright (c) Mark Simonson, 2005. All rights reserved.
</metadata>
<defs>
<font id="ProximaNova-Black" horiz-adv-x="596" >
  <font-face 
    font-family="Proxima Nova Bl"
    font-weight="900"
    font-stretch="normal"
    units-per-em="1000"
    panose-1="2 0 5 6 3 0 0 2 0 4"
    ascent="790"
    descent="-210"
    x-height="483"
    cap-height="667"
    bbox="-172 -304 1213 910"
    underline-thickness="20"
    underline-position="-133"
    unicode-range="U+000D-FB04"
  />
<missing-glyph horiz-adv-x="459" 
d="M54 -90v842h351v-842h-351zM373 722h-288v-782h288v782z" />
    <glyph glyph-name="f_b" unicode="fb" horiz-adv-x="967" 
d="M87 0v327h-80v156h80v22q0 37 13.5 69t38 54.5t58.5 35.5t74 13q35 0 63.5 -6.5t48.5 -17.5l-33 -122q-7 5 -17.5 9t-22.5 4q-18 0 -30.5 -11t-12.5 -28v-22h98v-156h-98v-327h-180zM601 179q13 -16 35 -24t40 -8q37 0 63.5 24.5t26.5 70.5q0 45 -26.5 69.5t-63.5 24.5
q-18 0 -40 -8.5t-35 -24.5v-124zM421 0v667h180v-235q29 35 64 49t72 14q45 0 83.5 -17t67.5 -49.5t45.5 -79.5t16.5 -107q0 -62 -17 -109.5t-46 -79.5t-67.5 -48.5t-82.5 -16.5q-37 0 -71 14t-65 49v-51h-180z" />
    <glyph glyph-name="f_f" unicode="ff" horiz-adv-x="742" 
d="M87 0v327h-80v156h80v22q0 38 13.5 69.5t38 54.5t58.5 35.5t74 12.5q42 0 83.5 -12.5t67.5 -39.5l-65 -100q-16 19 -44 19q-17 0 -31.5 -10.5t-14.5 -28.5v-22h98v-156h-98v-327h-180zM458 0v327h-80v156h80v22q0 38 13.5 69.5t38 54.5t58.5 35.5t74 12.5
q42 0 83.5 -12.5t67.5 -39.5l-65 -100q-16 19 -44 19q-17 0 -31.5 -10.5t-14.5 -28.5v-22h98v-156h-98v-327h-180z" />
    <glyph glyph-name="f_h" unicode="fh" horiz-adv-x="979" 
d="M87 0v327h-80v156h80v22q0 37 13.5 69t38 54.5t58.5 35.5t74 13q35 0 63.5 -6.5t48.5 -17.5l-33 -122q-7 5 -17.5 9t-22.5 4q-18 0 -30.5 -11t-12.5 -28v-22h98v-156h-98v-327h-180zM749 0v269q0 38 -19 52.5t-51 14.5q-31 0 -48.5 -12.5t-28.5 -25.5v-298h-180v667h180
v-239q21 24 61.5 45.5t104.5 21.5q42 0 72.5 -11.5t50 -32t29 -48t9.5 -58.5v-345h-180z" />
    <glyph glyph-name="fi" unicode="fi" horiz-adv-x="651" 
d="M87 0v327h-80v156h80v22q0 37 13.5 69t38 54.5t58.5 35.5t74 13q35 0 63.5 -6.5t48.5 -17.5l-33 -122q-7 5 -17.5 9t-22.5 4q-18 0 -30.5 -11t-12.5 -28v-22h98v-156h-98v-327h-180zM511 518q-21 0 -39.5 8t-32 21.5t-21.5 32t-8 39.5t8 39.5t21.5 32t32 21.5t39.5 8
t39.5 -8t32 -21.5t21.5 -32t8 -39.5t-8 -39.5t-21.5 -32t-32 -21.5t-39.5 -8zM421 0v483h180v-483h-180z" />
    <glyph glyph-name="f_j" unicode="fj" horiz-adv-x="651" 
d="M87 0v327h-80v156h80v22q0 37 13.5 69t38 54.5t58.5 35.5t74 13q35 0 63.5 -6.5t48.5 -17.5l-33 -122q-7 5 -17.5 9t-22.5 4q-18 0 -30.5 -11t-12.5 -28v-22h98v-156h-98v-327h-180zM511 518q-21 0 -39.5 8t-32 21.5t-21.5 32t-8 39.5t8 39.5t21.5 32t32 21.5t39.5 8
t39.5 -8t32 -21.5t21.5 -32t8 -39.5t-8 -39.5t-21.5 -32t-32 -21.5t-39.5 -8zM400 -196q-27 0 -46 2t-34 5.5t-27.5 10t-27.5 15.5l43 133q15 -11 27 -15t33 -4q25 0 39 17.5t14 52.5v462h180v-462q0 -47 -11.5 -86.5t-36.5 -68.5t-63 -45.5t-90 -16.5z" />
    <glyph glyph-name="f_k" unicode="fk" horiz-adv-x="928" 
d="M87 0v327h-80v156h80v22q0 37 13.5 69t38 54.5t58.5 35.5t74 13q35 0 63.5 -6.5t48.5 -17.5l-33 -122q-7 5 -17.5 9t-22.5 4q-18 0 -30.5 -11t-12.5 -28v-22h98v-156h-98v-327h-180zM719 0l-83 156l-35 -47v-109h-180v667h180v-356l111 172h217l-166 -220l177 -263h-221z
" />
    <glyph glyph-name="fl" unicode="fl" horiz-adv-x="651" 
d="M87 0v327h-80v156h80v22q0 37 13.5 69t38 54.5t58.5 35.5t74 13q35 0 63.5 -6.5t48.5 -17.5l-33 -122q-7 5 -17.5 9t-22.5 4q-18 0 -30.5 -11t-12.5 -28v-22h98v-156h-98v-327h-180zM421 0v667h180v-667h-180z" />
    <glyph glyph-name="f_f_i" unicode="ffi" horiz-adv-x="1022" 
d="M458 0v327h-80v156h80v22q0 37 13.5 69t38 54.5t58.5 35.5t74 13q35 0 63.5 -6.5t48.5 -17.5l-33 -122q-7 5 -17.5 9t-22.5 4q-18 0 -30.5 -11t-12.5 -28v-22h98v-156h-98v-327h-180zM882 518q-21 0 -39.5 8t-32 21.5t-21.5 32t-8 39.5t8 39.5t21.5 32t32 21.5t39.5 8
t39.5 -8t32 -21.5t21.5 -32t8 -39.5t-8 -39.5t-21.5 -32t-32 -21.5t-39.5 -8zM792 0v483h180v-483h-180zM87 0v327h-80v156h80v22q0 38 13.5 69.5t38 54.5t58.5 35.5t74 12.5q42 0 83.5 -12.5t67.5 -39.5l-65 -100q-16 19 -44 19q-17 0 -31.5 -10.5t-14.5 -28.5v-22h98v-156
h-98v-327h-180z" />
    <glyph glyph-name="f_f_j" unicode="ffj" horiz-adv-x="1022" 
d="M458 0v327h-80v156h80v22q0 37 13.5 69t38 54.5t58.5 35.5t74 13q35 0 63.5 -6.5t48.5 -17.5l-33 -122q-7 5 -17.5 9t-22.5 4q-18 0 -30.5 -11t-12.5 -28v-22h98v-156h-98v-327h-180zM882 518q-21 0 -39.5 8t-32 21.5t-21.5 32t-8 39.5t8 39.5t21.5 32t32 21.5t39.5 8
t39.5 -8t32 -21.5t21.5 -32t8 -39.5t-8 -39.5t-21.5 -32t-32 -21.5t-39.5 -8zM771 -196q-27 0 -46 2t-34 5.5t-27.5 10t-27.5 15.5l43 133q15 -11 27 -15t33 -4q25 0 39 17.5t14 52.5v462h180v-462q0 -47 -11.5 -86.5t-36.5 -68.5t-63 -45.5t-90 -16.5zM87 0v327h-80v156h80
v22q0 38 13.5 69.5t38 54.5t58.5 35.5t74 12.5q42 0 83.5 -12.5t67.5 -39.5l-65 -100q-16 19 -44 19q-17 0 -31.5 -10.5t-14.5 -28.5v-22h98v-156h-98v-327h-180z" />
    <glyph glyph-name="f_f_l" unicode="ffl" horiz-adv-x="1022" 
d="M458 0v327h-80v156h80v22q0 37 13.5 69t38 54.5t58.5 35.5t74 13q35 0 63.5 -6.5t48.5 -17.5l-33 -122q-7 5 -17.5 9t-22.5 4q-18 0 -30.5 -11t-12.5 -28v-22h98v-156h-98v-327h-180zM792 0v667h180v-667h-180zM87 0v327h-80v156h80v22q0 38 13.5 69.5t38 54.5t58.5 35.5
t74 12.5q42 0 83.5 -12.5t67.5 -39.5l-65 -100q-16 19 -44 19q-17 0 -31.5 -10.5t-14.5 -28.5v-22h98v-156h-98v-327h-180z" />
    <glyph glyph-name=".notdef" horiz-adv-x="459" 
d="M54 -90v842h351v-842h-351zM373 722h-288v-782h288v782z" />
    <glyph glyph-name=".null" horiz-adv-x="0" 
 />
    <glyph glyph-name=".null" horiz-adv-x="0" 
 />
    <glyph glyph-name="nonmarkingreturn" unicode="&#xd;" horiz-adv-x="0" 
 />
    <glyph glyph-name="space" unicode=" " horiz-adv-x="255" 
 />
    <glyph glyph-name="nonbreakingspace" unicode="&#xa0;" horiz-adv-x="255" 
 />
    <glyph glyph-name="thinspace" unicode="&#x2009;" horiz-adv-x="51" 
 />
    <glyph glyph-name="zero" unicode="0" horiz-adv-x="628" 
d="M314 -12q-75 0 -130.5 28.5t-92 76t-55 110t-18.5 130.5t18.5 130t55 109.5t92 76t130.5 28.5t130.5 -28.5t92 -76t55 -109.5t18.5 -130t-18.5 -130.5t-55 -110t-92 -76t-130.5 -28.5zM314 166q48 0 70.5 41t22.5 126t-22.5 125.5t-70.5 40.5t-70.5 -40.5t-22.5 -125.5
t22.5 -126t70.5 -41z" />
    <glyph glyph-name="zero.pzero" horiz-adv-x="628" 
d="M314 -12q-84 0 -146 37l-17 -25h-133l68 99q-35 48 -51.5 108t-16.5 126q0 68 18.5 130t55 109.5t92 76t130.5 28.5q42 0 78 -9.5t66 -26.5l18 26h133l-69 -100q35 -48 52.5 -108t17.5 -126q0 -68 -18.5 -130.5t-55 -110t-92 -76t-130.5 -28.5zM314 166q48 0 70.5 41
t22.5 126q0 10 -0.5 19.5t-1.5 18.5l-133 -195q17 -10 42 -10zM221 333v-19t1 -17l132 193q-18 9 -40 9q-48 0 -70.5 -40.5t-22.5 -125.5z" />
    <glyph glyph-name="one" unicode="1" horiz-adv-x="483" 
d="M227 0v410l-113 -112l-114 119l255 250h174v-667h-202z" />
    <glyph glyph-name="two" unicode="2" horiz-adv-x="613" 
d="M41 0v157q76 54 130.5 93t91.5 67t59 47t34 33.5t15.5 25.5t3.5 24q0 24 -22.5 38t-54.5 14q-54 0 -96 -18.5t-80 -50.5l-110 134q29 31 63.5 52.5t71.5 35t74.5 19.5t72.5 6q65 0 117.5 -17t90 -47.5t58 -73t20.5 -92.5q0 -34 -10.5 -66t-35.5 -64.5t-65 -67t-100 -73.5
h217v-176h-545z" />
    <glyph glyph-name="three" unicode="3" horiz-adv-x="617" 
d="M300 -12q-100 0 -173 29.5t-115 74.5l99 138q19 -17 43 -29t48 -20t47.5 -11.5t42.5 -3.5q50 0 73.5 13.5t23.5 31.5q0 9 -3.5 15.5t-14.5 11t-31.5 7t-53.5 2.5h-26t-29.5 -0.5t-26 -1t-15.5 -0.5v179q5 0 17.5 -0.5t27 -0.5h29h23.5q48 0 70 8.5t22 24.5q0 23 -27.5 33
t-71.5 10q-43 0 -85.5 -14.5t-77.5 -43.5l-95 126q45 49 113.5 79.5t166.5 30.5q69 0 121 -13.5t87 -38t52.5 -58.5t17.5 -75q0 -27 -11 -51.5t-30.5 -44t-46.5 -33.5t-59 -19q28 -3 56 -15t50.5 -31.5t37 -47.5t14.5 -62q0 -45 -21 -81.5t-59 -63t-91.5 -41t-118.5 -14.5z
" />
    <glyph glyph-name="four" unicode="4" horiz-adv-x="636" 
d="M339 0v107h-321v155l243 405h280v-384h77v-176h-77v-107h-202zM339 493l-126 -210h126v210z" />
    <glyph glyph-name="five" unicode="5" horiz-adv-x="626" 
d="M311 -12q-90 0 -160 24.5t-119 69.5l108 142q35 -29 80 -43.5t89 -14.5q51 0 72.5 17t21.5 38q0 23 -20.5 39t-67.5 16q-38 0 -68 -11t-56 -35l-139 32v405h510v-176h-308v-94q24 23 60.5 37t78.5 14q43 0 82 -15.5t68.5 -44t47 -68.5t17.5 -90q0 -55 -20 -100
t-58.5 -76.5t-93.5 -48.5t-125 -17z" />
    <glyph glyph-name="six" unicode="6" horiz-adv-x="625" 
d="M336 -12q-82 0 -142 26.5t-99 72.5t-58 109t-19 136q0 84 25.5 148t72 108t110.5 66.5t142 22.5q57 0 112.5 -15.5t95.5 -42.5l-85 -156q-29 20 -57.5 28t-65.5 8q-25 0 -51 -6.5t-47 -21t-34.5 -36.5t-13.5 -52v-2q26 33 67.5 50.5t87.5 17.5q45 0 87.5 -14.5
t75.5 -42.5t53 -69.5t20 -94.5q0 -54 -21 -98.5t-58 -76t-88 -48.5t-110 -17zM323 166q38 0 61.5 16.5t23.5 37.5q0 16 -9 27t-22.5 18t-30 10t-31.5 3q-26 0 -50 -5.5t-44 -21.5q1 -17 7.5 -32.5t18.5 -27t31 -18.5t45 -7z" />
    <glyph glyph-name="seven" unicode="7" horiz-adv-x="575" 
d="M120 0l211 491h-313v176h545v-140l-222 -527h-221z" />
    <glyph glyph-name="eight" unicode="8" horiz-adv-x="630" 
d="M315 -12q-56 0 -109 10.5t-95 33.5t-67.5 59t-25.5 87q0 54 35 98t92 68q-53 22 -84.5 58.5t-31.5 95.5q0 49 25.5 83t66 55.5t92 31t102.5 9.5t102.5 -9.5t92 -31t66 -55.5t25.5 -83q0 -59 -32 -95.5t-85 -58.5q57 -24 92.5 -68t35.5 -98q0 -51 -25.5 -87t-67.5 -59
t-95.5 -33.5t-108.5 -10.5zM315 422q31 5 55.5 17.5t24.5 28.5q0 20 -21 32.5t-59 12.5t-59.5 -12.5t-21.5 -32.5q0 -16 25 -28.5t56 -17.5zM315 152q42 0 67 14t25 35q0 10 -8.5 18.5t-22 15t-29.5 11.5t-32 7q-16 -2 -32.5 -7t-29.5 -11.5t-21.5 -15t-8.5 -18.5
q0 -21 24.5 -35t67.5 -14z" />
    <glyph glyph-name="nine" unicode="9" horiz-adv-x="625" 
d="M257 -11q-57 0 -112.5 15.5t-95.5 42.5l85 156q29 -20 57.5 -28t65.5 -8q32 0 58.5 9t46 24.5t30.5 36.5t11 45v3q-26 -33 -67.5 -50.5t-87.5 -17.5q-45 0 -87.5 14.5t-75.5 42.5t-53 69.5t-20 94.5q0 54 21 98.5t58 76t88 48.5t110 17q82 0 142 -26.5t99 -72.5t58 -109
t19 -136q0 -84 -25.5 -148t-72 -108t-110.5 -66.5t-142 -22.5zM310 388q26 0 50 5.5t44 21.5q-3 34 -26.5 59.5t-76.5 25.5q-38 0 -61 -16.5t-23 -37.5q0 -16 9 -27t22.5 -18t30 -10t31.5 -3z" />
    <glyph glyph-name="zero.tnum" unicode="&#xf639;" horiz-adv-x="648" 
d="M324 -12q-75 0 -130.5 28.5t-92 76t-55 110t-18.5 130.5t18.5 130t55 109.5t92 76t130.5 28.5t130.5 -28.5t92 -76t55 -109.5t18.5 -130t-18.5 -130.5t-55 -110t-92 -76t-130.5 -28.5zM324 166q48 0 70.5 41t22.5 126t-22.5 125.5t-70.5 40.5t-70.5 -40.5t-22.5 -125.5
t22.5 -126t70.5 -41z" />
    <glyph glyph-name="zero.tzero" unicode="&#xf638;" horiz-adv-x="648" 
d="M324 -12q-84 0 -146 37l-17 -25h-133l68 99q-35 48 -51.5 108t-16.5 126q0 68 18.5 130t55 109.5t92 76t130.5 28.5q42 0 78 -9.5t66 -26.5l18 26h133l-69 -100q35 -48 52.5 -108t17.5 -126q0 -68 -18.5 -130.5t-55 -110t-92 -76t-130.5 -28.5zM324 166q48 0 70.5 41
t22.5 126q0 10 -0.5 19.5t-1.5 18.5l-133 -195q17 -10 42 -10zM231 333v-19t1 -17l132 193q-18 9 -40 9q-48 0 -70.5 -40.5t-22.5 -125.5z" />
    <glyph glyph-name="one.tnum" unicode="&#xf6dc;" horiz-adv-x="648" 
d="M305 0v410l-113 -112l-114 119l255 250h174v-667h-202z" />
    <glyph glyph-name="two.tnum" unicode="&#xf63a;" horiz-adv-x="648" 
d="M66 0v157q76 54 130.5 93t91.5 67t59 47t34 33.5t15.5 25.5t3.5 24q0 24 -22.5 38t-54.5 14q-54 0 -96 -18.5t-80 -50.5l-110 134q29 31 63.5 52.5t71.5 35t74.5 19.5t72.5 6q65 0 117.5 -17t90 -47.5t58 -73t20.5 -92.5q0 -34 -10.5 -66t-35.5 -64.5t-65 -67t-100 -73.5
h217v-176h-545z" />
    <glyph glyph-name="three.tnum" unicode="&#xf63b;" horiz-adv-x="648" 
d="M319 -12q-100 0 -173 29.5t-115 74.5l99 138q19 -17 43 -29t48 -20t47.5 -11.5t42.5 -3.5q50 0 73.5 13.5t23.5 31.5q0 9 -3.5 15.5t-14.5 11t-31.5 7t-53.5 2.5h-26t-29.5 -0.5t-26 -1t-15.5 -0.5v179q5 0 17.5 -0.5t27 -0.5h29h23.5q48 0 70 8.5t22 24.5q0 23 -27.5 33
t-71.5 10q-43 0 -85.5 -14.5t-77.5 -43.5l-95 126q45 49 113.5 79.5t166.5 30.5q69 0 121 -13.5t87 -38t52.5 -58.5t17.5 -75q0 -27 -11 -51.5t-30.5 -44t-46.5 -33.5t-59 -19q28 -3 56 -15t50.5 -31.5t37 -47.5t14.5 -62q0 -45 -21 -81.5t-59 -63t-91.5 -41t-118.5 -14.5z
" />
    <glyph glyph-name="four.tnum" unicode="&#xf63c;" horiz-adv-x="648" 
d="M341 0v107h-321v155l243 405h280v-384h77v-176h-77v-107h-202zM341 493l-126 -210h126v210z" />
    <glyph glyph-name="five.tnum" unicode="&#xf63d;" horiz-adv-x="648" 
d="M318 -12q-90 0 -160 24.5t-119 69.5l108 142q35 -29 80 -43.5t89 -14.5q51 0 72.5 17t21.5 38q0 23 -20.5 39t-67.5 16q-38 0 -68 -11t-56 -35l-139 32v405h510v-176h-308v-94q24 23 60.5 37t78.5 14q43 0 82 -15.5t68.5 -44t47 -68.5t17.5 -90q0 -55 -20 -100
t-58.5 -76.5t-93.5 -48.5t-125 -17z" />
    <glyph glyph-name="six.tnum" unicode="&#xf63e;" horiz-adv-x="648" 
d="M349 -12q-82 0 -142 26.5t-99 72.5t-58 109t-19 136q0 84 25.5 148t72 108t110.5 66.5t142 22.5q57 0 112.5 -15.5t95.5 -42.5l-85 -156q-29 20 -57.5 28t-65.5 8q-25 0 -51 -6.5t-47 -21t-34.5 -36.5t-13.5 -52v-2q26 33 67.5 50.5t87.5 17.5q45 0 87.5 -14.5
t75.5 -42.5t53 -69.5t20 -94.5q0 -54 -21 -98.5t-58 -76t-88 -48.5t-110 -17zM336 166q38 0 61.5 16.5t23.5 37.5q0 16 -9 27t-22.5 18t-30 10t-31.5 3q-26 0 -50 -5.5t-44 -21.5q1 -17 7.5 -32.5t18.5 -27t31 -18.5t45 -7z" />
    <glyph glyph-name="seven.tnum" unicode="&#xf63f;" horiz-adv-x="648" 
d="M155 0l211 491h-313v176h545v-140l-222 -527h-221z" />
    <glyph glyph-name="eight.tnum" unicode="&#xf640;" horiz-adv-x="648" 
d="M324 -12q-56 0 -109 10.5t-95 33.5t-67.5 59t-25.5 87q0 54 35 98t92 68q-53 22 -84.5 58.5t-31.5 95.5q0 49 25.5 83t66 55.5t92 31t102.5 9.5t102.5 -9.5t92 -31t66 -55.5t25.5 -83q0 -59 -32 -95.5t-85 -58.5q57 -24 92.5 -68t35.5 -98q0 -51 -25.5 -87t-67.5 -59
t-95.5 -33.5t-108.5 -10.5zM324 422q31 5 55.5 17.5t24.5 28.5q0 20 -21 32.5t-59 12.5t-59.5 -12.5t-21.5 -32.5q0 -16 25 -28.5t56 -17.5zM324 152q42 0 67 14t25 35q0 10 -8.5 18.5t-22 15t-29.5 11.5t-32 7q-16 -2 -32.5 -7t-29.5 -11.5t-21.5 -15t-8.5 -18.5
q0 -21 24.5 -35t67.5 -14z" />
    <glyph glyph-name="nine.tnum" unicode="&#xf641;" horiz-adv-x="648" 
d="M271 -11q-57 0 -112.5 15.5t-95.5 42.5l85 156q29 -20 57.5 -28t65.5 -8q32 0 58.5 9t46 24.5t30.5 36.5t11 45v3q-26 -33 -67.5 -50.5t-87.5 -17.5q-45 0 -87.5 14.5t-75.5 42.5t-53 69.5t-20 94.5q0 54 21 98.5t58 76t88 48.5t110 17q82 0 142 -26.5t99 -72.5t58 -109
t19 -136q0 -84 -25.5 -148t-72 -108t-110.5 -66.5t-142 -22.5zM324 388q26 0 50 5.5t44 21.5q-3 34 -26.5 59.5t-76.5 25.5q-38 0 -61 -16.5t-23 -37.5q0 -16 9 -27t22.5 -18t30 -10t31.5 -3z" />
    <glyph glyph-name="zero.tonum" unicode="&#xf643;" horiz-adv-x="648" 
d="M620 275q0 -59 -18.5 -111t-55 -91t-92 -62t-130.5 -23t-130.5 23t-92 62t-55 91t-18.5 111t18.5 111.5t55 91.5t92 61.5t130.5 22.5t130.5 -22.5t92 -61.5t55 -91.5t18.5 -111.5zM417 275q0 52 -25.5 80.5t-67.5 28.5t-67.5 -28.5t-25.5 -80.5t25.5 -80.5t67.5 -28.5
t67.5 28.5t25.5 80.5z" />
    <glyph glyph-name="zero.tonumzero" horiz-adv-x="648" 
d="M620 275q0 -59 -18.5 -111t-55 -91t-92 -62t-130.5 -23q-43 0 -79.5 8t-66.5 22l-15 -18h-138l68 81q-33 38 -49 88t-16 106q0 59 18.5 111.5t55 91.5t92 61.5t130.5 22.5q43 0 79.5 -8t66.5 -22l15 18h138l-68 -82q32 -38 48.5 -87.5t16.5 -105.5zM417 275
q0 7 -0.5 13.5t-1.5 12.5l-112 -133q5 -2 10.5 -2h10.5q42 0 67.5 28.5t25.5 80.5zM231 275v-14t2 -13l111 134q-5 1 -10 1.5t-10 0.5q-42 0 -67.5 -28.5t-25.5 -80.5z" />
    <glyph glyph-name="one.tonum" unicode="&#xf644;" horiz-adv-x="648" 
d="M305 0v293l-113 -112l-114 119l255 250h174v-550h-202z" />
    <glyph glyph-name="two.tonum" unicode="&#xf645;" horiz-adv-x="648" 
d="M66 0v157q97 26 158.5 53t96 51t47 44.5t12.5 34.5q0 21 -18 32.5t-47 11.5q-46 0 -86 -16t-82 -53l-110 134q29 31 63.5 52.5t71 35t74 19.5t72.5 6q131 0 199 -50t68 -135q0 -33 -14.5 -65t-37.5 -59t-51.5 -47t-56.5 -30h148v-176h-507z" />
    <glyph glyph-name="three.tonum" unicode="&#xf646;" horiz-adv-x="648" 
d="M319 -126q-100 0 -173 29.5t-115 74.5l99 138q19 -17 43 -29t48 -20t47.5 -11.5t42.5 -3.5q50 0 73.5 13.5t23.5 31.5q0 9 -3.5 15.5t-14.5 11t-31.5 7t-53.5 2.5h-26t-29.5 -0.5t-26 -1t-15.5 -0.5v179q5 0 17.5 -0.5t27 -0.5h29h23.5q48 0 70 8.5t22 24.5
q0 23 -27.5 33t-71.5 10q-43 0 -85.5 -14.5t-77.5 -43.5l-95 126q45 49 113.5 79.5t166.5 30.5q69 0 121 -13.5t87 -38t52.5 -58.5t17.5 -75q0 -27 -11 -51.5t-30.5 -44t-46.5 -33.5t-59 -19q28 -3 56 -15t50.5 -31.5t37 -47.5t14.5 -62q0 -45 -21 -81.5t-59 -63t-91.5 -41
t-118.5 -14.5z" />
    <glyph glyph-name="four.tonum" unicode="&#xf647;" horiz-adv-x="648" 
d="M543 0v-117h-202v117h-321v155l243 395h280v-374h77v-176h-77zM341 376l-126 -200h126v200z" />
    <glyph glyph-name="five.tonum" unicode="&#xf648;" horiz-adv-x="648" 
d="M318 -128q-90 0 -160 24.5t-119 69.5l108 142q35 -29 80 -43.5t89 -14.5q51 0 72.5 17t21.5 38q0 23 -20.5 39t-67.5 16q-38 0 -68 -11t-56 -35l-139 32v405h510v-176h-308v-94q24 23 60.5 37t78.5 14q43 0 82 -15.5t68.5 -44t47 -68.5t17.5 -90q0 -55 -20 -100
t-58.5 -76.5t-93.5 -48.5t-125 -17z" />
    <glyph glyph-name="six.tonum" unicode="&#xf649;" horiz-adv-x="648" 
d="M349 -12q-82 0 -142 26.5t-99 72.5t-58 109t-19 136q0 84 25.5 148t72 108t110.5 66.5t142 22.5q57 0 112.5 -15.5t95.5 -42.5l-85 -156q-29 20 -57.5 28t-65.5 8q-25 0 -51 -6.5t-47 -21t-34.5 -36.5t-13.5 -52v-2q26 33 67.5 50.5t87.5 17.5q45 0 87.5 -14.5
t75.5 -42.5t53 -69.5t20 -94.5q0 -54 -21 -98.5t-58 -76t-88 -48.5t-110 -17zM336 166q38 0 61.5 16.5t23.5 37.5q0 16 -9 27t-22.5 18t-30 10t-31.5 3q-26 0 -50 -5.5t-44 -21.5q1 -17 7.5 -32.5t18.5 -27t31 -18.5t45 -7z" />
    <glyph glyph-name="seven.tonum" unicode="&#xf64a;" horiz-adv-x="648" 
d="M155 -116l211 491h-313v176h545v-140l-222 -527h-221z" />
    <glyph glyph-name="eight.tonum" unicode="&#xf64b;" horiz-adv-x="648" 
d="M324 -12q-56 0 -109 10.5t-95 33.5t-67.5 59t-25.5 87q0 54 35 98t92 68q-53 22 -84.5 58.5t-31.5 95.5q0 49 25.5 83t66 55.5t92 31t102.5 9.5t102.5 -9.5t92 -31t66 -55.5t25.5 -83q0 -59 -32 -95.5t-85 -58.5q57 -24 92.5 -68t35.5 -98q0 -51 -25.5 -87t-67.5 -59
t-95.5 -33.5t-108.5 -10.5zM324 422q31 5 55.5 17.5t24.5 28.5q0 20 -21 32.5t-59 12.5t-59.5 -12.5t-21.5 -32.5q0 -16 25 -28.5t56 -17.5zM324 152q42 0 67 14t25 35q0 10 -8.5 18.5t-22 15t-29.5 11.5t-32 7q-16 -2 -32.5 -7t-29.5 -11.5t-21.5 -15t-8.5 -18.5
q0 -21 24.5 -35t67.5 -14z" />
    <glyph glyph-name="nine.tonum" unicode="&#xf64c;" horiz-adv-x="648" 
d="M271 -126q-57 0 -112.5 15.5t-95.5 42.5l85 156q29 -20 57.5 -28t65.5 -8q32 0 58.5 9t46 24.5t30.5 36.5t11 45v3q-26 -33 -67.5 -50.5t-87.5 -17.5q-45 0 -87.5 14.5t-75.5 42.5t-53 69.5t-20 94.5q0 54 21 98.5t58 76t88 48.5t110 17q82 0 142 -26.5t99 -72.5t58 -109
t19 -136q0 -84 -25.5 -148t-72 -108t-110.5 -66.5t-142 -22.5zM324 273q26 0 50 5.5t44 21.5q-3 34 -26.5 59.5t-76.5 25.5q-38 0 -61 -16.5t-23 -37.5q0 -16 9 -27t22.5 -18t30 -10t31.5 -3z" />
    <glyph glyph-name="zero.onum" unicode="&#xf730;" horiz-adv-x="628" 
d="M610 275q0 -59 -18.5 -111t-55 -91t-92 -62t-130.5 -23t-130.5 23t-92 62t-55 91t-18.5 111t18.5 111.5t55 91.5t92 61.5t130.5 22.5t130.5 -22.5t92 -61.5t55 -91.5t18.5 -111.5zM407 275q0 52 -25.5 80.5t-67.5 28.5t-67.5 -28.5t-25.5 -80.5t25.5 -80.5t67.5 -28.5
t67.5 28.5t25.5 80.5z" />
    <glyph glyph-name="zero.onumzero" horiz-adv-x="628" 
d="M611 275q0 -59 -18.5 -111t-55 -91t-92 -62t-130.5 -23q-43 0 -79.5 8t-66.5 22l-15 -18h-138l68 81q-33 38 -49 88t-16 106q0 59 18.5 111.5t55 91.5t92 61.5t130.5 22.5q43 0 79.5 -8t66.5 -22l15 18h138l-68 -82q32 -38 48.5 -87.5t16.5 -105.5zM408 275
q0 7 -0.5 13.5t-1.5 12.5l-112 -133q5 -2 10.5 -2h10.5q42 0 67.5 28.5t25.5 80.5zM222 275v-14t2 -13l111 134q-5 1 -10 1.5t-10 0.5q-42 0 -67.5 -28.5t-25.5 -80.5z" />
    <glyph glyph-name="one.onum" unicode="&#xf731;" horiz-adv-x="483" 
d="M227 0v293l-113 -112l-114 119l255 250h174v-550h-202z" />
    <glyph glyph-name="two.onum" unicode="&#xf732;" horiz-adv-x="587" 
d="M41 0v157q97 26 158.5 53t96 51t47 44.5t12.5 34.5q0 21 -18 32.5t-47 11.5q-46 0 -86 -16t-82 -53l-110 134q29 31 63.5 52.5t71 35t74 19.5t72.5 6q131 0 199 -50t68 -135q0 -33 -14.5 -65t-37.5 -59t-51.5 -47t-56.5 -30h148v-176h-507z" />
    <glyph glyph-name="three.onum" unicode="&#xf733;" horiz-adv-x="605" 
d="M289 -128q-100 0 -173 29.5t-115 74.5l99 138q19 -17 43 -29t48 -20t47.5 -11.5t42.5 -3.5q50 0 73.5 13.5t23.5 31.5q0 9 -3.5 15.5t-14.5 11t-31.5 7t-53.5 2.5h-26t-29.5 -0.5t-26 -1t-15.5 -0.5v179q5 0 17.5 -0.5t27 -0.5h29h23.5q48 0 70 8.5t22 24.5
q0 23 -27.5 33t-71.5 10q-43 0 -85.5 -14.5t-77.5 -43.5l-95 126q45 49 113.5 79.5t166.5 30.5q69 0 121 -13.5t87 -38t52.5 -58.5t17.5 -75q0 -27 -11 -51.5t-30.5 -44t-46.5 -33.5t-59 -19q28 -3 56 -15t50.5 -31.5t37 -47.5t14.5 -62q0 -45 -21 -81.5t-59 -63t-91.5 -41
t-118.5 -14.5z" />
    <glyph glyph-name="four.onum" unicode="&#xf734;" horiz-adv-x="636" 
d="M541 0v-117h-202v117h-321v155l243 395h280v-374h77v-176h-77zM339 376l-126 -200h126v200z" />
    <glyph glyph-name="five.onum" unicode="&#xf735;" horiz-adv-x="626" 
d="M311 -128q-90 0 -160 24.5t-119 69.5l108 142q35 -29 80 -43.5t89 -14.5q51 0 72.5 17t21.5 38q0 23 -20.5 39t-67.5 16q-38 0 -68 -11t-56 -35l-139 32v405h510v-176h-308v-94q24 23 60.5 37t78.5 14q43 0 82 -15.5t68.5 -44t47 -68.5t17.5 -90q0 -55 -20 -100
t-58.5 -76.5t-93.5 -48.5t-125 -17z" />
    <glyph glyph-name="six.onum" unicode="&#xf736;" horiz-adv-x="625" 
d="M336 -12q-82 0 -142 26.5t-99 72.5t-58 109t-19 136q0 84 25.5 148t72 108t110.5 66.5t142 22.5q57 0 112.5 -15.5t95.5 -42.5l-85 -156q-29 20 -57.5 28t-65.5 8q-25 0 -51 -6.5t-47 -21t-34.5 -36.5t-13.5 -52v-2q26 33 67.5 50.5t87.5 17.5q45 0 87.5 -14.5
t75.5 -42.5t53 -69.5t20 -94.5q0 -54 -21 -98.5t-58 -76t-88 -48.5t-110 -17zM323 166q38 0 61.5 16.5t23.5 37.5q0 16 -9 27t-22.5 18t-30 10t-31.5 3q-26 0 -50 -5.5t-44 -21.5q1 -17 7.5 -32.5t18.5 -27t31 -18.5t45 -7z" />
    <glyph glyph-name="seven.onum" unicode="&#xf737;" horiz-adv-x="575" 
d="M120 -116l211 491h-313v176h545v-140l-222 -527h-221z" />
    <glyph glyph-name="eight.onum" unicode="&#xf738;" horiz-adv-x="630" 
d="M315 -12q-56 0 -109 10.5t-95 33.5t-67.5 59t-25.5 87q0 54 35 98t92 68q-53 22 -84.5 58.5t-31.5 95.5q0 49 25.5 83t66 55.5t92 31t102.5 9.5t102.5 -9.5t92 -31t66 -55.5t25.5 -83q0 -59 -32 -95.5t-85 -58.5q57 -24 92.5 -68t35.5 -98q0 -51 -25.5 -87t-67.5 -59
t-95.5 -33.5t-108.5 -10.5zM315 422q31 5 55.5 17.5t24.5 28.5q0 20 -21 32.5t-59 12.5t-59.5 -12.5t-21.5 -32.5q0 -16 25 -28.5t56 -17.5zM315 152q42 0 67 14t25 35q0 10 -8.5 18.5t-22 15t-29.5 11.5t-32 7q-16 -2 -32.5 -7t-29.5 -11.5t-21.5 -15t-8.5 -18.5
q0 -21 24.5 -35t67.5 -14z" />
    <glyph glyph-name="nine.onum" unicode="&#xf739;" horiz-adv-x="625" 
d="M257 -127q-57 0 -112.5 15.5t-95.5 42.5l85 156q29 -20 57.5 -28t65.5 -8q32 0 58.5 9t46 24.5t30.5 36.5t11 45v3q-26 -33 -67.5 -50.5t-87.5 -17.5q-45 0 -87.5 14.5t-75.5 42.5t-53 69.5t-20 94.5q0 54 21 98.5t58 76t88 48.5t110 17q82 0 142 -26.5t99 -72.5t58 -109
t19 -136q0 -84 -25.5 -148t-72 -108t-110.5 -66.5t-142 -22.5zM310 272q26 0 50 5.5t44 21.5q-3 34 -26.5 59.5t-76.5 25.5q-38 0 -61 -16.5t-23 -37.5q0 -16 9 -27t22.5 -18t30 -10t31.5 -3z" />
    <glyph glyph-name="A" unicode="A" horiz-adv-x="710" 
d="M499 0l-24 78h-240l-24 -78h-229l246 667h254l246 -667h-229zM355 469l-66 -215h132z" />
    <glyph glyph-name="B" unicode="B" horiz-adv-x="697" 
d="M54 0v667h405q52 0 89.5 -15.5t61.5 -40t35.5 -55t11.5 -59.5q0 -63 -32.5 -102.5t-81.5 -50.5q27 -4 50 -18t40.5 -35.5t27 -49.5t9.5 -60q0 -35 -12 -67.5t-36.5 -58t-61.5 -40.5t-87 -15h-419zM412 421q16 0 28 11t12 29q0 17 -12 27.5t-28 10.5h-156v-78h156z
M418 168q22 0 34.5 11.5t12.5 30.5q0 18 -12.5 30.5t-34.5 12.5h-162v-85h162z" />
    <glyph glyph-name="C" unicode="C" horiz-adv-x="697" 
d="M385 -12q-78 0 -145.5 25t-116.5 70.5t-77 109t-28 140.5t28 140.5t77 109t116.5 70.5t145.5 25q66 0 115.5 -17.5t86.5 -45t61.5 -62.5t39.5 -69l-174 -81q-6 19 -18.5 37t-29.5 31t-38 21t-43 8q-36 0 -66 -13t-51.5 -35.5t-33 -53t-11.5 -65.5t11.5 -65.5t33 -53
t51.5 -35.5t66 -13q22 0 43 8t38 21t29.5 30.5t18.5 37.5l174 -80q-15 -33 -39.5 -68t-61 -63t-86.5 -46t-116 -18z" />
    <glyph glyph-name="D" unicode="D" horiz-adv-x="736" 
d="M54 0v667h298q79 0 146 -22t116 -64.5t76.5 -104.5t27.5 -142t-27.5 -142t-76.5 -105t-116 -65t-145 -22h-299zM352 176q38 0 68 13t50.5 34.5t31.5 50t11 60.5q0 34 -10 62.5t-29.5 49.5t-50 33t-70.5 12h-97v-315h96z" />
    <glyph glyph-name="E" unicode="E" 
d="M54 0v667h506v-176h-304v-66h297v-176h-297v-73h304v-176h-506z" />
    <glyph glyph-name="F" unicode="F" horiz-adv-x="592" 
d="M54 0v667h506v-176h-304v-66h297v-176h-297v-249h-202z" />
    <glyph glyph-name="G" unicode="G" horiz-adv-x="726" 
d="M385 -12q-76 0 -142.5 24t-116.5 68.5t-79 108.5t-29 144t29 144t79 108.5t116.5 68.5t142.5 24q60 0 107 -15t83 -39.5t61.5 -56t41.5 -63.5l-170 -87q-7 15 -18.5 30t-27.5 27t-35.5 19t-41.5 7q-36 0 -66 -13t-51.5 -35.5t-33 -53t-11.5 -65.5t11.5 -65.5t33 -53
t51.5 -35.5t66 -13q29 0 58.5 9t45.5 21v24h-124v176h325v-273q-56 -62 -131 -98.5t-174 -36.5z" />
    <glyph glyph-name="G.alt1" horiz-adv-x="726" 
d="M365 -12q-68 0 -131 24t-111 68.5t-76.5 108.5t-28.5 144t29 144t79 108.5t116.5 68.5t142.5 24q60 0 107 -15t83 -39.5t61.5 -56t41.5 -63.5l-170 -87q-7 15 -18.5 30t-27.5 27t-35.5 19t-41.5 7q-36 0 -66 -13t-51.5 -35.5t-33 -53t-11.5 -65.5t11.5 -65.5t33 -53
t51.5 -35.5t66 -13q40 0 71.5 16t50.5 39h-142v176h364q0 -100 -26 -176.5t-73.5 -128t-114.5 -78t-150 -26.5z" />
    <glyph glyph-name="H" unicode="H" horiz-adv-x="751" 
d="M495 0v255h-239v-255h-202v667h202v-236h239v236h202v-667h-202z" />
    <glyph glyph-name="I" unicode="I" horiz-adv-x="310" 
d="M54 0v667h202v-667h-202z" />
    <glyph glyph-name="J" unicode="J" horiz-adv-x="498" 
d="M186 -12q-49 0 -98 12t-88 42l82 154q17 -11 38.5 -20.5t47.5 -9.5q33 0 53.5 20t20.5 55v426h202v-429q0 -64 -18.5 -111t-52.5 -78t-81.5 -46t-105.5 -15z" />
    <glyph glyph-name="K" unicode="K" horiz-adv-x="671" 
d="M443 0l-150 235l-37 -50v-185h-202v667h202v-250l175 250h247l-252 -310l263 -357h-246z" />
    <glyph glyph-name="L" unicode="L" horiz-adv-x="536" 
d="M54 0v667h202v-491h253v-176h-455z" />
    <glyph glyph-name="M" unicode="M" horiz-adv-x="900" 
d="M644 0v401l-149 -401h-90l-149 401v-401h-202v667h279l117 -320l117 320h279v-667h-202z" />
    <glyph glyph-name="N" unicode="N" horiz-adv-x="750" 
d="M502 0l-246 338v-338h-202v667h208l232 -316v316h202v-667h-194z" />
    <glyph glyph-name="O" unicode="O" horiz-adv-x="766" 
d="M383 -12q-77 0 -144 25t-116 70.5t-77 109t-28 140.5t28 140.5t77 109t116 70.5t144 25t144 -25t116 -70.5t77 -109t28 -140.5t-28 -140.5t-77 -109t-116 -70.5t-144 -25zM383 166q36 0 65.5 13t50.5 35.5t32.5 53t11.5 65.5t-11.5 65.5t-32.5 53t-50.5 35.5t-65.5 13
t-65.5 -13t-50.5 -35.5t-32.5 -53t-11.5 -65.5t11.5 -65.5t32.5 -53t50.5 -35.5t65.5 -13z" />
    <glyph glyph-name="P" unicode="P" horiz-adv-x="662" 
d="M54 0v667h356q58 0 103 -18t75.5 -49.5t46 -73t15.5 -88.5t-15.5 -88t-46 -72.5t-75.5 -49.5t-103 -18h-154v-210h-202zM384 386q26 0 43.5 13t17.5 39q0 27 -17.5 40t-43.5 13h-128v-105h128z" />
    <glyph glyph-name="Q" unicode="Q" horiz-adv-x="766" 
d="M383 -12q-77 0 -144 25t-116 70.5t-77 109t-28 140.5t28 140.5t77 109t116 70.5t144 25t144 -25t116 -70.5t77 -109t28 -140.5q0 -68 -22 -125t-61 -101l36 -45l-140 -112l-47 58q-63 -20 -131 -20zM389 166l-46 58l140 112l50 -64q10 27 10 61q0 35 -11.5 65.5t-32.5 53
t-50.5 35.5t-65.5 13t-65.5 -13t-50.5 -35.5t-32.5 -53t-11.5 -65.5t11.5 -65.5t32.5 -53t50.5 -35.5t65.5 -13h6z" />
    <glyph glyph-name="R" unicode="R" horiz-adv-x="678" 
d="M421 0l-92 210h-73v-210h-202v667h356q58 0 103 -18t75.5 -49.5t46 -73t15.5 -88.5q0 -43 -11.5 -76.5t-29 -58t-38.5 -41t-41 -26.5l121 -236h-230zM379 386q26 0 46 12.5t20 40.5q0 27 -20 39.5t-46 12.5h-123v-105h123z" />
    <glyph glyph-name="S" unicode="S" horiz-adv-x="613" 
d="M313 -12q-107 0 -181.5 29t-128.5 77l105 150q38 -36 92.5 -61t122.5 -25q29 0 51.5 8t22.5 28q0 16 -27.5 23.5t-69 14.5t-89.5 18.5t-89.5 35t-69 64t-27.5 106.5q0 42 17.5 82t52.5 71t86.5 49.5t120.5 18.5q82 0 154 -23t129 -70l-108 -143q-44 33 -96 49.5
t-100 16.5q-30 0 -40.5 -8.5t-10.5 -21.5q0 -16 27.5 -24t68.5 -15.5t89.5 -19.5t89.5 -35t68.5 -62t27.5 -101q0 -55 -20 -98t-57 -73t-90.5 -45.5t-120.5 -15.5z" />
    <glyph glyph-name="T" unicode="T" horiz-adv-x="595" 
d="M197 0v491h-179v176h559v-176h-178v-491h-202z" />
    <glyph glyph-name="U" unicode="U" horiz-adv-x="767" 
d="M384 -12q-84 0 -146.5 21.5t-103 59.5t-60.5 90.5t-20 114.5v393h205v-386q0 -48 31 -81.5t94 -33.5q62 0 93 33.5t31 81.5v386h205v-392q0 -62 -20 -115t-60.5 -91t-102.5 -59.5t-146 -21.5z" />
    <glyph glyph-name="V" unicode="V" horiz-adv-x="710" 
d="M228 0l-246 667h229l144 -449l144 449h229l-246 -667h-254z" />
    <glyph glyph-name="W" unicode="W" horiz-adv-x="954" 
d="M563 0l-86 378l-86 -378h-212l-191 667h226l86 -408l101 408h152l101 -408l85 408h227l-191 -667h-212z" />
    <glyph glyph-name="X" unicode="X" horiz-adv-x="684" 
d="M464 0l-122 204l-122 -204h-238l223 342l-208 325h237l108 -190l106 190h239l-208 -324l223 -343h-238z" />
    <glyph glyph-name="Y" unicode="Y" horiz-adv-x="664" 
d="M232 0v265l-250 402h227l124 -225l122 225h227l-248 -402v-265h-202z" />
    <glyph glyph-name="Z" unicode="Z" horiz-adv-x="600" 
d="M36 0v160l254 331h-254v176h521v-159l-255 -332h262v-176h-528z" />
    <glyph glyph-name="a" unicode="a" horiz-adv-x="559" 
d="M329 0v46q-20 -26 -60.5 -42t-85.5 -16q-27 0 -56.5 9.5t-53.5 29t-40 49.5t-16 71q0 45 16 74.5t40 47.5t53.5 25t56.5 7q48 0 87 -14t59 -39v50q0 26 -22.5 43t-67.5 17q-34 0 -69.5 -12.5t-64.5 -34.5l-61 111q49 39 111 56t117 17q45 0 87.5 -9t76 -32t53.5 -62.5
t20 -99.5v-292h-180zM258 105q21 0 41.5 6.5t29.5 19.5v27q-9 13 -29.5 19.5t-41.5 6.5q-23 0 -43 -9t-20 -31q0 -11 5.5 -18.5t14.5 -12t20.5 -6.5t22.5 -2z" />
    <glyph glyph-name="a.alt1" 
d="M366 0v51q-31 -35 -65 -49t-71 -14q-44 0 -82.5 16.5t-67.5 48.5t-46 79.5t-17 109.5q0 60 16.5 107t45.5 79.5t67.5 49.5t83.5 17q37 0 71.5 -14t63.5 -49v51h181v-483h-180zM291 147q18 0 40 8.5t35 24.5v123q-13 16 -35 24t-40 8q-37 0 -63.5 -24t-26.5 -69t26.5 -70
t63.5 -25z" />
    <glyph glyph-name="b" unicode="b" 
d="M230 179q13 -16 35 -24t40 -8q37 0 63.5 24.5t26.5 70.5q0 45 -26.5 69.5t-63.5 24.5q-18 0 -40 -8.5t-35 -24.5v-124zM50 0v667h180v-235q29 35 64 49t72 14q45 0 83.5 -17t67.5 -49.5t45.5 -79.5t16.5 -107q0 -62 -17 -109.5t-46 -79.5t-67.5 -48.5t-82.5 -16.5
q-37 0 -71 14t-65 49v-51h-180z" />
    <glyph glyph-name="c" unicode="c" horiz-adv-x="502" 
d="M288 -12q-57 0 -106.5 18t-86 51t-57.5 80t-21 105q0 57 21 104t57.5 80t86 51t106.5 18q41 0 74.5 -8.5t59 -21.5t43.5 -29.5t28 -31.5l-116 -109q-11 17 -31.5 29t-49.5 12q-38 0 -66.5 -23.5t-28.5 -70.5t28.5 -71t66.5 -24q29 0 49.5 12.5t31.5 29.5l116 -110
q-10 -15 -28 -31t-43.5 -29.5t-59 -22t-74.5 -8.5z" />
    <glyph glyph-name="d" unicode="d" 
d="M366 0v51q-31 -35 -65 -49t-71 -14q-44 0 -82.5 16.5t-67.5 48.5t-46 79.5t-17 109.5q0 60 16.5 107t45.5 79.5t67.5 49.5t83.5 17q37 0 72 -14t64 -49v235h180v-667h-180zM291 147q18 0 40 8.5t35 24.5v124q-13 16 -35 24t-40 8q-37 0 -63.5 -24.5t-26.5 -69.5t26.5 -70
t63.5 -25z" />
    <glyph glyph-name="e" unicode="e" horiz-adv-x="543" 
d="M286 -12q-57 0 -106 17.5t-85 50t-57 79.5t-21 107q0 52 19 98.5t54 80.5t83 54t107 20q53 0 99 -18.5t79.5 -53.5t53 -85.5t19.5 -114.5v-37h-328q8 -23 33.5 -42t70.5 -19q10 0 25.5 2.5t31.5 7t30.5 10.5t23.5 14l74 -111q-18 -15 -42.5 -26.5t-51.5 -19t-56 -11
t-56 -3.5zM360 300q-2 8 -6.5 18t-13.5 19t-23.5 15t-36.5 6q-21 0 -35 -6t-23 -15t-14 -19t-7 -18h159z" />
    <glyph glyph-name="f" unicode="f" horiz-adv-x="371" 
d="M87 0v327h-80v156h80v22q0 38 13.5 69.5t38 54.5t58.5 35.5t74 12.5q42 0 83.5 -12.5t67.5 -39.5l-65 -100q-16 19 -44 19q-17 0 -31.5 -10.5t-14.5 -28.5v-22h98v-156h-98v-327h-180z" />
    <glyph glyph-name="f.alt1" horiz-adv-x="371" 
d="M87 0v327h-80v156h80v22q0 37 13.5 69t38 54.5t58.5 35.5t74 13q35 0 63.5 -6.5t48.5 -17.5l-33 -122q-7 5 -17.5 9t-22.5 4q-18 0 -30.5 -11t-12.5 -28v-22h98v-156h-98v-327h-180z" />
    <glyph glyph-name="g" unicode="g" horiz-adv-x="595" 
d="M253 -196q-63 0 -117.5 17t-102.5 55l76 128q28 -28 66.5 -40.5t77.5 -12.5q16 0 35.5 4t36.5 15t28.5 30.5t11.5 51.5v26q-31 -35 -64.5 -50t-71.5 -15q-44 0 -82.5 14.5t-67 44t-45.5 75t-17 107.5q0 60 16.5 105.5t45 75.5t67 45t83.5 15q38 0 72.5 -14t63.5 -49v51
h180v-431q0 -52 -13.5 -91t-35.5 -66.5t-52 -45t-62 -27.5t-65.5 -14t-63.5 -4zM291 172q17 0 39 8t35 23v102q-13 15 -35 23t-39 8q-37 0 -63.5 -19t-26.5 -63t26.5 -63t63.5 -19z" />
    <glyph glyph-name="h" unicode="h" horiz-adv-x="608" 
d="M378 0v269q0 38 -19 52.5t-51 14.5q-31 0 -48.5 -12.5t-28.5 -25.5v-298h-180v667h180v-239q21 24 61.5 45.5t104.5 21.5q42 0 72.5 -11.5t50 -32t29 -48t9.5 -58.5v-345h-180z" />
    <glyph glyph-name="i" unicode="i" horiz-adv-x="280" 
d="M140 518q-21 0 -39.5 8t-32 21.5t-21.5 32t-8 39.5t8 39.5t21.5 32t32 21.5t39.5 8t39.5 -8t32 -21.5t21.5 -32t8 -39.5t-8 -39.5t-21.5 -32t-32 -21.5t-39.5 -8zM50 0v483h180v-483h-180z" />
    <glyph glyph-name="j" unicode="j" horiz-adv-x="280" 
d="M140 518q-21 0 -39.5 8t-32 21.5t-21.5 32t-8 39.5t8 39.5t21.5 32t32 21.5t39.5 8t39.5 -8t32 -21.5t21.5 -32t8 -39.5t-8 -39.5t-21.5 -32t-32 -21.5t-39.5 -8zM29 -196q-27 0 -46 2t-34 5.5t-27.5 10t-27.5 15.5l43 133q15 -11 27 -15t33 -4q25 0 39 17.5t14 52.5v462
h180v-462q0 -47 -11.5 -86.5t-36.5 -68.5t-63 -45.5t-90 -16.5z" />
    <glyph glyph-name="k" unicode="k" horiz-adv-x="557" 
d="M348 0l-83 156l-35 -47v-109h-180v667h180v-356l111 172h217l-166 -220l177 -263h-221z" />
    <glyph glyph-name="l" unicode="l" horiz-adv-x="280" 
d="M50 0v667h180v-667h-180z" />
    <glyph glyph-name="l.alt1" horiz-adv-x="328" 
d="M216 -12q-81 0 -123.5 38t-42.5 114v527h180v-475q0 -19 11 -32t29 -13q12 0 22.5 3t13.5 6l32 -136q-14 -13 -45 -22.5t-77 -9.5z" />
    <glyph glyph-name="m" unicode="m" horiz-adv-x="897" 
d="M667 0v282q0 22 -12.5 38t-42.5 16t-47.5 -13.5t-26.5 -24.5v-298h-180v282q0 22 -12 38t-43 16q-29 0 -46.5 -13.5t-26.5 -24.5v-298h-180v483h180v-55q8 10 23 22t35.5 22t46.5 16.5t55 6.5q51 0 86.5 -20t52.5 -65q10 16 27 31t38.5 27t48 19.5t55.5 7.5q67 0 108 -35
t41 -110v-350h-180z" />
    <glyph glyph-name="n" unicode="n" horiz-adv-x="607" 
d="M377 0v267q0 38 -19 53.5t-51 15.5q-31 0 -48.5 -12.5t-28.5 -25.5v-298h-180v483h180v-55q21 24 61.5 45.5t104.5 21.5q42 0 72.5 -12t50 -32.5t29 -48.5t9.5 -59v-343h-180z" />
    <glyph glyph-name="o" unicode="o" horiz-adv-x="577" 
d="M288 -12q-64 0 -114.5 20.5t-85 55.5t-53 81t-18.5 97t18.5 96.5t53 80.5t85 55.5t114.5 20.5t115 -20.5t85.5 -55.5t53 -80.5t18.5 -96.5t-18.5 -97t-53 -81t-85.5 -55.5t-115 -20.5zM288 147q42 0 64.5 27t22.5 68q0 40 -22.5 67t-64.5 27t-64 -27t-22 -67
q0 -41 22 -68t64 -27z" />
    <glyph glyph-name="p" unicode="p" horiz-adv-x="595" 
d="M366 -12q-38 0 -72 14t-64 49v-235h-180v667h180v-51q29 35 63.5 49t72.5 14q45 0 83.5 -16.5t67 -48.5t45 -79t16.5 -109t-16.5 -109.5t-45 -79.5t-67 -48.5t-83.5 -16.5zM304 147q36 0 63 24.5t27 70.5q0 45 -27 69.5t-63 24.5q-17 0 -39 -8.5t-35 -24.5v-123
q12 -15 34.5 -24t39.5 -9z" />
    <glyph glyph-name="q" unicode="q" horiz-adv-x="595" 
d="M291 147q17 0 39.5 9t34.5 24v123q-13 16 -35 24.5t-39 8.5q-36 0 -63 -24.5t-27 -69.5q0 -46 27 -70.5t63 -24.5zM229 -12q-45 0 -84 16.5t-67.5 48.5t-44.5 79.5t-16 109.5t16 109t44.5 79t67.5 48.5t84 16.5q38 0 72.5 -14t63.5 -49v51h180v-667h-180v235
q-30 -35 -64 -49t-72 -14z" />
    <glyph glyph-name="r" unicode="r" horiz-adv-x="390" 
d="M50 0v483h180v-53q11 13 28 25t36.5 21.5t41 15t42.5 5.5v-172q-15 5 -41 5q-29 0 -60.5 -8t-46.5 -26v-296h-180z" />
    <glyph glyph-name="s" unicode="s" horiz-adv-x="490" 
d="M246 -12q-33 0 -67 5.5t-65.5 15.5t-58.5 23.5t-46 29.5l72 121q14 -11 35.5 -22t45.5 -19.5t48.5 -14t44.5 -5.5q28 0 38 6t10 15q0 11 -20.5 15.5t-50.5 9t-66 11.5t-66 24t-50.5 47t-20.5 80q0 33 14 62.5t41.5 52.5t67.5 36.5t93 13.5q61 0 114 -17t95 -45l-66 -117
q-23 19 -61.5 34.5t-80.5 15.5q-20 0 -32.5 -6.5t-12.5 -14.5q0 -10 20.5 -14t50.5 -8.5t66 -12.5t66 -26t50.5 -49t20.5 -81q0 -36 -15.5 -66.5t-45 -52.5t-72 -34.5t-96.5 -12.5z" />
    <glyph glyph-name="t" unicode="t" horiz-adv-x="382" 
d="M253 -12q-81 0 -123.5 38t-42.5 114v187h-80v156h80v132h180v-132h98v-156h-98v-135q0 -19 11 -32t29 -13q12 0 22.5 3t13.5 6l32 -136q-14 -13 -45 -22.5t-77 -9.5z" />
    <glyph glyph-name="u" unicode="u" horiz-adv-x="606" 
d="M376 0v54q-11 -12 -26 -23.5t-35.5 -21t-46.5 -15.5t-58 -6q-42 0 -72.5 12t-50 32t-28.5 47.5t-9 58.5v345h180v-268q0 -37 18.5 -52.5t51.5 -15.5q30 0 47.5 12.5t28.5 25.5v298h180v-483h-180z" />
    <glyph glyph-name="v" unicode="v" horiz-adv-x="535" 
d="M172 0l-187 483h190l92 -276l93 276h190l-187 -483h-191z" />
    <glyph glyph-name="w" unicode="w" horiz-adv-x="805" 
d="M481 0l-79 270l-78 -270h-196l-140 483h185l64 -266l85 266h161l84 -266l64 266h186l-140 -483h-196z" />
    <glyph glyph-name="x" unicode="x" horiz-adv-x="521" 
d="M336 0l-75 128l-77 -128h-196l158 248l-148 235h197l65 -113l65 113h197l-148 -235l159 -248h-197z" />
    <glyph glyph-name="y" unicode="y" horiz-adv-x="535" 
d="M70 -28q8 -5 18.5 -7t19.5 -2q54 0 63 19l4 10l-190 491h190l92 -276l93 276h190l-210 -543q-16 -42 -39 -68t-51.5 -41t-62.5 -20.5t-72 -6.5q-5 0 -14 0.5t-19.5 1.5t-20.5 2.5t-16 3.5z" />
    <glyph glyph-name="y.alt1" horiz-adv-x="606" 
d="M264 -196q-63 0 -117.5 17t-102.5 55l76 128q26 -29 67.5 -41t76.5 -12q54 0 83 25.5t29 75.5v34q-11 -12 -26 -23.5t-35.5 -21t-46.5 -15.5t-58 -6q-42 0 -72.5 12t-50 32t-28.5 47.5t-9 58.5v313h180v-236q0 -37 18.5 -52.5t51.5 -15.5q30 0 47.5 12.5t28.5 25.5v266
h180v-412q0 -62 -19 -111.5t-56.5 -84t-92 -53t-124.5 -18.5z" />
    <glyph glyph-name="z" unicode="z" horiz-adv-x="486" 
d="M33 0v132l170 195h-170v156h416v-126l-174 -201h178v-156h-420z" />
    <glyph glyph-name="A.smcp" unicode="&#xf761;" horiz-adv-x="621" 
d="M425 550l213 -550h-208l-20 61h-198l-20 -61h-209l214 550h228zM311 365l-47 -143h94z" />
    <glyph glyph-name="B.smcp" unicode="&#xf762;" horiz-adv-x="618" 
d="M50 0v550h355q46 0 79 -13t54.5 -33t32 -45.5t10.5 -49.5q0 -49 -26.5 -81.5t-67.5 -43.5q47 -10 76.5 -46t29.5 -88q0 -29 -11 -56t-32.5 -48t-54.5 -33.5t-78 -12.5h-367zM375 151q13 0 21 7.5t8 18.5t-8 18.5t-21 7.5h-138v-52h138zM368 353q10 0 17 6.5t7 16.5
q0 9 -6.5 16t-17.5 7h-131v-46h131z" />
    <glyph glyph-name="C.smcp" unicode="&#xf763;" horiz-adv-x="588" 
d="M323 -12q-67 0 -123 21t-96.5 59t-63.5 91t-23 116q0 64 23 116.5t63.5 90.5t96.5 59t123 21q52 0 93.5 -14t73 -37.5t54 -53.5t35.5 -62l-157 -71q-11 31 -37 53t-62 22q-27 0 -48.5 -9.5t-37 -26.5t-24 -39.5t-8.5 -48.5t8.5 -48.5t24 -39.5t37 -26.5t48.5 -9.5
q36 0 62 21.5t37 52.5l157 -69q-13 -32 -35 -62t-54 -53.5t-74 -38t-93 -14.5z" />
    <glyph glyph-name="D.smcp" unicode="&#xf764;" horiz-adv-x="637" 
d="M50 0v550h263q69 0 125.5 -18t97 -53.5t62.5 -86.5t22 -117t-22 -117t-62.5 -86t-96.5 -53.5t-125 -18.5h-264zM313 161q31 0 53.5 9.5t37 25.5t21.5 36.5t7 42.5q0 24 -6 45t-19.5 36t-36.5 24t-56 9h-77v-228h76z" />
    <glyph glyph-name="E.smcp" unicode="&#xf765;" horiz-adv-x="530" 
d="M50 0v550h448v-155h-261v-40h255v-154h-255v-46h261v-155h-448z" />
    <glyph glyph-name="F.smcp" unicode="&#xf766;" horiz-adv-x="526" 
d="M50 0v550h448v-155h-261v-40h255v-155h-255v-200h-187z" />
    <glyph glyph-name="G.smcp" unicode="&#xf767;" horiz-adv-x="606" 
d="M326 -12q-65 0 -121.5 20t-98 57.5t-65.5 90.5t-24 119t24 119.5t65.5 90.5t98 57t121.5 20q45 0 82.5 -11.5t67.5 -30.5t52 -43t36 -49l-154 -84q-11 23 -32 38.5t-52 15.5q-56 0 -88 -35t-32 -88q0 -52 32 -88t88 -36q23 0 40.5 6t28.5 15v17h-92v144h278v-232
q-49 -52 -112.5 -82.5t-142.5 -30.5z" />
    <glyph glyph-name="G.smcp.alt1" horiz-adv-x="621" 
d="M316 -12q-62 0 -116 20t-95 57.5t-64.5 90.5t-23.5 119t24 119.5t65.5 90.5t98 57t121.5 20q45 0 82.5 -11.5t67.5 -30.5t52 -43t36 -49l-154 -83q-11 23 -32 38.5t-52 15.5q-56 0 -88 -35.5t-32 -88.5q0 -52 32 -88t88 -36q24 0 47.5 10.5t35.5 27.5h-106v144h305
q0 -91 -22 -156t-61 -107t-92.5 -62t-116.5 -20z" />
    <glyph glyph-name="H.smcp" unicode="&#xf768;" horiz-adv-x="666" 
d="M430 0v200h-193v-200h-187v550h187v-189h193v189h186v-550h-186z" />
    <glyph glyph-name="I.smcp" unicode="&#xf769;" horiz-adv-x="287" 
d="M50 0v550h187v-550h-187z" />
    <glyph glyph-name="J.smcp" unicode="&#xf76a;" horiz-adv-x="444" 
d="M157 -12q-42 0 -83.5 12t-73.5 39l68 142q14 -13 33.5 -21.5t39.5 -8.5q30 0 48 16.5t18 45.5v337h187v-355q0 -54 -16.5 -93t-47.5 -64.5t-74.5 -37.5t-98.5 -12z" />
    <glyph glyph-name="K.smcp" unicode="&#xf76b;" horiz-adv-x="598" 
d="M387 0l-125 186l-25 -32v-154h-187v550h187v-190l140 190h224l-218 -256l227 -294h-223z" />
    <glyph glyph-name="L.smcp" unicode="&#xf76c;" horiz-adv-x="479" 
d="M50 0v550h187v-389h217v-161h-404z" />
    <glyph glyph-name="M.smcp" unicode="&#xf76d;" horiz-adv-x="794" 
d="M558 0v300l-117 -300h-87l-117 300v-300h-187v550h246l101 -265l101 265h246v-550h-186z" />
    <glyph glyph-name="N.smcp" unicode="&#xf76e;" horiz-adv-x="665" 
d="M423 0l-187 261v-261h-186v550h203l176 -245v245h186v-550h-192z" />
    <glyph glyph-name="O.smcp" unicode="&#xf76f;" horiz-adv-x="647" 
d="M323 -12q-67 0 -123 21t-96.5 59t-63.5 91t-23 116t23 116t63.5 91t96.5 59t123 21t123 -21t97 -59t64 -91t23 -116t-23 -116t-64 -91t-97 -59t-123 -21zM323 151q27 0 49 9.5t37 26.5t23.5 39.5t8.5 48.5t-8.5 48.5t-23.5 39.5t-37 26.5t-49 9.5t-48.5 -9.5t-37 -26.5
t-24 -39.5t-8.5 -48.5t8.5 -48.5t24 -39.5t37 -26.5t48.5 -9.5z" />
    <glyph glyph-name="P.smcp" unicode="&#xf770;" horiz-adv-x="585" 
d="M50 0v550h320q48 0 86.5 -15.5t65 -42t40.5 -61.5t14 -74t-13 -74t-38.5 -61.5t-64.5 -42t-90 -15.5h-133v-164h-187zM346 325q18 0 29.5 9t11.5 23t-11.5 23t-29.5 9h-109v-64h109z" />
    <glyph glyph-name="Q.smcp" unicode="&#xf771;" horiz-adv-x="647" 
d="M323 -12q-67 0 -123 21t-96.5 59t-63.5 91t-23 116t23 116t63.5 91t96.5 59t123 21t123 -21t97 -59t64 -91t23 -116q0 -57 -18.5 -105.5t-52.5 -85.5l31 -37l-110 -86l-38 46q-27 -9 -57 -14t-62 -5zM325 151l-28 35l108 86l30 -37q6 18 6 40q0 26 -8.5 48.5t-23.5 39.5
t-37 26.5t-49 9.5t-48.5 -9.5t-37 -26.5t-24 -39.5t-8.5 -48.5t8.5 -48.5t24 -39.5t37 -26.5t48.5 -9.5h2z" />
    <glyph glyph-name="R.smcp" unicode="&#xf772;" horiz-adv-x="602" 
d="M368 0l-75 164h-56v-164h-187v550h320q48 0 86.5 -15.5t65 -42t40.5 -61.5t14 -74t-11 -68.5t-26.5 -50.5t-34 -34t-33.5 -20l106 -184h-209zM346 325q18 0 29.5 9t11.5 23t-11.5 23t-29.5 9h-109v-64h109z" />
    <glyph glyph-name="S.smcp" unicode="&#xf773;" horiz-adv-x="528" 
d="M260 -12q-85 0 -151.5 23.5t-105.5 55.5l79 137q15 -14 36 -26t45.5 -21t51 -14t52.5 -5q29 0 45.5 7t16.5 20q0 12 -22.5 17t-57 10.5t-74 15t-74 29t-57 53t-22.5 87.5q0 35 16 68.5t47 59.5t76 41.5t103 15.5q75 0 136 -20.5t108 -58.5l-83 -125q-16 12 -37 22t-43 17
t-43.5 11t-39.5 4q-28 0 -39.5 -7.5t-11.5 -17.5q0 -12 22.5 -17t57 -10.5t74 -14.5t74 -28.5t57 -52.5t22.5 -86q0 -91 -68.5 -140.5t-189.5 -49.5z" />
    <glyph glyph-name="T.smcp" unicode="&#xf774;" horiz-adv-x="501" 
d="M158 0v389h-143v161h471v-161h-142v-389h-186z" />
    <glyph glyph-name="U.smcp" unicode="&#xf775;" horiz-adv-x="669" 
d="M335 -12q-73 0 -126.5 17.5t-89 49t-52.5 75t-17 94.5v326h188v-308q0 -38 25 -64.5t72 -26.5q46 0 71 26.5t25 64.5v308h188v-325q0 -51 -17 -94.5t-52 -75t-88.5 -49.5t-126.5 -18z" />
    <glyph glyph-name="V.smcp" unicode="&#xf776;" horiz-adv-x="621" 
d="M197 0l-214 550h211l117 -350l119 350h208l-213 -550h-228z" />
    <glyph glyph-name="W.smcp" unicode="&#xf777;" horiz-adv-x="831" 
d="M483 0l-68 285l-67 -285h-194l-166 550h209l67 -310l81 310h141l81 -310l68 310h208l-166 -550h-194z" />
    <glyph glyph-name="X.smcp" unicode="&#xf778;" horiz-adv-x="601" 
d="M401 0l-101 159l-100 -159h-217l194 282l-180 268h216l87 -146l87 146h217l-180 -267l194 -283h-217z" />
    <glyph glyph-name="Y.smcp" unicode="&#xf779;" horiz-adv-x="583" 
d="M200 0v220l-217 330h208l102 -175l100 175h207l-216 -330v-220h-184z" />
    <glyph glyph-name="Z.smcp" unicode="&#xf77a;" horiz-adv-x="531" 
d="M32 0v133l200 254h-200v163h461v-132l-200 -255h206v-163h-467z" />
    <glyph glyph-name="Aacute" unicode="&#xc1;" horiz-adv-x="710" 
d="M499 0l-24 78h-240l-24 -78h-229l246 667h254l246 -667h-229zM355 469l-66 -215h132zM405 723h-120l120 144h155z" />
    <glyph glyph-name="Abreve" unicode="&#x102;" horiz-adv-x="710" 
d="M499 0l-24 78h-240l-24 -78h-229l246 667h254l246 -667h-229zM355 469l-66 -215h132zM530 779q-30 -41 -75.5 -64.5t-99.5 -23.5t-99.5 23.5t-76.5 64.5l76 62q17 -23 42 -38t58 -15q63 0 100 53l75 -62v0z" />
    <glyph glyph-name="Acircumflex" unicode="&#xc2;" horiz-adv-x="710" 
d="M419 723l-64 73l-61 -73h-105l88 144h156l91 -144h-105zM499 0l-24 78h-240l-24 -78h-229l246 667h254l246 -667h-229zM355 469l-66 -215h132z" />
    <glyph glyph-name="Adieresis" unicode="&#xc4;" horiz-adv-x="710" 
d="M553 785q0 -38 -26 -63.5t-64 -25.5q-37 0 -63 25.5t-26 63.5t26 63.5t63 25.5q38 0 64 -25.5t26 -63.5zM336 785q0 -38 -25.5 -63.5t-63.5 -25.5t-63.5 25.5t-25.5 63.5t25.5 63.5t63.5 25.5t63.5 -25.5t25.5 -63.5zM499 0l-24 78h-240l-24 -78h-229l246 667h254
l246 -667h-229zM355 469l-66 -215h132z" />
    <glyph glyph-name="Agrave" unicode="&#xc0;" horiz-adv-x="710" 
d="M499 0l-24 78h-240l-24 -78h-229l246 667h254l246 -667h-229zM355 469l-66 -215h132zM302 723l-155 144h155l120 -144h-120z" />
    <glyph glyph-name="Amacron" unicode="&#x100;" horiz-adv-x="710" 
d="M499 0l-24 78h-240l-24 -78h-229l246 667h254l246 -667h-229zM355 469l-66 -215h132zM173 718v97h363v-97h-363z" />
    <glyph glyph-name="Aogonek" unicode="&#x104;" horiz-adv-x="710" 
d="M793 -133q-17 -25 -41.5 -39t-59.5 -14q-21 0 -41 5.5t-35.5 16.5t-24.5 29t-9 43q0 53 39 92h-122l-24 78h-240l-24 -78h-229l246 667h254l246 -667q-37 -19 -51 -40.5t-14 -43.5q0 -20 10 -27t19 -7q14 0 22 8.5t13 19.5zM355 469l-66 -215h132z" />
    <glyph glyph-name="Aring" unicode="&#xc5;" horiz-adv-x="710" 
d="M499 0l-24 78h-240l-24 -78h-229l246 667h254l246 -667h-229zM355 469l-66 -215h132zM356 686q-23 0 -43.5 9t-35.5 24t-24 35.5t-9 43.5t9 43.5t24 35.5t35.5 24t43.5 9t43 -9t35 -24t23.5 -35.5t8.5 -43.5t-8.5 -43.5t-23.5 -35.5t-35 -24t-43 -9zM356 763
q14 0 24 10.5t10 24.5t-10 24.5t-24 10.5t-24.5 -10.5t-10.5 -24.5t10.5 -24.5t24.5 -10.5z" />
    <glyph glyph-name="Atilde" unicode="&#xc3;" horiz-adv-x="710" 
d="M499 0l-24 78h-240l-24 -78h-229l246 667h254l246 -667h-229zM355 469l-66 -215h132zM408 721q-23 0 -39.5 6.5t-28.5 15t-22 15t-20 6.5t-17 -9t-7 -28h-89q0 69 30 101.5t88 32.5q23 0 39.5 -6.5t28.5 -15t22 -15t20 -6.5t17 9t7 28h89q0 -69 -30 -101.5t-88 -32.5z
" />
    <glyph glyph-name="uni1EA0" unicode="&#x1ea0;" horiz-adv-x="710" 
d="M499 0l-24 78h-240l-24 -78h-229l246 667h254l246 -667h-229zM355 469l-66 -215h132zM356 -208q-37 0 -63 26t-26 63t26 63t63 26q18 0 34 -7t28 -19t19 -28.5t7 -34.5t-7 -34.5t-19 -28.5t-28 -19t-34 -7z" />
    <glyph glyph-name="uni1EA2" unicode="&#x1ea2;" horiz-adv-x="710" 
d="M499 0l-24 78h-240l-24 -78h-229l246 667h254l246 -667h-229zM355 469l-66 -215h132zM268 762q11 31 34.5 44.5t51.5 13.5q35 0 61.5 -17.5t26.5 -57.5q0 -14 -3.5 -25.5t-8.5 -22.5h-70q17 18 17 44q0 14 -7.5 19.5t-15.5 5.5q-11 0 -17.5 -7t-10.5 -16z" />
    <glyph glyph-name="uni1EA4" unicode="&#x1ea4;" horiz-adv-x="710" 
d="M419 615.75l-64 54.75l-61 -54.75h-105l88 108h156l91 -108h-105zM499 0l-24 78h-240l-24 -78h-229l246 667h254l246 -667h-229zM355 469l-66 -215h132zM609 655.5h-120l120 108h155z" />
    <glyph glyph-name="uni1EAC" unicode="&#x1eac;" horiz-adv-x="710" 
d="M499 0l-24 78h-240l-24 -78h-229l246 667h254l246 -667h-229zM355 469l-66 -215h132zM418 723l-64 73l-61 -73h-105l88 144h156l91 -144h-105zM356 -208q-37 0 -63 26t-26 63t26 63t63 26q18 0 34 -7t28 -19t19 -28.5t7 -34.5t-7 -34.5t-19 -28.5t-28 -19t-34 -7z" />
    <glyph glyph-name="uni1EA6" unicode="&#x1ea6;" horiz-adv-x="710" 
d="M419 615.75l-64 54.75l-61 -54.75h-105l88 108h156l91 -108h-105zM499 0l-24 78h-240l-24 -78h-229l246 667h254l246 -667h-229zM355 469l-66 -215h132zM107 655.5l-155 108h155l120 -108h-120z" />
    <glyph glyph-name="uni1EA8" unicode="&#x1ea8;" horiz-adv-x="710" 
d="M419 615.75l-64 54.75l-61 -54.75h-105l88 108h156l91 -108h-105zM499 0l-24 78h-240l-24 -78h-229l246 667h254l246 -667h-229zM355 469l-66 -215h132zM449 732.75q11 23.25 34.5 33.375t51.5 10.125q35 0 61.5 -13.125t26.5 -43.125q0 -10.5 -3.5 -19.125t-8.5 -16.875
h-70q17 13.5 17 33q0 10.5 -7.5 14.625t-15.5 4.125q-11 0 -17.5 -5.25t-10.5 -12z" />
    <glyph glyph-name="uni1EAE" unicode="&#x1eae;" horiz-adv-x="710" 
d="M499 0l-24 78h-240l-24 -78h-229l246 667h254l246 -667h-229zM355 469l-66 -215h132zM409 515.5h-120l120 72h155zM530 517.5q-30 -20.5 -75.5 -32.25t-99.5 -11.75t-99.5 11.75t-76.5 32.25l76 31q17 -11.5 42 -19t58 -7.5q63 0 100 26.5l75 -31v0z" />
    <glyph glyph-name="uni1EAA" unicode="&#x1eaa;" horiz-adv-x="710" 
d="M419 478l-64 36.5l-61 -36.5h-105l88 72h156l91 -72h-105zM499 0l-24 78h-240l-24 -78h-229l246 667h254l246 -667h-229zM355 469l-66 -215h132zM407 517q-23 0 -39.5 3.25t-28.5 7.5t-22 7.5t-20 3.25t-17 -4.5t-7 -14h-89q0 34.5 30 50.75t88 16.25q23 0 39.5 -3.25
t28.5 -7.5t22 -7.5t20 -3.25t17 4.5t7 14h89q0 -34.5 -30 -50.75t-88 -16.25z" />
    <glyph glyph-name="uni1EB0" unicode="&#x1eb0;" horiz-adv-x="710" 
d="M499 0l-24 78h-240l-24 -78h-229l246 667h254l246 -667h-229zM355 469l-66 -215h132zM303 515.5l-155 72h155l120 -72h-120zM530 515q-30 -20.5 -75.5 -32.25t-99.5 -11.75t-99.5 11.75t-76.5 32.25l76 31q17 -11.5 42 -19t58 -7.5q63 0 100 26.5l75 -31v0z" />
    <glyph glyph-name="uni1EB2" unicode="&#x1eb2;" horiz-adv-x="710" 
d="M499 0l-24 78h-240l-24 -78h-229l246 667h254l246 -667h-229zM355 469l-66 -215h132zM268 576q11 15.5 34.5 22.25t51.5 6.75q35 0 61.5 -8.75t26.5 -28.75q0 -7 -3.5 -12.75t-8.5 -11.25h-70q17 9 17 22q0 7 -7.5 9.75t-15.5 2.75q-11 0 -17.5 -3.5t-10.5 -8zM530 515
q-30 -20.5 -75.5 -32.25t-99.5 -11.75t-99.5 11.75t-76.5 32.25l76 31q17 -11.5 42 -19t58 -7.5q63 0 100 26.5l75 -31v0z" />
    <glyph glyph-name="uni1EB4" unicode="&#x1eb4;" horiz-adv-x="710" 
d="M499 0l-24 78h-240l-24 -78h-229l246 667h254l246 -667h-229zM355 469l-66 -215h132zM531 513.5q-30 -20.5 -75.5 -32.25t-99.5 -11.75t-99.5 11.75t-76.5 32.25l76 31q17 -11.5 42 -19t58 -7.5q63 0 100 26.5l75 -31v0zM407 517q-23 0 -39.5 3.25t-28.5 7.5t-22 7.5
t-20 3.25t-17 -4.5t-7 -14h-89q0 34.5 30 50.75t88 16.25q23 0 39.5 -3.25t28.5 -7.5t22 -7.5t20 -3.25t17 4.5t7 14h89q0 -34.5 -30 -50.75t-88 -16.25z" />
    <glyph glyph-name="uni1EB6" unicode="&#x1eb6;" horiz-adv-x="710" 
d="M499 0l-24 78h-240l-24 -78h-229l246 667h254l246 -667h-229zM355 469l-66 -215h132zM356 -208q-37 0 -63 26t-26 63t26 63t63 26q18 0 34 -7t28 -19t19 -28.5t7 -34.5t-7 -34.5t-19 -28.5t-28 -19t-34 -7zM530 779q-30 -41 -75.5 -64.5t-99.5 -23.5t-99.5 23.5
t-76.5 64.5l76 62q17 -23 42 -38t58 -15q63 0 100 53l75 -62v0z" />
    <glyph glyph-name="AE" unicode="&#xc6;" horiz-adv-x="989" 
d="M453 0v78h-207l-41 -78h-230l395 667h589v-176h-304v-66h297v-176h-297v-73h304v-176h-506zM453 469l-113 -215h113v215z" />
    <glyph glyph-name="AEacute" unicode="&#x1fc;" horiz-adv-x="989" 
d="M605 723h-120l120 144h155zM453 0v78h-207l-41 -78h-230l395 667h589v-176h-304v-66h297v-176h-297v-73h304v-176h-506zM453 469l-113 -215h113v215z" />
    <glyph glyph-name="uni1E02" unicode="&#x1e02;" horiz-adv-x="697" 
d="M54 0v667h405q52 0 89.5 -15.5t61.5 -40t35.5 -55t11.5 -59.5q0 -63 -32.5 -102.5t-81.5 -50.5q27 -4 50 -18t40.5 -35.5t27 -49.5t9.5 -60q0 -35 -12 -67.5t-36.5 -58t-61.5 -40.5t-87 -15h-419zM412 421q16 0 28 11t12 29q0 17 -12 27.5t-28 10.5h-156v-78h156z
M418 168q22 0 34.5 11.5t12.5 30.5q0 18 -12.5 30.5t-34.5 12.5h-162v-85h162zM349 697q-37 0 -63 26t-26 63t26 63t63 26q18 0 34 -7t28 -19t19 -28.5t7 -34.5t-7 -34.5t-19 -28.5t-28 -19t-34 -7z" />
    <glyph glyph-name="Cacute" unicode="&#x106;" horiz-adv-x="697" 
d="M434 723h-120l120 144h155zM385 -12q-78 0 -145.5 25t-116.5 70.5t-77 109t-28 140.5t28 140.5t77 109t116.5 70.5t145.5 25q66 0 115.5 -17.5t86.5 -45t61.5 -62.5t39.5 -69l-174 -81q-6 19 -18.5 37t-29.5 31t-38 21t-43 8q-36 0 -66 -13t-51.5 -35.5t-33 -53
t-11.5 -65.5t11.5 -65.5t33 -53t51.5 -35.5t66 -13q22 0 43 8t38 21t29.5 30.5t18.5 37.5l174 -80q-15 -33 -39.5 -68t-61 -63t-86.5 -46t-116 -18z" />
    <glyph glyph-name="Ccedilla" unicode="&#xc7;" horiz-adv-x="697" 
d="M379 -196q-40 0 -71 10t-48 24l31 64q20 -14 41 -22t42 -8q16 0 29 5.5t13 18.5q0 17 -21 17q-16 0 -26 -12l-59 34l21 57q-68 8 -125.5 36t-99 72.5t-65 103.5t-23.5 129q0 77 28 140.5t77 109t116.5 70.5t145.5 25q66 0 115.5 -17.5t86.5 -45t61.5 -62.5t39.5 -69
l-174 -81q-6 19 -18.5 37t-29.5 31t-38 21t-43 8q-36 0 -66 -13t-51.5 -35.5t-33 -53t-11.5 -65.5t11.5 -65.5t33 -53t51.5 -35.5t66 -13q22 0 43 8t38 21t29.5 30.5t18.5 37.5l174 -80q-14 -32 -37 -65t-57 -60.5t-80 -46.5t-106 -22l-13 -32q15 9 34 9q27 0 47.5 -20.5
t20.5 -52.5q0 -43 -35 -66t-83 -23z" />
    <glyph glyph-name="Ccircumflex" unicode="&#x108;" horiz-adv-x="697" 
d="M446 723l-64 73l-61 -73h-105l88 144h156l91 -144h-105zM385 -12q-78 0 -145.5 25t-116.5 70.5t-77 109t-28 140.5t28 140.5t77 109t116.5 70.5t145.5 25q66 0 115.5 -17.5t86.5 -45t61.5 -62.5t39.5 -69l-174 -81q-6 19 -18.5 37t-29.5 31t-38 21t-43 8q-36 0 -66 -13
t-51.5 -35.5t-33 -53t-11.5 -65.5t11.5 -65.5t33 -53t51.5 -35.5t66 -13q22 0 43 8t38 21t29.5 30.5t18.5 37.5l174 -80q-15 -33 -39.5 -68t-61 -63t-86.5 -46t-116 -18z" />
    <glyph glyph-name="Cdotaccent" unicode="&#x10a;" horiz-adv-x="697" 
d="M385 -12q-78 0 -145.5 25t-116.5 70.5t-77 109t-28 140.5t28 140.5t77 109t116.5 70.5t145.5 25q66 0 115.5 -17.5t86.5 -45t61.5 -62.5t39.5 -69l-174 -81q-6 19 -18.5 37t-29.5 31t-38 21t-43 8q-36 0 -66 -13t-51.5 -35.5t-33 -53t-11.5 -65.5t11.5 -65.5t33 -53
t51.5 -35.5t66 -13q22 0 43 8t38 21t29.5 30.5t18.5 37.5l174 -80q-15 -33 -39.5 -68t-61 -63t-86.5 -46t-116 -18zM387 697q-37 0 -63 26t-26 63t26 63t63 26q18 0 34 -7t28 -19t19 -28.5t7 -34.5t-7 -34.5t-19 -28.5t-28 -19t-34 -7z" />
    <glyph glyph-name="Ccaron" unicode="&#x10c;" horiz-adv-x="697" 
d="M307 723l-91 144h105l64 -73l61 73h105l-88 -144h-156zM385 -12q-78 0 -145.5 25t-116.5 70.5t-77 109t-28 140.5t28 140.5t77 109t116.5 70.5t145.5 25q66 0 115.5 -17.5t86.5 -45t61.5 -62.5t39.5 -69l-174 -81q-6 19 -18.5 37t-29.5 31t-38 21t-43 8q-36 0 -66 -13
t-51.5 -35.5t-33 -53t-11.5 -65.5t11.5 -65.5t33 -53t51.5 -35.5t66 -13q22 0 43 8t38 21t29.5 30.5t18.5 37.5l174 -80q-15 -33 -39.5 -68t-61 -63t-86.5 -46t-116 -18z" />
    <glyph glyph-name="Dcaron" unicode="&#x10e;" horiz-adv-x="736" 
d="M297 723l-91 144h105l64 -73l61 73h105l-88 -144h-156zM54 0v667h298q79 0 146 -22t116 -64.5t76.5 -104.5t27.5 -142t-27.5 -142t-76.5 -105t-116 -65t-145 -22h-299zM352 176q38 0 68 13t50.5 34.5t31.5 50t11 60.5q0 34 -10 62.5t-29.5 49.5t-50 33t-70.5 12h-97v-315
h96z" />
    <glyph glyph-name="Dcroat" unicode="&#x110;" horiz-adv-x="757" 
d="M75 0v254h-68v159h68v254h298q79 0 146 -22t116 -64.5t76.5 -104.5t27.5 -142t-27.5 -142t-76.5 -105t-116 -65t-145 -22h-299zM373 176q38 0 68 13t50.5 34.5t31.5 50t11 60.5q0 34 -10 62.5t-29.5 49.5t-50 33t-70.5 12h-97v-78h129v-159h-129v-78h96z" />
    <glyph glyph-name="uni1E0A" unicode="&#x1e0a;" horiz-adv-x="736" 
d="M54 0v667h298q79 0 146 -22t116 -64.5t76.5 -104.5t27.5 -142t-27.5 -142t-76.5 -105t-116 -65t-145 -22h-299zM352 176q38 0 68 13t50.5 34.5t31.5 50t11 60.5q0 34 -10 62.5t-29.5 49.5t-50 33t-70.5 12h-97v-315h96zM368 697q-37 0 -63 26t-26 63t26 63t63 26
q18 0 34 -7t28 -19t19 -28.5t7 -34.5t-7 -34.5t-19 -28.5t-28 -19t-34 -7z" />
    <glyph glyph-name="Eacute" unicode="&#xc9;" 
d="M359 723h-120l120 144h155zM54 0v667h506v-176h-304v-66h297v-176h-297v-73h304v-176h-506z" />
    <glyph glyph-name="Ebreve" unicode="&#x114;" 
d="M54 0v667h506v-176h-304v-66h297v-176h-297v-73h304v-176h-506zM478 779q-30 -41 -75.5 -64.5t-99.5 -23.5t-99.5 23.5t-76.5 64.5l76 62q17 -23 42 -38t58 -15q63 0 100 53l75 -62v0z" />
    <glyph glyph-name="Ecircumflex" unicode="&#xca;" 
d="M370 723l-64 73l-61 -73h-105l88 144h156l91 -144h-105zM54 0v667h506v-176h-304v-66h297v-176h-297v-73h304v-176h-506z" />
    <glyph glyph-name="Edieresis" unicode="&#xcb;" 
d="M508 785q0 -38 -26 -63.5t-64 -25.5q-37 0 -63 25.5t-26 63.5t26 63.5t63 25.5q38 0 64 -25.5t26 -63.5zM291 785q0 -38 -25.5 -63.5t-63.5 -25.5t-63.5 25.5t-25.5 63.5t25.5 63.5t63.5 25.5t63.5 -25.5t25.5 -63.5zM54 0v667h506v-176h-304v-66h297v-176h-297v-73h304
v-176h-506z" />
    <glyph glyph-name="Edotaccent" unicode="&#x116;" 
d="M54 0v667h506v-176h-304v-66h297v-176h-297v-73h304v-176h-506zM306 697q-37 0 -63 26t-26 63t26 63t63 26q18 0 34 -7t28 -19t19 -28.5t7 -34.5t-7 -34.5t-19 -28.5t-28 -19t-34 -7z" />
    <glyph glyph-name="Egrave" unicode="&#xc8;" 
d="M54 0v667h506v-176h-304v-66h297v-176h-297v-73h304v-176h-506zM251 723l-155 144h155l120 -144h-120z" />
    <glyph glyph-name="Emacron" unicode="&#x112;" 
d="M54 0v667h506v-176h-304v-66h297v-176h-297v-73h304v-176h-506zM122 718v97h363v-97h-363z" />
    <glyph glyph-name="Eogonek" unicode="&#x118;" 
d="M560 0q-37 -19 -51 -40.5t-14 -43.5q0 -20 10 -27t19 -7q14 0 22 8.5t13 19.5l66 -43q-17 -25 -41.5 -39t-59.5 -14q-21 0 -41 5.5t-35.5 16.5t-24.5 29t-9 43q0 53 39 92h-399v667h506v-176h-304v-66h297v-176h-297v-73h304v-176v0z" />
    <glyph glyph-name="Ecaron" unicode="&#x11a;" 
d="M231 723l-91 144h105l64 -73l61 73h105l-88 -144h-156zM54 0v667h506v-176h-304v-66h297v-176h-297v-73h304v-176h-506z" />
    <glyph glyph-name="uni1EB8" unicode="&#x1eb8;" 
d="M54 0v667h506v-176h-304v-66h297v-176h-297v-73h304v-176h-506zM306 -208q-37 0 -63 26t-26 63t26 63t63 26q18 0 34 -7t28 -19t19 -28.5t7 -34.5t-7 -34.5t-19 -28.5t-28 -19t-34 -7z" />
    <glyph glyph-name="uni1EBA" unicode="&#x1eba;" 
d="M54 0v667h506v-176h-304v-66h297v-176h-297v-73h304v-176h-506zM211 762q11 31 34.5 44.5t51.5 13.5q35 0 61.5 -17.5t26.5 -57.5q0 -14 -3.5 -25.5t-8.5 -22.5h-70q17 18 17 44q0 14 -7.5 19.5t-15.5 5.5q-11 0 -17.5 -7t-10.5 -16z" />
    <glyph glyph-name="uni1EBC" unicode="&#x1ebc;" 
d="M54 0v667h506v-176h-304v-66h297v-176h-297v-73h304v-176h-506zM375 721q-23 0 -39.5 6.5t-28.5 15t-22 15t-20 6.5t-17 -9t-7 -28h-89q0 69 30 101.5t88 32.5q23 0 39.5 -6.5t28.5 -15t22 -15t20 -6.5t17 9t7 28h89q0 -69 -30 -101.5t-88 -32.5z" />
    <glyph glyph-name="uni1EBE" unicode="&#x1ebe;" 
d="M376 615.75l-64 54.75l-61 -54.75h-105l88 108h156l91 -108h-105zM566 655.5h-120l120 108h155zM54 0v667h506v-176h-304v-66h297v-176h-297v-73h304v-176h-506z" />
    <glyph glyph-name="uni1EC0" unicode="&#x1ec0;" 
d="M379 615.75l-64 54.75l-61 -54.75h-105l88 108h156l91 -108h-105zM54 0v667h506v-176h-304v-66h297v-176h-297v-73h304v-176h-506zM67 655.5l-155 108h155l120 -108h-120z" />
    <glyph glyph-name="uni1EC2" unicode="&#x1ec2;" 
d="M374 615.75l-64 54.75l-61 -54.75h-105l88 108h156l91 -108h-105zM54 0v667h506v-176h-304v-66h297v-176h-297v-73h304v-176h-506zM404 732.75q11 23.25 34.5 33.375t51.5 10.125q35 0 61.5 -13.125t26.5 -43.125q0 -10.5 -3.5 -19.125t-8.5 -16.875h-70q17 13.5 17 33
q0 10.5 -7.5 14.625t-15.5 4.125q-11 0 -17.5 -5.25t-10.5 -12z" />
    <glyph glyph-name="uni1EC4" unicode="&#x1ec4;" 
d="M375 478l-64 36.5l-61 -36.5h-105l88 72h156l91 -72h-105zM54 0v667h506v-176h-304v-66h297v-176h-297v-73h304v-176h-506zM363 517q-23 0 -39.5 3.25t-28.5 7.5t-22 7.5t-20 3.25t-17 -4.5t-7 -14h-89q0 34.5 30 50.75t88 16.25q23 0 39.5 -3.25t28.5 -7.5t22 -7.5
t20 -3.25t17 4.5t7 14h89q0 -34.5 -30 -50.75t-88 -16.25z" />
    <glyph glyph-name="uni1EC6" unicode="&#x1ec6;" 
d="M370 723l-64 73l-61 -73h-105l88 144h156l91 -144h-105zM54 0v667h506v-176h-304v-66h297v-176h-297v-73h304v-176h-506zM306 -208q-37 0 -63 26t-26 63t26 63t63 26q18 0 34 -7t28 -19t19 -28.5t7 -34.5t-7 -34.5t-19 -28.5t-28 -19t-34 -7z" />
    <glyph glyph-name="uni1E1E" unicode="&#x1e1e;" horiz-adv-x="592" 
d="M311 697q-37 0 -63 26t-26 63t26 63t63 26q18 0 34 -7t28 -19t19 -28.5t7 -34.5t-7 -34.5t-19 -28.5t-28 -19t-34 -7zM54 0v667h506v-176h-304v-66h297v-176h-297v-249h-202z" />
    <glyph glyph-name="Gcircumflex" unicode="&#x11c;" horiz-adv-x="726" 
d="M448 723l-64 73l-61 -73h-105l88 144h156l91 -144h-105zM385 -12q-76 0 -142.5 24t-116.5 68.5t-79 108.5t-29 144t29 144t79 108.5t116.5 68.5t142.5 24q60 0 107 -15t83 -39.5t61.5 -56t41.5 -63.5l-170 -87q-7 15 -18.5 30t-27.5 27t-35.5 19t-41.5 7q-36 0 -66 -13
t-51.5 -35.5t-33 -53t-11.5 -65.5t11.5 -65.5t33 -53t51.5 -35.5t66 -13q29 0 58.5 9t45.5 21v24h-124v176h325v-273q-56 -62 -131 -98.5t-174 -36.5z" />
    <glyph glyph-name="Gbreve" unicode="&#x11e;" horiz-adv-x="726" 
d="M385 -12q-76 0 -142.5 24t-116.5 68.5t-79 108.5t-29 144t29 144t79 108.5t116.5 68.5t142.5 24q60 0 107 -15t83 -39.5t61.5 -56t41.5 -63.5l-170 -87q-7 15 -18.5 30t-27.5 27t-35.5 19t-41.5 7q-36 0 -66 -13t-51.5 -35.5t-33 -53t-11.5 -65.5t11.5 -65.5t33 -53
t51.5 -35.5t66 -13q29 0 58.5 9t45.5 21v24h-124v176h325v-273q-56 -62 -131 -98.5t-174 -36.5zM560 779q-30 -41 -75.5 -64.5t-99.5 -23.5t-99.5 23.5t-76.5 64.5l76 62q17 -23 42 -38t58 -15q63 0 100 53l75 -62v0z" />
    <glyph glyph-name="Gdotaccent" unicode="&#x120;" horiz-adv-x="726" 
d="M385 -12q-76 0 -142.5 24t-116.5 68.5t-79 108.5t-29 144t29 144t79 108.5t116.5 68.5t142.5 24q60 0 107 -15t83 -39.5t61.5 -56t41.5 -63.5l-170 -87q-7 15 -18.5 30t-27.5 27t-35.5 19t-41.5 7q-36 0 -66 -13t-51.5 -35.5t-33 -53t-11.5 -65.5t11.5 -65.5t33 -53
t51.5 -35.5t66 -13q29 0 58.5 9t45.5 21v24h-124v176h325v-273q-56 -62 -131 -98.5t-174 -36.5zM385 697q-37 0 -63 26t-26 63t26 63t63 26q18 0 34 -7t28 -19t19 -28.5t7 -34.5t-7 -34.5t-19 -28.5t-28 -19t-34 -7z" />
    <glyph glyph-name="Gcommaaccent" unicode="&#x122;" horiz-adv-x="726" 
d="M472 -139q0 -50 -25 -92t-69 -73l-55 44q9 4 19.5 12t20 18t17.5 21t11 22q-5 -3 -19 -3q-27 0 -46 18.5t-19 50.5q0 33 23 56t55 23q34 0 60.5 -25t26.5 -72zM385 -12q-76 0 -142.5 24t-116.5 68.5t-79 108.5t-29 144t29 144t79 108.5t116.5 68.5t142.5 24q60 0 107 -15
t83 -39.5t61.5 -56t41.5 -63.5l-170 -87q-7 15 -18.5 30t-27.5 27t-35.5 19t-41.5 7q-36 0 -66 -13t-51.5 -35.5t-33 -53t-11.5 -65.5t11.5 -65.5t33 -53t51.5 -35.5t66 -13q29 0 58.5 9t45.5 21v24h-124v176h325v-273q-56 -62 -131 -98.5t-174 -36.5z" />
    <glyph glyph-name="Gbreve.alt1" horiz-adv-x="726" 
d="M560 779q-30 -41 -75.5 -64.5t-99.5 -23.5t-99.5 23.5t-76.5 64.5l76 62q17 -23 42 -38t58 -15q63 0 100 53l75 -62v0zM365 -12q-68 0 -131 24t-111 68.5t-76.5 108.5t-28.5 144t29 144t79 108.5t116.5 68.5t142.5 24q60 0 107 -15t83 -39.5t61.5 -56t41.5 -63.5
l-170 -87q-7 15 -18.5 30t-27.5 27t-35.5 19t-41.5 7q-36 0 -66 -13t-51.5 -35.5t-33 -53t-11.5 -65.5t11.5 -65.5t33 -53t51.5 -35.5t66 -13q40 0 71.5 16t50.5 39h-142v176h364q0 -100 -26 -176.5t-73.5 -128t-114.5 -78t-150 -26.5z" />
    <glyph glyph-name="Gcommaaccent.alt1" horiz-adv-x="726" 
d="M472 -139q0 -50 -25 -92t-69 -73l-55 44q9 4 19.5 12t20 18t17.5 21t11 22q-5 -3 -19 -3q-27 0 -46 18.5t-19 50.5q0 33 23 56t55 23q34 0 60.5 -25t26.5 -72zM365 -12q-68 0 -131 24t-111 68.5t-76.5 108.5t-28.5 144t29 144t79 108.5t116.5 68.5t142.5 24q60 0 107 -15
t83 -39.5t61.5 -56t41.5 -63.5l-170 -87q-7 15 -18.5 30t-27.5 27t-35.5 19t-41.5 7q-36 0 -66 -13t-51.5 -35.5t-33 -53t-11.5 -65.5t11.5 -65.5t33 -53t51.5 -35.5t66 -13q40 0 71.5 16t50.5 39h-142v176h364q0 -100 -26 -176.5t-73.5 -128t-114.5 -78t-150 -26.5z" />
    <glyph glyph-name="Gcircumflex.alt1" horiz-adv-x="726" 
d="M443 723l-64 73l-61 -73h-105l88 144h156l91 -144h-105zM365 -12q-68 0 -131 24t-111 68.5t-76.5 108.5t-28.5 144t29 144t79 108.5t116.5 68.5t142.5 24q60 0 107 -15t83 -39.5t61.5 -56t41.5 -63.5l-170 -87q-7 15 -18.5 30t-27.5 27t-35.5 19t-41.5 7q-36 0 -66 -13
t-51.5 -35.5t-33 -53t-11.5 -65.5t11.5 -65.5t33 -53t51.5 -35.5t66 -13q40 0 71.5 16t50.5 39h-142v176h364q0 -100 -26 -176.5t-73.5 -128t-114.5 -78t-150 -26.5z" />
    <glyph glyph-name="Gdotaccent.alt1" horiz-adv-x="726" 
d="M385 697q-37 0 -63 26t-26 63t26 63t63 26q18 0 34 -7t28 -19t19 -28.5t7 -34.5t-7 -34.5t-19 -28.5t-28 -19t-34 -7zM365 -12q-68 0 -131 24t-111 68.5t-76.5 108.5t-28.5 144t29 144t79 108.5t116.5 68.5t142.5 24q60 0 107 -15t83 -39.5t61.5 -56t41.5 -63.5l-170 -87
q-7 15 -18.5 30t-27.5 27t-35.5 19t-41.5 7q-36 0 -66 -13t-51.5 -35.5t-33 -53t-11.5 -65.5t11.5 -65.5t33 -53t51.5 -35.5t66 -13q40 0 71.5 16t50.5 39h-142v176h364q0 -100 -26 -176.5t-73.5 -128t-114.5 -78t-150 -26.5z" />
    <glyph glyph-name="Hbar" unicode="&#x126;" horiz-adv-x="765" 
d="M502 0v255h-239v-255h-202v501h-54v97h54v69h202v-69h239v69h202v-69h54v-97h-54v-501h-202zM502 431v70h-239v-70h239z" />
    <glyph glyph-name="Hcircumflex" unicode="&#x124;" horiz-adv-x="751" 
d="M438 723l-64 73l-61 -73h-105l88 144h156l91 -144h-105zM495 0v255h-239v-255h-202v667h202v-236h239v236h202v-667h-202z" />
    <glyph glyph-name="uni1E22" unicode="&#x1e22;" horiz-adv-x="751" 
d="M495 0v255h-239v-255h-202v667h202v-236h239v236h202v-667h-202zM376 697q-37 0 -63 26t-26 63t26 63t63 26q18 0 34 -7t28 -19t19 -28.5t7 -34.5t-7 -34.5t-19 -28.5t-28 -19t-34 -7z" />
    <glyph glyph-name="Iacute" unicode="&#xcd;" horiz-adv-x="310" 
d="M54 0v667h202v-667h-202zM207 723h-120l120 144h155z" />
    <glyph glyph-name="Ibreve" unicode="&#x12c;" horiz-adv-x="310" 
d="M54 0v667h202v-667h-202zM336 779q-30 -41 -75.5 -64.5t-99.5 -23.5t-99.5 23.5t-76.5 64.5l76 62q17 -23 42 -38t58 -15q63 0 100 53l75 -62v0z" />
    <glyph glyph-name="Icircumflex" unicode="&#xce;" horiz-adv-x="310" 
d="M217 723l-64 73l-61 -73h-105l88 144h156l91 -144h-105zM54 0v667h202v-667h-202z" />
    <glyph glyph-name="Idieresis" unicode="&#xcf;" horiz-adv-x="310" 
d="M354 785q0 -38 -26 -63.5t-64 -25.5q-37 0 -63 25.5t-26 63.5t26 63.5t63 25.5q38 0 64 -25.5t26 -63.5zM137 785q0 -38 -25.5 -63.5t-63.5 -25.5t-63.5 25.5t-25.5 63.5t25.5 63.5t63.5 25.5t63.5 -25.5t25.5 -63.5zM54 0v667h202v-667h-202z" />
    <glyph glyph-name="Idotaccent" unicode="&#x130;" horiz-adv-x="310" 
d="M54 0v667h202v-667h-202zM157 697q-37 0 -63 26t-26 63t26 63t63 26q18 0 34 -7t28 -19t19 -28.5t7 -34.5t-7 -34.5t-19 -28.5t-28 -19t-34 -7z" />
    <glyph glyph-name="Igrave" unicode="&#xcc;" horiz-adv-x="310" 
d="M54 0v667h202v-667h-202zM106 723l-155 144h155l120 -144h-120z" />
    <glyph glyph-name="Imacron" unicode="&#x12a;" horiz-adv-x="310" 
d="M54 0v667h202v-667h-202zM-25 718v97h363v-97h-363z" />
    <glyph glyph-name="Iogonek" unicode="&#x12e;" horiz-adv-x="310" 
d="M322 -133q-17 -25 -41.5 -39t-59.5 -14q-21 0 -41 5.5t-35.5 16.5t-24.5 29t-9 43q0 53 39 92h-96v667h202v-667h1q-37 -19 -51 -40.5t-14 -43.5q0 -20 10 -27t19 -7q14 0 22 8.5t13 19.5z" />
    <glyph glyph-name="Itilde" unicode="&#x128;" horiz-adv-x="310" 
d="M54 0v667h202v-667h-202zM210 721q-23 0 -39.5 6.5t-28.5 15t-22 15t-20 6.5t-17 -9t-7 -28h-89q0 69 30 101.5t88 32.5q23 0 39.5 -6.5t28.5 -15t22 -15t20 -6.5t17 9t7 28h89q0 -69 -30 -101.5t-88 -32.5z" />
    <glyph glyph-name="uni1EC8" unicode="&#x1ec8;" horiz-adv-x="310" 
d="M54 0v667h202v-667h-202zM68 762q11 31 34.5 44.5t51.5 13.5q35 0 61.5 -17.5t26.5 -57.5q0 -14 -3.5 -25.5t-8.5 -22.5h-70q17 18 17 44q0 14 -7.5 19.5t-15.5 5.5q-11 0 -17.5 -7t-10.5 -16z" />
    <glyph glyph-name="uni1ECA" unicode="&#x1eca;" horiz-adv-x="310" 
d="M54 0v667h202v-667h-202zM159 -208q-37 0 -63 26t-26 63t26 63t63 26q18 0 34 -7t28 -19t19 -28.5t7 -34.5t-7 -34.5t-19 -28.5t-28 -19t-34 -7z" />
    <glyph glyph-name="IJ" unicode="&#x132;" horiz-adv-x="808" 
d="M54 0v667h202v-667h-202zM496 -12q-49 0 -98 12t-88 42l82 154q17 -11 38.5 -20.5t47.5 -9.5q33 0 53.5 20t20.5 55v426h202v-429q0 -64 -18.5 -111t-52.5 -78t-81.5 -46t-105.5 -15z" />
    <glyph glyph-name="Jcircumflex" unicode="&#x134;" horiz-adv-x="498" 
d="M407 723l-64 73l-61 -73h-105l88 144h156l91 -144h-105zM186 -12q-49 0 -98 12t-88 42l82 154q17 -11 38.5 -20.5t47.5 -9.5q33 0 53.5 20t20.5 55v426h202v-429q0 -64 -18.5 -111t-52.5 -78t-81.5 -46t-105.5 -15z" />
    <glyph glyph-name="Kcommaaccent" unicode="&#x136;" horiz-adv-x="689" 
d="M430 -139q0 -50 -25 -92t-69 -73l-55 44q9 4 19.5 12t20 18t17.5 21t11 22q-5 -3 -19 -3q-27 0 -46 18.5t-19 50.5q0 33 23 56t55 23q34 0 60.5 -25t26.5 -72zM443 0l-150 235l-37 -50v-185h-202v667h202v-250l175 250h247l-252 -310l263 -357h-246z" />
    <glyph glyph-name="Lacute" unicode="&#x139;" horiz-adv-x="536" 
d="M331 723h-120l120 144h155zM54 0v667h202v-491h253v-176h-455z" />
    <glyph glyph-name="Lcaron" unicode="&#x13d;" horiz-adv-x="536" 
d="M486 584q0 -50 -25 -92t-69 -73l-55 44q9 4 19.5 12t20 18t17.5 21t11 22q-5 -3 -19 -3q-27 0 -46 18.5t-19 50.5q0 33 23 56t55 23q34 0 60.5 -25t26.5 -72zM54 0v667h202v-491h253v-176h-455z" />
    <glyph glyph-name="Lcommaaccent" unicode="&#x13b;" horiz-adv-x="536" 
d="M349 -139q0 -50 -25 -92t-69 -73l-55 44q9 4 19.5 12t20 18t17.5 21t11 22q-5 -3 -19 -3q-27 0 -46 18.5t-19 50.5q0 33 23 56t55 23q34 0 60.5 -25t26.5 -72zM54 0v667h202v-491h253v-176h-455z" />
    <glyph glyph-name="Ldot" unicode="&#x13f;" horiz-adv-x="599" 
d="M54 0v667h202v-491h253v-176h-455zM563 342q0 -21 -8.5 -40.5t-23 -34t-33.5 -23t-41 -8.5t-41 8.5t-33.5 23t-23 34t-8.5 40.5q0 22 8.5 41.5t23 34t33.5 23t41 8.5t41 -8.5t33.5 -23t23 -34t8.5 -41.5z" />
    <glyph glyph-name="Lslash" unicode="&#x141;" horiz-adv-x="545" 
d="M7 323l56 32v312h202v-195l56 32v-161l-56 -32v-135h253v-176h-455v195l-56 -32v160z" />
    <glyph glyph-name="Nacute" unicode="&#x143;" horiz-adv-x="750" 
d="M426 723h-120l120 144h155zM502 0l-246 338v-338h-202v667h208l232 -316v316h202v-667h-194z" />
    <glyph glyph-name="Ncaron" unicode="&#x147;" horiz-adv-x="750" 
d="M298 723l-91 144h105l64 -73l61 73h105l-88 -144h-156zM502 0l-246 338v-338h-202v667h208l232 -316v316h202v-667h-194z" />
    <glyph glyph-name="Ncommaaccent" unicode="&#x145;" horiz-adv-x="750" 
d="M460 -139q0 -50 -25 -92t-69 -73l-55 44q9 4 19.5 12t20 18t17.5 21t11 22q-5 -3 -19 -3q-27 0 -46 18.5t-19 50.5q0 33 23 56t55 23q34 0 60.5 -25t26.5 -72zM502 0l-246 338v-338h-202v667h208l232 -316v316h202v-667h-194z" />
    <glyph glyph-name="Ntilde" unicode="&#xd1;" horiz-adv-x="750" 
d="M426 721q-23 0 -39.5 6.5t-28.5 15t-22 15t-20 6.5t-17 -9t-7 -28h-89q0 69 30 101.5t88 32.5q23 0 39.5 -6.5t28.5 -15t22 -15t20 -6.5t17 9t7 28h89q0 -69 -30 -101.5t-88 -32.5zM502 0l-246 338v-338h-202v667h208l232 -316v316h202v-667h-194z" />
    <glyph glyph-name="Eng" unicode="&#x14a;" horiz-adv-x="750" 
d="M438 -196q-49 0 -98 12t-88 42l82 154q17 -11 38.5 -20.5t47.5 -9.5q48 0 67 39l-231 317v-338h-202v667h208l232 -316v316h202v-613q0 -64 -18.5 -111t-52.5 -78t-81.5 -46t-105.5 -15z" />
    <glyph glyph-name="Oacute" unicode="&#xd3;" horiz-adv-x="766" 
d="M432 723h-120l120 144h155zM383 -12q-77 0 -144 25t-116 70.5t-77 109t-28 140.5t28 140.5t77 109t116 70.5t144 25t144 -25t116 -70.5t77 -109t28 -140.5t-28 -140.5t-77 -109t-116 -70.5t-144 -25zM383 166q36 0 65.5 13t50.5 35.5t32.5 53t11.5 65.5t-11.5 65.5
t-32.5 53t-50.5 35.5t-65.5 13t-65.5 -13t-50.5 -35.5t-32.5 -53t-11.5 -65.5t11.5 -65.5t32.5 -53t50.5 -35.5t65.5 -13z" />
    <glyph glyph-name="Obreve" unicode="&#x14e;" horiz-adv-x="766" 
d="M383 -12q-77 0 -144 25t-116 70.5t-77 109t-28 140.5t28 140.5t77 109t116 70.5t144 25t144 -25t116 -70.5t77 -109t28 -140.5t-28 -140.5t-77 -109t-116 -70.5t-144 -25zM383 166q36 0 65.5 13t50.5 35.5t32.5 53t11.5 65.5t-11.5 65.5t-32.5 53t-50.5 35.5t-65.5 13
t-65.5 -13t-50.5 -35.5t-32.5 -53t-11.5 -65.5t11.5 -65.5t32.5 -53t50.5 -35.5t65.5 -13zM558 779q-30 -41 -75.5 -64.5t-99.5 -23.5t-99.5 23.5t-76.5 64.5l76 62q17 -23 42 -38t58 -15q63 0 100 53l75 -62v0z" />
    <glyph glyph-name="Ocircumflex" unicode="&#xd4;" horiz-adv-x="766" 
d="M449 723l-64 73l-61 -73h-105l88 144h156l91 -144h-105zM383 -12q-77 0 -144 25t-116 70.5t-77 109t-28 140.5t28 140.5t77 109t116 70.5t144 25t144 -25t116 -70.5t77 -109t28 -140.5t-28 -140.5t-77 -109t-116 -70.5t-144 -25zM383 166q36 0 65.5 13t50.5 35.5t32.5 53
t11.5 65.5t-11.5 65.5t-32.5 53t-50.5 35.5t-65.5 13t-65.5 -13t-50.5 -35.5t-32.5 -53t-11.5 -65.5t11.5 -65.5t32.5 -53t50.5 -35.5t65.5 -13z" />
    <glyph glyph-name="Odieresis" unicode="&#xd6;" horiz-adv-x="766" 
d="M584 785q0 -38 -26 -63.5t-64 -25.5q-37 0 -63 25.5t-26 63.5t26 63.5t63 25.5q38 0 64 -25.5t26 -63.5zM367 785q0 -38 -25.5 -63.5t-63.5 -25.5t-63.5 25.5t-25.5 63.5t25.5 63.5t63.5 25.5t63.5 -25.5t25.5 -63.5zM383 -12q-77 0 -144 25t-116 70.5t-77 109t-28 140.5
t28 140.5t77 109t116 70.5t144 25t144 -25t116 -70.5t77 -109t28 -140.5t-28 -140.5t-77 -109t-116 -70.5t-144 -25zM383 166q36 0 65.5 13t50.5 35.5t32.5 53t11.5 65.5t-11.5 65.5t-32.5 53t-50.5 35.5t-65.5 13t-65.5 -13t-50.5 -35.5t-32.5 -53t-11.5 -65.5t11.5 -65.5
t32.5 -53t50.5 -35.5t65.5 -13z" />
    <glyph glyph-name="Ograve" unicode="&#xd2;" horiz-adv-x="766" 
d="M332 723l-155 144h155l120 -144h-120zM383 -12q-77 0 -144 25t-116 70.5t-77 109t-28 140.5t28 140.5t77 109t116 70.5t144 25t144 -25t116 -70.5t77 -109t28 -140.5t-28 -140.5t-77 -109t-116 -70.5t-144 -25zM383 166q36 0 65.5 13t50.5 35.5t32.5 53t11.5 65.5
t-11.5 65.5t-32.5 53t-50.5 35.5t-65.5 13t-65.5 -13t-50.5 -35.5t-32.5 -53t-11.5 -65.5t11.5 -65.5t32.5 -53t50.5 -35.5t65.5 -13z" />
    <glyph glyph-name="Ohungarumlaut" unicode="&#x150;" horiz-adv-x="766" 
d="M347 723h-100l80 144h135zM503 723h-100l80 144h135zM383 -12q-77 0 -144 25t-116 70.5t-77 109t-28 140.5t28 140.5t77 109t116 70.5t144 25t144 -25t116 -70.5t77 -109t28 -140.5t-28 -140.5t-77 -109t-116 -70.5t-144 -25zM383 166q36 0 65.5 13t50.5 35.5t32.5 53
t11.5 65.5t-11.5 65.5t-32.5 53t-50.5 35.5t-65.5 13t-65.5 -13t-50.5 -35.5t-32.5 -53t-11.5 -65.5t11.5 -65.5t32.5 -53t50.5 -35.5t65.5 -13z" />
    <glyph glyph-name="Omacron" unicode="&#x14c;" horiz-adv-x="766" 
d="M201 718v97h363v-97h-363zM383 -12q-77 0 -144 25t-116 70.5t-77 109t-28 140.5t28 140.5t77 109t116 70.5t144 25t144 -25t116 -70.5t77 -109t28 -140.5t-28 -140.5t-77 -109t-116 -70.5t-144 -25zM383 166q36 0 65.5 13t50.5 35.5t32.5 53t11.5 65.5t-11.5 65.5
t-32.5 53t-50.5 35.5t-65.5 13t-65.5 -13t-50.5 -35.5t-32.5 -53t-11.5 -65.5t11.5 -65.5t32.5 -53t50.5 -35.5t65.5 -13z" />
    <glyph glyph-name="Oslash" unicode="&#xd8;" horiz-adv-x="766" 
d="M383 -12q-110 0 -196 49l-31 -37h-138l87 102q-42 45 -64.5 103t-22.5 128q0 77 28 140.5t77 109t116 70.5t144 25q49 0 93.5 -10.5t84.5 -29.5l25 29h138l-76 -90q47 -45 73.5 -107t26.5 -137q0 -77 -28 -140.5t-77 -109t-116 -70.5t-144 -25zM383 166q36 0 65.5 13
t50.5 35.5t32.5 53t11.5 65.5q0 51 -25 92l-207 -243q34 -16 72 -16zM223 333q0 -42 15 -75l198 233q-24 9 -53 9q-36 0 -65.5 -13t-50.5 -35.5t-32.5 -53t-11.5 -65.5z" />
    <glyph glyph-name="Oslashacute" unicode="&#x1fe;" horiz-adv-x="766" 
d="M432 723h-120l120 144h155zM383 -12q-110 0 -196 49l-31 -37h-138l87 102q-42 45 -64.5 103t-22.5 128q0 77 28 140.5t77 109t116 70.5t144 25q49 0 93.5 -10.5t84.5 -29.5l25 29h138l-76 -90q47 -45 73.5 -107t26.5 -137q0 -77 -28 -140.5t-77 -109t-116 -70.5t-144 -25
zM383 166q36 0 65.5 13t50.5 35.5t32.5 53t11.5 65.5q0 51 -25 92l-207 -243q34 -16 72 -16zM223 333q0 -42 15 -75l198 233q-24 9 -53 9q-36 0 -65.5 -13t-50.5 -35.5t-32.5 -53t-11.5 -65.5z" />
    <glyph glyph-name="Otilde" unicode="&#xd5;" horiz-adv-x="766" 
d="M383 -12q-77 0 -144 25t-116 70.5t-77 109t-28 140.5t28 140.5t77 109t116 70.5t144 25t144 -25t116 -70.5t77 -109t28 -140.5t-28 -140.5t-77 -109t-116 -70.5t-144 -25zM383 166q36 0 65.5 13t50.5 35.5t32.5 53t11.5 65.5t-11.5 65.5t-32.5 53t-50.5 35.5t-65.5 13
t-65.5 -13t-50.5 -35.5t-32.5 -53t-11.5 -65.5t11.5 -65.5t32.5 -53t50.5 -35.5t65.5 -13zM436 721q-23 0 -39.5 6.5t-28.5 15t-22 15t-20 6.5t-17 -9t-7 -28h-89q0 69 30 101.5t88 32.5q23 0 39.5 -6.5t28.5 -15t22 -15t20 -6.5t17 9t7 28h89q0 -69 -30 -101.5t-88 -32.5z
" />
    <glyph glyph-name="uni1ECC" unicode="&#x1ecc;" horiz-adv-x="766" 
d="M383 -12q-77 0 -144 25t-116 70.5t-77 109t-28 140.5t28 140.5t77 109t116 70.5t144 25t144 -25t116 -70.5t77 -109t28 -140.5t-28 -140.5t-77 -109t-116 -70.5t-144 -25zM383 166q36 0 65.5 13t50.5 35.5t32.5 53t11.5 65.5t-11.5 65.5t-32.5 53t-50.5 35.5t-65.5 13
t-65.5 -13t-50.5 -35.5t-32.5 -53t-11.5 -65.5t11.5 -65.5t32.5 -53t50.5 -35.5t65.5 -13zM385 -208q-37 0 -63 26t-26 63t26 63t63 26q18 0 34 -7t28 -19t19 -28.5t7 -34.5t-7 -34.5t-19 -28.5t-28 -19t-34 -7z" />
    <glyph glyph-name="uni1ECE" unicode="&#x1ece;" horiz-adv-x="766" 
d="M383 -12q-77 0 -144 25t-116 70.5t-77 109t-28 140.5t28 140.5t77 109t116 70.5t144 25t144 -25t116 -70.5t77 -109t28 -140.5t-28 -140.5t-77 -109t-116 -70.5t-144 -25zM383 166q36 0 65.5 13t50.5 35.5t32.5 53t11.5 65.5t-11.5 65.5t-32.5 53t-50.5 35.5t-65.5 13
t-65.5 -13t-50.5 -35.5t-32.5 -53t-11.5 -65.5t11.5 -65.5t32.5 -53t50.5 -35.5t65.5 -13zM293 762q11 31 34.5 44.5t51.5 13.5q35 0 61.5 -17.5t26.5 -57.5q0 -14 -3.5 -25.5t-8.5 -22.5h-70q17 18 17 44q0 14 -7.5 19.5t-15.5 5.5q-11 0 -17.5 -7t-10.5 -16z" />
    <glyph glyph-name="uni1ED0" unicode="&#x1ed0;" horiz-adv-x="766" 
d="M441 615.75l-64 54.75l-61 -54.75h-105l88 108h156l91 -108h-105zM631 655.5h-120l120 108h155zM383 -12q-77 0 -144 25t-116 70.5t-77 109t-28 140.5t28 140.5t77 109t116 70.5t144 25t144 -25t116 -70.5t77 -109t28 -140.5t-28 -140.5t-77 -109t-116 -70.5t-144 -25z
M383 166q36 0 65.5 13t50.5 35.5t32.5 53t11.5 65.5t-11.5 65.5t-32.5 53t-50.5 35.5t-65.5 13t-65.5 -13t-50.5 -35.5t-32.5 -53t-11.5 -65.5t11.5 -65.5t32.5 -53t50.5 -35.5t65.5 -13z" />
    <glyph glyph-name="uni1ED2" unicode="&#x1ed2;" horiz-adv-x="766" 
d="M440 615.75l-64 54.75l-61 -54.75h-105l88 108h156l91 -108h-105zM383 -12q-77 0 -144 25t-116 70.5t-77 109t-28 140.5t28 140.5t77 109t116 70.5t144 25t144 -25t116 -70.5t77 -109t28 -140.5t-28 -140.5t-77 -109t-116 -70.5t-144 -25zM383 166q36 0 65.5 13
t50.5 35.5t32.5 53t11.5 65.5t-11.5 65.5t-32.5 53t-50.5 35.5t-65.5 13t-65.5 -13t-50.5 -35.5t-32.5 -53t-11.5 -65.5t11.5 -65.5t32.5 -53t50.5 -35.5t65.5 -13zM128 655.5l-155 108h155l120 -108h-120z" />
    <glyph glyph-name="uni1ED4" unicode="&#x1ed4;" horiz-adv-x="766" 
d="M444 615.75l-64 54.75l-61 -54.75h-105l88 108h156l91 -108h-105zM383 -12q-77 0 -144 25t-116 70.5t-77 109t-28 140.5t28 140.5t77 109t116 70.5t144 25t144 -25t116 -70.5t77 -109t28 -140.5t-28 -140.5t-77 -109t-116 -70.5t-144 -25zM383 166q36 0 65.5 13
t50.5 35.5t32.5 53t11.5 65.5t-11.5 65.5t-32.5 53t-50.5 35.5t-65.5 13t-65.5 -13t-50.5 -35.5t-32.5 -53t-11.5 -65.5t11.5 -65.5t32.5 -53t50.5 -35.5t65.5 -13zM474 732.75q11 23.25 34.5 33.375t51.5 10.125q35 0 61.5 -13.125t26.5 -43.125q0 -10.5 -3.5 -19.125
t-8.5 -16.875h-70q17 13.5 17 33q0 10.5 -7.5 14.625t-15.5 4.125q-11 0 -17.5 -5.25t-10.5 -12z" />
    <glyph glyph-name="uni1ED6" unicode="&#x1ed6;" horiz-adv-x="766" 
d="M443 478l-64 36.5l-61 -36.5h-105l88 72h156l91 -72h-105zM383 -12q-77 0 -144 25t-116 70.5t-77 109t-28 140.5t28 140.5t77 109t116 70.5t144 25t144 -25t116 -70.5t77 -109t28 -140.5t-28 -140.5t-77 -109t-116 -70.5t-144 -25zM383 166q36 0 65.5 13t50.5 35.5
t32.5 53t11.5 65.5t-11.5 65.5t-32.5 53t-50.5 35.5t-65.5 13t-65.5 -13t-50.5 -35.5t-32.5 -53t-11.5 -65.5t11.5 -65.5t32.5 -53t50.5 -35.5t65.5 -13zM431 517q-23 0 -39.5 3.25t-28.5 7.5t-22 7.5t-20 3.25t-17 -4.5t-7 -14h-89q0 34.5 30 50.75t88 16.25
q23 0 39.5 -3.25t28.5 -7.5t22 -7.5t20 -3.25t17 4.5t7 14h89q0 -34.5 -30 -50.75t-88 -16.25z" />
    <glyph glyph-name="uni1ED8" unicode="&#x1ed8;" horiz-adv-x="766" 
d="M449 723l-64 73l-61 -73h-105l88 144h156l91 -144h-105zM383 -12q-77 0 -144 25t-116 70.5t-77 109t-28 140.5t28 140.5t77 109t116 70.5t144 25t144 -25t116 -70.5t77 -109t28 -140.5t-28 -140.5t-77 -109t-116 -70.5t-144 -25zM383 166q36 0 65.5 13t50.5 35.5t32.5 53
t11.5 65.5t-11.5 65.5t-32.5 53t-50.5 35.5t-65.5 13t-65.5 -13t-50.5 -35.5t-32.5 -53t-11.5 -65.5t11.5 -65.5t32.5 -53t50.5 -35.5t65.5 -13zM385 -208q-37 0 -63 26t-26 63t26 63t63 26q18 0 34 -7t28 -19t19 -28.5t7 -34.5t-7 -34.5t-19 -28.5t-28 -19t-34 -7z" />
    <glyph glyph-name="Ohorn" unicode="&#x1a0;" horiz-adv-x="766" 
d="M383 -12q-77 0 -144 25t-116 70.5t-77 109t-28 140.5t28 140.5t77 109t116 70.5t144 25q81 0 150.5 -27.5t119.5 -78.5q13 10 25 24.5t17 28.5q-5 -3 -17 -3q-24 0 -40.5 16.5t-16.5 44.5q0 29 20 49t48 20q30 0 53 -22t23 -63q0 -42 -20 -77.5t-55 -61.5
q28 -41 43 -89.5t15 -105.5q0 -77 -28 -140.5t-77 -109t-116 -70.5t-144 -25zM383 166q36 0 65.5 13t50.5 35.5t32.5 53t11.5 65.5t-11.5 65.5t-32.5 53t-50.5 35.5t-65.5 13t-65.5 -13t-50.5 -35.5t-32.5 -53t-11.5 -65.5t11.5 -65.5t32.5 -53t50.5 -35.5t65.5 -13z" />
    <glyph glyph-name="uni1EDA" unicode="&#x1eda;" horiz-adv-x="766" 
d="M432 723h-120l120 144h155zM383 -12q-77 0 -144 25t-116 70.5t-77 109t-28 140.5t28 140.5t77 109t116 70.5t144 25q81 0 150.5 -27.5t119.5 -78.5q13 10 25 24.5t17 28.5q-5 -3 -17 -3q-24 0 -40.5 16.5t-16.5 44.5q0 29 20 49t48 20q30 0 53 -22t23 -63
q0 -42 -20 -77.5t-55 -61.5q28 -41 43 -89.5t15 -105.5q0 -77 -28 -140.5t-77 -109t-116 -70.5t-144 -25zM383 166q36 0 65.5 13t50.5 35.5t32.5 53t11.5 65.5t-11.5 65.5t-32.5 53t-50.5 35.5t-65.5 13t-65.5 -13t-50.5 -35.5t-32.5 -53t-11.5 -65.5t11.5 -65.5t32.5 -53
t50.5 -35.5t65.5 -13z" />
    <glyph glyph-name="uni1EDC" unicode="&#x1edc;" horiz-adv-x="766" 
d="M383 -12q-77 0 -144 25t-116 70.5t-77 109t-28 140.5t28 140.5t77 109t116 70.5t144 25q81 0 150.5 -27.5t119.5 -78.5q13 10 25 24.5t17 28.5q-5 -3 -17 -3q-24 0 -40.5 16.5t-16.5 44.5q0 29 20 49t48 20q30 0 53 -22t23 -63q0 -42 -20 -77.5t-55 -61.5
q28 -41 43 -89.5t15 -105.5q0 -77 -28 -140.5t-77 -109t-116 -70.5t-144 -25zM383 166q36 0 65.5 13t50.5 35.5t32.5 53t11.5 65.5t-11.5 65.5t-32.5 53t-50.5 35.5t-65.5 13t-65.5 -13t-50.5 -35.5t-32.5 -53t-11.5 -65.5t11.5 -65.5t32.5 -53t50.5 -35.5t65.5 -13z
M332 723l-155 144h155l120 -144h-120z" />
    <glyph glyph-name="uni1EDE" unicode="&#x1ede;" horiz-adv-x="766" 
d="M383 -12q-77 0 -144 25t-116 70.5t-77 109t-28 140.5t28 140.5t77 109t116 70.5t144 25q81 0 150.5 -27.5t119.5 -78.5q13 10 25 24.5t17 28.5q-5 -3 -17 -3q-24 0 -40.5 16.5t-16.5 44.5q0 29 20 49t48 20q30 0 53 -22t23 -63q0 -42 -20 -77.5t-55 -61.5
q28 -41 43 -89.5t15 -105.5q0 -77 -28 -140.5t-77 -109t-116 -70.5t-144 -25zM383 166q36 0 65.5 13t50.5 35.5t32.5 53t11.5 65.5t-11.5 65.5t-32.5 53t-50.5 35.5t-65.5 13t-65.5 -13t-50.5 -35.5t-32.5 -53t-11.5 -65.5t11.5 -65.5t32.5 -53t50.5 -35.5t65.5 -13z
M296 762q11 31 34.5 44.5t51.5 13.5q35 0 61.5 -17.5t26.5 -57.5q0 -14 -3.5 -25.5t-8.5 -22.5h-70q17 18 17 44q0 14 -7.5 19.5t-15.5 5.5q-11 0 -17.5 -7t-10.5 -16z" />
    <glyph glyph-name="uni1EE0" unicode="&#x1ee0;" horiz-adv-x="766" 
d="M383 -12q-77 0 -144 25t-116 70.5t-77 109t-28 140.5t28 140.5t77 109t116 70.5t144 25q81 0 150.5 -27.5t119.5 -78.5q13 10 25 24.5t17 28.5q-5 -3 -17 -3q-24 0 -40.5 16.5t-16.5 44.5q0 29 20 49t48 20q30 0 53 -22t23 -63q0 -42 -20 -77.5t-55 -61.5
q28 -41 43 -89.5t15 -105.5q0 -77 -28 -140.5t-77 -109t-116 -70.5t-144 -25zM383 166q36 0 65.5 13t50.5 35.5t32.5 53t11.5 65.5t-11.5 65.5t-32.5 53t-50.5 35.5t-65.5 13t-65.5 -13t-50.5 -35.5t-32.5 -53t-11.5 -65.5t11.5 -65.5t32.5 -53t50.5 -35.5t65.5 -13z
M436 721q-23 0 -39.5 6.5t-28.5 15t-22 15t-20 6.5t-17 -9t-7 -28h-89q0 69 30 101.5t88 32.5q23 0 39.5 -6.5t28.5 -15t22 -15t20 -6.5t17 9t7 28h89q0 -69 -30 -101.5t-88 -32.5z" />
    <glyph glyph-name="uni1EE2" unicode="&#x1ee2;" horiz-adv-x="766" 
d="M383 -12q-77 0 -144 25t-116 70.5t-77 109t-28 140.5t28 140.5t77 109t116 70.5t144 25q81 0 150.5 -27.5t119.5 -78.5q13 10 25 24.5t17 28.5q-5 -3 -17 -3q-24 0 -40.5 16.5t-16.5 44.5q0 29 20 49t48 20q30 0 53 -22t23 -63q0 -42 -20 -77.5t-55 -61.5
q28 -41 43 -89.5t15 -105.5q0 -77 -28 -140.5t-77 -109t-116 -70.5t-144 -25zM383 166q36 0 65.5 13t50.5 35.5t32.5 53t11.5 65.5t-11.5 65.5t-32.5 53t-50.5 35.5t-65.5 13t-65.5 -13t-50.5 -35.5t-32.5 -53t-11.5 -65.5t11.5 -65.5t32.5 -53t50.5 -35.5t65.5 -13z
M385 -208q-37 0 -63 26t-26 63t26 63t63 26q18 0 34 -7t28 -19t19 -28.5t7 -34.5t-7 -34.5t-19 -28.5t-28 -19t-34 -7z" />
    <glyph glyph-name="OE" unicode="&#x152;" horiz-adv-x="1062" 
d="M526 0v36q-32 -25 -78.5 -36.5t-87.5 -11.5q-73 0 -135.5 25t-108.5 70t-72 108.5t-26 141.5t26 141.5t72 108.5t108.5 69.5t135.5 24.5q41 0 87.5 -11t78.5 -35v36h506v-176h-304v-66h297v-176h-297v-73h304v-176h-506zM526 430q-19 32 -54.5 50.5t-80.5 18.5
q-39 0 -70.5 -13t-53 -35.5t-33 -52.5t-11.5 -65t11.5 -65.5t33 -53t53 -35.5t70.5 -13q45 0 80.5 19.5t54.5 51.5v193z" />
    <glyph glyph-name="uni1E56" unicode="&#x1e56;" horiz-adv-x="662" 
d="M54 0v667h356q58 0 103 -18t75.5 -49.5t46 -73t15.5 -88.5t-15.5 -88t-46 -72.5t-75.5 -49.5t-103 -18h-154v-210h-202zM384 386q26 0 43.5 13t17.5 39q0 27 -17.5 40t-43.5 13h-128v-105h128zM331 697q-37 0 -63 26t-26 63t26 63t63 26q18 0 34 -7t28 -19t19 -28.5
t7 -34.5t-7 -34.5t-19 -28.5t-28 -19t-34 -7z" />
    <glyph glyph-name="Racute" unicode="&#x154;" horiz-adv-x="678" 
d="M401 723h-120l120 144h155zM421 0l-92 210h-73v-210h-202v667h356q58 0 103 -18t75.5 -49.5t46 -73t15.5 -88.5q0 -43 -11.5 -76.5t-29 -58t-38.5 -41t-41 -26.5l121 -236h-230zM379 386q26 0 46 12.5t20 40.5q0 27 -20 39.5t-46 12.5h-123v-105h123z" />
    <glyph glyph-name="Rcaron" unicode="&#x158;" horiz-adv-x="678" 
d="M266 723l-91 144h105l64 -73l61 73h105l-88 -144h-156zM421 0l-92 210h-73v-210h-202v667h356q58 0 103 -18t75.5 -49.5t46 -73t15.5 -88.5q0 -43 -11.5 -76.5t-29 -58t-38.5 -41t-41 -26.5l121 -236h-230zM379 386q26 0 46 12.5t20 40.5q0 27 -20 39.5t-46 12.5h-123
v-105h123z" />
    <glyph glyph-name="Rcommaaccent" unicode="&#x156;" horiz-adv-x="678" 
d="M428 -139q0 -50 -25 -92t-69 -73l-55 44q9 4 19.5 12t20 18t17.5 21t11 22q-5 -3 -19 -3q-27 0 -46 18.5t-19 50.5q0 33 23 56t55 23q34 0 60.5 -25t26.5 -72zM421 0l-92 210h-73v-210h-202v667h356q58 0 103 -18t75.5 -49.5t46 -73t15.5 -88.5q0 -43 -11.5 -76.5
t-29 -58t-38.5 -41t-41 -26.5l121 -236h-230zM379 386q26 0 46 12.5t20 40.5q0 27 -20 39.5t-46 12.5h-123v-105h123z" />
    <glyph glyph-name="Sacute" unicode="&#x15a;" horiz-adv-x="613" 
d="M358 723h-120l120 144h155zM313 -12q-107 0 -181.5 29t-128.5 77l105 150q38 -36 92.5 -61t122.5 -25q29 0 51.5 8t22.5 28q0 16 -27.5 23.5t-69 14.5t-89.5 18.5t-89.5 35t-69 64t-27.5 106.5q0 42 17.5 82t52.5 71t86.5 49.5t120.5 18.5q82 0 154 -23t129 -70
l-108 -143q-44 33 -96 49.5t-100 16.5q-30 0 -40.5 -8.5t-10.5 -21.5q0 -16 27.5 -24t68.5 -15.5t89.5 -19.5t89.5 -35t68.5 -62t27.5 -101q0 -55 -20 -98t-57 -73t-90.5 -45.5t-120.5 -15.5z" />
    <glyph glyph-name="Scaron" unicode="&#x160;" horiz-adv-x="613" 
d="M223 723l-91 144h105l64 -73l61 73h105l-88 -144h-156zM313 -12q-107 0 -181.5 29t-128.5 77l105 150q38 -36 92.5 -61t122.5 -25q29 0 51.5 8t22.5 28q0 16 -27.5 23.5t-69 14.5t-89.5 18.5t-89.5 35t-69 64t-27.5 106.5q0 42 17.5 82t52.5 71t86.5 49.5t120.5 18.5
q82 0 154 -23t129 -70l-108 -143q-44 33 -96 49.5t-100 16.5q-30 0 -40.5 -8.5t-10.5 -21.5q0 -16 27.5 -24t68.5 -15.5t89.5 -19.5t89.5 -35t68.5 -62t27.5 -101q0 -55 -20 -98t-57 -73t-90.5 -45.5t-120.5 -15.5z" />
    <glyph glyph-name="Scircumflex" unicode="&#x15c;" horiz-adv-x="613" 
d="M362 723l-64 73l-61 -73h-105l88 144h156l91 -144h-105zM313 -12q-107 0 -181.5 29t-128.5 77l105 150q38 -36 92.5 -61t122.5 -25q29 0 51.5 8t22.5 28q0 16 -27.5 23.5t-69 14.5t-89.5 18.5t-89.5 35t-69 64t-27.5 106.5q0 42 17.5 82t52.5 71t86.5 49.5t120.5 18.5
q82 0 154 -23t129 -70l-108 -143q-44 33 -96 49.5t-100 16.5q-30 0 -40.5 -8.5t-10.5 -21.5q0 -16 27.5 -24t68.5 -15.5t89.5 -19.5t89.5 -35t68.5 -62t27.5 -101q0 -55 -20 -98t-57 -73t-90.5 -45.5t-120.5 -15.5z" />
    <glyph glyph-name="Scedilla" unicode="&#x15e;" horiz-adv-x="613" 
d="M296 -200q-40 0 -71 10t-48 24l31 64q20 -14 41 -22t42 -8q16 0 29 5.5t13 18.5q0 17 -21 17q-16 0 -26 -12l-59 34l22 61q-81 8 -141 34.5t-105 67.5l105 150q38 -36 92.5 -61t122.5 -25q29 0 51.5 8t22.5 28q0 16 -27.5 23.5t-69 14.5t-89.5 18.5t-89.5 35t-69 64
t-27.5 106.5q0 42 17.5 82t52.5 71t86.5 49.5t120.5 18.5q82 0 154 -23t129 -70l-108 -143q-44 33 -96 49.5t-100 16.5q-30 0 -40.5 -8.5t-10.5 -21.5q0 -16 27.5 -24t68.5 -15.5t89.5 -19.5t89.5 -35t68.5 -62t27.5 -101q0 -108 -72.5 -168t-201.5 -64l-15 -35q15 9 34 9
q27 0 47.5 -20.5t20.5 -52.5q0 -43 -35 -66t-83 -23z" />
    <glyph glyph-name="Scommaaccent" unicode="&#x218;" horiz-adv-x="613" 
d="M389 -139q0 -50 -25 -92t-69 -73l-55 44q9 4 19.5 12t20 18t17.5 21t11 22q-5 -3 -19 -3q-27 0 -46 18.5t-19 50.5q0 33 23 56t55 23q34 0 60.5 -25t26.5 -72zM313 -12q-107 0 -181.5 29t-128.5 77l105 150q38 -36 92.5 -61t122.5 -25q29 0 51.5 8t22.5 28
q0 16 -27.5 23.5t-69 14.5t-89.5 18.5t-89.5 35t-69 64t-27.5 106.5q0 42 17.5 82t52.5 71t86.5 49.5t120.5 18.5q82 0 154 -23t129 -70l-108 -143q-44 33 -96 49.5t-100 16.5q-30 0 -40.5 -8.5t-10.5 -21.5q0 -16 27.5 -24t68.5 -15.5t89.5 -19.5t89.5 -35t68.5 -62
t27.5 -101q0 -55 -20 -98t-57 -73t-90.5 -45.5t-120.5 -15.5z" />
    <glyph glyph-name="uni1E60" unicode="&#x1e60;" horiz-adv-x="613" 
d="M313 -12q-107 0 -181.5 29t-128.5 77l105 150q38 -36 92.5 -61t122.5 -25q29 0 51.5 8t22.5 28q0 16 -27.5 23.5t-69 14.5t-89.5 18.5t-89.5 35t-69 64t-27.5 106.5q0 42 17.5 82t52.5 71t86.5 49.5t120.5 18.5q82 0 154 -23t129 -70l-108 -143q-44 33 -96 49.5
t-100 16.5q-30 0 -40.5 -8.5t-10.5 -21.5q0 -16 27.5 -24t68.5 -15.5t89.5 -19.5t89.5 -35t68.5 -62t27.5 -101q0 -55 -20 -98t-57 -73t-90.5 -45.5t-120.5 -15.5zM307 697q-37 0 -63 26t-26 63t26 63t63 26q18 0 34 -7t28 -19t19 -28.5t7 -34.5t-7 -34.5t-19 -28.5t-28 -19
t-34 -7z" />
    <glyph glyph-name="Tbar" unicode="&#x166;" horiz-adv-x="595" 
d="M197 0v231h-116v97h116v163h-179v176h559v-176h-178v-163h118v-97h-118v-231h-202z" />
    <glyph glyph-name="Tcaron" unicode="&#x164;" horiz-adv-x="595" 
d="M221 723l-91 144h105l64 -73l61 73h105l-88 -144h-156zM197 0v491h-179v176h559v-176h-178v-491h-202z" />
    <glyph glyph-name="Tcommaaccent" unicode="&#x162;" horiz-adv-x="595" 
d="M383 -139q0 -50 -25 -92t-69 -73l-55 44q9 4 19.5 12t20 18t17.5 21t11 22q-5 -3 -19 -3q-27 0 -46 18.5t-19 50.5q0 33 23 56t55 23q34 0 60.5 -25t26.5 -72zM197 0v491h-179v176h559v-176h-178v-491h-202z" />
    <glyph glyph-name="uni021A" unicode="&#x21a;" horiz-adv-x="595" 
d="M383 -139q0 -50 -25 -92t-69 -73l-55 44q9 4 19.5 12t20 18t17.5 21t11 22q-5 -3 -19 -3q-27 0 -46 18.5t-19 50.5q0 33 23 56t55 23q34 0 60.5 -25t26.5 -72zM197 0v491h-179v176h559v-176h-178v-491h-202z" />
    <glyph glyph-name="uni1E6A" unicode="&#x1e6a;" horiz-adv-x="595" 
d="M197 0v491h-179v176h559v-176h-178v-491h-202zM298 697q-37 0 -63 26t-26 63t26 63t63 26q18 0 34 -7t28 -19t19 -28.5t7 -34.5t-7 -34.5t-19 -28.5t-28 -19t-34 -7z" />
    <glyph glyph-name="Uacute" unicode="&#xda;" horiz-adv-x="767" 
d="M435 723h-120l120 144h155zM384 -12q-84 0 -146.5 21.5t-103 59.5t-60.5 90.5t-20 114.5v393h205v-386q0 -48 31 -81.5t94 -33.5q62 0 93 33.5t31 81.5v386h205v-392q0 -62 -20 -115t-60.5 -91t-102.5 -59.5t-146 -21.5z" />
    <glyph glyph-name="Ubreve" unicode="&#x16c;" horiz-adv-x="767" 
d="M384 -12q-84 0 -146.5 21.5t-103 59.5t-60.5 90.5t-20 114.5v393h205v-386q0 -48 31 -81.5t94 -33.5q62 0 93 33.5t31 81.5v386h205v-392q0 -62 -20 -115t-60.5 -91t-102.5 -59.5t-146 -21.5zM561 779q-30 -41 -75.5 -64.5t-99.5 -23.5t-99.5 23.5t-76.5 64.5l76 62
q17 -23 42 -38t58 -15q63 0 100 53l75 -62v0z" />
    <glyph glyph-name="Ucircumflex" unicode="&#xdb;" horiz-adv-x="767" 
d="M454 723l-64 73l-61 -73h-105l88 144h156l91 -144h-105zM384 -12q-84 0 -146.5 21.5t-103 59.5t-60.5 90.5t-20 114.5v393h205v-386q0 -48 31 -81.5t94 -33.5q62 0 93 33.5t31 81.5v386h205v-392q0 -62 -20 -115t-60.5 -91t-102.5 -59.5t-146 -21.5z" />
    <glyph glyph-name="Udieresis" unicode="&#xdc;" horiz-adv-x="767" 
d="M585 785q0 -38 -26 -63.5t-64 -25.5q-37 0 -63 25.5t-26 63.5t26 63.5t63 25.5q38 0 64 -25.5t26 -63.5zM368 785q0 -38 -25.5 -63.5t-63.5 -25.5t-63.5 25.5t-25.5 63.5t25.5 63.5t63.5 25.5t63.5 -25.5t25.5 -63.5zM384 -12q-84 0 -146.5 21.5t-103 59.5t-60.5 90.5
t-20 114.5v393h205v-386q0 -48 31 -81.5t94 -33.5q62 0 93 33.5t31 81.5v386h205v-392q0 -62 -20 -115t-60.5 -91t-102.5 -59.5t-146 -21.5z" />
    <glyph glyph-name="Ugrave" unicode="&#xd9;" horiz-adv-x="767" 
d="M384 -12q-84 0 -146.5 21.5t-103 59.5t-60.5 90.5t-20 114.5v393h205v-386q0 -48 31 -81.5t94 -33.5q62 0 93 33.5t31 81.5v386h205v-392q0 -62 -20 -115t-60.5 -91t-102.5 -59.5t-146 -21.5zM332 723l-155 144h155l120 -144h-120z" />
    <glyph glyph-name="Uhungarumlaut" unicode="&#x170;" horiz-adv-x="767" 
d="M384 -12q-84 0 -146.5 21.5t-103 59.5t-60.5 90.5t-20 114.5v393h205v-386q0 -48 31 -81.5t94 -33.5q62 0 93 33.5t31 81.5v386h205v-392q0 -62 -20 -115t-60.5 -91t-102.5 -59.5t-146 -21.5zM351 723h-100l80 144h135zM507 723h-100l80 144h135z" />
    <glyph glyph-name="Umacron" unicode="&#x16a;" horiz-adv-x="767" 
d="M384 -12q-84 0 -146.5 21.5t-103 59.5t-60.5 90.5t-20 114.5v393h205v-386q0 -48 31 -81.5t94 -33.5q62 0 93 33.5t31 81.5v386h205v-392q0 -62 -20 -115t-60.5 -91t-102.5 -59.5t-146 -21.5zM205 718v97h363v-97h-363z" />
    <glyph glyph-name="Uogonek" unicode="&#x172;" horiz-adv-x="767" 
d="M562 -133q-17 -25 -41.5 -39t-59.5 -14q-21 0 -41 5.5t-35.5 16.5t-24.5 29t-9 43q0 44 28 80q-83 1 -144.5 22.5t-101.5 59.5t-59.5 90t-19.5 114v393h205v-386q0 -48 31 -81.5t94 -33.5q62 0 93 33.5t31 81.5v386h205v-392q0 -51 -13 -95.5t-40 -80t-67.5 -61
t-95.5 -38.5q-37 -19 -51 -40.5t-14 -43.5q0 -20 10 -27t19 -7q14 0 22 8.5t13 19.5z" />
    <glyph glyph-name="Uring" unicode="&#x16e;" horiz-adv-x="767" 
d="M387 686q-23 0 -43.5 9t-35.5 24t-24 35.5t-9 43.5t9 43.5t24 35.5t35.5 24t43.5 9t43 -9t35 -24t23.5 -35.5t8.5 -43.5t-8.5 -43.5t-23.5 -35.5t-35 -24t-43 -9zM387 763q14 0 24 10.5t10 24.5t-10 24.5t-24 10.5t-24.5 -10.5t-10.5 -24.5t10.5 -24.5t24.5 -10.5z
M384 -12q-84 0 -146.5 21.5t-103 59.5t-60.5 90.5t-20 114.5v393h205v-386q0 -48 31 -81.5t94 -33.5q62 0 93 33.5t31 81.5v386h205v-392q0 -62 -20 -115t-60.5 -91t-102.5 -59.5t-146 -21.5z" />
    <glyph glyph-name="Utilde" unicode="&#x168;" horiz-adv-x="767" 
d="M384 -12q-84 0 -146.5 21.5t-103 59.5t-60.5 90.5t-20 114.5v393h205v-386q0 -48 31 -81.5t94 -33.5q62 0 93 33.5t31 81.5v386h205v-392q0 -62 -20 -115t-60.5 -91t-102.5 -59.5t-146 -21.5zM438 721q-23 0 -39.5 6.5t-28.5 15t-22 15t-20 6.5t-17 -9t-7 -28h-89
q0 69 30 101.5t88 32.5q23 0 39.5 -6.5t28.5 -15t22 -15t20 -6.5t17 9t7 28h89q0 -69 -30 -101.5t-88 -32.5z" />
    <glyph glyph-name="uni1EE4" unicode="&#x1ee4;" horiz-adv-x="767" 
d="M384 -12q-84 0 -146.5 21.5t-103 59.5t-60.5 90.5t-20 114.5v393h205v-386q0 -48 31 -81.5t94 -33.5q62 0 93 33.5t31 81.5v386h205v-392q0 -62 -20 -115t-60.5 -91t-102.5 -59.5t-146 -21.5zM387 -208q-37 0 -63 26t-26 63t26 63t63 26q18 0 34 -7t28 -19t19 -28.5
t7 -34.5t-7 -34.5t-19 -28.5t-28 -19t-34 -7z" />
    <glyph glyph-name="Uhorn" unicode="&#x1af;" horiz-adv-x="767" 
d="M817 725q0 -42 -25 -85.5t-79 -72.5v-292q0 -62 -20 -115t-60.5 -91t-102.5 -59.5t-146 -21.5t-146.5 21.5t-103 59.5t-60.5 90.5t-20 114.5v393h205v-386q0 -48 31 -81.5t94 -33.5q62 0 93 33.5t31 81.5v386h205v-30q11 10 20 22t14 24q-5 -3 -17 -3q-24 0 -40.5 16.5
t-16.5 44.5q0 29 20 49t48 20q30 0 53 -22t23 -63z" />
    <glyph glyph-name="uni1EE6" unicode="&#x1ee6;" horiz-adv-x="767" 
d="M384 -12q-84 0 -146.5 21.5t-103 59.5t-60.5 90.5t-20 114.5v393h205v-386q0 -48 31 -81.5t94 -33.5q62 0 93 33.5t31 81.5v386h205v-392q0 -62 -20 -115t-60.5 -91t-102.5 -59.5t-146 -21.5zM296 762q11 31 34.5 44.5t51.5 13.5q35 0 61.5 -17.5t26.5 -57.5
q0 -14 -3.5 -25.5t-8.5 -22.5h-70q17 18 17 44q0 14 -7.5 19.5t-15.5 5.5q-11 0 -17.5 -7t-10.5 -16z" />
    <glyph glyph-name="uni1EE8" unicode="&#x1ee8;" horiz-adv-x="767" 
d="M435 723h-120l120 144h155zM817 725q0 -42 -25 -85.5t-79 -72.5v-292q0 -62 -20 -115t-60.5 -91t-102.5 -59.5t-146 -21.5t-146.5 21.5t-103 59.5t-60.5 90.5t-20 114.5v393h205v-386q0 -48 31 -81.5t94 -33.5q62 0 93 33.5t31 81.5v386h205v-30q11 10 20 22t14 24
q-5 -3 -17 -3q-24 0 -40.5 16.5t-16.5 44.5q0 29 20 49t48 20q30 0 53 -22t23 -63z" />
    <glyph glyph-name="uni1EEA" unicode="&#x1eea;" horiz-adv-x="767" 
d="M332 723l-155 144h155l120 -144h-120zM817 725q0 -42 -25 -85.5t-79 -72.5v-292q0 -62 -20 -115t-60.5 -91t-102.5 -59.5t-146 -21.5t-146.5 21.5t-103 59.5t-60.5 90.5t-20 114.5v393h205v-386q0 -48 31 -81.5t94 -33.5q62 0 93 33.5t31 81.5v386h205v-30q11 10 20 22
t14 24q-5 -3 -17 -3q-24 0 -40.5 16.5t-16.5 44.5q0 29 20 49t48 20q30 0 53 -22t23 -63z" />
    <glyph glyph-name="uni1EEC" unicode="&#x1eec;" horiz-adv-x="767" 
d="M296 762q11 31 34.5 44.5t51.5 13.5q35 0 61.5 -17.5t26.5 -57.5q0 -14 -3.5 -25.5t-8.5 -22.5h-70q17 18 17 44q0 14 -7.5 19.5t-15.5 5.5q-11 0 -17.5 -7t-10.5 -16zM817 725q0 -42 -25 -85.5t-79 -72.5v-292q0 -62 -20 -115t-60.5 -91t-102.5 -59.5t-146 -21.5
t-146.5 21.5t-103 59.5t-60.5 90.5t-20 114.5v393h205v-386q0 -48 31 -81.5t94 -33.5q62 0 93 33.5t31 81.5v386h205v-30q11 10 20 22t14 24q-5 -3 -17 -3q-24 0 -40.5 16.5t-16.5 44.5q0 29 20 49t48 20q30 0 53 -22t23 -63z" />
    <glyph glyph-name="uni1EEE" unicode="&#x1eee;" horiz-adv-x="767" 
d="M817 725q0 -42 -25 -85.5t-79 -72.5v-292q0 -62 -20 -115t-60.5 -91t-102.5 -59.5t-146 -21.5t-146.5 21.5t-103 59.5t-60.5 90.5t-20 114.5v393h205v-386q0 -48 31 -81.5t94 -33.5q62 0 93 33.5t31 81.5v386h205v-30q11 10 20 22t14 24q-5 -3 -17 -3q-24 0 -40.5 16.5
t-16.5 44.5q0 29 20 49t48 20q30 0 53 -22t23 -63zM436 721q-23 0 -39.5 6.5t-28.5 15t-22 15t-20 6.5t-17 -9t-7 -28h-89q0 69 30 101.5t88 32.5q23 0 39.5 -6.5t28.5 -15t22 -15t20 -6.5t17 9t7 28h89q0 -69 -30 -101.5t-88 -32.5z" />
    <glyph glyph-name="uni1EF0" unicode="&#x1ef0;" horiz-adv-x="767" 
d="M387 -208q-37 0 -63 26t-26 63t26 63t63 26q18 0 34 -7t28 -19t19 -28.5t7 -34.5t-7 -34.5t-19 -28.5t-28 -19t-34 -7zM817 725q0 -42 -25 -85.5t-79 -72.5v-292q0 -62 -20 -115t-60.5 -91t-102.5 -59.5t-146 -21.5t-146.5 21.5t-103 59.5t-60.5 90.5t-20 114.5v393h205
v-386q0 -48 31 -81.5t94 -33.5q62 0 93 33.5t31 81.5v386h205v-30q11 10 20 22t14 24q-5 -3 -17 -3q-24 0 -40.5 16.5t-16.5 44.5q0 29 20 49t48 20q30 0 53 -22t23 -63z" />
    <glyph glyph-name="Wacute" unicode="&#x1e82;" horiz-adv-x="954" 
d="M529 723h-120l120 144h155zM563 0l-86 378l-86 -378h-212l-191 667h226l86 -408l101 408h152l101 -408l85 408h227l-191 -667h-212z" />
    <glyph glyph-name="Wcircumflex" unicode="&#x174;" horiz-adv-x="954" 
d="M540 723l-64 73l-61 -73h-105l88 144h156l91 -144h-105zM563 0l-86 378l-86 -378h-212l-191 667h226l86 -408l101 408h152l101 -408l85 408h227l-191 -667h-212z" />
    <glyph glyph-name="Wdieresis" unicode="&#x1e84;" horiz-adv-x="954" 
d="M674 785q0 -38 -26 -63.5t-64 -25.5q-37 0 -63 25.5t-26 63.5t26 63.5t63 25.5q38 0 64 -25.5t26 -63.5zM457 785q0 -38 -25.5 -63.5t-63.5 -25.5t-63.5 25.5t-25.5 63.5t25.5 63.5t63.5 25.5t63.5 -25.5t25.5 -63.5zM563 0l-86 378l-86 -378h-212l-191 667h226l86 -408
l101 408h152l101 -408l85 408h227l-191 -667h-212z" />
    <glyph glyph-name="Wgrave" unicode="&#x1e80;" horiz-adv-x="954" 
d="M563 0l-86 378l-86 -378h-212l-191 667h226l86 -408l101 408h152l101 -408l85 408h227l-191 -667h-212zM427 723l-155 144h155l120 -144h-120z" />
    <glyph glyph-name="Yacute" unicode="&#xdd;" horiz-adv-x="664" 
d="M232 0v265l-250 402h227l124 -225l122 225h227l-248 -402v-265h-202zM383 723h-120l120 144h155z" />
    <glyph glyph-name="Ycircumflex" unicode="&#x176;" horiz-adv-x="664" 
d="M397 723l-64 73l-61 -73h-105l88 144h156l91 -144h-105zM232 0v265l-250 402h227l124 -225l122 225h227l-248 -402v-265h-202z" />
    <glyph glyph-name="Ydieresis" unicode="&#x178;" horiz-adv-x="664" 
d="M531 785q0 -38 -26 -63.5t-64 -25.5q-37 0 -63 25.5t-26 63.5t26 63.5t63 25.5q38 0 64 -25.5t26 -63.5zM314 785q0 -38 -25.5 -63.5t-63.5 -25.5t-63.5 25.5t-25.5 63.5t25.5 63.5t63.5 25.5t63.5 -25.5t25.5 -63.5zM232 0v265l-250 402h227l124 -225l122 225h227
l-248 -402v-265h-202z" />
    <glyph glyph-name="Ygrave" unicode="&#x1ef2;" horiz-adv-x="664" 
d="M232 0v265l-250 402h227l124 -225l122 225h227l-248 -402v-265h-202zM282 723l-155 144h155l120 -144h-120z" />
    <glyph glyph-name="Zacute" unicode="&#x179;" horiz-adv-x="600" 
d="M300 723h-120l120 144h155zM36 0v160l254 331h-254v176h521v-159l-255 -332h262v-176h-528z" />
    <glyph glyph-name="Zcaron" unicode="&#x17d;" horiz-adv-x="600" 
d="M224 723l-91 144h105l64 -73l61 73h105l-88 -144h-156zM36 0v160l254 331h-254v176h521v-159l-255 -332h262v-176h-528z" />
    <glyph glyph-name="Zdotaccent" unicode="&#x17b;" horiz-adv-x="600" 
d="M36 0v160l254 331h-254v176h521v-159l-255 -332h262v-176h-528zM292 697q-37 0 -63 26t-26 63t26 63t63 26q18 0 34 -7t28 -19t19 -28.5t7 -34.5t-7 -34.5t-19 -28.5t-28 -19t-34 -7z" />
    <glyph glyph-name="Eth" unicode="&#xd0;" horiz-adv-x="757" 
d="M75 0v254h-68v159h68v254h298q79 0 146 -22t116 -64.5t76.5 -104.5t27.5 -142t-27.5 -142t-76.5 -105t-116 -65t-145 -22h-299zM373 176q38 0 68 13t50.5 34.5t31.5 50t11 60.5q0 34 -10 62.5t-29.5 49.5t-50 33t-70.5 12h-97v-78h129v-159h-129v-78h96z" />
    <glyph glyph-name="Thorn" unicode="&#xde;" horiz-adv-x="662" 
d="M54 0v667h202v-96h154q58 0 103 -18.5t75.5 -50t46 -73t15.5 -88.5t-15.5 -88.5t-46 -72t-75.5 -48.5t-103 -18h-154v-114h-202zM379 290q26 0 46 13t20 39t-20 39.5t-46 13.5h-123v-105h123z" />
    <glyph glyph-name="aacute" unicode="&#xe1;" horiz-adv-x="559" 
d="M329 0v46q-20 -26 -60.5 -42t-85.5 -16q-27 0 -56.5 9.5t-53.5 29t-40 49.5t-16 71q0 45 16 74.5t40 47.5t53.5 25t56.5 7q48 0 87 -14t59 -39v50q0 26 -22.5 43t-67.5 17q-34 0 -69.5 -12.5t-64.5 -34.5l-61 111q49 39 111 56t117 17q45 0 87.5 -9t76 -32t53.5 -62.5
t20 -99.5v-292h-180zM258 105q21 0 41.5 6.5t29.5 19.5v27q-9 13 -29.5 19.5t-41.5 6.5q-23 0 -43 -9t-20 -31q0 -11 5.5 -18.5t14.5 -12t20.5 -6.5t22.5 -2zM323 556h-120l120 144h155z" />
    <glyph glyph-name="abreve" unicode="&#x103;" horiz-adv-x="559" 
d="M329 0v46q-20 -26 -60.5 -42t-85.5 -16q-27 0 -56.5 9.5t-53.5 29t-40 49.5t-16 71q0 45 16 74.5t40 47.5t53.5 25t56.5 7q48 0 87 -14t59 -39v50q0 26 -22.5 43t-67.5 17q-34 0 -69.5 -12.5t-64.5 -34.5l-61 111q49 39 111 56t117 17q45 0 87.5 -9t76 -32t53.5 -62.5
t20 -99.5v-292h-180zM258 105q21 0 41.5 6.5t29.5 19.5v27q-9 13 -29.5 19.5t-41.5 6.5q-23 0 -43 -9t-20 -31q0 -11 5.5 -18.5t14.5 -12t20.5 -6.5t22.5 -2zM451 612q-30 -41 -75.5 -64.5t-99.5 -23.5t-99.5 23.5t-76.5 64.5l76 62q17 -23 42 -38t58 -15q63 0 100 53
l75 -62v0z" />
    <glyph glyph-name="acircumflex" unicode="&#xe2;" horiz-adv-x="559" 
d="M329 0v46q-20 -26 -60.5 -42t-85.5 -16q-27 0 -56.5 9.5t-53.5 29t-40 49.5t-16 71q0 45 16 74.5t40 47.5t53.5 25t56.5 7q48 0 87 -14t59 -39v50q0 26 -22.5 43t-67.5 17q-34 0 -69.5 -12.5t-64.5 -34.5l-61 111q49 39 111 56t117 17q45 0 87.5 -9t76 -32t53.5 -62.5
t20 -99.5v-292h-180zM258 105q21 0 41.5 6.5t29.5 19.5v27q-9 13 -29.5 19.5t-41.5 6.5q-23 0 -43 -9t-20 -31q0 -11 5.5 -18.5t14.5 -12t20.5 -6.5t22.5 -2zM341 556l-64 73l-61 -73h-105l88 144h156l91 -144h-105z" />
    <glyph glyph-name="adieresis" unicode="&#xe4;" horiz-adv-x="559" 
d="M329 0v46q-20 -26 -60.5 -42t-85.5 -16q-27 0 -56.5 9.5t-53.5 29t-40 49.5t-16 71q0 45 16 74.5t40 47.5t53.5 25t56.5 7q48 0 87 -14t59 -39v50q0 26 -22.5 43t-67.5 17q-34 0 -69.5 -12.5t-64.5 -34.5l-61 111q49 39 111 56t117 17q45 0 87.5 -9t76 -32t53.5 -62.5
t20 -99.5v-292h-180zM258 105q21 0 41.5 6.5t29.5 19.5v27q-9 13 -29.5 19.5t-41.5 6.5q-23 0 -43 -9t-20 -31q0 -11 5.5 -18.5t14.5 -12t20.5 -6.5t22.5 -2zM471 618q0 -38 -26 -63.5t-64 -25.5q-37 0 -63 25.5t-26 63.5t26 63.5t63 25.5q38 0 64 -25.5t26 -63.5zM254 618
q0 -38 -25.5 -63.5t-63.5 -25.5t-63.5 25.5t-25.5 63.5t25.5 63.5t63.5 25.5t63.5 -25.5t25.5 -63.5z" />
    <glyph glyph-name="agrave" unicode="&#xe0;" horiz-adv-x="559" 
d="M329 0v46q-20 -26 -60.5 -42t-85.5 -16q-27 0 -56.5 9.5t-53.5 29t-40 49.5t-16 71q0 45 16 74.5t40 47.5t53.5 25t56.5 7q48 0 87 -14t59 -39v50q0 26 -22.5 43t-67.5 17q-34 0 -69.5 -12.5t-64.5 -34.5l-61 111q49 39 111 56t117 17q45 0 87.5 -9t76 -32t53.5 -62.5
t20 -99.5v-292h-180zM258 105q21 0 41.5 6.5t29.5 19.5v27q-9 13 -29.5 19.5t-41.5 6.5q-23 0 -43 -9t-20 -31q0 -11 5.5 -18.5t14.5 -12t20.5 -6.5t22.5 -2zM221 556l-155 144h155l120 -144h-120z" />
    <glyph glyph-name="amacron" unicode="&#x101;" horiz-adv-x="559" 
d="M329 0v46q-20 -26 -60.5 -42t-85.5 -16q-27 0 -56.5 9.5t-53.5 29t-40 49.5t-16 71q0 45 16 74.5t40 47.5t53.5 25t56.5 7q48 0 87 -14t59 -39v50q0 26 -22.5 43t-67.5 17q-34 0 -69.5 -12.5t-64.5 -34.5l-61 111q49 39 111 56t117 17q45 0 87.5 -9t76 -32t53.5 -62.5
t20 -99.5v-292h-180zM258 105q21 0 41.5 6.5t29.5 19.5v27q-9 13 -29.5 19.5t-41.5 6.5q-23 0 -43 -9t-20 -31q0 -11 5.5 -18.5t14.5 -12t20.5 -6.5t22.5 -2zM94 551v97h363v-97h-363z" />
    <glyph glyph-name="aogonek" unicode="&#x105;" horiz-adv-x="559" 
d="M574 -133q-17 -25 -41.5 -39t-59.5 -14q-21 0 -41 5.5t-35.5 16.5t-24.5 29t-9 43q0 53 39 92h-73v46q-20 -26 -60.5 -42t-85.5 -16q-27 0 -56.5 9.5t-53.5 29t-40 49.5t-16 71q0 45 16 74.5t40 47.5t53.5 25t56.5 7q48 0 87 -14t59 -39v50q0 26 -22.5 43t-67.5 17
q-34 0 -69.5 -12.5t-64.5 -34.5l-61 111q49 39 111 56t117 17q45 0 87.5 -9t76 -32t53.5 -62.5t20 -99.5v-292q-37 -19 -51 -40.5t-14 -43.5q0 -20 10 -27t19 -7q14 0 22 8.5t13 19.5zM258 105q21 0 41.5 6.5t29.5 19.5v27q-9 13 -29.5 19.5t-41.5 6.5q-23 0 -43 -9t-20 -31
q0 -11 5.5 -18.5t14.5 -12t20.5 -6.5t22.5 -2z" />
    <glyph glyph-name="aring" unicode="&#xe5;" horiz-adv-x="559" 
d="M329 0v46q-20 -26 -60.5 -42t-85.5 -16q-27 0 -56.5 9.5t-53.5 29t-40 49.5t-16 71q0 45 16 74.5t40 47.5t53.5 25t56.5 7q48 0 87 -14t59 -39v50q0 26 -22.5 43t-67.5 17q-34 0 -69.5 -12.5t-64.5 -34.5l-61 111q49 39 111 56t117 17q45 0 87.5 -9t76 -32t53.5 -62.5
t20 -99.5v-292h-180zM258 105q21 0 41.5 6.5t29.5 19.5v27q-9 13 -29.5 19.5t-41.5 6.5q-23 0 -43 -9t-20 -31q0 -11 5.5 -18.5t14.5 -12t20.5 -6.5t22.5 -2zM277 519q-23 0 -43.5 9t-35.5 24t-24 35.5t-9 43.5t9 43.5t24 35.5t35.5 24t43.5 9t43 -9t35 -24t23.5 -35.5
t8.5 -43.5t-8.5 -43.5t-23.5 -35.5t-35 -24t-43 -9zM277 596q14 0 24 10.5t10 24.5t-10 24.5t-24 10.5t-24.5 -10.5t-10.5 -24.5t10.5 -24.5t24.5 -10.5z" />
    <glyph glyph-name="atilde" unicode="&#xe3;" horiz-adv-x="559" 
d="M329 0v46q-20 -26 -60.5 -42t-85.5 -16q-27 0 -56.5 9.5t-53.5 29t-40 49.5t-16 71q0 45 16 74.5t40 47.5t53.5 25t56.5 7q48 0 87 -14t59 -39v50q0 26 -22.5 43t-67.5 17q-34 0 -69.5 -12.5t-64.5 -34.5l-61 111q49 39 111 56t117 17q45 0 87.5 -9t76 -32t53.5 -62.5
t20 -99.5v-292h-180zM258 105q21 0 41.5 6.5t29.5 19.5v27q-9 13 -29.5 19.5t-41.5 6.5q-23 0 -43 -9t-20 -31q0 -11 5.5 -18.5t14.5 -12t20.5 -6.5t22.5 -2zM328 554q-23 0 -39.5 6.5t-28.5 15t-22 15t-20 6.5t-17 -9t-7 -28h-89q0 69 30 101.5t88 32.5q23 0 39.5 -6.5
t28.5 -15t22 -15t20 -6.5t17 9t7 28h89q0 -69 -30 -101.5t-88 -32.5z" />
    <glyph glyph-name="uni1EA1" unicode="&#x1ea1;" horiz-adv-x="559" 
d="M329 0v46q-20 -26 -60.5 -42t-85.5 -16q-27 0 -56.5 9.5t-53.5 29t-40 49.5t-16 71q0 45 16 74.5t40 47.5t53.5 25t56.5 7q48 0 87 -14t59 -39v50q0 26 -22.5 43t-67.5 17q-34 0 -69.5 -12.5t-64.5 -34.5l-61 111q49 39 111 56t117 17q45 0 87.5 -9t76 -32t53.5 -62.5
t20 -99.5v-292h-180zM258 105q21 0 41.5 6.5t29.5 19.5v27q-9 13 -29.5 19.5t-41.5 6.5q-23 0 -43 -9t-20 -31q0 -11 5.5 -18.5t14.5 -12t20.5 -6.5t22.5 -2zM280 -208q-37 0 -63 26t-26 63t26 63t63 26q18 0 34 -7t28 -19t19 -28.5t7 -34.5t-7 -34.5t-19 -28.5t-28 -19
t-34 -7z" />
    <glyph glyph-name="uni1EA3" unicode="&#x1ea3;" horiz-adv-x="559" 
d="M329 0v46q-20 -26 -60.5 -42t-85.5 -16q-27 0 -56.5 9.5t-53.5 29t-40 49.5t-16 71q0 45 16 74.5t40 47.5t53.5 25t56.5 7q48 0 87 -14t59 -39v50q0 26 -22.5 43t-67.5 17q-34 0 -69.5 -12.5t-64.5 -34.5l-61 111q49 39 111 56t117 17q45 0 87.5 -9t76 -32t53.5 -62.5
t20 -99.5v-292h-180zM258 105q21 0 41.5 6.5t29.5 19.5v27q-9 13 -29.5 19.5t-41.5 6.5q-23 0 -43 -9t-20 -31q0 -11 5.5 -18.5t14.5 -12t20.5 -6.5t22.5 -2zM192 593q11 31 34.5 44.5t51.5 13.5q35 0 61.5 -17.5t26.5 -57.5q0 -14 -3.5 -25.5t-8.5 -22.5h-70q17 18 17 44
q0 14 -7.5 19.5t-15.5 5.5q-11 0 -17.5 -7t-10.5 -16z" />
    <glyph glyph-name="uni1EA5" unicode="&#x1ea5;" horiz-adv-x="559" 
d="M329 0v46q-20 -26 -60.5 -42t-85.5 -16q-27 0 -56.5 9.5t-53.5 29t-40 49.5t-16 71q0 45 16 74.5t40 47.5t53.5 25t56.5 7q48 0 87 -14t59 -39v50q0 26 -22.5 43t-67.5 17q-34 0 -69.5 -12.5t-64.5 -34.5l-61 111q49 39 111 56t117 17q45 0 87.5 -9t76 -32t53.5 -62.5
t20 -99.5v-292h-180zM258 105q21 0 41.5 6.5t29.5 19.5v27q-9 13 -29.5 19.5t-41.5 6.5q-23 0 -43 -9t-20 -31q0 -11 5.5 -18.5t14.5 -12t20.5 -6.5t22.5 -2zM341 556l-64 73l-61 -73h-105l88 144h156l91 -144h-105zM524 626h-120l120 144h155z" />
    <glyph glyph-name="uni1EAD" unicode="&#x1ead;" horiz-adv-x="559" 
d="M329 0v46q-20 -26 -60.5 -42t-85.5 -16q-27 0 -56.5 9.5t-53.5 29t-40 49.5t-16 71q0 45 16 74.5t40 47.5t53.5 25t56.5 7q48 0 87 -14t59 -39v50q0 26 -22.5 43t-67.5 17q-34 0 -69.5 -12.5t-64.5 -34.5l-61 111q49 39 111 56t117 17q45 0 87.5 -9t76 -32t53.5 -62.5
t20 -99.5v-292h-180zM258 105q21 0 41.5 6.5t29.5 19.5v27q-9 13 -29.5 19.5t-41.5 6.5q-23 0 -43 -9t-20 -31q0 -11 5.5 -18.5t14.5 -12t20.5 -6.5t22.5 -2zM342 556l-64 73l-61 -73h-105l88 144h156l91 -144h-105zM280 -208q-37 0 -63 26t-26 63t26 63t63 26q18 0 34 -7
t28 -19t19 -28.5t7 -34.5t-7 -34.5t-19 -28.5t-28 -19t-34 -7z" />
    <glyph glyph-name="uni1EA7" unicode="&#x1ea7;" horiz-adv-x="559" 
d="M329 0v46q-20 -26 -60.5 -42t-85.5 -16q-27 0 -56.5 9.5t-53.5 29t-40 49.5t-16 71q0 45 16 74.5t40 47.5t53.5 25t56.5 7q48 0 87 -14t59 -39v50q0 26 -22.5 43t-67.5 17q-34 0 -69.5 -12.5t-64.5 -34.5l-61 111q49 39 111 56t117 17q45 0 87.5 -9t76 -32t53.5 -62.5
t20 -99.5v-292h-180zM258 105q21 0 41.5 6.5t29.5 19.5v27q-9 13 -29.5 19.5t-41.5 6.5q-23 0 -43 -9t-20 -31q0 -11 5.5 -18.5t14.5 -12t20.5 -6.5t22.5 -2zM341 556l-64 73l-61 -73h-105l88 144h156l91 -144h-105zM28 626l-155 144h155l120 -144h-120z" />
    <glyph glyph-name="uni1EA9" unicode="&#x1ea9;" horiz-adv-x="559" 
d="M329 0v46q-20 -26 -60.5 -42t-85.5 -16q-27 0 -56.5 9.5t-53.5 29t-40 49.5t-16 71q0 45 16 74.5t40 47.5t53.5 25t56.5 7q48 0 87 -14t59 -39v50q0 26 -22.5 43t-67.5 17q-34 0 -69.5 -12.5t-64.5 -34.5l-61 111q49 39 111 56t117 17q45 0 87.5 -9t76 -32t53.5 -62.5
t20 -99.5v-292h-180zM258 105q21 0 41.5 6.5t29.5 19.5v27q-9 13 -29.5 19.5t-41.5 6.5q-23 0 -43 -9t-20 -31q0 -11 5.5 -18.5t14.5 -12t20.5 -6.5t22.5 -2zM341 556l-64 73l-61 -73h-105l88 144h156l91 -144h-105zM310 732q11 31 34.5 44.5t51.5 13.5q35 0 61.5 -17.5
t26.5 -57.5q0 -14 -3.5 -25.5t-8.5 -22.5h-70q17 18 17 44q0 14 -7.5 19.5t-15.5 5.5q-11 0 -17.5 -7t-10.5 -16z" />
    <glyph glyph-name="uni1EAF" unicode="&#x1eaf;" horiz-adv-x="559" 
d="M329 0v46q-20 -26 -60.5 -42t-85.5 -16q-27 0 -56.5 9.5t-53.5 29t-40 49.5t-16 71q0 45 16 74.5t40 47.5t53.5 25t56.5 7q48 0 87 -14t59 -39v50q0 26 -22.5 43t-67.5 17q-34 0 -69.5 -12.5t-64.5 -34.5l-61 111q49 39 111 56t117 17q45 0 87.5 -9t76 -32t53.5 -62.5
t20 -99.5v-292h-180zM258 105q21 0 41.5 6.5t29.5 19.5v27q-9 13 -29.5 19.5t-41.5 6.5q-23 0 -43 -9t-20 -31q0 -11 5.5 -18.5t14.5 -12t20.5 -6.5t22.5 -2zM332 646h-120l120 144h155zM451 600q-30 -41 -75.5 -64.5t-99.5 -23.5t-99.5 23.5t-76.5 64.5l76 62
q17 -23 42 -38t58 -15q63 0 100 53l75 -62v0z" />
    <glyph glyph-name="uni1EAB" unicode="&#x1eab;" horiz-adv-x="559" 
d="M329 0v46q-20 -26 -60.5 -42t-85.5 -16q-27 0 -56.5 9.5t-53.5 29t-40 49.5t-16 71q0 45 16 74.5t40 47.5t53.5 25t56.5 7q48 0 87 -14t59 -39v50q0 26 -22.5 43t-67.5 17q-34 0 -69.5 -12.5t-64.5 -34.5l-61 111q49 39 111 56t117 17q45 0 87.5 -9t76 -32t53.5 -62.5
t20 -99.5v-292h-180zM258 105q21 0 41.5 6.5t29.5 19.5v27q-9 13 -29.5 19.5t-41.5 6.5q-23 0 -43 -9t-20 -31q0 -11 5.5 -18.5t14.5 -12t20.5 -6.5t22.5 -2zM341 524l-64 73l-61 -73h-105l88 144h156l91 -144h-105zM332 682q-23 0 -39.5 6.5t-28.5 15t-22 15t-20 6.5
t-17 -9t-7 -28h-89q0 69 30 101.5t88 32.5q23 0 39.5 -6.5t28.5 -15t22 -15t20 -6.5t17 9t7 28h89q0 -69 -30 -101.5t-88 -32.5z" />
    <glyph glyph-name="uni1EB1" unicode="&#x1eb1;" horiz-adv-x="559" 
d="M329 0v46q-20 -26 -60.5 -42t-85.5 -16q-27 0 -56.5 9.5t-53.5 29t-40 49.5t-16 71q0 45 16 74.5t40 47.5t53.5 25t56.5 7q48 0 87 -14t59 -39v50q0 26 -22.5 43t-67.5 17q-34 0 -69.5 -12.5t-64.5 -34.5l-61 111q49 39 111 56t117 17q45 0 87.5 -9t76 -32t53.5 -62.5
t20 -99.5v-292h-180zM258 105q21 0 41.5 6.5t29.5 19.5v27q-9 13 -29.5 19.5t-41.5 6.5q-23 0 -43 -9t-20 -31q0 -11 5.5 -18.5t14.5 -12t20.5 -6.5t22.5 -2zM222 646l-155 144h155l120 -144h-120zM451 600q-30 -41 -75.5 -64.5t-99.5 -23.5t-99.5 23.5t-76.5 64.5l76 62
q17 -23 42 -38t58 -15q63 0 100 53l75 -62v0z" />
    <glyph glyph-name="uni1EB3" unicode="&#x1eb3;" horiz-adv-x="559" 
d="M329 0v46q-20 -26 -60.5 -42t-85.5 -16q-27 0 -56.5 9.5t-53.5 29t-40 49.5t-16 71q0 45 16 74.5t40 47.5t53.5 25t56.5 7q48 0 87 -14t59 -39v50q0 26 -22.5 43t-67.5 17q-34 0 -69.5 -12.5t-64.5 -34.5l-61 111q49 39 111 56t117 17q45 0 87.5 -9t76 -32t53.5 -62.5
t20 -99.5v-292h-180zM258 105q21 0 41.5 6.5t29.5 19.5v27q-9 13 -29.5 19.5t-41.5 6.5q-23 0 -43 -9t-20 -31q0 -11 5.5 -18.5t14.5 -12t20.5 -6.5t22.5 -2zM190 723q11 31 34.5 44.5t51.5 13.5q35 0 61.5 -17.5t26.5 -57.5q0 -14 -3.5 -25.5t-8.5 -22.5h-70q17 18 17 44
q0 14 -7.5 19.5t-15.5 5.5q-11 0 -17.5 -7t-10.5 -16zM451 600q-30 -41 -75.5 -64.5t-99.5 -23.5t-99.5 23.5t-76.5 64.5l76 62q17 -23 42 -38t58 -15q63 0 100 53l75 -62v0z" />
    <glyph glyph-name="uni1EB5" unicode="&#x1eb5;" horiz-adv-x="559" 
d="M329 0v46q-20 -26 -60.5 -42t-85.5 -16q-27 0 -56.5 9.5t-53.5 29t-40 49.5t-16 71q0 45 16 74.5t40 47.5t53.5 25t56.5 7q48 0 87 -14t59 -39v50q0 26 -22.5 43t-67.5 17q-34 0 -69.5 -12.5t-64.5 -34.5l-61 111q49 39 111 56t117 17q45 0 87.5 -9t76 -32t53.5 -62.5
t20 -99.5v-292h-180zM258 105q21 0 41.5 6.5t29.5 19.5v27q-9 13 -29.5 19.5t-41.5 6.5q-23 0 -43 -9t-20 -31q0 -11 5.5 -18.5t14.5 -12t20.5 -6.5t22.5 -2zM451 600q-30 -41 -75.5 -64.5t-99.5 -23.5t-99.5 23.5t-76.5 64.5l76 62q17 -23 42 -38t58 -15q63 0 100 53
l75 -62v0zM323 660q-23 0 -39.5 6.5t-28.5 15t-22 15t-20 6.5t-17 -9t-7 -28h-89q0 69 30 101.5t88 32.5q23 0 39.5 -6.5t28.5 -15t22 -15t20 -6.5t17 9t7 28h89q0 -69 -30 -101.5t-88 -32.5z" />
    <glyph glyph-name="uni1EB7" unicode="&#x1eb7;" horiz-adv-x="559" 
d="M329 0v46q-20 -26 -60.5 -42t-85.5 -16q-27 0 -56.5 9.5t-53.5 29t-40 49.5t-16 71q0 45 16 74.5t40 47.5t53.5 25t56.5 7q48 0 87 -14t59 -39v50q0 26 -22.5 43t-67.5 17q-34 0 -69.5 -12.5t-64.5 -34.5l-61 111q49 39 111 56t117 17q45 0 87.5 -9t76 -32t53.5 -62.5
t20 -99.5v-292h-180zM258 105q21 0 41.5 6.5t29.5 19.5v27q-9 13 -29.5 19.5t-41.5 6.5q-23 0 -43 -9t-20 -31q0 -11 5.5 -18.5t14.5 -12t20.5 -6.5t22.5 -2zM280 -208q-37 0 -63 26t-26 63t26 63t63 26q18 0 34 -7t28 -19t19 -28.5t7 -34.5t-7 -34.5t-19 -28.5t-28 -19
t-34 -7zM451 612q-30 -41 -75.5 -64.5t-99.5 -23.5t-99.5 23.5t-76.5 64.5l76 62q17 -23 42 -38t58 -15q63 0 100 53l75 -62v0z" />
    <glyph glyph-name="ae" unicode="&#xe6;" horiz-adv-x="851" 
d="M520 186q10 -20 34 -38.5t70 -18.5q27 0 54 9.5t44 24.5l78 -115q-18 -15 -42 -26.5t-50.5 -19t-53.5 -11t-51 -3.5q-53 0 -96 15.5t-79 49.5q-33 -28 -84 -46.5t-114 -18.5q-44 0 -82.5 9t-67.5 28t-46 48.5t-17 70.5q0 40 13.5 70t37 49t54 28.5t64.5 9.5
q46 0 88 -13.5t64 -38.5v49q0 25 -23.5 42t-70.5 17q-35 0 -72 -12t-67 -35l-61 112q49 39 111 56t117 17q59 0 95.5 -16t60.5 -43q27 24 67 41.5t103 17.5q49 0 93 -18.5t77 -53.5t52 -85.5t19 -114.5v-37h-319zM668 300q-2 8 -6.5 18t-13 19t-22 15t-34.5 6q-19 0 -32 -6
t-21.5 -14.5t-13.5 -18.5t-7 -19h150zM338 157q-10 13 -31.5 20t-44.5 7q-24 0 -45.5 -8.5t-21.5 -26.5q0 -9 5.5 -15.5t14 -10.5t18 -6t18.5 -2q37 0 62 12.5t25 26.5v3z" />
    <glyph glyph-name="aeacute" unicode="&#x1fd;" horiz-adv-x="851" 
d="M473 556h-120l120 144h155zM520 186q10 -20 34 -38.5t70 -18.5q27 0 54 9.5t44 24.5l78 -115q-18 -15 -42 -26.5t-50.5 -19t-53.5 -11t-51 -3.5q-53 0 -96 15.5t-79 49.5q-33 -28 -84 -46.5t-114 -18.5q-44 0 -82.5 9t-67.5 28t-46 48.5t-17 70.5q0 40 13.5 70t37 49
t54 28.5t64.5 9.5q46 0 88 -13.5t64 -38.5v49q0 25 -23.5 42t-70.5 17q-35 0 -72 -12t-67 -35l-61 112q49 39 111 56t117 17q59 0 95.5 -16t60.5 -43q27 24 67 41.5t103 17.5q49 0 93 -18.5t77 -53.5t52 -85.5t19 -114.5v-37h-319zM668 300q-2 8 -6.5 18t-13 19t-22 15
t-34.5 6q-19 0 -32 -6t-21.5 -14.5t-13.5 -18.5t-7 -19h150zM338 157q-10 13 -31.5 20t-44.5 7q-24 0 -45.5 -8.5t-21.5 -26.5q0 -9 5.5 -15.5t14 -10.5t18 -6t18.5 -2q37 0 62 12.5t25 26.5v3z" />
    <glyph glyph-name="aacute.alt1" 
d="M341 556h-120l120 144h155zM366 0v51q-31 -35 -65 -49t-71 -14q-44 0 -82.5 16.5t-67.5 48.5t-46 79.5t-17 109.5q0 60 16.5 107t45.5 79.5t67.5 49.5t83.5 17q37 0 71.5 -14t63.5 -49v51h181v-483h-180zM291 147q18 0 40 8.5t35 24.5v123q-13 16 -35 24t-40 8
q-37 0 -63.5 -24t-26.5 -69t26.5 -70t63.5 -25z" />
    <glyph glyph-name="abreve.alt1" 
d="M366 0v51q-31 -35 -65 -49t-71 -14q-44 0 -82.5 16.5t-67.5 48.5t-46 79.5t-17 109.5q0 60 16.5 107t45.5 79.5t67.5 49.5t83.5 17q37 0 71.5 -14t63.5 -49v51h181v-483h-180zM291 147q18 0 40 8.5t35 24.5v123q-13 16 -35 24t-40 8q-37 0 -63.5 -24t-26.5 -69t26.5 -70
t63.5 -25zM485 612q-30 -41 -75.5 -64.5t-99.5 -23.5t-99.5 23.5t-76.5 64.5l76 62q17 -23 42 -38t58 -15q63 0 100 53l75 -62v0z" />
    <glyph glyph-name="acircumflex.alt1" 
d="M370 556l-64 73l-61 -73h-105l88 144h156l91 -144h-105zM366 0v51q-31 -35 -65 -49t-71 -14q-44 0 -82.5 16.5t-67.5 48.5t-46 79.5t-17 109.5q0 60 16.5 107t45.5 79.5t67.5 49.5t83.5 17q37 0 71.5 -14t63.5 -49v51h181v-483h-180zM291 147q18 0 40 8.5t35 24.5v123
q-13 16 -35 24t-40 8q-37 0 -63.5 -24t-26.5 -69t26.5 -70t63.5 -25z" />
    <glyph glyph-name="adieresis.alt1" 
d="M507 618q0 -38 -26 -63.5t-64 -25.5q-37 0 -63 25.5t-26 63.5t26 63.5t63 25.5q38 0 64 -25.5t26 -63.5zM290 618q0 -38 -25.5 -63.5t-63.5 -25.5t-63.5 25.5t-25.5 63.5t25.5 63.5t63.5 25.5t63.5 -25.5t25.5 -63.5zM366 0v51q-31 -35 -65 -49t-71 -14q-44 0 -82.5 16.5
t-67.5 48.5t-46 79.5t-17 109.5q0 60 16.5 107t45.5 79.5t67.5 49.5t83.5 17q37 0 71.5 -14t63.5 -49v51h181v-483h-180zM291 147q18 0 40 8.5t35 24.5v123q-13 16 -35 24t-40 8q-37 0 -63.5 -24t-26.5 -69t26.5 -70t63.5 -25z" />
    <glyph glyph-name="agrave.alt1" 
d="M366 0v51q-31 -35 -65 -49t-71 -14q-44 0 -82.5 16.5t-67.5 48.5t-46 79.5t-17 109.5q0 60 16.5 107t45.5 79.5t67.5 49.5t83.5 17q37 0 71.5 -14t63.5 -49v51h181v-483h-180zM291 147q18 0 40 8.5t35 24.5v123q-13 16 -35 24t-40 8q-37 0 -63.5 -24t-26.5 -69t26.5 -70
t63.5 -25zM239 556l-155 144h155l120 -144h-120z" />
    <glyph glyph-name="amacron.alt1" 
d="M126 551v97h363v-97h-363zM366 0v51q-31 -35 -65 -49t-71 -14q-44 0 -82.5 16.5t-67.5 48.5t-46 79.5t-17 109.5q0 60 16.5 107t45.5 79.5t67.5 49.5t83.5 17q37 0 71.5 -14t63.5 -49v51h181v-483h-180zM291 147q18 0 40 8.5t35 24.5v123q-13 16 -35 24t-40 8
q-37 0 -63.5 -24t-26.5 -69t26.5 -70t63.5 -25z" />
    <glyph glyph-name="aogonek.alt1" 
d="M546 0q-37 -19 -51 -40.5t-14 -43.5q0 -20 10 -27t19 -7q14 0 22 8.5t13 19.5l66 -43q-17 -25 -41.5 -39t-59.5 -14q-21 0 -41 5.5t-35.5 16.5t-24.5 29t-9 43q0 53 39 92h-73v51q-31 -35 -65 -49t-71 -14q-44 0 -82.5 16.5t-67.5 48.5t-46 79.5t-17 109.5q0 60 16.5 107
t45.5 79.5t67.5 49.5t83.5 17q37 0 71.5 -14t63.5 -49v51h181v-483zM291 147q18 0 40 8.5t35 24.5v123q-13 16 -35 24t-40 8q-37 0 -63.5 -24t-26.5 -69t26.5 -70t63.5 -25z" />
    <glyph glyph-name="aring.alt1" 
d="M310 519q-23 0 -43.5 9t-35.5 24t-24 35.5t-9 43.5t9 43.5t24 35.5t35.5 24t43.5 9t43 -9t35 -24t23.5 -35.5t8.5 -43.5t-8.5 -43.5t-23.5 -35.5t-35 -24t-43 -9zM310 596q14 0 24 10.5t10 24.5t-10 24.5t-24 10.5t-24.5 -10.5t-10.5 -24.5t10.5 -24.5t24.5 -10.5zM366 0
v51q-31 -35 -65 -49t-71 -14q-44 0 -82.5 16.5t-67.5 48.5t-46 79.5t-17 109.5q0 60 16.5 107t45.5 79.5t67.5 49.5t83.5 17q37 0 71.5 -14t63.5 -49v51h181v-483h-180zM291 147q18 0 40 8.5t35 24.5v123q-13 16 -35 24t-40 8q-37 0 -63.5 -24t-26.5 -69t26.5 -70t63.5 -25z
" />
    <glyph glyph-name="atilde.alt1" 
d="M366 0v51q-31 -35 -65 -49t-71 -14q-44 0 -82.5 16.5t-67.5 48.5t-46 79.5t-17 109.5q0 60 16.5 107t45.5 79.5t67.5 49.5t83.5 17q37 0 71.5 -14t63.5 -49v51h181v-483h-180zM291 147q18 0 40 8.5t35 24.5v123q-13 16 -35 24t-40 8q-37 0 -63.5 -24t-26.5 -69t26.5 -70
t63.5 -25zM363 554q-23 0 -39.5 6.5t-28.5 15t-22 15t-20 6.5t-17 -9t-7 -28h-89q0 69 30 101.5t88 32.5q23 0 39.5 -6.5t28.5 -15t22 -15t20 -6.5t17 9t7 28h89q0 -69 -30 -101.5t-88 -32.5z" />
    <glyph glyph-name="uni1EA1.alt1" 
d="M366 0v51q-31 -35 -65 -49t-71 -14q-44 0 -82.5 16.5t-67.5 48.5t-46 79.5t-17 109.5q0 60 16.5 107t45.5 79.5t67.5 49.5t83.5 17q37 0 71.5 -14t63.5 -49v51h181v-483h-180zM291 147q18 0 40 8.5t35 24.5v123q-13 16 -35 24t-40 8q-37 0 -63.5 -24t-26.5 -69t26.5 -70
t63.5 -25zM304 -208q-37 0 -63 26t-26 63t26 63t63 26q18 0 34 -7t28 -19t19 -28.5t7 -34.5t-7 -34.5t-19 -28.5t-28 -19t-34 -7z" />
    <glyph glyph-name="uni1EA3.alt1" 
d="M366 0v51q-31 -35 -65 -49t-71 -14q-44 0 -82.5 16.5t-67.5 48.5t-46 79.5t-17 109.5q0 60 16.5 107t45.5 79.5t67.5 49.5t83.5 17q37 0 71.5 -14t63.5 -49v51h181v-483h-180zM291 147q18 0 40 8.5t35 24.5v123q-13 16 -35 24t-40 8q-37 0 -63.5 -24t-26.5 -69t26.5 -70
t63.5 -25zM208 593q11 31 34.5 44.5t51.5 13.5q35 0 61.5 -17.5t26.5 -57.5q0 -14 -3.5 -25.5t-8.5 -22.5h-70q17 18 17 44q0 14 -7.5 19.5t-15.5 5.5q-11 0 -17.5 -7t-10.5 -16z" />
    <glyph glyph-name="uni1EA5.alt1" 
d="M373 556l-64 73l-61 -73h-105l88 144h156l91 -144h-105zM556 626h-120l120 144h155zM366 0v51q-31 -35 -65 -49t-71 -14q-44 0 -82.5 16.5t-67.5 48.5t-46 79.5t-17 109.5q0 60 16.5 107t45.5 79.5t67.5 49.5t83.5 17q37 0 71.5 -14t63.5 -49v51h181v-483h-180zM291 147
q18 0 40 8.5t35 24.5v123q-13 16 -35 24t-40 8q-37 0 -63.5 -24t-26.5 -69t26.5 -70t63.5 -25z" />
    <glyph glyph-name="uni1EAD.alt1" 
d="M374 556l-64 73l-61 -73h-105l88 144h156l91 -144h-105zM366 0v51q-31 -35 -65 -49t-71 -14q-44 0 -82.5 16.5t-67.5 48.5t-46 79.5t-17 109.5q0 60 16.5 107t45.5 79.5t67.5 49.5t83.5 17q37 0 71.5 -14t63.5 -49v51h181v-483h-180zM291 147q18 0 40 8.5t35 24.5v123
q-13 16 -35 24t-40 8q-37 0 -63.5 -24t-26.5 -69t26.5 -70t63.5 -25zM312 -208q-37 0 -63 26t-26 63t26 63t63 26q18 0 34 -7t28 -19t19 -28.5t7 -34.5t-7 -34.5t-19 -28.5t-28 -19t-34 -7z" />
    <glyph glyph-name="uni1EA7.alt1" 
d="M373 556l-64 73l-61 -73h-105l88 144h156l91 -144h-105zM366 0v51q-31 -35 -65 -49t-71 -14q-44 0 -82.5 16.5t-67.5 48.5t-46 79.5t-17 109.5q0 60 16.5 107t45.5 79.5t67.5 49.5t83.5 17q37 0 71.5 -14t63.5 -49v51h181v-483h-180zM291 147q18 0 40 8.5t35 24.5v123
q-13 16 -35 24t-40 8q-37 0 -63.5 -24t-26.5 -69t26.5 -70t63.5 -25zM60 626l-155 144h155l120 -144h-120z" />
    <glyph glyph-name="uni1EA9.alt1" 
d="M373 556l-64 73l-61 -73h-105l88 144h156l91 -144h-105zM366 0v51q-31 -35 -65 -49t-71 -14q-44 0 -82.5 16.5t-67.5 48.5t-46 79.5t-17 109.5q0 60 16.5 107t45.5 79.5t67.5 49.5t83.5 17q37 0 71.5 -14t63.5 -49v51h181v-483h-180zM291 147q18 0 40 8.5t35 24.5v123
q-13 16 -35 24t-40 8q-37 0 -63.5 -24t-26.5 -69t26.5 -70t63.5 -25zM342 732q11 31 34.5 44.5t51.5 13.5q35 0 61.5 -17.5t26.5 -57.5q0 -14 -3.5 -25.5t-8.5 -22.5h-70q17 18 17 44q0 14 -7.5 19.5t-15.5 5.5q-11 0 -17.5 -7t-10.5 -16z" />
    <glyph glyph-name="uni1EAF.alt1" 
d="M364 646h-120l120 144h155zM366 0v51q-31 -35 -65 -49t-71 -14q-44 0 -82.5 16.5t-67.5 48.5t-46 79.5t-17 109.5q0 60 16.5 107t45.5 79.5t67.5 49.5t83.5 17q37 0 71.5 -14t63.5 -49v51h181v-483h-180zM291 147q18 0 40 8.5t35 24.5v123q-13 16 -35 24t-40 8
q-37 0 -63.5 -24t-26.5 -69t26.5 -70t63.5 -25zM483 600q-30 -41 -75.5 -64.5t-99.5 -23.5t-99.5 23.5t-76.5 64.5l76 62q17 -23 42 -38t58 -15q63 0 100 53l75 -62v0z" />
    <glyph glyph-name="uni1EAB.alt1" 
d="M373 524l-64 73l-61 -73h-105l88 144h156l91 -144h-105zM366 0v51q-31 -35 -65 -49t-71 -14q-44 0 -82.5 16.5t-67.5 48.5t-46 79.5t-17 109.5q0 60 16.5 107t45.5 79.5t67.5 49.5t83.5 17q37 0 71.5 -14t63.5 -49v51h181v-483h-180zM291 147q18 0 40 8.5t35 24.5v123
q-13 16 -35 24t-40 8q-37 0 -63.5 -24t-26.5 -69t26.5 -70t63.5 -25zM364 682q-23 0 -39.5 6.5t-28.5 15t-22 15t-20 6.5t-17 -9t-7 -28h-89q0 69 30 101.5t88 32.5q23 0 39.5 -6.5t28.5 -15t22 -15t20 -6.5t17 9t7 28h89q0 -69 -30 -101.5t-88 -32.5z" />
    <glyph glyph-name="uni1EB1.alt1" 
d="M366 0v51q-31 -35 -65 -49t-71 -14q-44 0 -82.5 16.5t-67.5 48.5t-46 79.5t-17 109.5q0 60 16.5 107t45.5 79.5t67.5 49.5t83.5 17q37 0 71.5 -14t63.5 -49v51h181v-483h-180zM291 147q18 0 40 8.5t35 24.5v123q-13 16 -35 24t-40 8q-37 0 -63.5 -24t-26.5 -69t26.5 -70
t63.5 -25zM254 646l-155 144h155l120 -144h-120zM483 600q-30 -41 -75.5 -64.5t-99.5 -23.5t-99.5 23.5t-76.5 64.5l76 62q17 -23 42 -38t58 -15q63 0 100 53l75 -62v0z" />
    <glyph glyph-name="uni1EB3.alt1" 
d="M366 0v51q-31 -35 -65 -49t-71 -14q-44 0 -82.5 16.5t-67.5 48.5t-46 79.5t-17 109.5q0 60 16.5 107t45.5 79.5t67.5 49.5t83.5 17q37 0 71.5 -14t63.5 -49v51h181v-483h-180zM291 147q18 0 40 8.5t35 24.5v123q-13 16 -35 24t-40 8q-37 0 -63.5 -24t-26.5 -69t26.5 -70
t63.5 -25zM222 723q11 31 34.5 44.5t51.5 13.5q35 0 61.5 -17.5t26.5 -57.5q0 -14 -3.5 -25.5t-8.5 -22.5h-70q17 18 17 44q0 14 -7.5 19.5t-15.5 5.5q-11 0 -17.5 -7t-10.5 -16zM483 600q-30 -41 -75.5 -64.5t-99.5 -23.5t-99.5 23.5t-76.5 64.5l76 62q17 -23 42 -38
t58 -15q63 0 100 53l75 -62v0z" />
    <glyph glyph-name="uni1EB5.alt1" 
d="M484 600q-30 -41 -75.5 -64.5t-99.5 -23.5t-99.5 23.5t-76.5 64.5l76 62q17 -23 42 -38t58 -15q63 0 100 53l75 -62v0zM366 0v51q-31 -35 -65 -49t-71 -14q-44 0 -82.5 16.5t-67.5 48.5t-46 79.5t-17 109.5q0 60 16.5 107t45.5 79.5t67.5 49.5t83.5 17q37 0 71.5 -14
t63.5 -49v51h181v-483h-180zM291 147q18 0 40 8.5t35 24.5v123q-13 16 -35 24t-40 8q-37 0 -63.5 -24t-26.5 -69t26.5 -70t63.5 -25zM356 660q-23 0 -39.5 6.5t-28.5 15t-22 15t-20 6.5t-17 -9t-7 -28h-89q0 69 30 101.5t88 32.5q23 0 39.5 -6.5t28.5 -15t22 -15t20 -6.5
t17 9t7 28h89q0 -69 -30 -101.5t-88 -32.5z" />
    <glyph glyph-name="uni1EB7.alt1" 
d="M366 0v51q-31 -35 -65 -49t-71 -14q-44 0 -82.5 16.5t-67.5 48.5t-46 79.5t-17 109.5q0 60 16.5 107t45.5 79.5t67.5 49.5t83.5 17q37 0 71.5 -14t63.5 -49v51h181v-483h-180zM291 147q18 0 40 8.5t35 24.5v123q-13 16 -35 24t-40 8q-37 0 -63.5 -24t-26.5 -69t26.5 -70
t63.5 -25zM312 -208q-37 0 -63 26t-26 63t26 63t63 26q18 0 34 -7t28 -19t19 -28.5t7 -34.5t-7 -34.5t-19 -28.5t-28 -19t-34 -7zM483 612q-30 -41 -75.5 -64.5t-99.5 -23.5t-99.5 23.5t-76.5 64.5l76 62q17 -23 42 -38t58 -15q63 0 100 53l75 -62v0z" />
    <glyph glyph-name="ae.alt1" horiz-adv-x="888" 
d="M291 147q18 0 40 8.5t35 24.5v123q-13 16 -35 24t-40 8q-37 0 -63.5 -24t-26.5 -69t26.5 -70t63.5 -25zM546 0h-180v51q-31 -35 -65 -49t-71 -14q-44 0 -82.5 16.5t-67.5 48.5t-46 79.5t-17 109.5q0 60 16.5 107t45.5 79.5t67.5 49.5t83.5 17q37 0 71.5 -14t63.5 -49v51
h181v-45q23 27 57 42t79 15q40 0 75.5 -18.5t62 -53.5t41.5 -85.5t15 -114.5v-37h-330q5 -10 13.5 -21t22 -20t31.5 -15t42 -6q28 0 56 9t46 25l77 -110q-11 -11 -27.5 -21.5t-36 -19t-41 -14t-42.5 -5.5q-90 0 -141 59v-47zM705 300q-2 8 -6.5 18t-13.5 19t-23.5 15.5
t-36.5 6.5q-21 0 -35 -6t-23 -15t-14 -19.5t-7 -18.5h159z" />
    <glyph glyph-name="aeacute.alt1" horiz-adv-x="888" 
d="M291 147q18 0 40 8.5t35 24.5v123q-13 16 -35 24t-40 8q-37 0 -63.5 -24t-26.5 -69t26.5 -70t63.5 -25zM546 0h-180v51q-31 -35 -65 -49t-71 -14q-44 0 -82.5 16.5t-67.5 48.5t-46 79.5t-17 109.5q0 60 16.5 107t45.5 79.5t67.5 49.5t83.5 17q37 0 71.5 -14t63.5 -49v51
h181v-45q23 27 57 42t79 15q40 0 75.5 -18.5t62 -53.5t41.5 -85.5t15 -114.5v-37h-330q5 -10 13.5 -21t22 -20t31.5 -15t42 -6q28 0 56 9t46 25l77 -110q-11 -11 -27.5 -21.5t-36 -19t-41 -14t-42.5 -5.5q-90 0 -141 59v-47zM705 300q-2 8 -6.5 18t-13.5 19t-23.5 15.5
t-36.5 6.5q-21 0 -35 -6t-23 -15t-14 -19.5t-7 -18.5h159zM507 556h-120l120 144h155z" />
    <glyph glyph-name="uni1E03" unicode="&#x1e03;" 
d="M230 179q13 -16 35 -24t40 -8q37 0 63.5 24.5t26.5 70.5q0 45 -26.5 69.5t-63.5 24.5q-18 0 -40 -8.5t-35 -24.5v-124zM50 0v667h180v-235q29 35 64 49t72 14q45 0 83.5 -17t67.5 -49.5t45.5 -79.5t16.5 -107q0 -62 -17 -109.5t-46 -79.5t-67.5 -48.5t-82.5 -16.5
q-37 0 -71 14t-65 49v-51h-180zM305 697q-37 0 -63 26t-26 63t26 63t63 26q18 0 34 -7t28 -19t19 -28.5t7 -34.5t-7 -34.5t-19 -28.5t-28 -19t-34 -7z" />
    <glyph glyph-name="cacute" unicode="&#x107;" horiz-adv-x="502" 
d="M340 556h-120l120 144h155zM288 -12q-57 0 -106.5 18t-86 51t-57.5 80t-21 105q0 57 21 104t57.5 80t86 51t106.5 18q41 0 74.5 -8.5t59 -21.5t43.5 -29.5t28 -31.5l-116 -109q-11 17 -31.5 29t-49.5 12q-38 0 -66.5 -23.5t-28.5 -70.5t28.5 -71t66.5 -24q29 0 49.5 12.5
t31.5 29.5l116 -110q-10 -15 -28 -31t-43.5 -29.5t-59 -22t-74.5 -8.5z" />
    <glyph glyph-name="ccedilla" unicode="&#xe7;" horiz-adv-x="502" 
d="M293 -198q-40 0 -71 10t-48 24l31 64q20 -14 41 -22t42 -8q16 0 29 5.5t13 18.5q0 17 -21 17q-16 0 -26 -12l-59 34l21 58q-50 6 -91.5 26.5t-72 52.5t-47.5 75.5t-17 96.5q0 57 21 104t57.5 80t86 51t106.5 18q41 0 74.5 -8.5t59 -21.5t43.5 -29.5t28 -31.5l-116 -109
q-11 17 -31.5 29t-49.5 12q-38 0 -66.5 -23.5t-28.5 -70.5t28.5 -71t66.5 -24q29 0 49.5 12.5t31.5 29.5l116 -110q-18 -27 -60 -54t-109 -35l-15 -35q15 9 34 9q27 0 47.5 -20.5t20.5 -52.5q0 -43 -35 -66t-83 -23z" />
    <glyph glyph-name="ccircumflex" unicode="&#x109;" horiz-adv-x="502" 
d="M361 556l-64 73l-61 -73h-105l88 144h156l91 -144h-105zM288 -12q-57 0 -106.5 18t-86 51t-57.5 80t-21 105q0 57 21 104t57.5 80t86 51t106.5 18q41 0 74.5 -8.5t59 -21.5t43.5 -29.5t28 -31.5l-116 -109q-11 17 -31.5 29t-49.5 12q-38 0 -66.5 -23.5t-28.5 -70.5
t28.5 -71t66.5 -24q29 0 49.5 12.5t31.5 29.5l116 -110q-10 -15 -28 -31t-43.5 -29.5t-59 -22t-74.5 -8.5z" />
    <glyph glyph-name="cdotaccent" unicode="&#x10b;" horiz-adv-x="502" 
d="M288 -12q-57 0 -106.5 18t-86 51t-57.5 80t-21 105q0 57 21 104t57.5 80t86 51t106.5 18q41 0 74.5 -8.5t59 -21.5t43.5 -29.5t28 -31.5l-116 -109q-11 17 -31.5 29t-49.5 12q-38 0 -66.5 -23.5t-28.5 -70.5t28.5 -71t66.5 -24q29 0 49.5 12.5t31.5 29.5l116 -110
q-10 -15 -28 -31t-43.5 -29.5t-59 -22t-74.5 -8.5zM287 530q-37 0 -63 26t-26 63t26 63t63 26q18 0 34 -7t28 -19t19 -28.5t7 -34.5t-7 -34.5t-19 -28.5t-28 -19t-34 -7z" />
    <glyph glyph-name="ccaron" unicode="&#x10d;" horiz-adv-x="502" 
d="M222 556l-91 144h105l64 -73l61 73h105l-88 -144h-156zM288 -12q-57 0 -106.5 18t-86 51t-57.5 80t-21 105q0 57 21 104t57.5 80t86 51t106.5 18q41 0 74.5 -8.5t59 -21.5t43.5 -29.5t28 -31.5l-116 -109q-11 17 -31.5 29t-49.5 12q-38 0 -66.5 -23.5t-28.5 -70.5
t28.5 -71t66.5 -24q29 0 49.5 12.5t31.5 29.5l116 -110q-10 -15 -28 -31t-43.5 -29.5t-59 -22t-74.5 -8.5z" />
    <glyph glyph-name="dcaron" unicode="&#x10f;" horiz-adv-x="736" 
d="M742 582q0 -50 -25 -92t-69 -73l-55 44q9 4 19.5 12t20 18t17.5 21t11 22q-5 -3 -19 -3q-27 0 -46 18.5t-19 50.5q0 33 23 56t55 23q34 0 60.5 -25t26.5 -72zM366 0v51q-31 -35 -65 -49t-71 -14q-44 0 -82.5 16.5t-67.5 48.5t-46 79.5t-17 109.5q0 60 16.5 107t45.5 79.5
t67.5 49.5t83.5 17q37 0 72 -14t64 -49v235h180v-667h-180zM291 147q18 0 40 8.5t35 24.5v124q-13 16 -35 24t-40 8q-37 0 -63.5 -24.5t-26.5 -69.5t26.5 -70t63.5 -25z" />
    <glyph glyph-name="dcroat" unicode="&#x111;" horiz-adv-x="602" 
d="M366 0v51q-31 -35 -65 -49t-71 -14q-44 0 -82.5 16.5t-67.5 48.5t-46 79.5t-17 109.5q0 60 16.5 107t45.5 79.5t67.5 49.5t83.5 17q37 0 72 -14t64 -49v89h-134v97h134v49h180v-49h49v-97h-49v-521h-180zM291 147q18 0 40 8.5t35 24.5v124q-13 16 -35 24t-40 8
q-37 0 -63.5 -24.5t-26.5 -69.5t26.5 -70t63.5 -25z" />
    <glyph glyph-name="uni1E0B" unicode="&#x1e0b;" 
d="M366 0v51q-31 -35 -65 -49t-71 -14q-44 0 -82.5 16.5t-67.5 48.5t-46 79.5t-17 109.5q0 60 16.5 107t45.5 79.5t67.5 49.5t83.5 17q37 0 72 -14t64 -49v235h180v-667h-180zM291 147q18 0 40 8.5t35 24.5v124q-13 16 -35 24t-40 8q-37 0 -63.5 -24.5t-26.5 -69.5t26.5 -70
t63.5 -25zM293 697q-37 0 -63 26t-26 63t26 63t63 26q18 0 34 -7t28 -19t19 -28.5t7 -34.5t-7 -34.5t-19 -28.5t-28 -19t-34 -7z" />
    <glyph glyph-name="eacute" unicode="&#xe9;" horiz-adv-x="543" 
d="M329 556h-120l120 144h155zM286 -12q-57 0 -106 17.5t-85 50t-57 79.5t-21 107q0 52 19 98.5t54 80.5t83 54t107 20q53 0 99 -18.5t79.5 -53.5t53 -85.5t19.5 -114.5v-37h-328q8 -23 33.5 -42t70.5 -19q10 0 25.5 2.5t31.5 7t30.5 10.5t23.5 14l74 -111
q-18 -15 -42.5 -26.5t-51.5 -19t-56 -11t-56 -3.5zM360 300q-2 8 -6.5 18t-13.5 19t-23.5 15t-36.5 6q-21 0 -35 -6t-23 -15t-14 -19t-7 -18h159z" />
    <glyph glyph-name="ebreve" unicode="&#x115;" horiz-adv-x="543" 
d="M286 -12q-57 0 -106 17.5t-85 50t-57 79.5t-21 107q0 52 19 98.5t54 80.5t83 54t107 20q53 0 99 -18.5t79.5 -53.5t53 -85.5t19.5 -114.5v-37h-328q8 -23 33.5 -42t70.5 -19q10 0 25.5 2.5t31.5 7t30.5 10.5t23.5 14l74 -111q-18 -15 -42.5 -26.5t-51.5 -19t-56 -11
t-56 -3.5zM360 300q-2 8 -6.5 18t-13.5 19t-23.5 15t-36.5 6q-21 0 -35 -6t-23 -15t-14 -19t-7 -18h159zM457 612q-30 -41 -75.5 -64.5t-99.5 -23.5t-99.5 23.5t-76.5 64.5l76 62q17 -23 42 -38t58 -15q63 0 100 53l75 -62v0z" />
    <glyph glyph-name="ecircumflex" unicode="&#xea;" horiz-adv-x="543" 
d="M343 556l-64 73l-61 -73h-105l88 144h156l91 -144h-105zM286 -12q-57 0 -106 17.5t-85 50t-57 79.5t-21 107q0 52 19 98.5t54 80.5t83 54t107 20q53 0 99 -18.5t79.5 -53.5t53 -85.5t19.5 -114.5v-37h-328q8 -23 33.5 -42t70.5 -19q10 0 25.5 2.5t31.5 7t30.5 10.5
t23.5 14l74 -111q-18 -15 -42.5 -26.5t-51.5 -19t-56 -11t-56 -3.5zM360 300q-2 8 -6.5 18t-13.5 19t-23.5 15t-36.5 6q-21 0 -35 -6t-23 -15t-14 -19t-7 -18h159z" />
    <glyph glyph-name="edieresis" unicode="&#xeb;" horiz-adv-x="543" 
d="M479 618q0 -38 -26 -63.5t-64 -25.5q-37 0 -63 25.5t-26 63.5t26 63.5t63 25.5q38 0 64 -25.5t26 -63.5zM262 618q0 -38 -25.5 -63.5t-63.5 -25.5t-63.5 25.5t-25.5 63.5t25.5 63.5t63.5 25.5t63.5 -25.5t25.5 -63.5zM286 -12q-57 0 -106 17.5t-85 50t-57 79.5t-21 107
q0 52 19 98.5t54 80.5t83 54t107 20q53 0 99 -18.5t79.5 -53.5t53 -85.5t19.5 -114.5v-37h-328q8 -23 33.5 -42t70.5 -19q10 0 25.5 2.5t31.5 7t30.5 10.5t23.5 14l74 -111q-18 -15 -42.5 -26.5t-51.5 -19t-56 -11t-56 -3.5zM360 300q-2 8 -6.5 18t-13.5 19t-23.5 15
t-36.5 6q-21 0 -35 -6t-23 -15t-14 -19t-7 -18h159z" />
    <glyph glyph-name="edotaccent" unicode="&#x117;" horiz-adv-x="543" 
d="M286 -12q-57 0 -106 17.5t-85 50t-57 79.5t-21 107q0 52 19 98.5t54 80.5t83 54t107 20q53 0 99 -18.5t79.5 -53.5t53 -85.5t19.5 -114.5v-37h-328q8 -23 33.5 -42t70.5 -19q10 0 25.5 2.5t31.5 7t30.5 10.5t23.5 14l74 -111q-18 -15 -42.5 -26.5t-51.5 -19t-56 -11
t-56 -3.5zM360 300q-2 8 -6.5 18t-13.5 19t-23.5 15t-36.5 6q-21 0 -35 -6t-23 -15t-14 -19t-7 -18h159zM282 530q-37 0 -63 26t-26 63t26 63t63 26q18 0 34 -7t28 -19t19 -28.5t7 -34.5t-7 -34.5t-19 -28.5t-28 -19t-34 -7z" />
    <glyph glyph-name="egrave" unicode="&#xe8;" horiz-adv-x="543" 
d="M286 -12q-57 0 -106 17.5t-85 50t-57 79.5t-21 107q0 52 19 98.5t54 80.5t83 54t107 20q53 0 99 -18.5t79.5 -53.5t53 -85.5t19.5 -114.5v-37h-328q8 -23 33.5 -42t70.5 -19q10 0 25.5 2.5t31.5 7t30.5 10.5t23.5 14l74 -111q-18 -15 -42.5 -26.5t-51.5 -19t-56 -11
t-56 -3.5zM360 300q-2 8 -6.5 18t-13.5 19t-23.5 15t-36.5 6q-21 0 -35 -6t-23 -15t-14 -19t-7 -18h159zM227 556l-155 144h155l120 -144h-120z" />
    <glyph glyph-name="emacron" unicode="&#x113;" horiz-adv-x="543" 
d="M286 -12q-57 0 -106 17.5t-85 50t-57 79.5t-21 107q0 52 19 98.5t54 80.5t83 54t107 20q53 0 99 -18.5t79.5 -53.5t53 -85.5t19.5 -114.5v-37h-328q8 -23 33.5 -42t70.5 -19q10 0 25.5 2.5t31.5 7t30.5 10.5t23.5 14l74 -111q-18 -15 -42.5 -26.5t-51.5 -19t-56 -11
t-56 -3.5zM360 300q-2 8 -6.5 18t-13.5 19t-23.5 15t-36.5 6q-21 0 -35 -6t-23 -15t-14 -19t-7 -18h159zM92 551v97h363v-97h-363z" />
    <glyph glyph-name="eogonek" unicode="&#x119;" horiz-adv-x="543" 
d="M453 -133q-17 -25 -41.5 -39t-59.5 -14q-21 0 -41 5.5t-35.5 16.5t-24.5 29t-9 43q0 44 28 80q-54 2 -100 20.5t-80 51t-53.5 78.5t-19.5 104q0 52 19 98.5t54 80.5t83 54t107 20q53 0 99 -18.5t79.5 -53.5t53 -85.5t19.5 -114.5v-37h-328q8 -23 33.5 -42t70.5 -19
q10 0 25.5 2.5t31.5 7t30.5 10.5t23.5 14l74 -111q-20 -17 -47 -28.5t-57 -19.5q-37 -19 -51 -40.5t-14 -43.5q0 -20 10 -27t19 -7q14 0 22 8.5t13 19.5zM360 300q-2 8 -6.5 18t-13.5 19t-23.5 15t-36.5 6q-21 0 -35 -6t-23 -15t-14 -19t-7 -18h159z" />
    <glyph glyph-name="ecaron" unicode="&#x11b;" horiz-adv-x="543" 
d="M201 556l-91 144h105l64 -73l61 73h105l-88 -144h-156zM286 -12q-57 0 -106 17.5t-85 50t-57 79.5t-21 107q0 52 19 98.5t54 80.5t83 54t107 20q53 0 99 -18.5t79.5 -53.5t53 -85.5t19.5 -114.5v-37h-328q8 -23 33.5 -42t70.5 -19q10 0 25.5 2.5t31.5 7t30.5 10.5
t23.5 14l74 -111q-18 -15 -42.5 -26.5t-51.5 -19t-56 -11t-56 -3.5zM360 300q-2 8 -6.5 18t-13.5 19t-23.5 15t-36.5 6q-21 0 -35 -6t-23 -15t-14 -19t-7 -18h159z" />
    <glyph glyph-name="uni1EB9" unicode="&#x1eb9;" horiz-adv-x="543" 
d="M286 -12q-57 0 -106 17.5t-85 50t-57 79.5t-21 107q0 52 19 98.5t54 80.5t83 54t107 20q53 0 99 -18.5t79.5 -53.5t53 -85.5t19.5 -114.5v-37h-328q8 -23 33.5 -42t70.5 -19q10 0 25.5 2.5t31.5 7t30.5 10.5t23.5 14l74 -111q-18 -15 -42.5 -26.5t-51.5 -19t-56 -11
t-56 -3.5zM360 300q-2 8 -6.5 18t-13.5 19t-23.5 15t-36.5 6q-21 0 -35 -6t-23 -15t-14 -19t-7 -18h159zM282 -208q-37 0 -63 26t-26 63t26 63t63 26q18 0 34 -7t28 -19t19 -28.5t7 -34.5t-7 -34.5t-19 -28.5t-28 -19t-34 -7z" />
    <glyph glyph-name="uni1EBB" unicode="&#x1ebb;" horiz-adv-x="543" 
d="M286 -12q-57 0 -106 17.5t-85 50t-57 79.5t-21 107q0 52 19 98.5t54 80.5t83 54t107 20q53 0 99 -18.5t79.5 -53.5t53 -85.5t19.5 -114.5v-37h-328q8 -23 33.5 -42t70.5 -19q10 0 25.5 2.5t31.5 7t30.5 10.5t23.5 14l74 -111q-18 -15 -42.5 -26.5t-51.5 -19t-56 -11
t-56 -3.5zM360 300q-2 8 -6.5 18t-13.5 19t-23.5 15t-36.5 6q-21 0 -35 -6t-23 -15t-14 -19t-7 -18h159zM184 593q11 31 34.5 44.5t51.5 13.5q35 0 61.5 -17.5t26.5 -57.5q0 -14 -3.5 -25.5t-8.5 -22.5h-70q17 18 17 44q0 14 -7.5 19.5t-15.5 5.5q-11 0 -17.5 -7t-10.5 -16z
" />
    <glyph glyph-name="uni1EBD" unicode="&#x1ebd;" horiz-adv-x="543" 
d="M286 -12q-57 0 -106 17.5t-85 50t-57 79.5t-21 107q0 52 19 98.5t54 80.5t83 54t107 20q53 0 99 -18.5t79.5 -53.5t53 -85.5t19.5 -114.5v-37h-328q8 -23 33.5 -42t70.5 -19q10 0 25.5 2.5t31.5 7t30.5 10.5t23.5 14l74 -111q-18 -15 -42.5 -26.5t-51.5 -19t-56 -11
t-56 -3.5zM360 300q-2 8 -6.5 18t-13.5 19t-23.5 15t-36.5 6q-21 0 -35 -6t-23 -15t-14 -19t-7 -18h159zM324 554q-23 0 -39.5 6.5t-28.5 15t-22 15t-20 6.5t-17 -9t-7 -28h-89q0 69 30 101.5t88 32.5q23 0 39.5 -6.5t28.5 -15t22 -15t20 -6.5t17 9t7 28h89
q0 -69 -30 -101.5t-88 -32.5z" />
    <glyph glyph-name="uni1EBF" unicode="&#x1ebf;" horiz-adv-x="543" 
d="M341 556l-64 73l-61 -73h-105l88 144h156l91 -144h-105zM524 626h-120l120 144h155zM286 -12q-57 0 -106 17.5t-85 50t-57 79.5t-21 107q0 52 19 98.5t54 80.5t83 54t107 20q53 0 99 -18.5t79.5 -53.5t53 -85.5t19.5 -114.5v-37h-328q8 -23 33.5 -42t70.5 -19
q10 0 25.5 2.5t31.5 7t30.5 10.5t23.5 14l74 -111q-18 -15 -42.5 -26.5t-51.5 -19t-56 -11t-56 -3.5zM360 300q-2 8 -6.5 18t-13.5 19t-23.5 15t-36.5 6q-21 0 -35 -6t-23 -15t-14 -19t-7 -18h159z" />
    <glyph glyph-name="uni1EC1" unicode="&#x1ec1;" horiz-adv-x="543" 
d="M341 556l-64 73l-61 -73h-105l88 144h156l91 -144h-105zM286 -12q-57 0 -106 17.5t-85 50t-57 79.5t-21 107q0 52 19 98.5t54 80.5t83 54t107 20q53 0 99 -18.5t79.5 -53.5t53 -85.5t19.5 -114.5v-37h-328q8 -23 33.5 -42t70.5 -19q10 0 25.5 2.5t31.5 7t30.5 10.5
t23.5 14l74 -111q-18 -15 -42.5 -26.5t-51.5 -19t-56 -11t-56 -3.5zM360 300q-2 8 -6.5 18t-13.5 19t-23.5 15t-36.5 6q-21 0 -35 -6t-23 -15t-14 -19t-7 -18h159zM28 626l-155 144h155l120 -144h-120z" />
    <glyph glyph-name="uni1EC3" unicode="&#x1ec3;" horiz-adv-x="543" 
d="M341 556l-64 73l-61 -73h-105l88 144h156l91 -144h-105zM286 -12q-57 0 -106 17.5t-85 50t-57 79.5t-21 107q0 52 19 98.5t54 80.5t83 54t107 20q53 0 99 -18.5t79.5 -53.5t53 -85.5t19.5 -114.5v-37h-328q8 -23 33.5 -42t70.5 -19q10 0 25.5 2.5t31.5 7t30.5 10.5
t23.5 14l74 -111q-18 -15 -42.5 -26.5t-51.5 -19t-56 -11t-56 -3.5zM360 300q-2 8 -6.5 18t-13.5 19t-23.5 15t-36.5 6q-21 0 -35 -6t-23 -15t-14 -19t-7 -18h159zM310 732q11 31 34.5 44.5t51.5 13.5q35 0 61.5 -17.5t26.5 -57.5q0 -14 -3.5 -25.5t-8.5 -22.5h-70
q17 18 17 44q0 14 -7.5 19.5t-15.5 5.5q-11 0 -17.5 -7t-10.5 -16z" />
    <glyph glyph-name="uni1EC5" unicode="&#x1ec5;" horiz-adv-x="543" 
d="M341 524l-64 73l-61 -73h-105l88 144h156l91 -144h-105zM286 -12q-57 0 -106 17.5t-85 50t-57 79.5t-21 107q0 52 19 98.5t54 80.5t83 54t107 20q53 0 99 -18.5t79.5 -53.5t53 -85.5t19.5 -114.5v-37h-328q8 -23 33.5 -42t70.5 -19q10 0 25.5 2.5t31.5 7t30.5 10.5
t23.5 14l74 -111q-18 -15 -42.5 -26.5t-51.5 -19t-56 -11t-56 -3.5zM360 300q-2 8 -6.5 18t-13.5 19t-23.5 15t-36.5 6q-21 0 -35 -6t-23 -15t-14 -19t-7 -18h159zM332 682q-23 0 -39.5 6.5t-28.5 15t-22 15t-20 6.5t-17 -9t-7 -28h-89q0 69 30 101.5t88 32.5
q23 0 39.5 -6.5t28.5 -15t22 -15t20 -6.5t17 9t7 28h89q0 -69 -30 -101.5t-88 -32.5z" />
    <glyph glyph-name="uni1EC7" unicode="&#x1ec7;" horiz-adv-x="543" 
d="M344 556l-64 73l-61 -73h-105l88 144h156l91 -144h-105zM286 -12q-57 0 -106 17.5t-85 50t-57 79.5t-21 107q0 52 19 98.5t54 80.5t83 54t107 20q53 0 99 -18.5t79.5 -53.5t53 -85.5t19.5 -114.5v-37h-328q8 -23 33.5 -42t70.5 -19q10 0 25.5 2.5t31.5 7t30.5 10.5
t23.5 14l74 -111q-18 -15 -42.5 -26.5t-51.5 -19t-56 -11t-56 -3.5zM360 300q-2 8 -6.5 18t-13.5 19t-23.5 15t-36.5 6q-21 0 -35 -6t-23 -15t-14 -19t-7 -18h159zM282 -208q-37 0 -63 26t-26 63t26 63t63 26q18 0 34 -7t28 -19t19 -28.5t7 -34.5t-7 -34.5t-19 -28.5
t-28 -19t-34 -7z" />
    <glyph glyph-name="fl.alt1" horiz-adv-x="699" 
d="M87 0v327h-80v156h80v22q0 37 13.5 69t38 54.5t58.5 35.5t74 13q35 0 63.5 -6.5t48.5 -17.5l-33 -122q-7 5 -17.5 9t-22.5 4q-18 0 -30.5 -11t-12.5 -28v-22h98v-156h-98v-327h-180zM587 -12q-81 0 -123.5 38t-42.5 114v527h180v-475q0 -19 11 -32t29 -13q12 0 22.5 3
t13.5 6l32 -136q-14 -13 -45 -22.5t-77 -9.5z" />
    <glyph glyph-name="f_f_l.alt1" horiz-adv-x="1070" 
d="M458 0v327h-80v156h80v22q0 37 13.5 69t38 54.5t58.5 35.5t74 13q35 0 63.5 -6.5t48.5 -17.5l-33 -122q-7 5 -17.5 9t-22.5 4q-18 0 -30.5 -11t-12.5 -28v-22h98v-156h-98v-327h-180zM958 -12q-81 0 -123.5 38t-42.5 114v527h180v-475q0 -19 11 -32t29 -13q12 0 22.5 3
t13.5 6l32 -136q-14 -13 -45 -22.5t-77 -9.5zM87 0v327h-80v156h80v22q0 38 13.5 69.5t38 54.5t58.5 35.5t74 12.5q42 0 83.5 -12.5t67.5 -39.5l-65 -100q-16 19 -44 19q-17 0 -31.5 -10.5t-14.5 -28.5v-22h98v-156h-98v-327h-180z" />
    <glyph glyph-name="uni1E1F" unicode="&#x1e1f;" horiz-adv-x="371" 
d="M272 697q-37 0 -63 26t-26 63t26 63t63 26q18 0 34 -7t28 -19t19 -28.5t7 -34.5t-7 -34.5t-19 -28.5t-28 -19t-34 -7zM87 0v327h-80v156h80v22q0 38 13.5 69.5t38 54.5t58.5 35.5t74 12.5q42 0 83.5 -12.5t67.5 -39.5l-65 -100q-16 19 -44 19q-17 0 -31.5 -10.5
t-14.5 -28.5v-22h98v-156h-98v-327h-180z" />
    <glyph glyph-name="gcircumflex" unicode="&#x11d;" horiz-adv-x="595" 
d="M368 556l-64 73l-61 -73h-105l88 144h156l91 -144h-105zM253 -196q-63 0 -117.5 17t-102.5 55l76 128q28 -28 66.5 -40.5t77.5 -12.5q16 0 35.5 4t36.5 15t28.5 30.5t11.5 51.5v26q-31 -35 -64.5 -50t-71.5 -15q-44 0 -82.5 14.5t-67 44t-45.5 75t-17 107.5
q0 60 16.5 105.5t45 75.5t67 45t83.5 15q38 0 72.5 -14t63.5 -49v51h180v-431q0 -52 -13.5 -91t-35.5 -66.5t-52 -45t-62 -27.5t-65.5 -14t-63.5 -4zM291 172q17 0 39 8t35 23v102q-13 15 -35 23t-39 8q-37 0 -63.5 -19t-26.5 -63t26.5 -63t63.5 -19z" />
    <glyph glyph-name="gbreve" unicode="&#x11f;" horiz-adv-x="595" 
d="M253 -196q-63 0 -117.5 17t-102.5 55l76 128q28 -28 66.5 -40.5t77.5 -12.5q16 0 35.5 4t36.5 15t28.5 30.5t11.5 51.5v26q-31 -35 -64.5 -50t-71.5 -15q-44 0 -82.5 14.5t-67 44t-45.5 75t-17 107.5q0 60 16.5 105.5t45 75.5t67 45t83.5 15q38 0 72.5 -14t63.5 -49v51
h180v-431q0 -52 -13.5 -91t-35.5 -66.5t-52 -45t-62 -27.5t-65.5 -14t-63.5 -4zM291 172q17 0 39 8t35 23v102q-13 15 -35 23t-39 8q-37 0 -63.5 -19t-26.5 -63t26.5 -63t63.5 -19zM469 612q-30 -41 -75.5 -64.5t-99.5 -23.5t-99.5 23.5t-76.5 64.5l76 62q17 -23 42 -38
t58 -15q63 0 100 53l75 -62v0z" />
    <glyph glyph-name="gdotaccent" unicode="&#x121;" horiz-adv-x="595" 
d="M253 -196q-63 0 -117.5 17t-102.5 55l76 128q28 -28 66.5 -40.5t77.5 -12.5q16 0 35.5 4t36.5 15t28.5 30.5t11.5 51.5v26q-31 -35 -64.5 -50t-71.5 -15q-44 0 -82.5 14.5t-67 44t-45.5 75t-17 107.5q0 60 16.5 105.5t45 75.5t67 45t83.5 15q38 0 72.5 -14t63.5 -49v51
h180v-431q0 -52 -13.5 -91t-35.5 -66.5t-52 -45t-62 -27.5t-65.5 -14t-63.5 -4zM291 172q17 0 39 8t35 23v102q-13 15 -35 23t-39 8q-37 0 -63.5 -19t-26.5 -63t26.5 -63t63.5 -19zM307 530q-37 0 -63 26t-26 63t26 63t63 26q18 0 34 -7t28 -19t19 -28.5t7 -34.5t-7 -34.5
t-19 -28.5t-28 -19t-34 -7z" />
    <glyph glyph-name="gcommaaccent" unicode="&#x123;" horiz-adv-x="595" 
d="M213 612q0 51 21 94t69 76l55 -44q-8 -3 -18.5 -9.5t-20.5 -15.5t-18 -19.5t-10 -20.5q2 0 3.5 0.5t3.5 0.5q14 0 27.5 -5.5t24 -15.5t17 -23.5t6.5 -29.5t-6 -30.5t-17 -25.5t-25.5 -17.5t-31.5 -6.5q-11 0 -25 4t-26 14t-20.5 28t-8.5 46zM253 -196q-63 0 -117.5 17
t-102.5 55l76 128q28 -28 66.5 -40.5t77.5 -12.5q16 0 35.5 4t36.5 15t28.5 30.5t11.5 51.5v26q-31 -35 -64.5 -50t-71.5 -15q-44 0 -82.5 14.5t-67 44t-45.5 75t-17 107.5q0 60 16.5 105.5t45 75.5t67 45t83.5 15q38 0 72.5 -14t63.5 -49v51h180v-431q0 -52 -13.5 -91
t-35.5 -66.5t-52 -45t-62 -27.5t-65.5 -14t-63.5 -4zM291 172q17 0 39 8t35 23v102q-13 15 -35 23t-39 8q-37 0 -63.5 -19t-26.5 -63t26.5 -63t63.5 -19z" />
    <glyph glyph-name="hbar" unicode="&#x127;" horiz-adv-x="613" 
d="M236 521v-93q21 24 61.5 45.5t104.5 21.5q42 0 72.5 -11.5t50 -32t29 -48t9.5 -58.5v-345h-180v269q0 38 -19 52.5t-51 14.5q-31 0 -48.5 -12.5t-28.5 -25.5v-298h-180v521h-49v97h49v49h180v-49h134v-97h-134z" />
    <glyph glyph-name="hcircumflex" unicode="&#x125;" horiz-adv-x="608" 
d="M367 723l-64 73l-61 -73h-105l88 144h156l91 -144h-105zM378 0v269q0 38 -19 52.5t-51 14.5q-31 0 -48.5 -12.5t-28.5 -25.5v-298h-180v667h180v-239q21 24 61.5 45.5t104.5 21.5q42 0 72.5 -11.5t50 -32t29 -48t9.5 -58.5v-345h-180z" />
    <glyph glyph-name="uni1E23" unicode="&#x1e23;" horiz-adv-x="608" 
d="M378 0v269q0 38 -19 52.5t-51 14.5q-31 0 -48.5 -12.5t-28.5 -25.5v-298h-180v667h180v-239q21 24 61.5 45.5t104.5 21.5q42 0 72.5 -11.5t50 -32t29 -48t9.5 -58.5v-345h-180zM304 697q-37 0 -63 26t-26 63t26 63t63 26q18 0 34 -7t28 -19t19 -28.5t7 -34.5t-7 -34.5
t-19 -28.5t-28 -19t-34 -7z" />
    <glyph glyph-name="dotlessi" unicode="&#x131;" horiz-adv-x="280" 
d="M50 0v483h180v-483h-180z" />
    <glyph glyph-name="iacute" unicode="&#xed;" horiz-adv-x="280" 
d="M191 556h-120l120 144h155zM50 0v483h180v-483h-180z" />
    <glyph glyph-name="ibreve" unicode="&#x12d;" horiz-adv-x="280" 
d="M50 0v483h180v-483h-180zM318 612q-30 -41 -75.5 -64.5t-99.5 -23.5t-99.5 23.5t-76.5 64.5l76 62q17 -23 42 -38t58 -15q63 0 100 53l75 -62v0z" />
    <glyph glyph-name="icircumflex" unicode="&#xee;" horiz-adv-x="280" 
d="M204 556l-64 73l-61 -73h-105l88 144h156l91 -144h-105zM50 0v483h180v-483h-180z" />
    <glyph glyph-name="idieresis" unicode="&#xef;" horiz-adv-x="280" 
d="M339 618q0 -38 -26 -63.5t-64 -25.5q-37 0 -63 25.5t-26 63.5t26 63.5t63 25.5q38 0 64 -25.5t26 -63.5zM122 618q0 -38 -25.5 -63.5t-63.5 -25.5t-63.5 25.5t-25.5 63.5t25.5 63.5t63.5 25.5t63.5 -25.5t25.5 -63.5zM50 0v483h180v-483h-180z" />
    <glyph glyph-name="igrave" unicode="&#xec;" horiz-adv-x="280" 
d="M50 0v483h180v-483h-180zM91 556l-155 144h155l120 -144h-120z" />
    <glyph glyph-name="imacron" unicode="&#x12b;" horiz-adv-x="280" 
d="M50 0v483h180v-483h-180zM-40 551v97h363v-97h-363z" />
    <glyph glyph-name="iogonek" unicode="&#x12f;" horiz-adv-x="280" 
d="M295 -133q-17 -25 -41.5 -39t-59.5 -14q-21 0 -41 5.5t-35.5 16.5t-24.5 29t-9 43q0 53 39 92h-73v483h180v-483q-37 -19 -51 -40.5t-14 -43.5q0 -20 10 -27t19 -7q14 0 22 8.5t13 19.5zM140 518q-21 0 -39.5 8t-32 21.5t-21.5 32t-8 39.5t8 39.5t21.5 32t32 21.5t39.5 8
t39.5 -8t32 -21.5t21.5 -32t8 -39.5t-8 -39.5t-21.5 -32t-32 -21.5t-39.5 -8z" />
    <glyph glyph-name="itilde" unicode="&#x129;" horiz-adv-x="280" 
d="M50 0v483h180v-483h-180zM195 554q-23 0 -39.5 6.5t-28.5 15t-22 15t-20 6.5t-17 -9t-7 -28h-89q0 69 30 101.5t88 32.5q23 0 39.5 -6.5t28.5 -15t22 -15t20 -6.5t17 9t7 28h89q0 -69 -30 -101.5t-88 -32.5z" />
    <glyph glyph-name="uni1EC9" unicode="&#x1ec9;" horiz-adv-x="280" 
d="M50 0v483h180v-483h-180zM53 593q11 31 34.5 44.5t51.5 13.5q35 0 61.5 -17.5t26.5 -57.5q0 -14 -3.5 -25.5t-8.5 -22.5h-70q17 18 17 44q0 14 -7.5 19.5t-15.5 5.5q-11 0 -17.5 -7t-10.5 -16z" />
    <glyph glyph-name="uni1ECB" unicode="&#x1ecb;" horiz-adv-x="280" 
d="M140 518q-21 0 -39.5 8t-32 21.5t-21.5 32t-8 39.5t8 39.5t21.5 32t32 21.5t39.5 8t39.5 -8t32 -21.5t21.5 -32t8 -39.5t-8 -39.5t-21.5 -32t-32 -21.5t-39.5 -8zM50 0v483h180v-483h-180zM143 -208q-37 0 -63 26t-26 63t26 63t63 26q18 0 34 -7t28 -19t19 -28.5t7 -34.5
t-7 -34.5t-19 -28.5t-28 -19t-34 -7z" />
    <glyph glyph-name="ij" unicode="&#x133;" horiz-adv-x="560" 
d="M140 518q-21 0 -39.5 8t-32 21.5t-21.5 32t-8 39.5t8 39.5t21.5 32t32 21.5t39.5 8t39.5 -8t32 -21.5t21.5 -32t8 -39.5t-8 -39.5t-21.5 -32t-32 -21.5t-39.5 -8zM50 0v483h180v-483h-180zM420 518q-21 0 -39.5 8t-32 21.5t-21.5 32t-8 39.5t8 39.5t21.5 32t32 21.5
t39.5 8t39.5 -8t32 -21.5t21.5 -32t8 -39.5t-8 -39.5t-21.5 -32t-32 -21.5t-39.5 -8zM309 -196q-27 0 -46 2t-34 5.5t-27.5 10t-27.5 15.5l43 133q15 -11 27 -15t33 -4q25 0 39 17.5t14 52.5v462h180v-462q0 -47 -11.5 -86.5t-36.5 -68.5t-63 -45.5t-90 -16.5z" />
    <glyph glyph-name="uni0237" unicode="&#x237;" horiz-adv-x="280" 
d="M29 -196q-27 0 -46 2t-34 5.5t-27.5 10t-27.5 15.5l43 145q15 -11 27 -15t33 -4q25 0 39 16t14 42v462h180v-462q0 -47 -11.5 -86.5t-36.5 -68.5t-63 -45.5t-90 -16.5z" />
    <glyph glyph-name="jcircumflex" unicode="&#x135;" horiz-adv-x="280" 
d="M207 556l-64 73l-61 -73h-105l88 144h156l91 -144h-105zM29 -196q-27 0 -46 2t-34 5.5t-27.5 10t-27.5 15.5l43 145q15 -11 27 -15t33 -4q25 0 39 16t14 42v462h180v-462q0 -47 -11.5 -86.5t-36.5 -68.5t-63 -45.5t-90 -16.5z" />
    <glyph glyph-name="kcommaaccent" unicode="&#x137;" horiz-adv-x="557" 
d="M364 -139q0 -50 -25 -92t-69 -73l-55 44q9 4 19.5 12t20 18t17.5 21t11 22q-5 -3 -19 -3q-27 0 -46 18.5t-19 50.5q0 33 23 56t55 23q34 0 60.5 -25t26.5 -72zM348 0l-83 156l-35 -47v-109h-180v667h180v-356l111 172h217l-166 -220l177 -263h-221z" />
    <glyph glyph-name="kgreenlandic" unicode="&#x138;" horiz-adv-x="557" 
d="M348 0l-83 156l-35 -47v-109h-180v483h180v-172l111 172h217l-166 -220l177 -263h-221z" />
    <glyph glyph-name="lacute" unicode="&#x13a;" horiz-adv-x="280" 
d="M191 723h-120l120 144h155zM50 0v667h180v-667h-180z" />
    <glyph glyph-name="lcommaaccent" unicode="&#x13c;" horiz-adv-x="280" 
d="M226 -139q0 -50 -25 -92t-69 -73l-55 44q9 4 19.5 12t20 18t17.5 21t11 22q-5 -3 -19 -3q-27 0 -46 18.5t-19 50.5q0 33 23 56t55 23q34 0 60.5 -25t26.5 -72zM50 0v667h180v-667h-180z" />
    <glyph glyph-name="lcaron" unicode="&#x13e;" horiz-adv-x="418" 
d="M434 584q0 -50 -25 -92t-69 -73l-55 44q9 4 19.5 12t20 18t17.5 21t11 22q-5 -3 -19 -3q-27 0 -46 18.5t-19 50.5q0 33 23 56t55 23q34 0 60.5 -25t26.5 -72zM50 0v667h180v-667h-180z" />
    <glyph glyph-name="ldot" unicode="&#x140;" horiz-adv-x="462" 
d="M50 0v667h180v-667h-180zM477 244q0 -21 -8.5 -40.5t-23 -34t-33.5 -23t-41 -8.5t-41 8.5t-33.5 23t-23 34t-8.5 40.5q0 22 8.5 41.5t23 34t33.5 23t41 8.5t41 -8.5t33.5 -23t23 -34t8.5 -41.5z" />
    <glyph glyph-name="lslash" unicode="&#x142;" horiz-adv-x="330" 
d="M7 306l68 39v322h180v-218l68 39v-125l-68 -40v-323h-180v219l-68 -39v126z" />
    <glyph glyph-name="lacute.alt1" horiz-adv-x="328" 
d="M191 723h-120l120 144h155zM216 -12q-81 0 -123.5 38t-42.5 114v527h180v-475q0 -19 11 -32t29 -13q12 0 22.5 3t13.5 6l32 -136q-14 -13 -45 -22.5t-77 -9.5z" />
    <glyph glyph-name="lcommaaccent.alt1" horiz-adv-x="328" 
d="M227 -139q0 -50 -25 -92t-69 -73l-55 44q9 4 19.5 12t20 18t17.5 21t11 22q-5 -3 -19 -3q-27 0 -46 18.5t-19 50.5q0 33 23 56t55 23q34 0 60.5 -25t26.5 -72zM216 -12q-81 0 -123.5 38t-42.5 114v527h180v-475q0 -19 11 -32t29 -13q12 0 22.5 3t13.5 6l32 -136
q-14 -13 -45 -22.5t-77 -9.5z" />
    <glyph glyph-name="lcaron.alt1" horiz-adv-x="418" 
d="M434 584q0 -50 -25 -92t-69 -73l-55 44q9 4 19.5 12t20 18t17.5 21t11 22q-5 -3 -19 -3q-27 0 -46 18.5t-19 50.5q0 33 23 56t55 23q34 0 60.5 -25t26.5 -72zM216 -12q-81 0 -123.5 38t-42.5 114v527h180v-475q0 -19 11 -32t29 -13q12 0 22.5 3t13.5 6l32 -136
q-14 -13 -45 -22.5t-77 -9.5z" />
    <glyph glyph-name="ldot.alt1" horiz-adv-x="462" 
d="M216 -12q-81 0 -123.5 38t-42.5 114v527h180v-475q0 -19 11 -32t29 -13q12 0 22.5 3t13.5 6l32 -136q-14 -13 -45 -22.5t-77 -9.5zM477 244q0 -21 -8.5 -40.5t-23 -34t-33.5 -23t-41 -8.5t-41 8.5t-33.5 23t-23 34t-8.5 40.5q0 22 8.5 41.5t23 34t33.5 23t41 8.5t41 -8.5
t33.5 -23t23 -34t8.5 -41.5z" />
    <glyph glyph-name="lslash.alt1" horiz-adv-x="352" 
d="M7 306l67 38v323h180v-219l69 40v-125l-69 -40v-131q0 -19 11 -32t29 -13q12 0 22.5 3t13.5 6l32 -136q-14 -13 -45 -22.5t-77 -9.5q-81 0 -123.5 38t-42.5 114v79l-67 -39v126z" />
    <glyph glyph-name="nacute" unicode="&#x144;" horiz-adv-x="607" 
d="M355 556h-120l120 144h155zM377 0v267q0 38 -19 53.5t-51 15.5q-31 0 -48.5 -12.5t-28.5 -25.5v-298h-180v483h180v-55q21 24 61.5 45.5t104.5 21.5q42 0 72.5 -12t50 -32.5t29 -48.5t9.5 -59v-343h-180z" />
    <glyph glyph-name="napostrophe" unicode="&#x149;" horiz-adv-x="607" 
d="M191 688q0 -50 -25 -92t-69 -73l-55 44q9 4 19.5 12t20 18t17.5 21t11 22q-5 -3 -19 -3q-27 0 -46 18.5t-19 50.5q0 33 23 56t55 23q34 0 60.5 -25t26.5 -72zM377 0v267q0 38 -19 53.5t-51 15.5q-31 0 -48.5 -12.5t-28.5 -25.5v-298h-180v483h180v-55q21 24 61.5 45.5
t104.5 21.5q42 0 72.5 -12t50 -32.5t29 -48.5t9.5 -59v-343h-180z" />
    <glyph glyph-name="ncaron" unicode="&#x148;" horiz-adv-x="607" 
d="M227 556l-91 144h105l64 -73l61 73h105l-88 -144h-156zM377 0v267q0 38 -19 53.5t-51 15.5q-31 0 -48.5 -12.5t-28.5 -25.5v-298h-180v483h180v-55q21 24 61.5 45.5t104.5 21.5q42 0 72.5 -12t50 -32.5t29 -48.5t9.5 -59v-343h-180z" />
    <glyph glyph-name="ncommaaccent" unicode="&#x146;" horiz-adv-x="607" 
d="M389 -139q0 -50 -25 -92t-69 -73l-55 44q9 4 19.5 12t20 18t17.5 21t11 22q-5 -3 -19 -3q-27 0 -46 18.5t-19 50.5q0 33 23 56t55 23q34 0 60.5 -25t26.5 -72zM377 0v267q0 38 -19 53.5t-51 15.5q-31 0 -48.5 -12.5t-28.5 -25.5v-298h-180v483h180v-55q21 24 61.5 45.5
t104.5 21.5q42 0 72.5 -12t50 -32.5t29 -48.5t9.5 -59v-343h-180z" />
    <glyph glyph-name="ntilde" unicode="&#xf1;" horiz-adv-x="607" 
d="M377 0v267q0 38 -19 53.5t-51 15.5q-31 0 -48.5 -12.5t-28.5 -25.5v-298h-180v483h180v-55q21 24 61.5 45.5t104.5 21.5q42 0 72.5 -12t50 -32.5t29 -48.5t9.5 -59v-343h-180zM357 554q-23 0 -39.5 6.5t-28.5 15t-22 15t-20 6.5t-17 -9t-7 -28h-89q0 69 30 101.5t88 32.5
q23 0 39.5 -6.5t28.5 -15t22 -15t20 -6.5t17 9t7 28h89q0 -69 -30 -101.5t-88 -32.5z" />
    <glyph glyph-name="eng" unicode="&#x14b;" horiz-adv-x="607" 
d="M557 21q0 -47 -11.5 -86.5t-36.5 -68.5t-63 -45.5t-90 -16.5q-27 0 -46 2t-34 5.5t-27.5 10t-27.5 15.5l43 145q15 -11 27 -15t33 -4q25 0 39 16t14 42v246q0 38 -19 53.5t-51 15.5q-31 0 -48.5 -12.5t-28.5 -25.5v-298h-180v483h180v-55q21 24 61.5 45.5t104.5 21.5
q42 0 72.5 -12t50 -32.5t29 -48.5t9.5 -59v-322z" />
    <glyph glyph-name="oacute" unicode="&#xf3;" horiz-adv-x="577" 
d="M338 556h-120l120 144h155zM288 -12q-64 0 -114.5 20.5t-85 55.5t-53 81t-18.5 97t18.5 96.5t53 80.5t85 55.5t114.5 20.5t115 -20.5t85.5 -55.5t53 -80.5t18.5 -96.5t-18.5 -97t-53 -81t-85.5 -55.5t-115 -20.5zM288 147q42 0 64.5 27t22.5 68q0 40 -22.5 67t-64.5 27
t-64 -27t-22 -67q0 -41 22 -68t64 -27z" />
    <glyph glyph-name="obreve" unicode="&#x14f;" horiz-adv-x="577" 
d="M288 -12q-64 0 -114.5 20.5t-85 55.5t-53 81t-18.5 97t18.5 96.5t53 80.5t85 55.5t114.5 20.5t115 -20.5t85.5 -55.5t53 -80.5t18.5 -96.5t-18.5 -97t-53 -81t-85.5 -55.5t-115 -20.5zM288 147q42 0 64.5 27t22.5 68q0 40 -22.5 67t-64.5 27t-64 -27t-22 -67
q0 -41 22 -68t64 -27zM462 612q-30 -41 -75.5 -64.5t-99.5 -23.5t-99.5 23.5t-76.5 64.5l76 62q17 -23 42 -38t58 -15q63 0 100 53l75 -62v0z" />
    <glyph glyph-name="ocircumflex" unicode="&#xf4;" horiz-adv-x="577" 
d="M352 556l-64 73l-61 -73h-105l88 144h156l91 -144h-105zM288 -12q-64 0 -114.5 20.5t-85 55.5t-53 81t-18.5 97t18.5 96.5t53 80.5t85 55.5t114.5 20.5t115 -20.5t85.5 -55.5t53 -80.5t18.5 -96.5t-18.5 -97t-53 -81t-85.5 -55.5t-115 -20.5zM288 147q42 0 64.5 27
t22.5 68q0 40 -22.5 67t-64.5 27t-64 -27t-22 -67q0 -41 22 -68t64 -27z" />
    <glyph glyph-name="odieresis" unicode="&#xf6;" horiz-adv-x="577" 
d="M486 618q0 -38 -26 -63.5t-64 -25.5q-37 0 -63 25.5t-26 63.5t26 63.5t63 25.5q38 0 64 -25.5t26 -63.5zM269 618q0 -38 -25.5 -63.5t-63.5 -25.5t-63.5 25.5t-25.5 63.5t25.5 63.5t63.5 25.5t63.5 -25.5t25.5 -63.5zM288 -12q-64 0 -114.5 20.5t-85 55.5t-53 81
t-18.5 97t18.5 96.5t53 80.5t85 55.5t114.5 20.5t115 -20.5t85.5 -55.5t53 -80.5t18.5 -96.5t-18.5 -97t-53 -81t-85.5 -55.5t-115 -20.5zM288 147q42 0 64.5 27t22.5 68q0 40 -22.5 67t-64.5 27t-64 -27t-22 -67q0 -41 22 -68t64 -27z" />
    <glyph glyph-name="ograve" unicode="&#xf2;" horiz-adv-x="577" 
d="M288 -12q-64 0 -114.5 20.5t-85 55.5t-53 81t-18.5 97t18.5 96.5t53 80.5t85 55.5t114.5 20.5t115 -20.5t85.5 -55.5t53 -80.5t18.5 -96.5t-18.5 -97t-53 -81t-85.5 -55.5t-115 -20.5zM288 147q42 0 64.5 27t22.5 68q0 40 -22.5 67t-64.5 27t-64 -27t-22 -67
q0 -41 22 -68t64 -27zM237 556l-155 144h155l120 -144h-120z" />
    <glyph glyph-name="ohungarumlaut" unicode="&#x151;" horiz-adv-x="577" 
d="M253 556h-100l80 144h135zM409 556h-100l80 144h135zM288 -12q-64 0 -114.5 20.5t-85 55.5t-53 81t-18.5 97t18.5 96.5t53 80.5t85 55.5t114.5 20.5t115 -20.5t85.5 -55.5t53 -80.5t18.5 -96.5t-18.5 -97t-53 -81t-85.5 -55.5t-115 -20.5zM288 147q42 0 64.5 27t22.5 68
q0 40 -22.5 67t-64.5 27t-64 -27t-22 -67q0 -41 22 -68t64 -27z" />
    <glyph glyph-name="omacron" unicode="&#x14d;" horiz-adv-x="577" 
d="M107 551v97h363v-97h-363zM288 -12q-64 0 -114.5 20.5t-85 55.5t-53 81t-18.5 97t18.5 96.5t53 80.5t85 55.5t114.5 20.5t115 -20.5t85.5 -55.5t53 -80.5t18.5 -96.5t-18.5 -97t-53 -81t-85.5 -55.5t-115 -20.5zM288 147q42 0 64.5 27t22.5 68q0 40 -22.5 67t-64.5 27
t-64 -27t-22 -67q0 -41 22 -68t64 -27z" />
    <glyph glyph-name="oslash" unicode="&#xf8;" horiz-adv-x="577" 
d="M17 0l64 71q-32 35 -48 79t-16 92q0 51 18.5 96.5t53 80.5t85 55.5t114.5 20.5q43 0 79.5 -9t66.5 -26l21 23h105l-65 -71q32 -35 48.5 -78.5t16.5 -91.5q0 -51 -18.5 -97t-53 -81t-85.5 -55.5t-115 -20.5q-44 0 -80.5 9.5t-66.5 26.5l-22 -24h-102zM288 147
q42 0 64.5 27t22.5 68q0 16 -5 33l-113 -123q15 -5 31 -5zM202 242q0 -20 4 -33l111 123q-12 4 -29 4q-42 0 -64 -27t-22 -67z" />
    <glyph glyph-name="oslashacute" unicode="&#x1ff;" horiz-adv-x="577" 
d="M338 556h-120l120 144h155zM17 0l64 71q-32 35 -48 79t-16 92q0 51 18.5 96.5t53 80.5t85 55.5t114.5 20.5q43 0 79.5 -9t66.5 -26l21 23h105l-65 -71q32 -35 48.5 -78.5t16.5 -91.5q0 -51 -18.5 -97t-53 -81t-85.5 -55.5t-115 -20.5q-44 0 -80.5 9.5t-66.5 26.5l-22 -24
h-102zM288 147q42 0 64.5 27t22.5 68q0 16 -5 33l-113 -123q15 -5 31 -5zM202 242q0 -20 4 -33l111 123q-12 4 -29 4q-42 0 -64 -27t-22 -67z" />
    <glyph glyph-name="otilde" unicode="&#xf5;" horiz-adv-x="577" 
d="M288 -12q-64 0 -114.5 20.5t-85 55.5t-53 81t-18.5 97t18.5 96.5t53 80.5t85 55.5t114.5 20.5t115 -20.5t85.5 -55.5t53 -80.5t18.5 -96.5t-18.5 -97t-53 -81t-85.5 -55.5t-115 -20.5zM288 147q42 0 64.5 27t22.5 68q0 40 -22.5 67t-64.5 27t-64 -27t-22 -67
q0 -41 22 -68t64 -27zM341 554q-23 0 -39.5 6.5t-28.5 15t-22 15t-20 6.5t-17 -9t-7 -28h-89q0 69 30 101.5t88 32.5q23 0 39.5 -6.5t28.5 -15t22 -15t20 -6.5t17 9t7 28h89q0 -69 -30 -101.5t-88 -32.5z" />
    <glyph glyph-name="uni1ECD" unicode="&#x1ecd;" horiz-adv-x="577" 
d="M288 -12q-64 0 -114.5 20.5t-85 55.5t-53 81t-18.5 97t18.5 96.5t53 80.5t85 55.5t114.5 20.5t115 -20.5t85.5 -55.5t53 -80.5t18.5 -96.5t-18.5 -97t-53 -81t-85.5 -55.5t-115 -20.5zM288 147q42 0 64.5 27t22.5 68q0 40 -22.5 67t-64.5 27t-64 -27t-22 -67
q0 -41 22 -68t64 -27zM290 -208q-37 0 -63 26t-26 63t26 63t63 26q18 0 34 -7t28 -19t19 -28.5t7 -34.5t-7 -34.5t-19 -28.5t-28 -19t-34 -7z" />
    <glyph glyph-name="uni1ECF" unicode="&#x1ecf;" horiz-adv-x="577" 
d="M288 -12q-64 0 -114.5 20.5t-85 55.5t-53 81t-18.5 97t18.5 96.5t53 80.5t85 55.5t114.5 20.5t115 -20.5t85.5 -55.5t53 -80.5t18.5 -96.5t-18.5 -97t-53 -81t-85.5 -55.5t-115 -20.5zM288 147q42 0 64.5 27t22.5 68q0 40 -22.5 67t-64.5 27t-64 -27t-22 -67
q0 -41 22 -68t64 -27zM202 593q11 31 34.5 44.5t51.5 13.5q35 0 61.5 -17.5t26.5 -57.5q0 -14 -3.5 -25.5t-8.5 -22.5h-70q17 18 17 44q0 14 -7.5 19.5t-15.5 5.5q-11 0 -17.5 -7t-10.5 -16z" />
    <glyph glyph-name="uni1ED1" unicode="&#x1ed1;" horiz-adv-x="577" 
d="M351 556l-64 73l-61 -73h-105l88 144h156l91 -144h-105zM534 626h-120l120 144h155zM288 -12q-64 0 -114.5 20.5t-85 55.5t-53 81t-18.5 97t18.5 96.5t53 80.5t85 55.5t114.5 20.5t115 -20.5t85.5 -55.5t53 -80.5t18.5 -96.5t-18.5 -97t-53 -81t-85.5 -55.5t-115 -20.5z
M288 147q42 0 64.5 27t22.5 68q0 40 -22.5 67t-64.5 27t-64 -27t-22 -67q0 -41 22 -68t64 -27z" />
    <glyph glyph-name="uni1ED3" unicode="&#x1ed3;" horiz-adv-x="577" 
d="M351 556l-64 73l-61 -73h-105l88 144h156l91 -144h-105zM288 -12q-64 0 -114.5 20.5t-85 55.5t-53 81t-18.5 97t18.5 96.5t53 80.5t85 55.5t114.5 20.5t115 -20.5t85.5 -55.5t53 -80.5t18.5 -96.5t-18.5 -97t-53 -81t-85.5 -55.5t-115 -20.5zM288 147q42 0 64.5 27
t22.5 68q0 40 -22.5 67t-64.5 27t-64 -27t-22 -67q0 -41 22 -68t64 -27zM38 626l-155 144h155l120 -144h-120z" />
    <glyph glyph-name="uni1ED5" unicode="&#x1ed5;" horiz-adv-x="577" 
d="M350 556l-64 73l-61 -73h-105l88 144h156l91 -144h-105zM288 -12q-64 0 -114.5 20.5t-85 55.5t-53 81t-18.5 97t18.5 96.5t53 80.5t85 55.5t114.5 20.5t115 -20.5t85.5 -55.5t53 -80.5t18.5 -96.5t-18.5 -97t-53 -81t-85.5 -55.5t-115 -20.5zM288 147q42 0 64.5 27
t22.5 68q0 40 -22.5 67t-64.5 27t-64 -27t-22 -67q0 -41 22 -68t64 -27zM319 732q11 31 34.5 44.5t51.5 13.5q35 0 61.5 -17.5t26.5 -57.5q0 -14 -3.5 -25.5t-8.5 -22.5h-70q17 18 17 44q0 14 -7.5 19.5t-15.5 5.5q-11 0 -17.5 -7t-10.5 -16z" />
    <glyph glyph-name="uni1ED7" unicode="&#x1ed7;" horiz-adv-x="577" 
d="M350 524l-64 73l-61 -73h-105l88 144h156l91 -144h-105zM288 -12q-64 0 -114.5 20.5t-85 55.5t-53 81t-18.5 97t18.5 96.5t53 80.5t85 55.5t114.5 20.5t115 -20.5t85.5 -55.5t53 -80.5t18.5 -96.5t-18.5 -97t-53 -81t-85.5 -55.5t-115 -20.5zM288 147q42 0 64.5 27
t22.5 68q0 40 -22.5 67t-64.5 27t-64 -27t-22 -67q0 -41 22 -68t64 -27zM341 682q-23 0 -39.5 6.5t-28.5 15t-22 15t-20 6.5t-17 -9t-7 -28h-89q0 69 30 101.5t88 32.5q23 0 39.5 -6.5t28.5 -15t22 -15t20 -6.5t17 9t7 28h89q0 -69 -30 -101.5t-88 -32.5z" />
    <glyph glyph-name="uni1ED9" unicode="&#x1ed9;" horiz-adv-x="577" 
d="M351 556l-64 73l-61 -73h-105l88 144h156l91 -144h-105zM288 -12q-64 0 -114.5 20.5t-85 55.5t-53 81t-18.5 97t18.5 96.5t53 80.5t85 55.5t114.5 20.5t115 -20.5t85.5 -55.5t53 -80.5t18.5 -96.5t-18.5 -97t-53 -81t-85.5 -55.5t-115 -20.5zM288 147q42 0 64.5 27
t22.5 68q0 40 -22.5 67t-64.5 27t-64 -27t-22 -67q0 -41 22 -68t64 -27zM290 -208q-37 0 -63 26t-26 63t26 63t63 26q18 0 34 -7t28 -19t19 -28.5t7 -34.5t-7 -34.5t-19 -28.5t-28 -19t-34 -7z" />
    <glyph glyph-name="ohorn" unicode="&#x1a1;" horiz-adv-x="577" 
d="M577 534q0 -40 -19 -74.5t-52 -61.5q54 -68 54 -156q0 -51 -18.5 -97t-53 -81t-85.5 -55.5t-115 -20.5t-114.5 20.5t-85 55.5t-53 81t-18.5 97t18.5 96.5t53 80.5t85 55.5t114.5 20.5q54 0 98.5 -14.5t78.5 -40.5q13 10 25 24t17 28q-5 -3 -17 -3q-24 0 -40.5 16.5
t-16.5 44.5q0 29 20 49t48 20q30 0 53 -22t23 -63zM288 147q42 0 64.5 27t22.5 68q0 40 -22.5 67t-64.5 27t-64 -27t-22 -67q0 -41 22 -68t64 -27z" />
    <glyph glyph-name="uni1EDB" unicode="&#x1edb;" horiz-adv-x="577" 
d="M338 556h-120l120 144h155zM577 534q0 -40 -19 -74.5t-52 -61.5q54 -68 54 -156q0 -51 -18.5 -97t-53 -81t-85.5 -55.5t-115 -20.5t-114.5 20.5t-85 55.5t-53 81t-18.5 97t18.5 96.5t53 80.5t85 55.5t114.5 20.5q54 0 98.5 -14.5t78.5 -40.5q13 10 25 24t17 28
q-5 -3 -17 -3q-24 0 -40.5 16.5t-16.5 44.5q0 29 20 49t48 20q30 0 53 -22t23 -63zM288 147q42 0 64.5 27t22.5 68q0 40 -22.5 67t-64.5 27t-64 -27t-22 -67q0 -41 22 -68t64 -27z" />
    <glyph glyph-name="uni1EDD" unicode="&#x1edd;" horiz-adv-x="577" 
d="M577 534q0 -40 -19 -74.5t-52 -61.5q54 -68 54 -156q0 -51 -18.5 -97t-53 -81t-85.5 -55.5t-115 -20.5t-114.5 20.5t-85 55.5t-53 81t-18.5 97t18.5 96.5t53 80.5t85 55.5t114.5 20.5q54 0 98.5 -14.5t78.5 -40.5q13 10 25 24t17 28q-5 -3 -17 -3q-24 0 -40.5 16.5
t-16.5 44.5q0 29 20 49t48 20q30 0 53 -22t23 -63zM288 147q42 0 64.5 27t22.5 68q0 40 -22.5 67t-64.5 27t-64 -27t-22 -67q0 -41 22 -68t64 -27zM237 556l-155 144h155l120 -144h-120z" />
    <glyph glyph-name="uni1EDF" unicode="&#x1edf;" horiz-adv-x="577" 
d="M577 534q0 -40 -19 -74.5t-52 -61.5q54 -68 54 -156q0 -51 -18.5 -97t-53 -81t-85.5 -55.5t-115 -20.5t-114.5 20.5t-85 55.5t-53 81t-18.5 97t18.5 96.5t53 80.5t85 55.5t114.5 20.5q54 0 98.5 -14.5t78.5 -40.5q13 10 25 24t17 28q-5 -3 -17 -3q-24 0 -40.5 16.5
t-16.5 44.5q0 29 20 49t48 20q30 0 53 -22t23 -63zM288 147q42 0 64.5 27t22.5 68q0 40 -22.5 67t-64.5 27t-64 -27t-22 -67q0 -41 22 -68t64 -27zM201 593q11 31 34.5 44.5t51.5 13.5q35 0 61.5 -17.5t26.5 -57.5q0 -14 -3.5 -25.5t-8.5 -22.5h-70q17 18 17 44
q0 14 -7.5 19.5t-15.5 5.5q-11 0 -17.5 -7t-10.5 -16z" />
    <glyph glyph-name="uni1EE1" unicode="&#x1ee1;" horiz-adv-x="577" 
d="M577 534q0 -40 -19 -74.5t-52 -61.5q54 -68 54 -156q0 -51 -18.5 -97t-53 -81t-85.5 -55.5t-115 -20.5t-114.5 20.5t-85 55.5t-53 81t-18.5 97t18.5 96.5t53 80.5t85 55.5t114.5 20.5q54 0 98.5 -14.5t78.5 -40.5q13 10 25 24t17 28q-5 -3 -17 -3q-24 0 -40.5 16.5
t-16.5 44.5q0 29 20 49t48 20q30 0 53 -22t23 -63zM288 147q42 0 64.5 27t22.5 68q0 40 -22.5 67t-64.5 27t-64 -27t-22 -67q0 -41 22 -68t64 -27zM321 554q-23 0 -39.5 6.5t-28.5 15t-22 15t-20 6.5t-17 -9t-7 -28h-89q0 69 30 101.5t88 32.5q23 0 39.5 -6.5t28.5 -15
t22 -15t20 -6.5t17 9t7 28h89q0 -69 -30 -101.5t-88 -32.5z" />
    <glyph glyph-name="uni1EE3" unicode="&#x1ee3;" horiz-adv-x="577" 
d="M577 534q0 -40 -19 -74.5t-52 -61.5q54 -68 54 -156q0 -51 -18.5 -97t-53 -81t-85.5 -55.5t-115 -20.5t-114.5 20.5t-85 55.5t-53 81t-18.5 97t18.5 96.5t53 80.5t85 55.5t114.5 20.5q54 0 98.5 -14.5t78.5 -40.5q13 10 25 24t17 28q-5 -3 -17 -3q-24 0 -40.5 16.5
t-16.5 44.5q0 29 20 49t48 20q30 0 53 -22t23 -63zM288 147q42 0 64.5 27t22.5 68q0 40 -22.5 67t-64.5 27t-64 -27t-22 -67q0 -41 22 -68t64 -27zM290 -208q-37 0 -63 26t-26 63t26 63t63 26q18 0 34 -7t28 -19t19 -28.5t7 -34.5t-7 -34.5t-19 -28.5t-28 -19t-34 -7z" />
    <glyph glyph-name="oe" unicode="&#x153;" horiz-adv-x="901" 
d="M561 186q5 -10 13.5 -21t22 -20t31.5 -15t42 -6q28 0 56 9.5t46 24.5l78 -110q-18 -15 -42.5 -26.5t-51.5 -19t-56 -11t-56 -3.5q-33 0 -59 6.5t-47.5 17t-39 24t-33.5 28.5q-30 -30 -72.5 -53t-104.5 -23q-64 0 -114.5 20.5t-85 55.5t-53 81t-18.5 97t18.5 96.5t53 80.5
t85 55.5t114.5 20.5q61 0 103.5 -23.5t74.5 -53.5q29 30 69.5 53.5t102.5 23.5q53 0 99 -18.5t79.5 -53.5t53 -85.5t19.5 -114.5v-37h-328zM718 300q-2 8 -6.5 18t-13.5 19t-23.5 15.5t-36.5 6.5q-21 0 -35 -6t-23 -15t-14 -19t-7 -19h159zM375 242q0 48 -25 71t-62 23
q-36 0 -61 -23t-25 -71t25 -72t61 -24q37 0 62 24t25 72z" />
    <glyph glyph-name="uni1E57" unicode="&#x1e57;" horiz-adv-x="595" 
d="M366 -12q-38 0 -72 14t-64 49v-235h-180v667h180v-51q29 35 63.5 49t72.5 14q45 0 83.5 -16.5t67 -48.5t45 -79t16.5 -109t-16.5 -109.5t-45 -79.5t-67 -48.5t-83.5 -16.5zM304 147q36 0 63 24.5t27 70.5q0 45 -27 69.5t-63 24.5q-17 0 -39 -8.5t-35 -24.5v-123
q12 -15 34.5 -24t39.5 -9zM305 530q-37 0 -63 26t-26 63t26 63t63 26q18 0 34 -7t28 -19t19 -28.5t7 -34.5t-7 -34.5t-19 -28.5t-28 -19t-34 -7z" />
    <glyph glyph-name="racute" unicode="&#x155;" horiz-adv-x="390" 
d="M263 556h-120l120 144h155zM50 0v483h180v-53q11 13 28 25t36.5 21.5t41 15t42.5 5.5v-172q-15 5 -41 5q-29 0 -60.5 -8t-46.5 -26v-296h-180z" />
    <glyph glyph-name="rcaron" unicode="&#x159;" horiz-adv-x="390" 
d="M137 556l-91 144h105l64 -73l61 73h105l-88 -144h-156zM50 0v483h180v-53q11 13 28 25t36.5 21.5t41 15t42.5 5.5v-172q-15 5 -41 5q-29 0 -60.5 -8t-46.5 -26v-296h-180z" />
    <glyph glyph-name="rcommaaccent" unicode="&#x157;" horiz-adv-x="390" 
d="M280 -139q0 -50 -25 -92t-69 -73l-55 44q9 4 19.5 12t20 18t17.5 21t11 22q-5 -3 -19 -3q-27 0 -46 18.5t-19 50.5q0 33 23 56t55 23q34 0 60.5 -25t26.5 -72zM50 0v483h180v-53q11 13 28 25t36.5 21.5t41 15t42.5 5.5v-172q-15 5 -41 5q-29 0 -60.5 -8t-46.5 -26v-296
h-180z" />
    <glyph glyph-name="sacute" unicode="&#x15b;" horiz-adv-x="490" 
d="M296 556h-120l120 144h155zM246 -12q-33 0 -67 5.5t-65.5 15.5t-58.5 23.5t-46 29.5l72 121q14 -11 35.5 -22t45.5 -19.5t48.5 -14t44.5 -5.5q28 0 38 6t10 15q0 11 -20.5 15.5t-50.5 9t-66 11.5t-66 24t-50.5 47t-20.5 80q0 33 14 62.5t41.5 52.5t67.5 36.5t93 13.5
q61 0 114 -17t95 -45l-66 -117q-23 19 -61.5 34.5t-80.5 15.5q-20 0 -32.5 -6.5t-12.5 -14.5q0 -10 20.5 -14t50.5 -8.5t66 -12.5t66 -26t50.5 -49t20.5 -81q0 -36 -15.5 -66.5t-45 -52.5t-72 -34.5t-96.5 -12.5z" />
    <glyph glyph-name="scaron" unicode="&#x161;" horiz-adv-x="490" 
d="M169 556l-91 144h105l64 -73l61 73h105l-88 -144h-156zM246 -12q-33 0 -67 5.5t-65.5 15.5t-58.5 23.5t-46 29.5l72 121q14 -11 35.5 -22t45.5 -19.5t48.5 -14t44.5 -5.5q28 0 38 6t10 15q0 11 -20.5 15.5t-50.5 9t-66 11.5t-66 24t-50.5 47t-20.5 80q0 33 14 62.5
t41.5 52.5t67.5 36.5t93 13.5q61 0 114 -17t95 -45l-66 -117q-23 19 -61.5 34.5t-80.5 15.5q-20 0 -32.5 -6.5t-12.5 -14.5q0 -10 20.5 -14t50.5 -8.5t66 -12.5t66 -26t50.5 -49t20.5 -81q0 -36 -15.5 -66.5t-45 -52.5t-72 -34.5t-96.5 -12.5z" />
    <glyph glyph-name="scircumflex" unicode="&#x15d;" horiz-adv-x="490" 
d="M308 556l-64 73l-61 -73h-105l88 144h156l91 -144h-105zM246 -12q-33 0 -67 5.5t-65.5 15.5t-58.5 23.5t-46 29.5l72 121q14 -11 35.5 -22t45.5 -19.5t48.5 -14t44.5 -5.5q28 0 38 6t10 15q0 11 -20.5 15.5t-50.5 9t-66 11.5t-66 24t-50.5 47t-20.5 80q0 33 14 62.5
t41.5 52.5t67.5 36.5t93 13.5q61 0 114 -17t95 -45l-66 -117q-23 19 -61.5 34.5t-80.5 15.5q-20 0 -32.5 -6.5t-12.5 -14.5q0 -10 20.5 -14t50.5 -8.5t66 -12.5t66 -26t50.5 -49t20.5 -81q0 -36 -15.5 -66.5t-45 -52.5t-72 -34.5t-96.5 -12.5z" />
    <glyph glyph-name="scedilla" unicode="&#x15f;" horiz-adv-x="490" 
d="M245 -200q-40 0 -71 10t-48 24l31 64q20 -14 41 -22t42 -8q16 0 29 5.5t13 18.5q0 17 -21 17q-16 0 -26 -12l-59 34l22 60q-56 6 -106.5 25t-82.5 46l72 121q14 -11 35.5 -22t45.5 -19.5t48.5 -14t44.5 -5.5q28 0 38 6t10 15q0 11 -20.5 15.5t-50.5 9t-66 11.5t-66 24
t-50.5 47t-20.5 80q0 33 14 62.5t41.5 52.5t67.5 36.5t93 13.5q61 0 114 -17t95 -45l-66 -117q-23 19 -61.5 34.5t-80.5 15.5q-20 0 -32.5 -6.5t-12.5 -14.5q0 -10 20.5 -14t50.5 -8.5t66 -12.5t66 -26t50.5 -49t20.5 -81q0 -67 -52.5 -112t-146.5 -53l-15 -36q15 9 34 9
q27 0 47.5 -20.5t20.5 -52.5q0 -43 -35 -66t-83 -23z" />
    <glyph glyph-name="scommaaccent" unicode="&#x219;" horiz-adv-x="490" 
d="M336 -139q0 -50 -25 -92t-69 -73l-55 44q9 4 19.5 12t20 18t17.5 21t11 22q-5 -3 -19 -3q-27 0 -46 18.5t-19 50.5q0 33 23 56t55 23q34 0 60.5 -25t26.5 -72zM246 -12q-33 0 -67 5.5t-65.5 15.5t-58.5 23.5t-46 29.5l72 121q14 -11 35.5 -22t45.5 -19.5t48.5 -14
t44.5 -5.5q28 0 38 6t10 15q0 11 -20.5 15.5t-50.5 9t-66 11.5t-66 24t-50.5 47t-20.5 80q0 33 14 62.5t41.5 52.5t67.5 36.5t93 13.5q61 0 114 -17t95 -45l-66 -117q-23 19 -61.5 34.5t-80.5 15.5q-20 0 -32.5 -6.5t-12.5 -14.5q0 -10 20.5 -14t50.5 -8.5t66 -12.5t66 -26
t50.5 -49t20.5 -81q0 -36 -15.5 -66.5t-45 -52.5t-72 -34.5t-96.5 -12.5z" />
    <glyph glyph-name="uni1E61" unicode="&#x1e61;" horiz-adv-x="490" 
d="M246 -12q-33 0 -67 5.5t-65.5 15.5t-58.5 23.5t-46 29.5l72 121q14 -11 35.5 -22t45.5 -19.5t48.5 -14t44.5 -5.5q28 0 38 6t10 15q0 11 -20.5 15.5t-50.5 9t-66 11.5t-66 24t-50.5 47t-20.5 80q0 33 14 62.5t41.5 52.5t67.5 36.5t93 13.5q61 0 114 -17t95 -45l-66 -117
q-23 19 -61.5 34.5t-80.5 15.5q-20 0 -32.5 -6.5t-12.5 -14.5q0 -10 20.5 -14t50.5 -8.5t66 -12.5t66 -26t50.5 -49t20.5 -81q0 -36 -15.5 -66.5t-45 -52.5t-72 -34.5t-96.5 -12.5zM245 530q-37 0 -63 26t-26 63t26 63t63 26q18 0 34 -7t28 -19t19 -28.5t7 -34.5t-7 -34.5
t-19 -28.5t-28 -19t-34 -7z" />
    <glyph glyph-name="germandbls" unicode="&#xdf;" horiz-adv-x="688" 
d="M676 154q0 -38 -16.5 -69t-45.5 -52.5t-68.5 -33t-85.5 -11.5q-68 0 -117.5 19t-89.5 53l69 123q10 -12 25.5 -23.5t34.5 -19.5t39 -13t39 -5q22 0 33 6.5t11 14.5q0 11 -17.5 16t-43.5 10.5t-56 13.5t-56 25.5t-43.5 46.5t-17.5 77q0 37 15.5 62.5t34.5 42.5t34.5 28.5
t15.5 20.5q0 17 -16.5 24.5t-39.5 7.5q-37 0 -60 -17.5t-23 -49.5v-451h-180v451q0 45 17.5 86t51.5 72t83.5 49.5t114.5 18.5q45 0 88 -11.5t76 -32.5t53 -51t20 -68q0 -43 -17.5 -70.5t-39 -45.5t-39 -31t-17.5 -27q0 -9 17.5 -12t43.5 -7t56 -12t56 -25.5t43.5 -48.5
t17.5 -81z" />
    <glyph glyph-name="longs" unicode="&#x17f;" horiz-adv-x="371" 
d="M87 0v327h-80v156h80v22q0 38 13.5 69.5t38 54.5t58.5 35.5t74 12.5q42 0 83.5 -12.5t67.5 -39.5l-65 -100q-16 19 -47 19q-15 0 -29 -10.5t-14 -28.5v-505h-180z" />
    <glyph glyph-name="tbar" unicode="&#x167;" horiz-adv-x="382" 
d="M253 -12q-81 0 -123.5 38t-42.5 114v51h-80v97h80v39h-80v156h80v132h180v-132h98v-156h-98v-39h67v-97h-67q0 -19 11 -31.5t29 -12.5q12 0 22.5 3t13.5 6l32 -136q-14 -13 -45 -22.5t-77 -9.5z" />
    <glyph glyph-name="tcaron" unicode="&#x165;" horiz-adv-x="447" 
d="M478 688q0 -50 -25 -92t-69 -73l-55 44q9 4 19.5 12t20 18t17.5 21t11 22q-5 -3 -19 -3q-27 0 -46 18.5t-19 50.5q0 33 23 56t55 23q34 0 60.5 -25t26.5 -72zM253 -12q-81 0 -123.5 38t-42.5 114v187h-80v156h80v132h180v-132h98v-156h-98v-135q0 -19 11 -32t29 -13
q12 0 22.5 3t13.5 6l32 -136q-14 -13 -45 -22.5t-77 -9.5z" />
    <glyph glyph-name="tcommaaccent" unicode="&#x163;" horiz-adv-x="382" 
d="M276 -139q0 -50 -25 -92t-69 -73l-55 44q9 4 19.5 12t20 18t17.5 21t11 22q-5 -3 -19 -3q-27 0 -46 18.5t-19 50.5q0 33 23 56t55 23q34 0 60.5 -25t26.5 -72zM253 -12q-81 0 -123.5 38t-42.5 114v187h-80v156h80v132h180v-132h98v-156h-98v-135q0 -19 11 -32t29 -13
q12 0 22.5 3t13.5 6l32 -136q-14 -13 -45 -22.5t-77 -9.5z" />
    <glyph glyph-name="uni021B" unicode="&#x21b;" horiz-adv-x="382" 
d="M276 -139q0 -50 -25 -92t-69 -73l-55 44q9 4 19.5 12t20 18t17.5 21t11 22q-5 -3 -19 -3q-27 0 -46 18.5t-19 50.5q0 33 23 56t55 23q34 0 60.5 -25t26.5 -72zM253 -12q-81 0 -123.5 38t-42.5 114v187h-80v156h80v132h180v-132h98v-156h-98v-135q0 -19 11 -32t29 -13
q12 0 22.5 3t13.5 6l32 -136q-14 -13 -45 -22.5t-77 -9.5z" />
    <glyph glyph-name="uni1E6B" unicode="&#x1e6b;" horiz-adv-x="382" 
d="M253 -12q-81 0 -123.5 38t-42.5 114v187h-80v156h80v132h180v-132h98v-156h-98v-135q0 -19 11 -32t29 -13q12 0 22.5 3t13.5 6l32 -136q-14 -13 -45 -22.5t-77 -9.5zM179 697q-37 0 -63 26t-26 63t26 63t63 26q18 0 34 -7t28 -19t19 -28.5t7 -34.5t-7 -34.5t-19 -28.5
t-28 -19t-34 -7z" />
    <glyph glyph-name="uacute" unicode="&#xfa;" horiz-adv-x="606" 
d="M353 556h-120l120 144h155zM376 0v54q-11 -12 -26 -23.5t-35.5 -21t-46.5 -15.5t-58 -6q-42 0 -72.5 12t-50 32t-28.5 47.5t-9 58.5v345h180v-268q0 -37 18.5 -52.5t51.5 -15.5q30 0 47.5 12.5t28.5 25.5v298h180v-483h-180z" />
    <glyph glyph-name="ubreve" unicode="&#x16d;" horiz-adv-x="606" 
d="M376 0v54q-11 -12 -26 -23.5t-35.5 -21t-46.5 -15.5t-58 -6q-42 0 -72.5 12t-50 32t-28.5 47.5t-9 58.5v345h180v-268q0 -37 18.5 -52.5t51.5 -15.5q30 0 47.5 12.5t28.5 25.5v298h180v-483h-180zM481 612q-30 -41 -75.5 -64.5t-99.5 -23.5t-99.5 23.5t-76.5 64.5l76 62
q17 -23 42 -38t58 -15q63 0 100 53l75 -62v0z" />
    <glyph glyph-name="ucircumflex" unicode="&#xfb;" horiz-adv-x="606" 
d="M368 556l-64 73l-61 -73h-105l88 144h156l91 -144h-105zM376 0v54q-11 -12 -26 -23.5t-35.5 -21t-46.5 -15.5t-58 -6q-42 0 -72.5 12t-50 32t-28.5 47.5t-9 58.5v345h180v-268q0 -37 18.5 -52.5t51.5 -15.5q30 0 47.5 12.5t28.5 25.5v298h180v-483h-180z" />
    <glyph glyph-name="udieresis" unicode="&#xfc;" horiz-adv-x="606" 
d="M503 618q0 -38 -26 -63.5t-64 -25.5q-37 0 -63 25.5t-26 63.5t26 63.5t63 25.5q38 0 64 -25.5t26 -63.5zM286 618q0 -38 -25.5 -63.5t-63.5 -25.5t-63.5 25.5t-25.5 63.5t25.5 63.5t63.5 25.5t63.5 -25.5t25.5 -63.5zM376 0v54q-11 -12 -26 -23.5t-35.5 -21t-46.5 -15.5
t-58 -6q-42 0 -72.5 12t-50 32t-28.5 47.5t-9 58.5v345h180v-268q0 -37 18.5 -52.5t51.5 -15.5q30 0 47.5 12.5t28.5 25.5v298h180v-483h-180z" />
    <glyph glyph-name="ugrave" unicode="&#xf9;" horiz-adv-x="606" 
d="M376 0v54q-11 -12 -26 -23.5t-35.5 -21t-46.5 -15.5t-58 -6q-42 0 -72.5 12t-50 32t-28.5 47.5t-9 58.5v345h180v-268q0 -37 18.5 -52.5t51.5 -15.5q30 0 47.5 12.5t28.5 25.5v298h180v-483h-180zM252 556l-155 144h155l120 -144h-120z" />
    <glyph glyph-name="uhungarumlaut" unicode="&#x171;" horiz-adv-x="606" 
d="M376 0v54q-11 -12 -26 -23.5t-35.5 -21t-46.5 -15.5t-58 -6q-42 0 -72.5 12t-50 32t-28.5 47.5t-9 58.5v345h180v-268q0 -37 18.5 -52.5t51.5 -15.5q30 0 47.5 12.5t28.5 25.5v298h180v-483h-180zM267 556h-100l80 144h135zM423 556h-100l80 144h135z" />
    <glyph glyph-name="umacron" unicode="&#x16b;" horiz-adv-x="606" 
d="M376 0v54q-11 -12 -26 -23.5t-35.5 -21t-46.5 -15.5t-58 -6q-42 0 -72.5 12t-50 32t-28.5 47.5t-9 58.5v345h180v-268q0 -37 18.5 -52.5t51.5 -15.5q30 0 47.5 12.5t28.5 25.5v298h180v-483h-180zM121 551v97h363v-97h-363z" />
    <glyph glyph-name="uogonek" unicode="&#x173;" horiz-adv-x="606" 
d="M556 0q-37 -19 -51 -40.5t-14 -43.5q0 -20 10 -27t19 -7q14 0 22 8.5t13 19.5l66 -43q-17 -25 -41.5 -39t-59.5 -14q-21 0 -41 5.5t-35.5 16.5t-24.5 29t-9 43q0 53 39 92h-73v54q-11 -12 -26 -23.5t-35.5 -21t-46.5 -15.5t-58 -6q-42 0 -72.5 12t-50 32t-28.5 47.5
t-9 58.5v345h180v-268q0 -37 18.5 -52.5t51.5 -15.5q30 0 47.5 12.5t28.5 25.5v298h180v-483v0z" />
    <glyph glyph-name="uring" unicode="&#x16f;" horiz-adv-x="606" 
d="M304 519q-23 0 -43.5 9t-35.5 24t-24 35.5t-9 43.5t9 43.5t24 35.5t35.5 24t43.5 9t43 -9t35 -24t23.5 -35.5t8.5 -43.5t-8.5 -43.5t-23.5 -35.5t-35 -24t-43 -9zM304 596q14 0 24 10.5t10 24.5t-10 24.5t-24 10.5t-24.5 -10.5t-10.5 -24.5t10.5 -24.5t24.5 -10.5zM376 0
v54q-11 -12 -26 -23.5t-35.5 -21t-46.5 -15.5t-58 -6q-42 0 -72.5 12t-50 32t-28.5 47.5t-9 58.5v345h180v-268q0 -37 18.5 -52.5t51.5 -15.5q30 0 47.5 12.5t28.5 25.5v298h180v-483h-180z" />
    <glyph glyph-name="utilde" unicode="&#x169;" horiz-adv-x="606" 
d="M376 0v54q-11 -12 -26 -23.5t-35.5 -21t-46.5 -15.5t-58 -6q-42 0 -72.5 12t-50 32t-28.5 47.5t-9 58.5v345h180v-268q0 -37 18.5 -52.5t51.5 -15.5q30 0 47.5 12.5t28.5 25.5v298h180v-483h-180zM356 554q-23 0 -39.5 6.5t-28.5 15t-22 15t-20 6.5t-17 -9t-7 -28h-89
q0 69 30 101.5t88 32.5q23 0 39.5 -6.5t28.5 -15t22 -15t20 -6.5t17 9t7 28h89q0 -69 -30 -101.5t-88 -32.5z" />
    <glyph glyph-name="uni1EE5" unicode="&#x1ee5;" horiz-adv-x="606" 
d="M376 0v54q-11 -12 -26 -23.5t-35.5 -21t-46.5 -15.5t-58 -6q-42 0 -72.5 12t-50 32t-28.5 47.5t-9 58.5v345h180v-268q0 -37 18.5 -52.5t51.5 -15.5q30 0 47.5 12.5t28.5 25.5v298h180v-483h-180zM305 -208q-37 0 -63 26t-26 63t26 63t63 26q18 0 34 -7t28 -19t19 -28.5
t7 -34.5t-7 -34.5t-19 -28.5t-28 -19t-34 -7z" />
    <glyph glyph-name="uhorn" unicode="&#x1b0;" horiz-adv-x="606" 
d="M376 0v54q-11 -12 -26 -23.5t-35.5 -21t-46.5 -15.5t-58 -6q-42 0 -72.5 12t-50 32t-28.5 47.5t-9 58.5v345h180v-268q0 -37 18.5 -52.5t51.5 -15.5q30 0 47.5 12.5t28.5 25.5v298h163q12 13 18 29q-5 -3 -17 -3q-24 0 -40.5 16.5t-16.5 44.5q0 29 20 49t48 20
q30 0 53 -22t23 -63q0 -34 -17 -71t-54 -66v-417h-180z" />
    <glyph glyph-name="uni1EE7" unicode="&#x1ee7;" horiz-adv-x="606" 
d="M376 0v54q-11 -12 -26 -23.5t-35.5 -21t-46.5 -15.5t-58 -6q-42 0 -72.5 12t-50 32t-28.5 47.5t-9 58.5v345h180v-268q0 -37 18.5 -52.5t51.5 -15.5q30 0 47.5 12.5t28.5 25.5v298h180v-483h-180zM216 593q11 31 34.5 44.5t51.5 13.5q35 0 61.5 -17.5t26.5 -57.5
q0 -14 -3.5 -25.5t-8.5 -22.5h-70q17 18 17 44q0 14 -7.5 19.5t-15.5 5.5q-11 0 -17.5 -7t-10.5 -16z" />
    <glyph glyph-name="uni1EE9" unicode="&#x1ee9;" horiz-adv-x="606" 
d="M353 556h-120l120 144h155zM376 0v54q-11 -12 -26 -23.5t-35.5 -21t-46.5 -15.5t-58 -6q-42 0 -72.5 12t-50 32t-28.5 47.5t-9 58.5v345h180v-268q0 -37 18.5 -52.5t51.5 -15.5q30 0 47.5 12.5t28.5 25.5v298h163q12 13 18 29q-5 -3 -17 -3q-24 0 -40.5 16.5t-16.5 44.5
q0 29 20 49t48 20q30 0 53 -22t23 -63q0 -34 -17 -71t-54 -66v-417h-180z" />
    <glyph glyph-name="uni1EEB" unicode="&#x1eeb;" horiz-adv-x="606" 
d="M252 556l-155 144h155l120 -144h-120zM376 0v54q-11 -12 -26 -23.5t-35.5 -21t-46.5 -15.5t-58 -6q-42 0 -72.5 12t-50 32t-28.5 47.5t-9 58.5v345h180v-268q0 -37 18.5 -52.5t51.5 -15.5q30 0 47.5 12.5t28.5 25.5v298h163q12 13 18 29q-5 -3 -17 -3q-24 0 -40.5 16.5
t-16.5 44.5q0 29 20 49t48 20q30 0 53 -22t23 -63q0 -34 -17 -71t-54 -66v-417h-180z" />
    <glyph glyph-name="uni1EED" unicode="&#x1eed;" horiz-adv-x="606" 
d="M216 593q11 31 34.5 44.5t51.5 13.5q35 0 61.5 -17.5t26.5 -57.5q0 -14 -3.5 -25.5t-8.5 -22.5h-70q17 18 17 44q0 14 -7.5 19.5t-15.5 5.5q-11 0 -17.5 -7t-10.5 -16zM376 0v54q-11 -12 -26 -23.5t-35.5 -21t-46.5 -15.5t-58 -6q-42 0 -72.5 12t-50 32t-28.5 47.5
t-9 58.5v345h180v-268q0 -37 18.5 -52.5t51.5 -15.5q30 0 47.5 12.5t28.5 25.5v298h163q12 13 18 29q-5 -3 -17 -3q-24 0 -40.5 16.5t-16.5 44.5q0 29 20 49t48 20q30 0 53 -22t23 -63q0 -34 -17 -71t-54 -66v-417h-180z" />
    <glyph glyph-name="uni1EEF" unicode="&#x1eef;" horiz-adv-x="606" 
d="M376 0v54q-11 -12 -26 -23.5t-35.5 -21t-46.5 -15.5t-58 -6q-42 0 -72.5 12t-50 32t-28.5 47.5t-9 58.5v345h180v-268q0 -37 18.5 -52.5t51.5 -15.5q30 0 47.5 12.5t28.5 25.5v298h163q12 13 18 29q-5 -3 -17 -3q-24 0 -40.5 16.5t-16.5 44.5q0 29 20 49t48 20
q30 0 53 -22t23 -63q0 -34 -17 -71t-54 -66v-417h-180zM355 554q-23 0 -39.5 6.5t-28.5 15t-22 15t-20 6.5t-17 -9t-7 -28h-89q0 69 30 101.5t88 32.5q23 0 39.5 -6.5t28.5 -15t22 -15t20 -6.5t17 9t7 28h89q0 -69 -30 -101.5t-88 -32.5z" />
    <glyph glyph-name="uni1EF1" unicode="&#x1ef1;" horiz-adv-x="606" 
d="M305 -208q-37 0 -63 26t-26 63t26 63t63 26q18 0 34 -7t28 -19t19 -28.5t7 -34.5t-7 -34.5t-19 -28.5t-28 -19t-34 -7zM376 0v54q-11 -12 -26 -23.5t-35.5 -21t-46.5 -15.5t-58 -6q-42 0 -72.5 12t-50 32t-28.5 47.5t-9 58.5v345h180v-268q0 -37 18.5 -52.5t51.5 -15.5
q30 0 47.5 12.5t28.5 25.5v298h163q12 13 18 29q-5 -3 -17 -3q-24 0 -40.5 16.5t-16.5 44.5q0 29 20 49t48 20q30 0 53 -22t23 -63q0 -34 -17 -71t-54 -66v-417h-180z" />
    <glyph glyph-name="wacute" unicode="&#x1e83;" horiz-adv-x="805" 
d="M452 556h-120l120 144h155zM481 0l-79 270l-78 -270h-196l-140 483h185l64 -266l85 266h161l84 -266l64 266h186l-140 -483h-196z" />
    <glyph glyph-name="wcircumflex" unicode="&#x175;" horiz-adv-x="805" 
d="M465 556l-64 73l-61 -73h-105l88 144h156l91 -144h-105zM481 0l-79 270l-78 -270h-196l-140 483h185l64 -266l85 266h161l84 -266l64 266h186l-140 -483h-196z" />
    <glyph glyph-name="wdieresis" unicode="&#x1e85;" horiz-adv-x="805" 
d="M600 618q0 -38 -26 -63.5t-64 -25.5q-37 0 -63 25.5t-26 63.5t26 63.5t63 25.5q38 0 64 -25.5t26 -63.5zM383 618q0 -38 -25.5 -63.5t-63.5 -25.5t-63.5 25.5t-25.5 63.5t25.5 63.5t63.5 25.5t63.5 -25.5t25.5 -63.5zM481 0l-79 270l-78 -270h-196l-140 483h185l64 -266
l85 266h161l84 -266l64 266h186l-140 -483h-196z" />
    <glyph glyph-name="wgrave" unicode="&#x1e81;" horiz-adv-x="805" 
d="M481 0l-79 270l-78 -270h-196l-140 483h185l64 -266l85 266h161l84 -266l64 266h186l-140 -483h-196zM349 556l-155 144h155l120 -144h-120z" />
    <glyph glyph-name="yacute" unicode="&#xfd;" horiz-adv-x="535" 
d="M70 -28q8 -5 18.5 -7t19.5 -2q54 0 63 19l4 10l-190 491h190l92 -276l93 276h190l-210 -543q-16 -42 -39 -68t-51.5 -41t-62.5 -20.5t-72 -6.5q-5 0 -14 0.5t-19.5 1.5t-20.5 2.5t-16 3.5zM317 556h-120l120 144h155z" />
    <glyph glyph-name="ycircumflex" unicode="&#x177;" horiz-adv-x="535" 
d="M70 -28q8 -5 18.5 -7t19.5 -2q54 0 63 19l4 10l-190 491h190l92 -276l93 276h190l-210 -543q-16 -42 -39 -68t-51.5 -41t-62.5 -20.5t-72 -6.5q-5 0 -14 0.5t-19.5 1.5t-20.5 2.5t-16 3.5zM330 556l-64 73l-61 -73h-105l88 144h156l91 -144h-105z" />
    <glyph glyph-name="ydieresis" unicode="&#xff;" horiz-adv-x="535" 
d="M70 -28q8 -5 18.5 -7t19.5 -2q54 0 63 19l4 10l-190 491h190l92 -276l93 276h190l-210 -543q-16 -42 -39 -68t-51.5 -41t-62.5 -20.5t-72 -6.5q-5 0 -14 0.5t-19.5 1.5t-20.5 2.5t-16 3.5zM465 618q0 -38 -26 -63.5t-64 -25.5q-37 0 -63 25.5t-26 63.5t26 63.5t63 25.5
q38 0 64 -25.5t26 -63.5zM248 618q0 -38 -25.5 -63.5t-63.5 -25.5t-63.5 25.5t-25.5 63.5t25.5 63.5t63.5 25.5t63.5 -25.5t25.5 -63.5z" />
    <glyph glyph-name="ygrave" unicode="&#x1ef3;" horiz-adv-x="535" 
d="M70 -28q8 -5 18.5 -7t19.5 -2q54 0 63 19l4 10l-190 491h190l92 -276l93 276h190l-210 -543q-16 -42 -39 -68t-51.5 -41t-62.5 -20.5t-72 -6.5q-5 0 -14 0.5t-19.5 1.5t-20.5 2.5t-16 3.5zM214 556l-155 144h155l120 -144h-120z" />
    <glyph glyph-name="yacute.alt1" horiz-adv-x="606" 
d="M352 556h-120l120 144h155zM264 -196q-63 0 -117.5 17t-102.5 55l76 128q26 -29 67.5 -41t76.5 -12q54 0 83 25.5t29 75.5v34q-11 -12 -26 -23.5t-35.5 -21t-46.5 -15.5t-58 -6q-42 0 -72.5 12t-50 32t-28.5 47.5t-9 58.5v313h180v-236q0 -37 18.5 -52.5t51.5 -15.5
q30 0 47.5 12.5t28.5 25.5v266h180v-412q0 -62 -19 -111.5t-56.5 -84t-92 -53t-124.5 -18.5z" />
    <glyph glyph-name="ycircumflex.alt1" horiz-adv-x="606" 
d="M368 556l-64 73l-61 -73h-105l88 144h156l91 -144h-105zM264 -196q-63 0 -117.5 17t-102.5 55l76 128q26 -29 67.5 -41t76.5 -12q54 0 83 25.5t29 75.5v34q-11 -12 -26 -23.5t-35.5 -21t-46.5 -15.5t-58 -6q-42 0 -72.5 12t-50 32t-28.5 47.5t-9 58.5v313h180v-236
q0 -37 18.5 -52.5t51.5 -15.5q30 0 47.5 12.5t28.5 25.5v266h180v-412q0 -62 -19 -111.5t-56.5 -84t-92 -53t-124.5 -18.5z" />
    <glyph glyph-name="ydieresis.alt1" horiz-adv-x="606" 
d="M499 618q0 -38 -26 -63.5t-64 -25.5q-37 0 -63 25.5t-26 63.5t26 63.5t63 25.5q38 0 64 -25.5t26 -63.5zM282 618q0 -38 -25.5 -63.5t-63.5 -25.5t-63.5 25.5t-25.5 63.5t25.5 63.5t63.5 25.5t63.5 -25.5t25.5 -63.5zM264 -196q-63 0 -117.5 17t-102.5 55l76 128
q26 -29 67.5 -41t76.5 -12q54 0 83 25.5t29 75.5v34q-11 -12 -26 -23.5t-35.5 -21t-46.5 -15.5t-58 -6q-42 0 -72.5 12t-50 32t-28.5 47.5t-9 58.5v313h180v-236q0 -37 18.5 -52.5t51.5 -15.5q30 0 47.5 12.5t28.5 25.5v266h180v-412q0 -62 -19 -111.5t-56.5 -84t-92 -53
t-124.5 -18.5z" />
    <glyph glyph-name="ygrave.alt1" horiz-adv-x="606" 
d="M264 -196q-63 0 -117.5 17t-102.5 55l76 128q26 -29 67.5 -41t76.5 -12q54 0 83 25.5t29 75.5v34q-11 -12 -26 -23.5t-35.5 -21t-46.5 -15.5t-58 -6q-42 0 -72.5 12t-50 32t-28.5 47.5t-9 58.5v313h180v-236q0 -37 18.5 -52.5t51.5 -15.5q30 0 47.5 12.5t28.5 25.5v266
h180v-412q0 -62 -19 -111.5t-56.5 -84t-92 -53t-124.5 -18.5zM250 556l-155 144h155l120 -144h-120z" />
    <glyph glyph-name="zacute" unicode="&#x17a;" horiz-adv-x="486" 
d="M294 556h-120l120 144h155zM33 0v132l170 195h-170v156h416v-126l-174 -201h178v-156h-420z" />
    <glyph glyph-name="zcaron" unicode="&#x17e;" horiz-adv-x="486" 
d="M161 556l-91 144h105l64 -73l61 73h105l-88 -144h-156zM33 0v132l170 195h-170v156h416v-126l-174 -201h178v-156h-420z" />
    <glyph glyph-name="zdotaccent" unicode="&#x17c;" horiz-adv-x="486" 
d="M33 0v132l170 195h-170v156h416v-126l-174 -201h178v-156h-420zM241 530q-37 0 -63 26t-26 63t26 63t63 26q18 0 34 -7t28 -19t19 -28.5t7 -34.5t-7 -34.5t-19 -28.5t-28 -19t-34 -7z" />
    <glyph glyph-name="eth" unicode="&#xf0;" horiz-adv-x="577" 
d="M52 518l97 42l-47 28l96 143q38 -23 71 -45t63 -45l99 43l33 -75l-61 -27q78 -73 117.5 -151.5t39.5 -172.5q0 -62 -18.5 -111.5t-53 -85t-85.5 -54.5t-115 -19q-61 0 -111 16.5t-85.5 46.5t-55 71.5t-19.5 92.5t16.5 92.5t45 71.5t66.5 46t80 16q57 0 96.5 -25.5
t65.5 -70.5q-13 41 -56 82t-98 79l-149 -66zM288 147q42 0 64.5 19t22.5 49t-22.5 49t-64.5 19t-64 -19t-22 -49t22 -49t64 -19z" />
    <glyph glyph-name="thorn" unicode="&#xfe;" horiz-adv-x="595" 
d="M366 -12q-38 0 -72 14t-64 49v-235h-180v851h180v-235q29 35 63.5 49t72.5 14q45 0 83.5 -16.5t67 -48.5t45 -79t16.5 -109t-16.5 -109.5t-45 -79.5t-67 -48.5t-83.5 -16.5zM304 147q36 0 63 24.5t27 70.5q0 45 -27 69.5t-63 24.5q-17 0 -39 -8.5t-35 -24.5v-123
q12 -15 34.5 -24t39.5 -9z" />
    <glyph glyph-name="Aacute.smcp" unicode="&#xf7e1;" horiz-adv-x="621" 
d="M360 606h-120l120 144h155zM425 550l213 -550h-208l-20 61h-198l-20 -61h-209l214 550h228zM311 365l-47 -143h94z" />
    <glyph glyph-name="Abreve.smcp" unicode="&#xf66d;" horiz-adv-x="621" 
d="M425 550l213 -550h-208l-20 61h-198l-20 -61h-209l214 550h228zM311 365l-47 -143h94zM487 662q-30 -41 -75.5 -64.5t-99.5 -23.5t-99.5 23.5t-76.5 64.5l76 62q17 -23 42 -38t58 -15q63 0 100 53l75 -62v0z" />
    <glyph glyph-name="Acircumflex.smcp" unicode="&#xf7e2;" horiz-adv-x="621" 
d="M374 606l-64 73l-61 -73h-105l88 144h156l91 -144h-105zM425 550l213 -550h-208l-20 61h-198l-20 -61h-209l214 550h228zM311 365l-47 -143h94z" />
    <glyph glyph-name="Adieresis.smcp" unicode="&#xf7e4;" horiz-adv-x="621" 
d="M509 688q0 -38 -26 -63.5t-64 -25.5q-37 0 -63 25.5t-26 63.5t26 63.5t63 25.5q38 0 64 -25.5t26 -63.5zM292 688q0 -38 -25.5 -63.5t-63.5 -25.5t-63.5 25.5t-25.5 63.5t25.5 63.5t63.5 25.5t63.5 -25.5t25.5 -63.5zM425 550l213 -550h-208l-20 61h-198l-20 -61h-209
l214 550h228zM311 365l-47 -143h94z" />
    <glyph glyph-name="Agrave.smcp" unicode="&#xf7e0;" horiz-adv-x="621" 
d="M425 550l213 -550h-208l-20 61h-198l-20 -61h-209l214 550h228zM311 365l-47 -143h94zM259 606l-155 144h155l120 -144h-120z" />
    <glyph glyph-name="Amacron.smcp" unicode="&#xf66e;" horiz-adv-x="621" 
d="M130 601v97h363v-97h-363zM425 550l213 -550h-208l-20 61h-198l-20 -61h-209l214 550h228zM311 365l-47 -143h94z" />
    <glyph glyph-name="Aogonek.smcp" unicode="&#xf66f;" horiz-adv-x="621" 
d="M425 550l213 -550q-37 -19 -51 -40.5t-14 -43.5q0 -20 10 -27t19 -7q14 0 22 8.5t13 19.5l66 -43q-17 -25 -41.5 -39t-59.5 -14q-21 0 -41 5.5t-35.5 16.5t-24.5 29t-9 43q0 53 39 92h-101l-20 61h-198l-20 -61h-209l214 550h228zM311 365l-47 -143h94z" />
    <glyph glyph-name="Aring.smcp" unicode="&#xf7e5;" horiz-adv-x="621" 
d="M312 569q-23 0 -43.5 9t-35.5 24t-24 35.5t-9 43.5t9 43.5t24 35.5t35.5 24t43.5 9t43 -9t35 -24t23.5 -35.5t8.5 -43.5t-8.5 -43.5t-23.5 -35.5t-35 -24t-43 -9zM312 646q14 0 24 10.5t10 24.5t-10 24.5t-24 10.5t-24.5 -10.5t-10.5 -24.5t10.5 -24.5t24.5 -10.5z
M425 550l213 -550h-208l-20 61h-198l-20 -61h-209l214 550h228zM311 365l-47 -143h94z" />
    <glyph glyph-name="Atilde.smcp" unicode="&#xf7e3;" horiz-adv-x="621" 
d="M425 550l213 -550h-208l-20 61h-198l-20 -61h-209l214 550h228zM311 365l-47 -143h94zM364 604q-23 0 -39.5 6.5t-28.5 15t-22 15t-20 6.5t-17 -9t-7 -28h-89q0 69 30 101.5t88 32.5q23 0 39.5 -6.5t28.5 -15t22 -15t20 -6.5t17 9t7 28h89q0 -69 -30 -101.5t-88 -32.5z
" />
    <glyph glyph-name="uni1EA0.smcp" horiz-adv-x="621" 
d="M425 550l213 -550h-208l-20 61h-198l-20 -61h-209l214 550h228zM311 365l-47 -143h94zM312 -208q-37 0 -63 26t-26 63t26 63t63 26q18 0 34 -7t28 -19t19 -28.5t7 -34.5t-7 -34.5t-19 -28.5t-28 -19t-34 -7z" />
    <glyph glyph-name="uni1EA2.smcp" horiz-adv-x="621" 
d="M425 550l213 -550h-208l-20 61h-198l-20 -61h-209l214 550h228zM311 365l-47 -143h94zM224 646q11 31 34.5 44.5t51.5 13.5q35 0 61.5 -17.5t26.5 -57.5q0 -14 -3.5 -25.5t-8.5 -22.5h-70q17 18 17 44q0 14 -7.5 19.5t-15.5 5.5q-11 0 -17.5 -7t-10.5 -16z" />
    <glyph glyph-name="uni1EA4.smcp" horiz-adv-x="621" 
d="M374 606l-64 73l-61 -73h-105l88 144h156l91 -144h-105zM557 676h-120l120 144h155zM425 550l213 -550h-208l-20 61h-198l-20 -61h-209l214 550h228zM311 365l-47 -143h94z" />
    <glyph glyph-name="uni1EAC.smcp" horiz-adv-x="621" 
d="M374 606l-64 73l-61 -73h-105l88 144h156l91 -144h-105zM425 550l213 -550h-208l-20 61h-198l-20 -61h-209l214 550h228zM311 365l-47 -143h94zM311 -208q-37 0 -63 26t-26 63t26 63t63 26q18 0 34 -7t28 -19t19 -28.5t7 -34.5t-7 -34.5t-19 -28.5t-28 -19t-34 -7z" />
    <glyph glyph-name="uni1EA6.smcp" horiz-adv-x="621" 
d="M375 606l-64 73l-61 -73h-105l88 144h156l91 -144h-105zM425 550l213 -550h-208l-20 61h-198l-20 -61h-209l214 550h228zM311 365l-47 -143h94zM62 676l-155 144h155l120 -144h-120z" />
    <glyph glyph-name="uni1EA8.smcp" horiz-adv-x="621" 
d="M373 606l-64 73l-61 -73h-105l88 144h156l91 -144h-105zM425 550l213 -550h-208l-20 61h-198l-20 -61h-209l214 550h228zM311 365l-47 -143h94zM342 782q11 31 34.5 44.5t51.5 13.5q35 0 61.5 -17.5t26.5 -57.5q0 -14 -3.5 -25.5t-8.5 -22.5h-70q17 18 17 44
q0 14 -7.5 19.5t-15.5 5.5q-11 0 -17.5 -7t-10.5 -16z" />
    <glyph glyph-name="uni1EAE.smcp" horiz-adv-x="621" 
d="M367 696h-120l120 144h155zM425 550l213 -550h-208l-20 61h-198l-20 -61h-209l214 550h228zM311 365l-47 -143h94zM486 649q-30 -41 -75.5 -64.5t-99.5 -23.5t-99.5 23.5t-76.5 64.5l76 62q17 -23 42 -38t58 -15q63 0 100 53l75 -62v0z" />
    <glyph glyph-name="uni1EAA.smcp" horiz-adv-x="621" 
d="M373 573l-64 73l-61 -73h-105l88 144h156l91 -144h-105zM425 550l213 -550h-208l-20 61h-198l-20 -61h-209l214 550h228zM311 365l-47 -143h94zM364 732q-23 0 -39.5 6.5t-28.5 15t-22 15t-20 6.5t-17 -9t-7 -28h-89q0 69 30 101.5t88 32.5q23 0 39.5 -6.5t28.5 -15
t22 -15t20 -6.5t17 9t7 28h89q0 -69 -30 -101.5t-88 -32.5z" />
    <glyph glyph-name="uni1EB0.smcp" horiz-adv-x="621" 
d="M425 550l213 -550h-208l-20 61h-198l-20 -61h-209l214 550h228zM311 365l-47 -143h94zM257 696l-155 144h155l120 -144h-120zM486 649q-30 -41 -75.5 -64.5t-99.5 -23.5t-99.5 23.5t-76.5 64.5l76 62q17 -23 42 -38t58 -15q63 0 100 53l75 -62v0z" />
    <glyph glyph-name="uni1EB2.smcp" horiz-adv-x="621" 
d="M425 550l213 -550h-208l-20 61h-198l-20 -61h-209l214 550h228zM311 365l-47 -143h94zM224 772q11 31 34.5 44.5t51.5 13.5q35 0 61.5 -17.5t26.5 -57.5q0 -14 -3.5 -25.5t-8.5 -22.5h-70q17 18 17 44q0 14 -7.5 19.5t-15.5 5.5q-11 0 -17.5 -7t-10.5 -16zM486 649
q-30 -41 -75.5 -64.5t-99.5 -23.5t-99.5 23.5t-76.5 64.5l76 62q17 -23 42 -38t58 -15q63 0 100 53l75 -62v0z" />
    <glyph glyph-name="uni1EB4.smcp" horiz-adv-x="621" 
d="M486 649q-30 -41 -75.5 -64.5t-99.5 -23.5t-99.5 23.5t-76.5 64.5l76 62q17 -23 42 -38t58 -15q63 0 100 53l75 -62v0zM425 550l213 -550h-208l-20 61h-198l-20 -61h-209l214 550h228zM311 365l-47 -143h94zM363 710q-23 0 -39.5 6.5t-28.5 15t-22 15t-20 6.5t-17 -9
t-7 -28h-89q0 69 30 101.5t88 32.5q23 0 39.5 -6.5t28.5 -15t22 -15t20 -6.5t17 9t7 28h89q0 -69 -30 -101.5t-88 -32.5z" />
    <glyph glyph-name="uni1EB6.smcp" horiz-adv-x="621" 
d="M425 550l213 -550h-208l-20 61h-198l-20 -61h-209l214 550h228zM311 365l-47 -143h94zM311 -208q-37 0 -63 26t-26 63t26 63t63 26q18 0 34 -7t28 -19t19 -28.5t7 -34.5t-7 -34.5t-19 -28.5t-28 -19t-34 -7zM487 662q-30 -41 -75.5 -64.5t-99.5 -23.5t-99.5 23.5
t-76.5 64.5l76 62q17 -23 42 -38t58 -15q63 0 100 53l75 -62v0z" />
    <glyph glyph-name="AE.smcp" unicode="&#xf7e6;" horiz-adv-x="869" 
d="M389 0v61h-165l-33 -61h-209l333 550h522v-155h-262v-40h255v-155h-255v-45h262v-155h-448zM389 365l-78 -143h78v143z" />
    <glyph glyph-name="AEacute.smcp" unicode="&#xf670;" horiz-adv-x="869" 
d="M532 606h-120l120 144h155zM389 0v61h-165l-33 -61h-209l333 550h522v-155h-262v-40h255v-155h-255v-45h262v-155h-448zM389 365l-78 -143h78v143z" />
    <glyph glyph-name="uni1E02.smcp" horiz-adv-x="618" 
d="M50 0v550h355q46 0 79 -13t54.5 -33t32 -45.5t10.5 -49.5q0 -49 -26.5 -81.5t-67.5 -43.5q47 -10 76.5 -46t29.5 -88q0 -29 -11 -56t-32.5 -48t-54.5 -33.5t-78 -12.5h-367zM375 151q13 0 21 7.5t8 18.5t-8 18.5t-21 7.5h-138v-52h138zM368 353q10 0 17 6.5t7 16.5
q0 9 -6.5 16t-17.5 7h-131v-46h131zM319 580q-37 0 -63 26t-26 63t26 63t63 26q18 0 34 -7t28 -19t19 -28.5t7 -34.5t-7 -34.5t-19 -28.5t-28 -19t-34 -7z" />
    <glyph glyph-name="Cacute.smcp" unicode="&#xf671;" horiz-adv-x="588" 
d="M373 606h-120l120 144h155zM323 -12q-67 0 -123 21t-96.5 59t-63.5 91t-23 116q0 64 23 116.5t63.5 90.5t96.5 59t123 21q52 0 93.5 -14t73 -37.5t54 -53.5t35.5 -62l-157 -71q-11 31 -37 53t-62 22q-27 0 -48.5 -9.5t-37 -26.5t-24 -39.5t-8.5 -48.5t8.5 -48.5t24 -39.5
t37 -26.5t48.5 -9.5q36 0 62 21.5t37 52.5l157 -69q-13 -32 -35 -62t-54 -53.5t-74 -38t-93 -14.5z" />
    <glyph glyph-name="Ccaron.smcp" unicode="&#xf672;" horiz-adv-x="588" 
d="M248 606l-91 144h105l64 -73l61 73h105l-88 -144h-156zM323 -12q-67 0 -123 21t-96.5 59t-63.5 91t-23 116q0 64 23 116.5t63.5 90.5t96.5 59t123 21q52 0 93.5 -14t73 -37.5t54 -53.5t35.5 -62l-157 -71q-11 31 -37 53t-62 22q-27 0 -48.5 -9.5t-37 -26.5t-24 -39.5
t-8.5 -48.5t8.5 -48.5t24 -39.5t37 -26.5t48.5 -9.5q36 0 62 21.5t37 52.5l157 -69q-13 -32 -35 -62t-54 -53.5t-74 -38t-93 -14.5z" />
    <glyph glyph-name="Ccedilla.smcp" unicode="&#xf7e7;" horiz-adv-x="588" 
d="M319 -200q-40 0 -71 10t-48 24l31 64q20 -14 41 -22t42 -8q16 0 29 5.5t13 18.5q0 17 -21 17q-16 0 -26 -12l-59 34l22 61q-57 7 -103.5 30.5t-80.5 60.5t-52.5 86t-18.5 106q0 64 23 116.5t63.5 90.5t96.5 59t123 21q52 0 93.5 -14t73 -37.5t54 -53.5t35.5 -62l-157 -71
q-11 31 -37 53t-62 22q-27 0 -48.5 -9.5t-37 -26.5t-24 -39.5t-8.5 -48.5t8.5 -48.5t24 -39.5t37 -26.5t48.5 -9.5q36 0 62 21.5t37 52.5l157 -69q-12 -30 -32.5 -58t-49 -51t-65.5 -38t-82 -19l-15 -37q15 9 34 9q27 0 47.5 -20.5t20.5 -52.5q0 -43 -35 -66t-83 -23z" />
    <glyph glyph-name="Ccircumflex.smcp" unicode="&#xf673;" horiz-adv-x="588" 
d="M387 606l-64 73l-61 -73h-105l88 144h156l91 -144h-105zM323 -12q-67 0 -123 21t-96.5 59t-63.5 91t-23 116q0 64 23 116.5t63.5 90.5t96.5 59t123 21q52 0 93.5 -14t73 -37.5t54 -53.5t35.5 -62l-157 -71q-11 31 -37 53t-62 22q-27 0 -48.5 -9.5t-37 -26.5t-24 -39.5
t-8.5 -48.5t8.5 -48.5t24 -39.5t37 -26.5t48.5 -9.5q36 0 62 21.5t37 52.5l157 -69q-13 -32 -35 -62t-54 -53.5t-74 -38t-93 -14.5z" />
    <glyph glyph-name="Cdotaccent.smcp" unicode="&#xf674;" horiz-adv-x="588" 
d="M323 -12q-67 0 -123 21t-96.5 59t-63.5 91t-23 116q0 64 23 116.5t63.5 90.5t96.5 59t123 21q52 0 93.5 -14t73 -37.5t54 -53.5t35.5 -62l-157 -71q-11 31 -37 53t-62 22q-27 0 -48.5 -9.5t-37 -26.5t-24 -39.5t-8.5 -48.5t8.5 -48.5t24 -39.5t37 -26.5t48.5 -9.5
q36 0 62 21.5t37 52.5l157 -69q-13 -32 -35 -62t-54 -53.5t-74 -38t-93 -14.5zM324 580q-37 0 -63 26t-26 63t26 63t63 26q18 0 34 -7t28 -19t19 -28.5t7 -34.5t-7 -34.5t-19 -28.5t-28 -19t-34 -7z" />
    <glyph glyph-name="Dcaron.smcp" unicode="&#xf675;" horiz-adv-x="637" 
d="M242 606l-91 144h105l64 -73l61 73h105l-88 -144h-156zM50 0v550h263q69 0 125.5 -18t97 -53.5t62.5 -86.5t22 -117t-22 -117t-62.5 -86t-96.5 -53.5t-125 -18.5h-264zM313 161q31 0 53.5 9.5t37 25.5t21.5 36.5t7 42.5q0 24 -6 45t-19.5 36t-36.5 24t-56 9h-77v-228h76z
" />
    <glyph glyph-name="Dcroat.smcp" unicode="&#xf676;" horiz-adv-x="638" 
d="M51 0v212h-44v126h44v212h263q69 0 125.5 -18t97 -53.5t62.5 -86.5t22 -117t-22 -117t-62.5 -86t-96.5 -53.5t-125 -18.5h-264zM238 212v-51h76q31 0 53.5 9.5t37 25.5t21.5 36.5t7 42.5q0 24 -6 45t-19.5 36t-36.5 24t-56 9h-77v-51h93v-126h-93z" />
    <glyph glyph-name="uni1E0A.smcp" horiz-adv-x="637" 
d="M50 0v550h263q69 0 125.5 -18t97 -53.5t62.5 -86.5t22 -117t-22 -117t-62.5 -86t-96.5 -53.5t-125 -18.5h-264zM313 161q31 0 53.5 9.5t37 25.5t21.5 36.5t7 42.5q0 24 -6 45t-19.5 36t-36.5 24t-56 9h-77v-228h76zM333 580q-37 0 -63 26t-26 63t26 63t63 26q18 0 34 -7
t28 -19t19 -28.5t7 -34.5t-7 -34.5t-19 -28.5t-28 -19t-34 -7z" />
    <glyph glyph-name="Eacute.smcp" unicode="&#xf7e9;" horiz-adv-x="530" 
d="M326 606h-120l120 144h155zM50 0v550h448v-155h-261v-40h255v-154h-255v-46h261v-155h-448z" />
    <glyph glyph-name="Ebreve.smcp" unicode="&#xf677;" horiz-adv-x="530" 
d="M50 0v550h448v-155h-261v-40h255v-154h-255v-46h261v-155h-448zM451 662q-30 -41 -75.5 -64.5t-99.5 -23.5t-99.5 23.5t-76.5 64.5l76 62q17 -23 42 -38t58 -15q63 0 100 53l75 -62v0z" />
    <glyph glyph-name="Ecaron.smcp" unicode="&#xf678;" horiz-adv-x="530" 
d="M198 606l-91 144h105l64 -73l61 73h105l-88 -144h-156zM50 0v550h448v-155h-261v-40h255v-154h-255v-46h261v-155h-448z" />
    <glyph glyph-name="Ecircumflex.smcp" unicode="&#xf7ea;" horiz-adv-x="530" 
d="M339 606l-64 73l-61 -73h-105l88 144h156l91 -144h-105zM50 0v550h448v-155h-261v-40h255v-154h-255v-46h261v-155h-448z" />
    <glyph glyph-name="Edieresis.smcp" unicode="&#xf7eb;" horiz-adv-x="530" 
d="M473 668q0 -38 -26 -63.5t-64 -25.5q-37 0 -63 25.5t-26 63.5t26 63.5t63 25.5q38 0 64 -25.5t26 -63.5zM256 668q0 -38 -25.5 -63.5t-63.5 -25.5t-63.5 25.5t-25.5 63.5t25.5 63.5t63.5 25.5t63.5 -25.5t25.5 -63.5zM50 0v550h448v-155h-261v-40h255v-154h-255v-46h261
v-155h-448z" />
    <glyph glyph-name="Edotaccent.smcp" unicode="&#xf679;" horiz-adv-x="530" 
d="M50 0v550h448v-155h-261v-40h255v-154h-255v-46h261v-155h-448zM280 580q-37 0 -63 26t-26 63t26 63t63 26q18 0 34 -7t28 -19t19 -28.5t7 -34.5t-7 -34.5t-19 -28.5t-28 -19t-34 -7z" />
    <glyph glyph-name="Egrave.smcp" unicode="&#xf7e8;" horiz-adv-x="530" 
d="M50 0v550h448v-155h-261v-40h255v-154h-255v-46h261v-155h-448zM219 606l-155 144h155l120 -144h-120z" />
    <glyph glyph-name="Emacron.smcp" unicode="&#xf67a;" horiz-adv-x="530" 
d="M50 0v550h448v-155h-261v-40h255v-154h-255v-46h261v-155h-448zM94 601v97h363v-97h-363z" />
    <glyph glyph-name="Eogonek.smcp" unicode="&#xf67c;" horiz-adv-x="530" 
d="M563 -133q-17 -25 -41.5 -39t-59.5 -14q-21 0 -41 5.5t-35.5 16.5t-24.5 29t-9 43q0 53 39 92h-341v550h448v-155h-261v-40h255v-154h-255v-46h261v-155q-37 -19 -51 -40.5t-14 -43.5q0 -20 10 -27t19 -7q14 0 22 8.5t13 19.5z" />
    <glyph glyph-name="uni1EB8.smcp" horiz-adv-x="530" 
d="M50 0v550h448v-155h-261v-40h255v-154h-255v-46h261v-155h-448zM276 -208q-37 0 -63 26t-26 63t26 63t63 26q18 0 34 -7t28 -19t19 -28.5t7 -34.5t-7 -34.5t-19 -28.5t-28 -19t-34 -7z" />
    <glyph glyph-name="uni1EBA.smcp" horiz-adv-x="530" 
d="M50 0v550h448v-155h-261v-40h255v-154h-255v-46h261v-155h-448zM189 646q11 31 34.5 44.5t51.5 13.5q35 0 61.5 -17.5t26.5 -57.5q0 -14 -3.5 -25.5t-8.5 -22.5h-70q17 18 17 44q0 14 -7.5 19.5t-15.5 5.5q-11 0 -17.5 -7t-10.5 -16z" />
    <glyph glyph-name="uni1EBC.smcp" horiz-adv-x="530" 
d="M50 0v550h448v-155h-261v-40h255v-154h-255v-46h261v-155h-448zM329 604q-23 0 -39.5 6.5t-28.5 15t-22 15t-20 6.5t-17 -9t-7 -28h-89q0 69 30 101.5t88 32.5q23 0 39.5 -6.5t28.5 -15t22 -15t20 -6.5t17 9t7 28h89q0 -69 -30 -101.5t-88 -32.5z" />
    <glyph glyph-name="uni1EBE.smcp" horiz-adv-x="530" 
d="M339 606l-64 73l-61 -73h-105l88 144h156l91 -144h-105zM522 676h-120l120 144h155zM50 0v550h448v-155h-261v-40h255v-154h-255v-46h261v-155h-448z" />
    <glyph glyph-name="uni1EC0.smcp" horiz-adv-x="530" 
d="M335 606l-64 73l-61 -73h-105l88 144h156l91 -144h-105zM50 0v550h448v-155h-261v-40h255v-154h-255v-46h261v-155h-448zM22 676l-155 144h155l120 -144h-120z" />
    <glyph glyph-name="uni1EC2.smcp" horiz-adv-x="530" 
d="M341 606l-64 73l-61 -73h-105l88 144h156l91 -144h-105zM50 0v550h448v-155h-261v-40h255v-154h-255v-46h261v-155h-448zM310 782q11 31 34.5 44.5t51.5 13.5q35 0 61.5 -17.5t26.5 -57.5q0 -14 -3.5 -25.5t-8.5 -22.5h-70q17 18 17 44q0 14 -7.5 19.5t-15.5 5.5
q-11 0 -17.5 -7t-10.5 -16z" />
    <glyph glyph-name="uni1EC4.smcp" horiz-adv-x="530" 
d="M338 573l-64 73l-61 -73h-105l88 144h156l91 -144h-105zM50 0v550h448v-155h-261v-40h255v-154h-255v-46h261v-155h-448zM329 732q-23 0 -39.5 6.5t-28.5 15t-22 15t-20 6.5t-17 -9t-7 -28h-89q0 69 30 101.5t88 32.5q23 0 39.5 -6.5t28.5 -15t22 -15t20 -6.5t17 9t7 28
h89q0 -69 -30 -101.5t-88 -32.5z" />
    <glyph glyph-name="uni1EC6.smcp" horiz-adv-x="530" 
d="M339 606l-64 73l-61 -73h-105l88 144h156l91 -144h-105zM50 0v550h448v-155h-261v-40h255v-154h-255v-46h261v-155h-448zM276 -208q-37 0 -63 26t-26 63t26 63t63 26q18 0 34 -7t28 -19t19 -28.5t7 -34.5t-7 -34.5t-19 -28.5t-28 -19t-34 -7z" />
    <glyph glyph-name="uni1E1E.smcp" horiz-adv-x="526" 
d="M281 580q-37 0 -63 26t-26 63t26 63t63 26q18 0 34 -7t28 -19t19 -28.5t7 -34.5t-7 -34.5t-19 -28.5t-28 -19t-34 -7zM50 0v550h448v-155h-261v-40h255v-155h-255v-200h-187z" />
    <glyph glyph-name="Gbreve.smcp" unicode="&#xf67d;" horiz-adv-x="606" 
d="M326 -12q-65 0 -121.5 20t-98 57.5t-65.5 90.5t-24 119t24 119.5t65.5 90.5t98 57t121.5 20q45 0 82.5 -11.5t67.5 -30.5t52 -43t36 -49l-154 -84q-11 23 -32 38.5t-52 15.5q-56 0 -88 -35t-32 -88q0 -52 32 -88t88 -36q23 0 40.5 6t28.5 15v17h-92v144h278v-232
q-49 -52 -112.5 -82.5t-142.5 -30.5zM504 662q-30 -41 -75.5 -64.5t-99.5 -23.5t-99.5 23.5t-76.5 64.5l76 62q17 -23 42 -38t58 -15q63 0 100 53l75 -62v0z" />
    <glyph glyph-name="Gcircumflex.smcp" unicode="&#xf67e;" horiz-adv-x="606" 
d="M326 -12q-65 0 -121.5 20t-98 57.5t-65.5 90.5t-24 119t24 119.5t65.5 90.5t98 57t121.5 20q45 0 82.5 -11.5t67.5 -30.5t52 -43t36 -49l-154 -84q-11 23 -32 38.5t-52 15.5q-56 0 -88 -35t-32 -88q0 -52 32 -88t88 -36q23 0 40.5 6t28.5 15v17h-92v144h278v-232
q-49 -52 -112.5 -82.5t-142.5 -30.5zM389 606l-64 73l-61 -73h-105l88 144h156l91 -144h-105z" />
    <glyph glyph-name="Gcommaaccent.smcp" unicode="&#xf67f;" horiz-adv-x="606" 
d="M326 -12q-65 0 -121.5 20t-98 57.5t-65.5 90.5t-24 119t24 119.5t65.5 90.5t98 57t121.5 20q45 0 82.5 -11.5t67.5 -30.5t52 -43t36 -49l-154 -84q-11 23 -32 38.5t-52 15.5q-56 0 -88 -35t-32 -88q0 -52 32 -88t88 -36q23 0 40.5 6t28.5 15v17h-92v144h278v-232
q-49 -52 -112.5 -82.5t-142.5 -30.5zM414 -139q0 -50 -25 -92t-69 -73l-55 44q9 4 19.5 12t20 18t17.5 21t11 22q-5 -3 -19 -3q-27 0 -46 18.5t-19 50.5q0 33 23 56t55 23q34 0 60.5 -25t26.5 -72z" />
    <glyph glyph-name="Gdotaccent.smcp" unicode="&#xf680;" horiz-adv-x="606" 
d="M326 -12q-65 0 -121.5 20t-98 57.5t-65.5 90.5t-24 119t24 119.5t65.5 90.5t98 57t121.5 20q45 0 82.5 -11.5t67.5 -30.5t52 -43t36 -49l-154 -84q-11 23 -32 38.5t-52 15.5q-56 0 -88 -35t-32 -88q0 -52 32 -88t88 -36q23 0 40.5 6t28.5 15v17h-92v144h278v-232
q-49 -52 -112.5 -82.5t-142.5 -30.5zM322 580q-37 0 -63 26t-26 63t26 63t63 26q18 0 34 -7t28 -19t19 -28.5t7 -34.5t-7 -34.5t-19 -28.5t-28 -19t-34 -7z" />
    <glyph glyph-name="Gbreve.smcp.alt1" horiz-adv-x="621" 
d="M316 -12q-62 0 -116 20t-95 57.5t-64.5 90.5t-23.5 119t24 119.5t65.5 90.5t98 57t121.5 20q45 0 82.5 -11.5t67.5 -30.5t52 -43t36 -49l-154 -83q-11 23 -32 38.5t-52 15.5q-56 0 -88 -35.5t-32 -88.5q0 -52 32 -88t88 -36q24 0 47.5 10.5t35.5 27.5h-106v144h305
q0 -91 -22 -156t-61 -107t-92.5 -62t-116.5 -20zM504 662q-30 -41 -75.5 -64.5t-99.5 -23.5t-99.5 23.5t-76.5 64.5l76 62q17 -23 42 -38t58 -15q63 0 100 53l75 -62v0z" />
    <glyph glyph-name="Gcommaaccent.smcp.alt1" horiz-adv-x="621" 
d="M414 -139q0 -50 -25 -92t-69 -73l-55 44q9 4 19.5 12t20 18t17.5 21t11 22q-5 -3 -19 -3q-27 0 -46 18.5t-19 50.5q0 33 23 56t55 23q34 0 60.5 -25t26.5 -72zM316 -12q-62 0 -116 20t-95 57.5t-64.5 90.5t-23.5 119t24 119.5t65.5 90.5t98 57t121.5 20q45 0 82.5 -11.5
t67.5 -30.5t52 -43t36 -49l-154 -83q-11 23 -32 38.5t-52 15.5q-56 0 -88 -35.5t-32 -88.5q0 -52 32 -88t88 -36q24 0 47.5 10.5t35.5 27.5h-106v144h305q0 -91 -22 -156t-61 -107t-92.5 -62t-116.5 -20z" />
    <glyph glyph-name="Gcircumflex.smcp.alt1" horiz-adv-x="621" 
d="M375 606l-64 73l-61 -73h-105l88 144h156l91 -144h-105zM316 -12q-62 0 -116 20t-95 57.5t-64.5 90.5t-23.5 119t24 119.5t65.5 90.5t98 57t121.5 20q45 0 82.5 -11.5t67.5 -30.5t52 -43t36 -49l-154 -83q-11 23 -32 38.5t-52 15.5q-56 0 -88 -35.5t-32 -88.5
q0 -52 32 -88t88 -36q24 0 47.5 10.5t35.5 27.5h-106v144h305q0 -91 -22 -156t-61 -107t-92.5 -62t-116.5 -20z" />
    </font>
</defs>
</svg>
